<svg width="333" height="327" viewBox="0 0 333 327" fill="none" xmlns="http://www.w3.org/2000/svg">
<path d="M104.28 20.055C104.28 20.055 47.6863 49.8136 19.4604 95.6653C-8.7655 141.517 -6.53222 200.487 27.7661 244.25C62.0644 288.013 127.621 282.302 182.512 310.049C237.402 337.795 297.962 332.077 323.918 273.315C349.873 214.553 310.734 192.564 304.012 124.576C297.29 56.5884 237.888 -42.9536 104.28 20.055Z" fill="#C2C2C2"/>
<path opacity="0.7" d="M104.28 20.055C104.28 20.055 47.6863 49.8136 19.4604 95.6653C-8.7655 141.517 -6.53222 200.487 27.7661 244.25C62.0644 288.013 127.621 282.302 182.512 310.049C237.402 337.795 297.962 332.077 323.918 273.315C349.873 214.553 310.734 192.564 304.012 124.576C297.29 56.5884 237.888 -42.9536 104.28 20.055Z" fill="white"/>
<path d="M329.856 172.47H326.756V171.923C326.754 170.43 326.178 168.998 325.155 167.942C324.131 166.885 322.744 166.291 321.296 166.289H319.197C317.749 166.289 316.359 166.882 315.334 167.939C314.309 168.995 313.732 170.428 313.73 171.923V172.47H310.638C310.224 172.469 309.815 172.553 309.433 172.715C309.051 172.878 308.704 173.117 308.412 173.419C308.12 173.72 307.888 174.078 307.731 174.472C307.573 174.866 307.492 175.289 307.493 175.715V190.498C307.493 191.359 307.824 192.184 308.414 192.793C309.004 193.401 309.804 193.743 310.638 193.743H329.856C330.689 193.741 331.488 193.399 332.077 192.79C332.666 192.182 332.998 191.358 333 190.498V175.715C333 174.855 332.669 174.029 332.079 173.421C331.49 172.812 330.69 172.47 329.856 172.47ZM315.224 171.923C315.226 170.837 315.645 169.796 316.39 169.029C317.135 168.262 318.145 167.831 319.197 167.831H321.296C322.348 167.831 323.357 168.262 324.101 169.029C324.844 169.797 325.262 170.838 325.262 171.923V172.47H315.224V171.923Z" fill="#035B96"/>
<path d="M325.971 181.596H322.013V177.519H318.472V181.596H314.514V185.257H318.472V189.335H322.013V185.257H325.971V181.596Z" fill="white"/>
<path d="M323.731 84.3744C323.115 84.3744 322.506 84.2492 321.937 84.0059C321.368 83.7625 320.852 83.4059 320.417 82.9563C319.982 82.5067 319.637 81.9731 319.402 81.3859C319.167 80.7987 319.047 80.1694 319.048 79.5342V66.4931C319.047 65.8578 319.167 65.2286 319.402 64.6414C319.637 64.0542 319.982 63.5205 320.417 63.071C320.852 62.6214 321.368 62.2648 321.937 62.0214C322.506 61.7781 323.115 61.6528 323.731 61.6528C324.347 61.6528 324.956 61.7781 325.525 62.0214C326.094 62.2648 326.61 62.6214 327.045 63.071C327.48 63.5205 327.825 64.0542 328.06 64.6414C328.295 65.2286 328.415 65.8578 328.414 66.4931V79.511C328.418 80.1483 328.3 80.78 328.066 81.3699C327.833 81.9597 327.488 82.4961 327.053 82.9481C326.618 83.4002 326.1 83.7589 325.53 84.0037C324.96 84.2485 324.349 84.3745 323.731 84.3744Z" fill="white" stroke="#5F5F5F" stroke-linecap="round" stroke-linejoin="round"/>
<path d="M323.731 84.3741C323.115 84.3741 322.506 84.2488 321.937 84.0055C321.368 83.7622 320.852 83.4055 320.417 82.9559C319.982 82.5064 319.637 81.9727 319.402 81.3855C319.167 80.7983 319.047 80.1691 319.048 79.5338V73.021H328.414V79.5338C328.415 80.1691 328.295 80.7983 328.06 81.3855C327.825 81.9727 327.48 82.5064 327.045 82.9559C326.61 83.4055 326.094 83.7622 325.525 84.0055C324.956 84.2488 324.347 84.3741 323.731 84.3741Z" fill="#035B96"/>
<path d="M300.173 65.167C299.788 64.6708 299.502 64.1008 299.331 63.49C299.16 62.8792 299.108 62.2396 299.177 61.6078C299.247 60.9761 299.436 60.3648 299.735 59.8089C300.035 59.2531 300.437 58.7638 300.92 58.3691L310.757 50.2146C311.731 49.4155 312.973 49.0479 314.209 49.1924C315.446 49.3369 316.576 49.9817 317.352 50.9853C318.126 51.9892 318.482 53.2691 318.342 54.5438C318.202 55.8185 317.577 56.9836 316.605 57.7833L306.761 65.9301C306.28 66.3269 305.728 66.622 305.137 66.7984C304.545 66.9749 303.926 67.0292 303.314 66.9583C302.702 66.8875 302.11 66.6928 301.571 66.3854C301.032 66.078 300.557 65.664 300.173 65.167Z" fill="white" stroke="#5F5F5F" stroke-linecap="round" stroke-linejoin="round"/>
<path d="M300.173 65.1672C299.788 64.6709 299.502 64.101 299.331 63.4902C299.16 62.8794 299.108 62.2397 299.177 61.608C299.247 60.9763 299.436 60.3649 299.735 59.8091C300.035 59.2533 300.437 58.764 300.92 58.3692L305.842 54.292L311.706 61.8376L306.783 65.9072C306.303 66.3088 305.751 66.6085 305.158 66.7888C304.565 66.9691 303.944 67.0265 303.329 66.9577C302.715 66.889 302.119 66.6953 301.578 66.388C301.036 66.0807 300.559 65.6658 300.173 65.1672Z" fill="#035B96"/>
<path d="M253.333 29.6821C252.749 29.6824 252.18 29.871 251.705 30.2216L240.823 21.5045C241.356 20.4859 241.606 19.335 241.546 18.1789C241.485 17.0227 241.116 15.9064 240.479 14.9531L247.127 6.18204C247.689 6.4059 248.306 6.43802 248.888 6.27372C249.469 6.10942 249.985 5.75732 250.358 5.26897C250.732 4.78062 250.944 4.18167 250.964 3.55982C250.984 2.93797 250.81 2.32589 250.469 1.81318C250.127 1.30047 249.636 0.914071 249.066 0.710557C248.496 0.507042 247.878 0.497101 247.302 0.68219C246.727 0.867278 246.224 1.23768 245.867 1.73915C245.51 2.24062 245.318 2.84683 245.319 3.46901C245.316 4.06864 245.496 4.65403 245.834 5.14153L239.366 13.6891C238.499 12.9354 237.445 12.446 236.323 12.2759C235.201 12.1057 234.056 12.2614 233.015 12.7256C231.974 13.1899 231.079 13.9442 230.43 14.904C229.782 15.8638 229.405 16.9911 229.343 18.1595H221.784C221.701 17.4671 221.381 16.8283 220.88 16.3591C220.38 15.89 219.733 15.6216 219.058 15.6029C218.382 15.5841 217.722 15.8162 217.198 16.2569C216.674 16.6976 216.32 17.3177 216.202 18.0044C216.083 18.6912 216.208 19.3991 216.552 19.9994C216.896 20.5996 217.438 21.0525 218.079 21.2756C218.719 21.4987 219.416 21.4773 220.042 21.2152C220.669 20.9531 221.183 20.4678 221.492 19.8474H229.484C229.718 20.968 230.244 22.0017 231.004 22.8372C231.765 23.6727 232.732 24.2784 233.801 24.5891C234.87 24.8999 236.002 24.9039 237.073 24.6007C238.144 24.2976 239.115 23.6988 239.881 22.8687L250.704 31.555C250.491 32.1344 250.462 32.7691 250.623 33.3663C250.784 33.9635 251.126 34.4919 251.599 34.8744C252.071 35.2569 252.65 35.4734 253.251 35.4922C253.851 35.511 254.442 35.3312 254.936 34.9791C255.43 34.6269 255.803 34.1209 255.998 33.5349C256.194 32.9488 256.203 32.3136 256.024 31.7219C255.845 31.1302 255.487 30.6131 255.003 30.2461C254.519 29.8791 253.934 29.6815 253.333 29.6821Z" fill="#035B96"/>
<path d="M32.2698 84.467C31.3652 84.4649 30.4981 84.0932 29.8584 83.433C29.2187 82.7729 28.8584 81.8782 28.8564 80.9446V51.6562H35.6832V80.9446C35.6832 81.8788 35.3236 82.7747 34.6835 83.4353C34.0433 84.0958 33.1751 84.467 32.2698 84.467Z" fill="white" stroke="#5F5F5F" stroke-linecap="round" stroke-linejoin="round"/>
<path d="M32.2698 84.4668C31.3652 84.4648 30.4981 84.093 29.8584 83.4329C29.2187 82.7728 28.8584 81.878 28.8564 80.9445V62.9321H35.6832V80.9445C35.6832 81.8787 35.3236 82.7746 34.6835 83.4351C34.0433 84.0957 33.1751 84.4668 32.2698 84.4668Z" fill="#5F5F5F"/>
<path d="M36.662 49.9448H27.8857V52.5114H36.662V49.9448Z" fill="white" stroke="#5F5F5F" stroke-linecap="round" stroke-linejoin="round"/>
<path d="M21.9251 84.467C21.0204 84.4649 20.1534 84.0932 19.5137 83.433C18.8739 82.7729 18.5137 81.8782 18.5117 80.9446V51.6562H25.3385V80.9446C25.3385 81.8788 24.9789 82.7747 24.3388 83.4353C23.6986 84.0958 22.8304 84.467 21.9251 84.467Z" fill="white" stroke="#5F5F5F" stroke-linecap="round" stroke-linejoin="round"/>
<path d="M21.9251 84.4668C21.0204 84.4648 20.1534 84.093 19.5137 83.4329C18.8739 82.7728 18.5137 81.878 18.5117 80.9445V62.9321H25.3385V80.9445C25.3385 81.8787 24.9789 82.7746 24.3388 83.4351C23.6986 84.0957 22.8304 84.4668 21.9251 84.4668Z" fill="#035B96" stroke="#5F5F5F" stroke-linecap="round" stroke-linejoin="round"/>
<path d="M26.3173 49.9448H17.541V52.5114H26.3173V49.9448Z" fill="white" stroke="#5F5F5F" stroke-linecap="round" stroke-linejoin="round"/>
<path d="M120.406 21.0728L123.125 14.3365C123.171 14.228 123.247 14.1362 123.345 14.073C123.442 14.0098 123.555 13.9781 123.67 13.982C123.785 13.9879 123.896 14.0303 123.986 14.1034C124.077 14.1765 124.144 14.2767 124.178 14.3905L127.472 25.5971L129.981 17.3424C130.016 17.2263 130.085 17.1243 130.179 17.051C130.273 16.9777 130.387 16.9367 130.504 16.9339C130.62 16.9372 130.733 16.9754 130.829 17.0438C130.924 17.1123 130.998 17.208 131.042 17.3193L132.439 21.4659H139.99C141.535 19.7993 142.434 17.6051 142.515 15.3C142.529 13.1468 141.772 11.0641 140.389 9.45183C139.006 7.83955 137.094 6.81139 135.021 6.5648C132.949 6.31821 130.86 6.87058 129.158 8.11583C127.456 9.36107 126.259 11.2114 125.799 13.3114C125.324 11.2261 124.123 9.39351 122.425 8.16216C120.726 6.93081 118.648 6.38662 116.586 6.63308C114.524 6.87955 112.622 7.89948 111.241 9.4989C109.861 11.0983 109.098 13.1656 109.098 15.3077C109.181 17.4425 109.957 19.4865 111.301 21.1114L120.406 21.0728Z" fill="#035B96"/>
<path d="M132.043 22.6218C131.927 22.6223 131.813 22.5855 131.718 22.5164C131.623 22.4474 131.552 22.3495 131.513 22.2365L130.542 19.3539L127.995 27.7319C127.959 27.8499 127.887 27.953 127.79 28.0264C127.694 28.0998 127.577 28.1397 127.457 28.1404C127.337 28.14 127.22 28.0991 127.124 28.024C127.029 27.9489 126.959 27.8436 126.927 27.7242L123.558 16.2632L121.317 21.8742C121.275 21.9791 121.203 22.0686 121.112 22.1317C121.02 22.1947 120.912 22.2285 120.802 22.2288H112.205C114.05 24.356 116.35 26.2366 118.068 27.9862C120.668 30.6376 123.215 33.3815 125.866 35.9404C129.265 32.4797 132.685 29.0036 136.054 25.543C136.988 24.5795 138.003 23.6238 138.945 22.6218H132.043Z" fill="#5F5F5F"/>
<path d="M6.04462 194.894L9.70703 196.205L13.6699 184.416L10.0075 183.105L6.04462 194.894Z" fill="white" stroke="#263238" stroke-miterlimit="10"/>
<path d="M4.30854 196.766L9.96094 198.789L10.7075 196.568L5.0551 194.545L4.30854 196.766Z" fill="white" stroke="#263238" stroke-miterlimit="10"/>
<path d="M5.96875 186.139L15.0225 189.38L22.2017 168.022L13.1479 164.782L5.96875 186.139Z" fill="white" stroke="#263238" stroke-miterlimit="10"/>
<path d="M10.371 177.003L17.0537 179.395L21.0166 167.605L14.3339 165.213L10.371 177.003Z" fill="#5F5F5F" stroke="#5F5F5F" stroke-miterlimit="10"/>
<path d="M9.18915 185.548L12.8516 186.859L16.8144 175.07L13.152 173.759L9.18915 185.548Z" fill="#035B96" stroke="#5F5F5F" stroke-miterlimit="10"/>
<path d="M5.32972 185.915L15.6748 189.618L16.5731 186.945L6.22804 183.242L5.32972 185.915Z" fill="white" stroke="#263238" stroke-miterlimit="10"/>
<path d="M15.3558 164.336L20.7471 166.266L21.944 162.705L16.5527 160.776L15.3558 164.336Z" fill="white" stroke="#263238" stroke-miterlimit="10"/>
<path d="M12.2828 165.223L22.6279 168.926L23.5262 166.253L13.1812 162.55L12.2828 165.223Z" fill="white" stroke="#263238" stroke-miterlimit="10"/>
<path d="M19.3037 161.256L23.6358 148.354" stroke="#263238" stroke-miterlimit="10"/>
<path d="M260.168 321.61C281.755 321.61 299.254 317.538 299.254 312.515C299.254 307.492 281.755 303.42 260.168 303.42C238.581 303.42 221.082 307.492 221.082 312.515C221.082 317.538 238.581 321.61 260.168 321.61Z" fill="#5F5F5F" stroke="#5F5F5F" stroke-linecap="round" stroke-linejoin="round"/>
<path d="M230.03 106.941C230.03 106.941 224.742 110.279 224.802 111.743C224.861 113.208 222.83 139.914 222.598 143.251C222.367 146.589 219.289 153.479 219.05 156.608C218.811 159.738 219.573 162.875 220.462 164.316C221.351 165.757 224.615 170.366 224.615 170.366L233.391 156.377C233.606 153.322 233.651 150.258 233.525 147.198C233.391 140.531 230.03 106.941 230.03 106.941Z" fill="white" stroke="#263238" stroke-linecap="round" stroke-linejoin="round"/>
<path d="M263.798 40.7653C263.798 40.7653 254.462 40.1487 249.144 46.8311C243.826 53.5134 244.968 63.7336 244.931 66.8705C244.894 70.0074 235.864 79.2024 236.864 82.9483C237.865 86.6941 240.524 87.118 239.673 90.2472C238.821 93.3765 233.264 95.2571 234.071 99.2264C234.878 103.196 237.806 108.822 237.806 108.822L291.583 109.2C291.583 109.2 293.503 103.358 291.456 98.9721C289.41 94.5865 286.504 93.1375 286.975 91.0488C287.445 88.9601 290.045 83.9502 289.044 80.1967C288.043 76.4432 284.562 75.4027 284.196 68.7203C283.83 62.0379 282.874 50.9931 277.736 45.5979C272.597 40.2026 263.798 40.7653 263.798 40.7653Z" fill="#5F5F5F" stroke="#5F5F5F" stroke-linecap="round" stroke-linejoin="round"/>
<path d="M247.261 298.279C245.609 301.563 243.605 304.645 241.286 307.467C237.85 311.436 234.519 313.525 234.631 315.614C234.743 317.702 242.242 318.111 246.208 316.646C250.174 315.182 253.057 312.261 253.856 312.022C254.655 311.783 256.889 312.022 256.941 309.093C256.993 306.164 256.56 297.825 256.56 297.825L247.261 298.279Z" fill="white" stroke="#263238" stroke-linecap="round" stroke-linejoin="round"/>
<path d="M246.194 316.647C250.167 315.182 253.043 312.261 253.842 312.022C254.641 311.783 256.874 312.022 256.927 309.093C256.927 307.552 256.845 304.469 256.74 301.948C256.152 303.086 255.282 304.042 254.22 304.719C253.157 305.396 251.939 305.77 250.69 305.802C250.69 305.802 250.615 304.338 248.449 301.841C247.052 300.207 245.641 301.494 244.819 302.611L244.154 303.644L244.102 303.744C243.24 305.057 242.297 306.31 241.279 307.498C237.843 311.467 234.512 313.556 234.624 315.645C234.736 317.733 242.227 318.111 246.194 316.647Z" fill="white" stroke="#263238" stroke-linecap="round" stroke-linejoin="round"/>
<path d="M274.934 298.264C276.941 301.56 279.269 304.635 281.88 307.444C285.727 311.405 289.275 313.486 289.349 315.575C289.424 317.664 282 318.08 277.877 316.623C273.754 315.166 270.572 312.245 269.758 312.037C268.944 311.829 266.718 312.037 266.367 309.124C266.016 306.21 265.575 297.855 265.575 297.855L274.934 298.264Z" fill="white" stroke="#263238" stroke-linecap="round" stroke-linejoin="round"/>
<path d="M277.907 316.623C273.792 315.166 270.603 312.245 269.788 312.037C268.974 311.829 266.748 312.037 266.397 309.124C266.211 307.582 266.002 304.499 265.845 301.971C266.535 303.101 267.484 304.039 268.608 304.703C269.732 305.367 270.996 305.736 272.291 305.779C272.291 305.779 272.216 304.314 274.106 301.809C275.338 300.183 276.884 301.462 277.84 302.58C278.087 302.919 278.341 303.258 278.587 303.613L278.654 303.713C279.658 305.023 280.73 306.276 281.866 307.467C285.713 311.428 289.26 313.509 289.335 315.598C289.41 317.687 282.03 318.08 277.907 316.623Z" fill="white" stroke="#263238" stroke-linecap="round" stroke-linejoin="round"/>
<path d="M231.016 188.117C231.016 188.117 232.263 231.518 233.921 240.073C235.579 248.628 242.981 297.663 242.981 297.663C245.244 298.651 247.68 299.144 250.137 299.112H258.226L258.973 262.594L259.249 209.59L263.305 299.313C263.305 299.313 274.449 299.721 275.651 299.513C276.854 299.305 277.855 299.097 277.855 299.097L285.018 242.331L289.118 204.565L289.342 189.543C289.342 189.543 255.104 188.317 245.155 187.485C235.206 186.652 231.113 186.444 231.113 186.444L231.016 188.117Z" fill="#035B96" stroke="#263238" stroke-linecap="round" stroke-linejoin="round"/>
<path d="M277.25 264.744C277.16 265.469 277.07 266.139 276.966 266.756" stroke="#263238" stroke-linecap="round" stroke-linejoin="round"/>
<path d="M278.168 212.496C278.168 212.496 278.863 243.418 277.646 260.205" stroke="#263238" stroke-linecap="round" stroke-linejoin="round"/>
<path d="M241.458 210.014C241.458 210.014 242.317 230.469 243.168 235.055" stroke="#263238" stroke-linecap="round" stroke-linejoin="round"/>
<path d="M255.253 90.4399L249.151 97.5385L232.226 110.279L235.833 187.5C235.833 187.5 249.322 191.246 260.9 192.286C272.477 193.327 287.363 190.591 287.363 190.591L285.174 109.662C285.174 109.662 278.587 99.6427 275.211 96.9373C271.834 94.232 270.288 91.7271 265.814 91.3109C261.34 90.8947 255.253 90.4399 255.253 90.4399Z" fill="#035B96" stroke="#263238" stroke-linecap="round" stroke-linejoin="round"/>
<path d="M248.172 94.2395L230.03 106.98L232.876 153.926L231.912 158.643L224.286 167.707L227.535 183.631L226.086 206.098C226.086 206.098 233.294 208.603 238.179 209.22C241.816 209.622 245.471 209.83 249.129 209.844L249.756 179.168C249.756 179.168 252.168 128.245 252.452 125.987C252.736 123.728 255.253 90.5322 255.253 90.5322L248.172 94.2395Z" fill="white" stroke="#263238" stroke-linecap="round" stroke-linejoin="round"/>
<path d="M248.463 96.1587L239.68 118.888L249.158 122.95L240.21 124.63L248.135 156.67" stroke="#263238" stroke-linecap="round" stroke-linejoin="round"/>
<path d="M253.729 84.3896C253.729 84.3896 256.881 106.086 259.361 111.096C261.841 116.106 262.543 117.771 262.543 117.771C262.543 117.771 267.936 100.861 269.019 98.3556C270.102 95.8507 271.26 86.8792 271.26 86.8792C271.26 86.8792 260.511 90.4323 253.729 84.3896Z" fill="white" stroke="#263238" stroke-linecap="round" stroke-linejoin="round"/>
<path d="M249.45 69.3908C249.45 69.3908 247.298 66.2307 245.849 69.3908C244.4 72.5509 248.09 77.2293 249.121 77.869C252.049 79.6649 251.272 76.3275 251.272 76.3275L249.45 69.3908Z" fill="white"/>
<path d="M276.166 70.7549C276.166 70.7549 277.981 67.487 279.759 70.5699C281.537 73.6529 278.332 78.5009 277.376 79.1869C274.643 81.1369 275.076 77.7918 275.076 77.7918L276.166 70.7549Z" fill="white"/>
<path d="M248.941 66.6004C248.941 66.6004 256.739 64.7198 260.668 62.3228C263.074 60.823 265.173 58.8513 266.845 56.519C266.845 56.519 270.221 63.1012 273.194 65.768C276.166 68.4348 276.786 68.5889 276.786 68.5889C276.786 68.5889 275.36 80.1116 273.746 84.1195C272.133 88.1274 266.867 92.0274 261.953 90.9021C259.159 90.2701 254.319 88.189 252.915 84.6821C251.511 81.1752 248.941 66.6004 248.941 66.6004Z" fill="white"/>
<path d="M268.839 75.4564C266.419 75.5181 258.315 75.5335 254.132 72.9284C252.456 71.9212 250.886 70.7355 249.449 69.3906C249.599 70.1614 249.778 71.1248 249.972 72.1268L250.883 72.8127L253.169 81.7226L252.101 81.9615C252.326 82.8723 252.598 83.7702 252.915 84.6514C254.319 88.1583 259.159 90.2393 261.953 90.8714C266.86 91.9889 272.111 88.1121 273.739 84.1119C273.355 83.3347 273.241 82.4448 273.418 81.5916C273.888 79.0712 274.471 74.6548 274.471 74.6548L276.136 73.1133C276.226 72.5507 276.301 72.0112 276.375 71.5179C274.359 72.9592 270.579 75.4102 268.839 75.4564Z" fill="#035B96"/>
<path d="M259.944 71.734C259.944 71.734 257.337 68.466 253.916 68.7666" stroke="#263238" stroke-linecap="round" stroke-linejoin="round"/>
<path d="M266.658 72.3811C267.49 71.4788 268.523 70.8004 269.668 70.4054C270.812 70.0103 272.033 69.9107 273.224 70.1151" stroke="#263238" stroke-linecap="round" stroke-linejoin="round"/>
<path d="M252.415 67.1322C252.415 67.1322 256.15 65.5908 259.458 66.3153" stroke="#263238" stroke-linecap="round" stroke-linejoin="round"/>
<path d="M266.965 67.1555C267.949 66.6367 269.063 66.4428 270.158 66.5999C271.252 66.7571 272.273 67.2578 273.082 68.0341" stroke="#263238" stroke-linecap="round" stroke-linejoin="round"/>
<path d="M257.434 70.6627C257.451 70.7812 257.445 70.9019 257.417 71.018C257.389 71.1341 257.338 71.2432 257.269 71.3392C257.199 71.4351 257.112 71.516 257.013 71.5772C256.913 71.6383 256.802 71.6785 256.688 71.6955C256.454 71.6684 256.239 71.5506 256.086 71.3659C255.934 71.1813 255.855 70.9437 255.866 70.7013C255.848 70.5827 255.853 70.4616 255.881 70.3451C255.909 70.2286 255.959 70.119 256.029 70.0228C256.099 69.9266 256.186 69.8458 256.286 69.7849C256.387 69.7241 256.498 69.6845 256.613 69.6685C256.846 69.6973 257.06 69.8157 257.212 69.9999C257.364 70.1841 257.444 70.4208 257.434 70.6627Z" fill="#263238"/>
<path d="M270.961 71.6643C270.981 71.7832 270.978 71.905 270.951 72.0223C270.923 72.1397 270.873 72.2501 270.803 72.3468C270.733 72.4435 270.645 72.5244 270.544 72.5847C270.443 72.6449 270.33 72.6832 270.214 72.6971C269.981 72.6718 269.766 72.5556 269.614 72.3722C269.461 72.1888 269.382 71.9521 269.393 71.7105C269.373 71.5917 269.376 71.4699 269.403 71.3525C269.43 71.2351 269.481 71.1247 269.55 71.028C269.62 70.9314 269.709 70.8504 269.81 70.7902C269.911 70.7299 270.023 70.6917 270.14 70.6777C270.373 70.703 270.588 70.8193 270.74 71.0027C270.893 71.1861 270.972 71.4228 270.961 71.6643Z" fill="#263238"/>
<path d="M291.075 102.518C291.075 102.518 295.43 104.599 297.051 107.913C298.671 111.227 311.63 147.136 311.571 149.849C311.511 152.562 307.223 155.691 303.205 156.115C299.187 156.539 293.331 149.024 292.457 147.776C291.583 146.527 291.426 131.914 291.426 131.914L291.075 102.518Z" fill="white" stroke="#263238" stroke-linecap="round" stroke-linejoin="round"/>
<path d="M270.55 92.9292L272.671 164.717L273.418 209.998C277.485 211.03 281.652 211.586 285.839 211.655C289.332 211.731 292.805 211.091 296.057 209.774C296.057 209.774 294.787 181.604 294.563 177.01C294.339 172.416 292.86 163.653 292.86 163.653L291.097 102.517C291.097 102.517 274.688 94.594 270.55 92.9292Z" fill="white" stroke="#263238" stroke-linecap="round" stroke-linejoin="round"/>
<path d="M275.211 96.8911L282.732 122.21L275.875 124.129L282.545 127.467L274.225 154.743" fill="white"/>
<path d="M275.211 96.8911L282.732 122.21L275.875 124.129L282.545 127.467L274.225 154.743" stroke="#263238" stroke-linecap="round" stroke-linejoin="round"/>
<path d="M280.454 120.052L271.125 166.174C271.125 166.174 277.504 168.255 282.164 168.486C286.825 168.717 296.535 168.686 296.535 168.686L306.245 125.694C306.245 125.694 287.131 123.806 280.454 120.052Z" fill="#5F5F5F"/>
<path d="M283.703 163.037L284.009 148.624L291.411 150.234C291.411 150.234 286.519 161.356 283.703 163.037Z" fill="white" stroke="#263238" stroke-linecap="round" stroke-linejoin="round"/>
<path d="M289.373 143.413C289.373 143.413 287.401 140.5 286.766 139.868C286.131 139.236 282.994 137.371 282.389 137.371C281.784 137.371 278.535 137.163 277.907 137.163C277.28 137.163 276.571 138.627 277.213 139.251C277.855 139.876 280.088 140.084 280.088 140.084L281.62 142.396L274.711 141.772C274.711 141.772 273.56 143.028 273.822 144.084C274.017 144.799 274.267 145.498 274.569 146.173C274.543 147.705 274.62 149.237 274.8 150.759C275.069 152.015 276.294 152.431 277.975 153.472C279.655 154.512 285.28 153.888 285.28 153.888H287.879L289.373 143.413Z" fill="white" stroke="#263238" stroke-linecap="round" stroke-linejoin="round"/>
<path d="M306.215 144.863L288.289 142.373C288.289 142.373 286.892 154.273 285.481 158.235C284.069 162.197 283.703 163.037 283.703 163.037C283.703 163.037 302.488 162.605 306.917 162.189C311.346 161.773 313.834 159.052 313.639 155.298C313.445 151.545 311.227 147.784 311.227 147.784" fill="white"/>
<path d="M306.215 144.863L288.289 142.373C288.289 142.373 286.892 154.273 285.481 158.235C284.069 162.197 283.703 163.037 283.703 163.037C283.703 163.037 302.488 162.605 306.917 162.189C311.346 161.773 313.834 159.052 313.639 155.298C313.445 151.545 311.227 147.784 311.227 147.784" stroke="#263238" stroke-linecap="round" stroke-linejoin="round"/>
<path d="M231.464 157.857C231.464 157.857 235.647 160.562 236.692 161.402C237.738 162.243 237.828 167.661 238.492 168.701C239.157 169.742 238.373 170.374 237.163 170.374C235.953 170.374 234.123 166.412 234.123 166.412L234.048 164.948L225.503 167.877L223.263 163.915C223.263 163.915 225.802 157.857 231.464 157.857Z" fill="white" stroke="#263238" stroke-linecap="round" stroke-linejoin="round"/>
<path d="M169.217 321.61C190.803 321.61 208.303 317.538 208.303 312.515C208.303 307.492 190.803 303.42 169.217 303.42C147.63 303.42 130.131 307.492 130.131 312.515C130.131 317.538 147.63 321.61 169.217 321.61Z" fill="#5F5F5F" stroke="#5F5F5F" stroke-linecap="round" stroke-linejoin="round"/>
<path d="M199.744 96.3901C199.744 96.3901 204.868 122.927 205.779 127.837C206.69 132.746 208.363 144.415 210.26 149.533C212.157 154.651 211.538 161.202 210.589 163.044C209.637 164.645 208.545 166.152 207.325 167.545L200.961 158.983C200.961 158.983 197.174 117.023 197.032 111.081C196.891 105.138 199.744 96.3901 199.744 96.3901Z" fill="white" stroke="#263238" stroke-linecap="round" stroke-linejoin="round"/>
<path d="M203.12 157.934C203.12 157.934 207.153 160.532 207.863 161.634C208.572 162.736 209.08 164.139 208.527 165.333C207.975 166.528 204.965 170.135 204.203 170.836C203.441 171.538 202.799 168.74 202.709 166.335C202.619 163.931 203.12 157.934 203.12 157.934Z" fill="white" stroke="#263238" stroke-linecap="round" stroke-linejoin="round"/>
<path d="M181.429 303.451C181.429 303.451 194.075 309.795 194.874 311.028C195.673 312.261 192.79 313.903 185.254 313.903C177.717 313.903 177.493 312.878 174.498 312.061C171.503 311.244 165.535 311.853 164.728 310.011C163.922 308.168 165.326 301.825 165.326 301.825L181.429 303.451Z" fill="white" stroke="#263238" stroke-linecap="round" stroke-linejoin="round"/>
<path d="M164.638 306.727C164.638 306.727 175.095 313.278 174.176 315.529C173.258 317.779 165.699 317.779 161.718 317.163C157.737 316.546 149.274 310.997 148.826 308.977C148.378 306.958 149.498 303.86 155.63 303.251C161.763 302.642 164.638 306.727 164.638 306.727Z" fill="white" stroke="#263238" stroke-linecap="round" stroke-linejoin="round"/>
<path d="M196.382 199.678C196.382 199.678 190.407 247.164 189.368 254.124C188.33 261.083 185.036 272.136 183.259 280.529C182.251 285.466 181.503 290.455 181.018 295.474C180.836 296.902 180.869 298.35 181.115 299.767C181.369 301.817 181.406 303.451 181.406 303.451C178.747 304.14 176.04 304.619 173.31 304.885C169.941 305.093 165.378 305.093 165.378 305.093L163.884 291.79C163.884 291.79 164.997 272.136 165.654 266.409C166.311 260.683 167.013 215.648 166.983 214.415C166.954 213.182 166.692 202.337 166.692 202.337L187.046 200.087C187.046 200.087 189.824 191.901 193.999 192.31C198.175 192.718 196.382 199.678 196.382 199.678Z" fill="#5F5F5F" stroke="#5F5F5F" stroke-linecap="round" stroke-linejoin="round"/>
<path d="M145.442 201.111C145.442 201.111 145.442 201.404 145.487 201.936C145.764 207.532 147.407 239.957 147.907 245.938C148.467 252.489 145.666 259.65 145.808 265.584C145.95 271.519 147.302 303.659 147.302 303.659L148.796 308.977C148.796 308.977 152.307 306.526 155.675 306.526C159.044 306.526 164.638 306.727 164.638 306.727C164.638 306.727 164.929 302.426 164.899 301C164.87 299.574 164.743 294.449 164.743 294.449C164.743 294.449 170.442 267.634 170.785 265.384C171.129 263.133 175.55 224.241 175.521 222.993C175.491 221.744 176.454 204.364 176.454 204.364L145.442 201.111Z" fill="#5F5F5F" stroke="#263238" stroke-linecap="round" stroke-linejoin="round"/>
<path d="M168.298 75.4336C168.298 75.4336 165.019 76.0039 163.772 77.5146C162.522 78.984 161.397 80.5622 160.411 82.2315C160.239 82.8019 140.954 94.8795 140.954 94.8795L142.343 152.47C142.343 152.47 142.918 161.341 141.895 164.362C140.166 170.303 139.328 176.481 139.408 182.683C139.587 190.044 140.05 201.952 140.05 201.952C140.05 201.952 162.121 206.484 172.735 206.484C179.263 206.468 185.786 206.084 192.274 205.335L193.148 195.894L194.478 205.528L199.011 203.986L202.746 175.469C202.746 175.469 205.345 169.426 205.315 168.1C205.285 166.775 205.973 165.079 205.218 163.946C204.464 162.813 203.119 160.547 203.119 160.547C203.119 160.547 199.743 98.0935 199.743 96.3902C199.743 94.6868 189.757 84.6902 189.018 84.3126C188.278 83.9349 183.722 76.9442 177.814 75.0636C171.906 73.183 168.298 75.4336 168.298 75.4336Z" fill="white" stroke="#263238" stroke-linecap="round" stroke-linejoin="round"/>
<path d="M162.285 84.1196L160.074 104.86L169.157 109.215L166.886 116.252L189.6 157.441" stroke="#263238" stroke-linecap="round" stroke-linejoin="round"/>
<path d="M187.658 86.4478L194.47 102.857L191.55 106.873L196.419 113.902L194.47 159.114" stroke="#263238" stroke-linecap="round" stroke-linejoin="round"/>
<path d="M167.454 78.2697C167.62 82.316 168.331 86.3187 169.568 90.1623C171.532 95.8273 184.551 134.912 184.551 134.912L192.969 165.495C192.969 165.495 191.856 134.342 191.826 133.024C191.796 131.706 185.447 88.459 185.447 88.459C185.447 88.459 184.364 81.476 182.654 78.8324C180.943 76.1887 169.478 71.279 167.454 78.2697Z" fill="#035B96" stroke="#263238" stroke-linecap="round" stroke-linejoin="round"/>
<path d="M166.648 75.2485C166.648 75.2485 161.353 75.8112 162.286 84.1198C163.22 92.4285 164.452 98.0935 164.452 98.0935" stroke="#263238" stroke-width="2" stroke-linecap="round" stroke-linejoin="round"/>
<path d="M163.802 109.046C163.802 109.046 166.042 118.673 167.574 121.316C169.105 123.96 173.736 126.604 177.03 126.604" stroke="#263238" stroke-linecap="round" stroke-linejoin="round"/>
<path d="M170.883 106.78C170.883 106.78 173.348 117.917 173.759 119.998C174.169 122.079 172.81 126.033 170.524 130.018" stroke="#263238" stroke-linecap="round" stroke-linejoin="round"/>
<path d="M169.867 131.336C169.632 131.202 169.457 130.978 169.382 130.712C169.306 130.447 169.336 130.161 169.464 129.917L169.725 129.424C169.789 129.306 169.876 129.203 169.979 129.12C170.083 129.037 170.201 128.976 170.328 128.941C170.455 128.906 170.587 128.897 170.717 128.915C170.846 128.933 170.972 128.978 171.085 129.046C171.319 129.18 171.494 129.404 171.571 129.669C171.648 129.934 171.621 130.22 171.495 130.465L171.234 130.95C171.169 131.069 171.083 131.173 170.979 131.257C170.875 131.341 170.756 131.403 170.629 131.439C170.502 131.474 170.369 131.484 170.238 131.466C170.107 131.448 169.981 131.404 169.867 131.336Z" fill="#263238"/>
<path d="M178.254 126.811C178.254 126.947 178.228 127.082 178.176 127.207C178.125 127.332 178.05 127.445 177.955 127.539C177.86 127.634 177.748 127.707 177.624 127.756C177.501 127.804 177.37 127.826 177.239 127.821H176.693C176.425 127.815 176.169 127.7 175.982 127.501C175.794 127.302 175.69 127.035 175.692 126.757C175.691 126.622 175.717 126.488 175.768 126.363C175.818 126.237 175.893 126.124 175.987 126.03C176.081 125.936 176.193 125.862 176.316 125.813C176.439 125.765 176.57 125.743 176.701 125.748H177.246C177.515 125.756 177.77 125.871 177.958 126.07C178.146 126.268 178.253 126.534 178.254 126.811Z" fill="#263238"/>
<path d="M163.817 109.801L162.562 101.593C162.422 100.746 162.6 99.8766 163.059 99.1606C163.519 98.4447 164.225 97.9363 165.035 97.7388V97.7388C165.907 97.534 166.823 97.6862 167.589 98.1634C168.355 98.6406 168.912 99.4056 169.143 100.298L171.286 108.468" stroke="#263238" stroke-width="2" stroke-linecap="round" stroke-linejoin="round"/>
<path d="M193.342 115.349C195.14 115.163 196.429 113.278 196.221 111.139C196.014 109 194.388 107.417 192.59 107.603C190.792 107.789 189.503 109.673 189.711 111.812C189.919 113.951 191.544 115.535 193.342 115.349Z" fill="white" stroke="#263238" stroke-linecap="round" stroke-linejoin="round"/>
<path d="M184.155 78.709C184.155 78.709 191.348 89.1526 193.641 110.441" stroke="#263238" stroke-width="2" stroke-linecap="round" stroke-linejoin="round"/>
<path d="M193.832 112.905C194.814 112.811 195.523 111.776 195.417 110.594C195.31 109.411 194.428 108.529 193.446 108.623C192.465 108.717 191.755 109.752 191.862 110.935C191.968 112.117 192.85 112.999 193.832 112.905Z" fill="white" stroke="#263238" stroke-linecap="round" stroke-linejoin="round"/>
<path d="M204.345 159.561C203.904 160.971 203.542 162.407 203.262 163.861C203.262 164.478 203.12 166.32 201.723 165.904C200.327 165.488 200.745 158.127 200.924 157.31C201.103 156.493 204.502 159.137 204.502 159.137" fill="white"/>
<path d="M204.345 159.561C203.904 160.971 203.542 162.407 203.262 163.861C203.262 164.478 203.12 166.32 201.723 165.904C200.327 165.488 200.745 158.127 200.924 157.31C201.103 156.493 204.502 159.137 204.502 159.137" stroke="#263238" stroke-linecap="round" stroke-linejoin="round"/>
<path d="M159.007 153.04C160.25 153.746 161.638 154.134 163.055 154.173C165.251 154.173 169.262 153.402 170.734 153.795C172.205 154.188 175.962 159.075 175.962 159.075C175.962 159.075 177.083 160.208 176.552 160.778C176.022 161.349 174.939 162.32 174.192 161.719C173.445 161.117 169.71 157.942 169.71 157.942L160.292 161.911L156.423 159.83L159.007 153.04Z" fill="white" stroke="#263238" stroke-linecap="round" stroke-linejoin="round"/>
<path d="M144.584 93.5615C144.584 93.5615 138.377 94.3323 137.324 96.0125C136.271 97.6927 119.263 136.23 119.301 137.933C119.338 139.637 153.308 167.222 153.308 167.222L160.643 152.817L142.291 135.259L150.253 116.191" fill="white"/>
<path d="M144.584 93.5615C144.584 93.5615 138.377 94.3323 137.324 96.0125C136.271 97.6927 119.263 136.23 119.301 137.933C119.338 139.637 153.308 167.222 153.308 167.222L160.643 152.817L142.291 135.259L150.253 116.191" stroke="#263238" stroke-linecap="round" stroke-linejoin="round"/>
<path d="M156.034 174.182L173.975 174.559L173.885 163.044" stroke="#263238" stroke-linecap="round" stroke-linejoin="round"/>
<path d="M160.314 161.911L155.571 163.738" stroke="#263238" stroke-linecap="round" stroke-linejoin="round"/>
<path d="M165.722 67.1251C165.722 67.1251 167.761 83.5574 169.105 86.0084C170.45 88.4594 180.01 98.2787 180.01 98.2787C180.01 98.2787 182.998 86.9564 183.334 84.3128C183.67 81.6691 183.932 71.0945 183.932 71.0945L165.685 65.8071L165.722 67.1251Z" fill="white" stroke="#263238" stroke-linecap="round" stroke-linejoin="round"/>
<path d="M160.433 52.7813C160.433 52.7813 157.991 50.1376 156.781 53.1512C155.571 56.1649 158.275 60.7046 159.716 60.8972C160.572 61.0123 161.441 60.9468 162.271 60.7046C162.271 60.7046 163.294 65.0516 164.235 66.3695C166.087 68.7863 168.461 70.7235 171.167 72.0268C174.498 73.5683 185.649 74.1155 187.061 72.0268C188.473 69.9381 188.39 58.8085 188.368 57.8682C188.346 56.9279 188.189 43.4707 188.189 43.4707C188.189 43.4707 189.19 38.7999 187.83 35.5859C186.471 32.3719 172.825 27.8784 169.396 29.7359C165.968 31.5934 162.017 34.8306 161.748 38.9849C161.479 43.1392 161.643 49.9372 161.643 49.9372L160.433 52.7813Z" fill="white" stroke="#263238" stroke-linecap="round" stroke-linejoin="round"/>
<path d="M180.6 46.9238C180.6 46.9238 182.878 57.7143 182.355 59.0091C181.832 60.304 180.196 60.3271 178.15 59.1941C176.103 58.0611 177.171 56.5505 177.171 56.5505" stroke="#263238" stroke-linecap="round" stroke-linejoin="round"/>
<path d="M172.668 59.3867C172.668 59.3867 173.654 62.2154 175.484 62.408C177.314 62.6007 181.907 62.9707 181.907 62.9707" stroke="#263238" stroke-linecap="round" stroke-linejoin="round"/>
<path d="M166.133 47.3012L166.424 51.8332C166.424 51.8332 168.097 52.7812 171.936 52.7812C175.775 52.7812 177.038 51.8332 177.038 51.8332L176.933 47.3012C176.933 47.3012 171.361 43.9022 166.133 47.3012Z" stroke="#263238" stroke-linecap="round" stroke-linejoin="round"/>
<path d="M180.615 47.3011L182.004 52.0258C182.004 52.0258 182.572 52.7965 186.419 52.7965C190.265 52.7965 191.528 51.8485 191.528 51.8485L191.416 47.3165C191.416 47.3165 185.836 43.9021 180.615 47.3011Z" stroke="#263238" stroke-linecap="round" stroke-linejoin="round"/>
<path d="M176.955 47.3013H180.615" stroke="#263238" stroke-linecap="round" stroke-linejoin="round"/>
<path d="M166.155 47.3013L158.939 51.6483" stroke="#263238" stroke-linecap="round" stroke-linejoin="round"/>
<path d="M167.933 45.0353C167.933 45.0353 169.89 42.7693 174.326 44.6577" stroke="#263238" stroke-linecap="round" stroke-linejoin="round"/>
<path d="M181.287 45.0351C181.946 44.4896 182.741 44.1474 183.58 44.0478C184.419 43.9483 185.268 44.0955 186.03 44.4725" stroke="#263238" stroke-linecap="round" stroke-linejoin="round"/>
<path d="M172.608 49.3823C172.608 50.2147 172.316 50.9238 171.913 50.9238C171.51 50.9238 171.166 50.2456 171.166 49.3823C171.166 48.5191 171.457 47.8408 171.868 47.8408C172.279 47.8408 172.593 48.5422 172.608 49.3823Z" fill="#263238"/>
<path d="M184.319 49.1894C184.319 50.0218 184.028 50.7309 183.625 50.7309C183.222 50.7309 182.878 50.0527 182.878 49.1894C182.878 48.3262 183.169 47.6479 183.573 47.6479C183.976 47.6479 184.297 48.357 184.319 49.1894Z" fill="#263238"/>
<path d="M171.787 31.7243C171.787 31.7243 173.549 35.7399 171.361 37.2044C170.686 37.6076 169.919 37.8199 169.139 37.8199C168.359 37.8199 167.592 37.6076 166.917 37.2044C167.499 38.0337 167.824 39.0253 167.849 40.0488C167.874 41.0724 167.599 42.0798 167.059 42.9387C165.986 44.7833 164.735 46.5108 163.324 48.095C163.324 48.095 163.72 52.9738 162.898 53.5442C162.077 54.1145 159.836 53.259 159.799 51.8254C159.761 50.3918 158.865 47.5247 158.828 46.0911C158.79 44.6575 158.148 40.9271 158.148 40.9271C158.148 40.9271 152.531 38.3451 155.511 35.1927C158.492 32.0403 164.818 29.4583 164.818 29.4583C164.818 29.4583 164.96 23.724 168.806 22.0052C172.653 20.2865 180.929 17.7045 180.996 20.5716C181.101 22.0472 180.845 23.5264 180.249 24.8724C180.249 24.8724 187.188 24.5872 192.028 29.4969C196.868 34.4065 196.704 38.9617 194.202 38.9617C191.699 38.9617 190.885 39.532 190.885 39.532C190.885 39.532 195.673 42.3992 193.208 43.8328C190.743 45.2664 188.204 43.5476 188.204 43.5476C188.204 43.5476 189.264 41.5437 186.142 38.9231C183.02 36.3026 171.787 31.7243 171.787 31.7243Z" fill="#5F5F5F" stroke="#5F5F5F" stroke-linecap="round" stroke-linejoin="round"/>
<path d="M77.0098 321.61C98.5964 321.61 116.096 317.538 116.096 312.515C116.096 307.492 98.5964 303.42 77.0098 303.42C55.4232 303.42 37.9238 307.492 37.9238 312.515C37.9238 317.538 55.4232 321.61 77.0098 321.61Z" fill="#5F5F5F" stroke="#5F5F5F" stroke-linecap="round" stroke-linejoin="round"/>
<path d="M102.748 124.399V131.767L113.13 136.677C113.13 136.677 114.213 131.767 113.347 123.058L102.748 124.399Z" fill="#999999" stroke="#263238" stroke-linecap="round" stroke-linejoin="round"/>
<path d="M51.2191 301.216C48.8428 303.321 46.5976 305.578 44.4969 307.975C41.5092 311.451 40.9266 314.912 43.7052 316.569C46.4837 318.226 50.8457 317.795 55.6035 314.727C60.3613 311.66 60.1672 310.426 62.9457 309.409C65.7242 308.392 67.5093 306.326 67.5093 303.058C67.5093 299.79 57.3886 299.374 55.2076 299.204C53.0267 299.035 51.2191 301.216 51.2191 301.216Z" fill="white" stroke="#263238" stroke-linecap="round" stroke-linejoin="round"/>
<path d="M67.4867 303.058C67.4867 303.058 63.0053 305.108 60.8317 306.973C58.6582 308.838 54.3261 315.551 49.262 315.551C46.6832 315.554 44.1471 314.872 41.8975 313.571C41.9008 314.191 42.0689 314.799 42.3837 315.327C42.6984 315.856 43.1477 316.285 43.6826 316.569C46.4611 318.203 50.8231 317.794 55.5809 314.727C60.3388 311.659 60.1446 310.426 62.9231 309.409C65.7016 308.391 67.4867 306.333 67.4867 303.058Z" stroke="#263238" stroke-linecap="round" stroke-linejoin="round"/>
<path d="M101.554 301.216C103.93 303.321 106.175 305.578 108.276 307.975C111.264 311.451 111.846 314.912 109.068 316.569C106.289 318.226 101.927 317.795 97.1695 314.727C92.4116 311.66 92.6058 310.426 89.8273 309.409C87.0488 308.392 85.2637 306.326 85.2637 303.058C85.2637 299.79 95.3844 299.374 97.5653 299.204C99.7463 299.035 101.554 301.216 101.554 301.216Z" fill="white" stroke="#263238" stroke-linecap="round" stroke-linejoin="round"/>
<path d="M85.2852 303.058C85.2852 303.058 89.7666 305.108 91.9402 306.973C94.1137 308.838 98.4458 315.551 103.51 315.551C106.089 315.554 108.625 314.872 110.874 313.571C110.871 314.191 110.703 314.799 110.388 315.327C110.073 315.856 109.624 316.285 109.089 316.569C106.311 318.203 101.949 317.794 97.191 314.727C92.4331 311.659 92.6273 310.426 89.8488 309.409C87.0703 308.391 85.2852 306.333 85.2852 303.058Z" stroke="#263238" stroke-linecap="round" stroke-linejoin="round"/>
<path d="M45.4678 184.956C45.4678 184.956 46.6554 231.008 47.2529 237.768C47.8504 244.527 49.6131 259.873 49.6131 260.721C49.6131 261.569 50.5991 295.52 50.5991 295.52L48.814 298.603L49.4115 302.904L57.3437 304.538C61.3098 305.355 66.471 306.588 67.2627 305.771C68.0545 304.954 68.2561 303.312 68.652 301.062C69.0479 298.811 69.8396 294.711 69.0479 291.443C68.2561 288.175 70.0413 253.368 70.2429 252.551C70.4446 251.734 75.0082 218.114 75.0082 218.114C75.0082 218.114 77.9959 245.753 80.1619 254.138C82.328 262.524 81.5512 275.018 82.3429 279.928C83.1347 284.837 84.7256 301.424 84.9272 302.649C85.1289 303.875 85.5173 305.732 85.5173 305.732C85.5173 305.732 95.4363 304.299 97.2215 303.474C99.0314 302.786 100.889 302.24 102.778 301.84C102.778 301.84 103.369 290.171 102.577 285.462C102 282.153 101.668 278.803 101.583 275.442C101.583 274.008 102.577 228.573 102.577 228.573L101.583 184.563C101.583 184.563 74.8066 187.43 64.4917 185.38C54.1768 183.33 45.6694 182.104 45.6694 182.104L45.4678 184.956Z" fill="#035B96" stroke="#263238" stroke-linecap="round" stroke-linejoin="round"/>
<path d="M98.9619 289.076C99.0889 290.487 99.171 291.296 99.171 291.296" stroke="#263238" stroke-linecap="round" stroke-linejoin="round"/>
<path d="M95.9219 195.762C95.9219 195.762 96.6688 235.317 96.6688 250.246C96.6688 260.574 97.8788 276.251 98.6257 284.93" stroke="#263238" stroke-linecap="round" stroke-linejoin="round"/>
<path d="M55.7754 193.527L57.5829 236.442" stroke="#263238" stroke-linecap="round" stroke-linejoin="round"/>
<path d="M57.2168 239.795V246.886" stroke="#263238" stroke-linecap="round" stroke-linejoin="round"/>
<path d="M66.6202 76.8512C65.6436 76.8566 64.6823 77.102 63.8159 77.5671C62.9496 78.0322 62.2031 78.7036 61.6383 79.5257C60.403 81.2076 59.0285 82.7755 57.5302 84.2119L39.791 94.0389L41.5239 163.915L42.1737 187.808C42.1737 187.808 55.7974 192.494 68.7788 192.494C81.7601 192.494 104.907 187.099 104.907 187.099C104.907 187.099 102.965 94.0081 103.615 94.0081C104.265 94.0081 90.8501 81.9844 84.7926 78.8243C78.7351 75.6643 66.6202 76.8512 66.6202 76.8512Z" fill="#035B96" stroke="#263238" stroke-linecap="round" stroke-linejoin="round"/>
<path d="M61.5635 85.2988C61.5635 85.2988 68.4351 98.363 71.3331 104.336C74.2311 110.31 79.6388 118.903 79.6388 118.903L88.6839 93.9004" stroke="#263238" stroke-linecap="round" stroke-linejoin="round"/>
<path d="M66.6431 168.162L66.2921 157.733L45.8789 156.508C45.8789 156.508 46.0806 171.861 46.4764 172.694" stroke="#263238" stroke-linecap="round" stroke-linejoin="round"/>
<path d="M66.8891 175.545L66.792 172.616" stroke="#263238" stroke-linecap="round" stroke-linejoin="round"/>
<path d="M91.0887 173.904L90.4912 156.716C90.4912 156.716 97.6317 157.325 103.585 153.232" stroke="#263238" stroke-linecap="round" stroke-linejoin="round"/>
<path d="M60.4804 115.758C61.1078 117.801 63.0199 119.003 64.7453 118.433C66.4706 117.863 67.3445 115.743 66.7096 113.701C66.0748 111.658 64.1701 110.456 62.4448 111.026C60.7194 111.596 59.8455 113.716 60.4804 115.758Z" stroke="#263238" stroke-linecap="round" stroke-linejoin="round"/>
<path d="M60.6819 79.9961C60.6819 79.9961 58.3889 89.0909 63.6023 113.778" stroke="#263238" stroke-width="2" stroke-linecap="round" stroke-linejoin="round"/>
<path d="M65.2091 114.626C65.0554 114.945 64.816 115.213 64.5193 115.397C64.2226 115.58 63.8811 115.672 63.5354 115.661C63.1896 115.65 62.8541 115.538 62.5687 115.336C62.2832 115.134 62.0599 114.852 61.9251 114.524C61.7903 114.195 61.7498 113.833 61.8083 113.481C61.8668 113.129 62.0219 112.802 62.2552 112.539C62.4885 112.275 62.7902 112.086 63.1245 111.994C63.4587 111.903 63.8115 111.912 64.141 112.02C64.6155 112.222 64.9937 112.609 65.1937 113.097C65.3936 113.584 65.3992 114.134 65.2091 114.626V114.626Z" stroke="#263238" stroke-linecap="round" stroke-linejoin="round"/>
<path d="M102.749 92.6978C102.749 92.6978 105.99 95.1564 106.207 96.0505C106.424 96.9446 117.456 124.175 117.456 124.175L101.449 126.611L101.666 110.533" fill="#035B96"/>
<path d="M102.749 92.6978C102.749 92.6978 105.99 95.1564 106.207 96.0505C106.424 96.9446 117.456 124.175 117.456 124.175L101.449 126.611L101.666 110.533" stroke="#263238" stroke-linecap="round" stroke-linejoin="round"/>
<path d="M41.9571 93.145C41.9571 93.145 38.2748 93.592 37.4084 96.4901C36.542 99.3881 30.2754 128.861 30.2754 128.861L53.2057 126.611L51.0396 104.506" fill="#035B96"/>
<path d="M41.9571 93.145C41.9571 93.145 38.2748 93.592 37.4084 96.4901C36.542 99.3881 30.2754 128.861 30.2754 128.861L53.2057 126.611L51.0396 104.506" stroke="#263238" stroke-linecap="round" stroke-linejoin="round"/>
<path d="M86.249 78.6084C86.249 78.6084 91.933 81.9534 92.4932 90.2775C93.0534 98.6016 92.4932 100.713 92.4932 100.713" stroke="#263238" stroke-width="2" stroke-linecap="round" stroke-linejoin="round"/>
<path d="M95.0622 111.373C95.0622 111.373 94.5543 121.215 93.5161 124.06C92.4779 126.904 88.3698 130.272 85.1133 130.811" stroke="#263238" stroke-linecap="round" stroke-linejoin="round"/>
<path d="M87.7062 110.31C87.7062 110.31 87.2506 121.663 87.2058 123.775C87.161 125.886 89.2225 129.563 92.1802 133.085" stroke="#263238" stroke-linecap="round" stroke-linejoin="round"/>
<path d="M93.0278 134.322L93.1148 134.249C93.5217 133.908 93.5841 133.292 93.2541 132.872L92.8354 132.339C92.5054 131.919 91.908 131.855 91.5011 132.196L91.4141 132.268C91.0072 132.609 90.9448 133.225 91.2748 133.645L91.6935 134.178C92.0235 134.598 92.6209 134.662 93.0278 134.322Z" fill="#263238"/>
<path d="M83.9441 131.171L83.965 131.284C84.0625 131.816 84.5589 132.165 85.0736 132.064L85.7267 131.936C86.2415 131.835 86.5796 131.323 86.4821 130.792L86.4613 130.679C86.3637 130.147 85.8674 129.798 85.3527 129.899L84.6995 130.027C84.1848 130.127 83.8466 130.64 83.9441 131.171Z" fill="#263238"/>
<path d="M95.1745 112.12L94.9579 103.85C94.9377 102.988 94.6066 102.164 94.0293 101.54C93.452 100.915 92.6699 100.536 91.8358 100.474V100.474C90.9499 100.406 90.0739 100.703 89.3992 101.299C88.7246 101.896 88.3063 102.744 88.2357 103.658L87.5635 112.043" stroke="#263238" stroke-width="2" stroke-linecap="round" stroke-linejoin="round"/>
<path d="M113.78 131.097L108.619 129.979L90.4468 126.857L64.9621 121.848L58.9195 119.096C58.9195 119.096 53.2056 111.389 52.7127 110.618C52.2197 109.847 45.7589 112.537 45.9905 113.562C46.222 114.587 46.9838 124.83 47.4843 125.478C47.9847 126.125 53.5642 126.118 53.5642 126.118C53.5642 126.118 80.1842 139.374 81.2896 139.86C96.6536 146.542 104.063 146.481 106.685 146.92C109.306 147.359 111.017 146.265 112.526 144.477C114.034 142.689 113.78 131.097 113.78 131.097Z" fill="#999999" stroke="#263238" stroke-linecap="round" stroke-linejoin="round"/>
<path d="M51.9357 110.51C51.9357 110.51 48.836 110.641 44.2425 113.839C42.532 115.034 41.6357 115.89 41.6357 116.406C41.7336 117.02 41.9016 117.621 42.1362 118.194C45.1143 116.714 48.2332 115.557 51.4427 114.741" fill="#999999"/>
<path d="M51.9357 110.51C51.9357 110.51 48.836 110.641 44.2425 113.839C42.532 115.034 41.6357 115.89 41.6357 116.406C41.7336 117.02 41.9016 117.621 42.1362 118.194C45.1143 116.714 48.2332 115.557 51.4427 114.741" stroke="#263238" stroke-linecap="round" stroke-linejoin="round"/>
<path d="M53.1755 118.71C53.1755 118.71 44.7429 120.884 43.376 121.146C42.0092 121.408 41.7627 119.99 41.7627 119.481C41.7627 118.972 42.1362 118.194 43.6225 117.431C45.1089 116.668 52.5855 114.61 52.5855 114.61" fill="#999999"/>
<path d="M53.1755 118.71C53.1755 118.71 44.7429 120.884 43.376 121.146C42.0092 121.408 41.7627 119.99 41.7627 119.481C41.7627 118.972 42.1362 118.194 43.6225 117.431C45.1089 116.668 52.5855 114.61 52.5855 114.61" stroke="#263238" stroke-linecap="round" stroke-linejoin="round"/>
<path d="M54.0499 122.68C54.0499 122.68 44.2429 123.705 43.496 123.065C43.2675 122.808 43.0941 122.505 42.9873 122.174C42.8805 121.843 42.8426 121.493 42.8761 121.146L51.6897 119.219" fill="#999999"/>
<path d="M54.0499 122.68C54.0499 122.68 44.2429 123.705 43.496 123.065C43.2675 122.808 43.0941 122.505 42.9873 122.174C42.8805 121.843 42.8426 121.493 42.8761 121.146L51.6897 119.219" stroke="#263238" stroke-linecap="round" stroke-linejoin="round"/>
<path d="M51.3162 123.188L43.75 123.574C43.75 123.574 44.116 124.73 44.4969 124.853C46.2894 125.31 48.1157 125.612 49.9569 125.755C51.1642 125.796 52.3672 125.925 53.557 126.14" fill="#999999"/>
<path d="M51.3162 123.188L43.75 123.574C43.75 123.574 44.116 124.73 44.4969 124.853C46.2894 125.31 48.1157 125.612 49.9569 125.755C51.1642 125.796 52.3672 125.925 53.557 126.14" stroke="#263238" stroke-linecap="round" stroke-linejoin="round"/>
<path d="M35.0332 128.414C35.0332 128.414 38.4914 143.829 39.3578 144.939C40.2243 146.049 47.3648 144.939 54.5053 142.704C61.6458 140.469 91.9331 127.081 91.9331 127.081L96.2577 127.967C96.2577 127.967 94.5249 122.387 91.4999 122.164C88.4749 121.94 53.2056 126.611 53.2056 126.611L35.0332 128.414Z" fill="#999999" stroke="#263238" stroke-linecap="round" stroke-linejoin="round"/>
<path d="M65.2979 67.0239C65.2979 67.0239 65.2979 67.3553 65.2979 67.918C65.3651 70.8545 65.6414 80.1806 66.3659 82.4312C67.2324 85.1056 78.9141 107.658 79.8104 105.87C80.7067 104.081 86.0845 79.749 86.0845 79.749V70.1532C86.0845 70.1532 83.2686 72.6041 78.0776 72.6041C72.8865 72.6041 65.2979 67.0239 65.2979 67.0239Z" fill="#999999" stroke="#263238" stroke-linecap="round" stroke-linejoin="round"/>
<path d="M91.2832 54.0755C91.2832 54.0755 94.7414 52.0639 94.7414 55.8637C94.7414 59.6634 91.4998 64.1261 91.4998 64.1261L91.2832 54.0755Z" fill="#999999" stroke="#263238" stroke-linecap="round" stroke-linejoin="round"/>
<path d="M60.3464 54.2993C60.3464 54.2993 55.5811 52.9582 55.5811 57.4285C55.5811 61.8988 59.9132 64.7891 59.9132 64.7891H62.9008C62.9008 64.7891 64.6337 69.2595 66.1499 71.0399C67.6661 72.8203 74.7991 77.2906 76.532 77.7377C78.2648 78.1847 80.64 78.6318 82.5895 77.5142C85.0387 75.9386 87.2956 74.0651 89.3117 71.934C90.1781 70.8241 91.6943 63.2322 91.6943 63.2322C91.6943 63.2322 92.1276 49.6131 91.2611 44.927C90.3947 40.2408 84.7705 32.8725 76.9801 31.9784C69.1898 31.0844 61.8327 37.5587 60.7572 42.6918C59.6816 47.825 60.3464 54.2993 60.3464 54.2993Z" fill="#999999" stroke="#263238" stroke-linecap="round" stroke-linejoin="round"/>
<path d="M74.4033 57.8755C74.4033 57.8755 72.9095 60.997 75.4863 61.8911C78.0632 62.7851 81.3272 62.5616 81.977 61.2205C82.6268 59.8794 81.5438 58.3225 81.5438 58.3225" stroke="#263238" stroke-linecap="round" stroke-linejoin="round"/>
<path d="M71.8115 63.4556C71.8115 63.4556 77.2192 68.1417 84.5763 63.6791" stroke="#263238" stroke-linecap="round" stroke-linejoin="round"/>
<path d="M74.8359 67.6946C74.8359 67.6946 79.3846 70.3768 82.4097 67.2476" stroke="#263238" stroke-linecap="round" stroke-linejoin="round"/>
<path d="M72.2451 55.193C72.8433 55.193 73.3282 54.3924 73.3282 53.4048C73.3282 52.4173 72.8433 51.6167 72.2451 51.6167C71.647 51.6167 71.1621 52.4173 71.1621 53.4048C71.1621 54.3924 71.647 55.193 72.2451 55.193Z" fill="#263238"/>
<path d="M83.9268 53.1818C83.9268 54.1684 83.4413 54.9699 82.8438 54.9699C82.2462 54.9699 81.7607 54.1992 81.7607 53.1818C81.7607 52.1644 82.2462 51.4014 82.8438 51.4014C83.4413 51.4014 83.9268 52.1952 83.9268 53.1818Z" fill="#263238"/>
<path d="M69.2119 50.9541C69.2119 50.9541 70.2949 49.1659 74.4403 49.8365" stroke="#263238" stroke-linecap="round" stroke-linejoin="round"/>
<path d="M81.1104 50.0602C81.1104 50.0602 83.0598 46.931 86.0923 50.0602" stroke="#263238" stroke-linecap="round" stroke-linejoin="round"/>
<path d="M91.2835 44.9116C91.0025 43.5859 90.5157 42.3158 89.842 41.1504C89.59 42.3861 89.502 43.6515 89.5805 44.9116C89.8942 46.5456 91.0071 48.827 91.0071 49.9677C91.0071 51.1084 90.8428 55.679 91.6345 55.0315C91.713 54.946 91.7762 54.8469 91.8213 54.7387C91.8707 51.4539 91.691 48.1698 91.2835 44.9116Z" fill="#5F5F5F" stroke="#5F5F5F" stroke-linecap="round" stroke-linejoin="round"/>
<path d="M80.4087 35.6627C81.7976 35.5867 83.1801 35.4142 84.5466 35.1463C82.3398 33.4415 79.7389 32.3627 77.0027 32.017C69.2124 31.1229 61.8553 37.5972 60.7798 42.7304C59.7042 47.8636 60.3466 54.3379 60.3466 54.3379C60.3466 54.3379 62.0645 55.571 62.6993 54.2685C63.3342 52.9659 62.6993 50.8387 63.3342 48.5572C63.9691 46.2758 64.9102 45.1274 65.0671 43.3316C65.2239 41.5357 64.1185 38.9306 64.7533 37.4585C65.3882 35.9864 69.3394 33.2194 71.8714 34.1982C74.5956 35.263 77.4972 35.7607 80.4087 35.6627Z" fill="#5F5F5F" stroke="#5F5F5F" stroke-linecap="round" stroke-linejoin="round"/>
</svg>
