<svg width="100" height="73" viewBox="0 0 100 73" fill="none" xmlns="http://www.w3.org/2000/svg">
<path d="M65.8012 19.0785C64.9928 19.0785 64.334 18.4197 64.334 17.6113C64.334 16.8029 64.9928 16.1498 65.8012 16.1498H72.0297C72.8381 16.1498 73.4969 16.8031 73.4969 17.6113C73.4969 18.4197 72.8381 19.0785 72.0297 19.0785H65.8012ZM53.3162 72.1016C52.5078 72.1016 51.8547 71.4426 51.8547 70.6344C51.8547 69.8262 52.508 69.1672 53.3162 69.1672H91.673C92.365 69.1672 92.8689 69.0178 93.2398 68.7299C93.6662 68.4031 94.015 67.8605 94.3471 67.1354L96.7775 61.8037C97.3865 60.4693 97.143 59.982 95.6703 59.982C85.3061 59.982 74.9416 59.982 64.5773 59.982C64.1898 61.167 64.2119 61.7262 62.5232 62.9939C61.582 63.708 60.4082 64.1289 59.157 64.1289H40.8479C39.591 64.1289 38.4229 63.708 37.4762 62.9939C35.7877 61.726 35.7432 61.1004 35.4277 59.982C25.0635 59.982 14.6936 59.982 4.3293 59.982C2.86211 59.982 2.61289 60.4693 3.22207 61.8037L5.6582 67.1354C5.98477 67.8605 6.33926 68.4031 6.76543 68.7299C7.13633 69.0178 7.63457 69.1672 8.32676 69.1672H46.6836C47.492 69.1672 48.1508 69.8262 48.1508 70.6344C48.1508 71.4428 47.492 72.1016 46.6836 72.1016H8.32676C6.94824 72.1016 5.87402 71.7361 4.97734 71.0439C4.13574 70.3906 3.52109 69.4883 3.00059 68.3477L0.570117 63.0162C0.188086 62.1855 0 61.3994 0 60.6906C0 59.9875 0.177148 59.3508 0.525977 58.7973C0.880273 58.2381 1.38965 57.8008 2.04297 57.5018C2.67969 57.2084 3.44375 57.0533 4.32969 57.0533H4.79473V6.28379C4.79473 4.55645 5.49785 2.98398 6.63828 1.84356C7.77324 0.708594 9.34551 0 11.073 0H88.9271C90.6545 0 92.227 0.708594 93.3674 1.84356C94.5023 2.98398 95.2111 4.55645 95.2111 6.28379V57.0533H95.6707C96.5564 57.0533 97.3207 57.2084 97.9572 57.5018C98.616 57.8008 99.1199 58.2383 99.4742 58.7973C99.8231 59.351 100 59.9877 100 60.6906C100 61.3994 99.8119 62.1855 99.4354 63.016L96.9994 68.3477C96.4789 69.4881 95.8643 70.3906 95.0227 71.0439C94.1258 71.7361 93.0518 72.1016 91.6732 72.1016H53.3162ZM7.72324 57.0533H35.5441C36.1199 57.0533 36.7844 57.2857 37.3213 57.7564C37.7365 58.1162 38.0908 58.6256 38.2736 59.2789C38.4287 59.8381 38.7719 60.3197 39.226 60.6574C39.6744 60.9951 40.2393 61.1945 40.8482 61.1945H59.1574C59.7664 61.1945 60.3256 60.9951 60.774 60.6574C61.2281 60.3197 61.5713 59.8381 61.7262 59.2789C61.909 58.6256 62.2633 58.1162 62.684 57.7564C63.2211 57.2857 63.8853 57.0533 64.4611 57.0533H92.282V6.28379C92.282 5.36465 91.9 4.52324 91.2965 3.91426C90.6875 3.31074 89.8459 2.92871 88.927 2.92871H11.073C10.1539 2.92871 9.31797 3.31074 8.70898 3.91426C8.1 4.52324 7.72344 5.36484 7.72344 6.28379V57.0533H7.72324ZM86.9449 19.8535C86.9449 19.0453 87.6039 18.392 88.4121 18.392C89.2205 18.392 89.8738 19.0453 89.8738 19.8535V51.5057C89.8738 52.9451 88.6889 54.1299 87.2494 54.1299H12.7561C12.0363 54.1299 11.3775 53.8365 10.9014 53.3547L10.8959 53.3602C10.4195 52.884 10.1264 52.2307 10.1264 51.5055V46.7662C10.1264 45.9578 10.7854 45.299 11.5936 45.299C12.4018 45.299 13.0551 45.958 13.0551 46.7662V51.201H86.9449V19.8535ZM13.0551 40.1281C13.0551 40.9365 12.4018 41.5953 11.5936 41.5953C10.7854 41.5953 10.1264 40.9365 10.1264 40.1281V8.48164C10.1264 7.03652 11.3111 5.85195 12.7562 5.85195H87.2496C87.9748 5.85195 88.6281 6.15098 89.1045 6.62148C89.5807 7.09766 89.874 7.75645 89.874 8.48164V13.2209C89.874 14.0293 89.2205 14.6824 88.4123 14.6824C87.6041 14.6824 86.9451 14.0291 86.9451 13.2209V8.78066H13.0551V40.1281ZM30.9434 27.7154L25.0305 33.6229C24.1225 34.5363 23.6684 35.7379 23.6684 36.9393C23.6684 38.1406 24.1225 39.342 25.0305 40.2502C25.9439 41.1637 27.1453 41.6176 28.3467 41.6176C29.548 41.6176 30.7494 41.1635 31.6574 40.2502L37.5703 34.3426L30.9434 27.7154ZM22.9598 31.5521L36.8508 17.6611C38.3346 16.1773 40.2891 15.4355 42.2377 15.4355C44.1863 15.4355 46.1408 16.1773 47.6248 17.6611C49.1029 19.1449 49.8449 21.0938 49.8449 23.048C49.8449 24.9969 49.1029 26.9459 47.6248 28.4295L33.7283 42.3205C32.25 43.8043 30.2955 44.5461 28.3469 44.5461C26.3926 44.5461 24.4436 43.8043 22.96 42.3205C21.4762 40.8422 20.7398 38.8877 20.7398 36.9391C20.7396 34.985 21.476 33.0359 22.9598 31.5521ZM45.5486 19.7318C44.6406 18.8238 43.4393 18.3699 42.2379 18.3699C41.0365 18.3699 39.8352 18.8238 38.927 19.7318L33.0141 25.6447L39.6412 32.2719L45.5486 26.359C46.4623 25.4512 46.9162 24.2496 46.9162 23.048C46.9162 21.8412 46.4623 20.6398 45.5486 19.7318ZM22.7771 21.8355C21.9688 21.8355 21.3156 21.1768 21.3156 20.3684C21.3156 19.56 21.9689 18.9068 22.7771 18.9068H24.2055V17.4783C24.2055 16.6701 24.8588 16.0111 25.6672 16.0111C26.4811 16.0111 27.1344 16.6701 27.1344 17.4783V18.9068H28.5627C29.3711 18.9068 30.0242 19.5602 30.0242 20.3684C30.0242 21.1766 29.3709 21.8355 28.5627 21.8355H27.1344V23.2584C27.1344 24.0723 26.4811 24.7256 25.6672 24.7256C24.8588 24.7256 24.2055 24.0723 24.2055 23.2584V21.8355H22.7771ZM42.0219 41.0805C41.2135 41.0805 40.5547 40.4217 40.5547 39.6133C40.5547 38.8049 41.2135 38.1516 42.0219 38.1516H43.4502V36.723C43.4502 35.9148 44.1035 35.2559 44.9117 35.2559C45.7201 35.2559 46.3789 35.9148 46.3789 36.723V38.1516H47.802C48.6158 38.1516 49.2691 38.8049 49.2691 39.6133C49.2691 40.4217 48.6158 41.0805 47.802 41.0805H46.3789V42.5033C46.3789 43.3117 45.7201 43.9705 44.9117 43.9705C44.1033 43.9705 43.4502 43.3115 43.4502 42.5033V41.0805H42.0219ZM56.6881 25.2184C55.8797 25.2184 55.2209 24.5596 55.2209 23.7512C55.2209 22.9428 55.8797 22.2896 56.6881 22.2896H81.1428C81.9566 22.2896 82.61 22.943 82.61 23.7512C82.61 24.5596 81.9566 25.2184 81.1428 25.2184H56.6881ZM56.6881 43.6383C55.8797 43.6383 55.2209 42.9795 55.2209 42.1711C55.2209 41.3627 55.8797 40.7096 56.6881 40.7096H81.1428C81.9566 40.7096 82.61 41.3629 82.61 42.1711C82.61 42.9793 81.9566 43.6383 81.1428 43.6383H56.6881ZM56.6881 37.4984C55.8797 37.4984 55.2209 36.8396 55.2209 36.0313C55.2209 35.2229 55.8797 34.5697 56.6881 34.5697H81.1428C81.9566 34.5697 82.61 35.223 82.61 36.0313C82.61 36.8396 81.9566 37.4984 81.1428 37.4984H56.6881ZM56.6881 31.3584C55.8797 31.3584 55.2209 30.6994 55.2209 29.8912C55.2209 29.083 55.8797 28.4297 56.6881 28.4297H81.1428C81.9566 28.4297 82.61 29.083 82.61 29.8912C82.61 30.6996 81.9566 31.3584 81.1428 31.3584H56.6881Z" fill="#035B96"/>
</svg>
