<svg width="100" height="100" viewBox="0 0 100 100" fill="none" xmlns="http://www.w3.org/2000/svg">
<path d="M93.3307 20C89.6539 20 86.6641 22.99 86.6641 26.6666C86.6641 30.3432 89.6541 33.3332 93.3307 33.3332C97.0072 33.3332 99.9973 30.3434 99.9973 26.6666C99.9973 22.99 97.0072 20 93.3307 20ZM93.3307 30C91.4924 30 89.9973 28.5051 89.9973 26.6666C89.9973 24.8283 91.4922 23.3332 93.3307 23.3332C95.1692 23.3332 96.6641 24.8281 96.6641 26.6666C96.6639 28.5051 95.169 30 93.3307 30Z" fill="#035B96"/>
<path d="M6.66661 75C2.99004 75 0 77.99 0 81.6666C0 85.3432 2.99004 88.3332 6.66661 88.3332C10.3434 88.3332 13.3332 85.3432 13.3332 81.6666C13.3332 77.99 10.3434 75 6.66661 75ZM6.66661 85C4.82833 85 3.33321 83.5051 3.33321 81.6666C3.33321 79.8281 4.82813 78.3332 6.66661 78.3332C8.50489 78.3332 10 79.8281 10 81.6666C10 83.5051 8.50509 85 6.66661 85Z" fill="#035B96"/>
<path d="M90.1052 22.1068L75.7268 15.1652C74.8968 14.7634 73.9018 15.1134 73.5018 15.942C73.1018 16.7703 73.4501 17.767 74.2786 18.167L88.6569 25.1086C88.8903 25.2219 89.137 25.2752 89.3802 25.2752C90.0001 25.2752 90.5952 24.9285 90.8817 24.3318C91.2817 23.5035 90.9335 22.5068 90.1052 22.1068Z" fill="#035B96"/>
<path d="M75.0025 86.6667C71.3258 86.6667 68.3359 89.6568 68.3359 93.3334C68.3359 97.0099 71.3258 100 75.0025 100C78.6793 100 81.6692 97.0101 81.6692 93.3336C81.6692 89.657 78.6793 86.6667 75.0025 86.6667ZM75.0025 96.6668C73.1643 96.6668 71.6691 95.1718 71.6691 93.3334C71.6691 91.4949 73.1643 90.0001 75.0025 90.0001C76.8408 90.0001 78.3359 91.4951 78.3359 93.3336C78.3359 95.172 76.8408 96.6668 75.0025 96.6668Z" fill="#035B96"/>
<path d="M71.7692 88.7726L57.3909 81.831C56.5608 81.4292 55.5659 81.7777 55.1659 82.6078C54.7659 83.4361 55.1141 84.4328 55.9427 84.8328L70.321 91.7744C70.5544 91.8877 70.8011 91.941 71.0442 91.941C71.6642 91.941 72.2593 91.5943 72.546 90.9976C72.9458 90.1691 72.5976 89.1726 71.7692 88.7726Z" fill="#035B96"/>
<path d="M50.0025 45.0002C46.3258 45.0002 43.3359 47.9903 43.3359 51.6669C43.3359 55.3436 46.326 58.3335 50.0025 58.3335C53.6793 58.3335 56.6692 55.3434 56.6692 51.6669C56.6692 47.9903 53.6793 45.0002 50.0025 45.0002ZM50.0025 55.0003C48.1643 55.0003 46.6691 53.5053 46.6691 51.6669C46.6691 49.8286 48.1641 48.3335 50.0025 48.3335C51.8408 48.3335 53.3359 49.8284 53.3359 51.6669C53.3359 53.5053 51.8408 55.0003 50.0025 55.0003Z" fill="#035B96"/>
<path d="M47.073 47.2938L36.028 38.6854C35.3013 38.1236 34.2548 38.2486 33.688 38.9754C33.123 39.7022 33.2513 40.7486 33.978 41.3154L45.023 49.9238C45.328 50.1606 45.688 50.2756 46.0464 50.2756C46.5431 50.2756 47.0331 50.0557 47.363 49.634C47.9281 48.907 47.7997 47.8604 47.073 47.2938Z" fill="#035B96"/>
<path d="M79.9975 43.3333C69.8891 43.3333 61.6641 51.5583 61.6641 61.6667C61.6641 71.7751 69.8891 80.0001 79.9975 80.0001C90.1059 80.0001 98.3309 71.7751 98.3309 61.6667C98.3309 51.5583 90.1059 43.3333 79.9975 43.3333ZM79.9975 76.6665C71.7258 76.6665 64.9975 69.9382 64.9975 61.6665C64.9975 53.3948 71.7258 46.6665 79.9975 46.6665C88.2692 46.6665 94.9975 53.3948 94.9975 61.6665C94.9975 69.9382 88.2692 76.6665 79.9975 76.6665Z" fill="#035B96"/>
<path d="M80.0025 50.0002C76.3258 50.0002 73.3359 52.9903 73.3359 56.6669C73.3359 60.3436 76.326 63.3335 80.0025 63.3335C83.6793 63.3335 86.6692 60.3434 86.6692 56.6669C86.6692 52.9903 83.6793 50.0002 80.0025 50.0002ZM80.0025 60.0003C78.1643 60.0003 76.6691 58.5053 76.6691 56.6669C76.6691 54.8286 78.1641 53.3335 80.0025 53.3335C81.8408 53.3335 83.336 54.8284 83.336 56.6669C83.336 58.5053 81.8408 60.0003 80.0025 60.0003Z" fill="#035B96"/>
<path d="M84.835 66.6667H75.165C72.3168 66.6667 70 68.9218 70 71.6918V76.0851C70 76.68 70.3166 77.23 70.8316 77.5285C73.625 79.1451 76.7949 80.0002 80 80.0002C83.2051 80.0002 86.375 79.1451 89.1684 77.5285C89.6834 77.2318 90 76.68 90 76.0869V71.6935C90 68.9218 87.6834 66.6667 84.835 66.6667ZM86.6666 75.0918C82.5184 77.1584 77.4817 77.1584 73.3332 75.0918V71.6935C73.3332 70.7601 74.1549 70.0001 75.1648 70.0001H84.8348C85.8447 70.0001 86.6664 70.7601 86.6664 71.6935V75.0918H86.6666Z" fill="#035B96"/>
<path d="M39.9975 63.3333C29.8891 63.3333 21.6641 71.5583 21.6641 81.6667C21.6641 91.7751 29.8891 99.9999 39.9975 99.9999C50.1059 99.9999 58.3309 91.7749 58.3309 81.6665C58.3309 71.5581 50.1059 63.3333 39.9975 63.3333ZM39.9975 96.6665C31.7258 96.6665 24.9975 89.9382 24.9975 81.6665C24.9975 73.3948 31.7258 66.6665 39.9975 66.6665C48.2692 66.6665 54.9975 73.3948 54.9975 81.6665C54.9975 89.9382 48.2692 96.6665 39.9975 96.6665Z" fill="#035B96"/>
<path d="M40.0025 70.0002C36.3258 70.0002 33.3359 72.9903 33.3359 76.6669C33.3359 80.3436 36.326 83.3335 40.0025 83.3335C43.6791 83.3335 46.6692 80.3434 46.6692 76.6669C46.6692 72.9903 43.6793 70.0002 40.0025 70.0002ZM40.0025 80.0003C38.1643 80.0003 36.6691 78.5053 36.6691 76.6669C36.6691 74.8286 38.1641 73.3335 40.0025 73.3335C41.8408 73.3335 43.3359 74.8284 43.3359 76.6669C43.3359 78.5053 41.8408 80.0003 40.0025 80.0003Z" fill="#035B96"/>
<path d="M44.835 86.6667H35.165C32.3168 86.6667 30 88.9218 30 91.6918V96.0851C30 96.68 30.3166 97.23 30.8316 97.5285C33.625 99.1451 36.7949 100 40 100C43.2051 100 46.375 99.1451 49.1684 97.5285C49.6834 97.2318 50 96.6802 50 96.0869V91.6935C50 88.9218 47.6834 86.6667 44.835 86.6667ZM46.6666 95.0918C42.5182 97.1584 37.4816 97.1584 33.3332 95.0918V91.6935C33.3332 90.7601 34.1549 90.0001 35.1649 90.0001H44.8348C45.8447 90.0001 46.6664 90.7601 46.6664 91.6935V95.0918H46.6666Z" fill="#035B96"/>
<path d="M18.3334 21.6667C8.22501 21.6667 0 29.8918 0 40.0002C0 50.1086 8.22501 58.3336 18.3334 58.3336C28.4418 58.3336 36.6668 50.1086 36.6668 40.0002C36.6666 29.8918 28.4416 21.6667 18.3334 21.6667ZM18.3334 55.0002C10.0617 55.0002 3.3334 48.2719 3.3334 40.0002C3.3334 31.7285 10.0617 25.0002 18.3334 25.0002C26.6051 25.0002 33.3334 31.7285 33.3334 40.0002C33.3334 48.2719 26.6051 55.0002 18.3334 55.0002Z" fill="#035B96"/>
<path d="M18.3307 28.3335C14.6539 28.3335 11.6641 31.3235 11.6641 35.0001C11.6641 38.6767 14.6541 41.6667 18.3307 41.6667C22.0074 41.6667 24.9973 38.6767 24.9973 35.0001C24.9973 31.3235 22.0072 28.3335 18.3307 28.3335ZM18.3307 38.3335C16.4924 38.3335 14.9973 36.8386 14.9973 35.0001C14.9973 33.1616 16.4922 31.6667 18.3307 31.6667C20.169 31.6667 21.6641 33.1616 21.6641 35.0001C21.6641 36.8386 20.169 38.3335 18.3307 38.3335Z" fill="#035B96"/>
<path d="M23.1709 45.0002H13.501C10.6527 45.0002 8.33594 47.2553 8.33594 50.0253V54.4186C8.33594 55.0135 8.65254 55.5635 9.16758 55.862C11.9609 57.4786 15.1309 58.3337 18.336 58.3337C21.541 58.3337 24.711 57.4786 27.5043 55.862C28.0194 55.5653 28.336 55.0135 28.336 54.4204V50.027C28.336 47.2553 26.0192 45.0002 23.1709 45.0002ZM25.0026 53.4253C20.8543 55.4919 15.8176 55.4919 11.6691 53.4253V50.027C11.6691 49.0936 12.4908 48.3336 13.5008 48.3336H23.1707C24.1807 48.3336 25.0024 49.0936 25.0024 50.027V53.4253H25.0026Z" fill="#035B96"/>
<path d="M58.3334 0C48.225 0 40 8.22501 40 18.3334C40 28.4418 48.225 36.6668 58.3334 36.6668C68.4418 36.6668 76.6668 28.4418 76.6668 18.3334C76.6666 8.22501 68.4416 0 58.3334 0ZM58.3334 33.3334C50.0617 33.3334 43.3334 26.6051 43.3334 18.3334C43.3334 10.0617 50.0617 3.3334 58.3334 3.3334C66.6051 3.3334 73.3334 10.0617 73.3334 18.3334C73.3334 26.6051 66.6051 33.3334 58.3334 33.3334Z" fill="#035B96"/>
<path d="M58.3307 6.6665C54.6539 6.6665 51.6641 9.65655 51.6641 13.3331C51.6641 17.0097 54.6541 19.9997 58.3307 19.9997C62.0072 19.9997 64.9973 17.0099 64.9973 13.3333C64.9973 9.65674 62.0072 6.6665 58.3307 6.6665ZM58.3307 16.6665C56.4924 16.6665 54.9973 15.1716 54.9973 13.3331C54.9973 11.4948 56.4922 9.99971 58.3307 9.99971C60.1692 9.99971 61.6641 11.4946 61.6641 13.3331C61.6639 15.1716 60.169 16.6665 58.3307 16.6665Z" fill="#035B96"/>
<path d="M63.1709 23.3335H53.501C50.6527 23.3335 48.3359 25.5886 48.3359 28.3585V32.7519C48.3359 33.3468 48.6525 33.8968 49.1676 34.1952C51.9609 35.8118 55.1309 36.6669 58.3359 36.6669C61.541 36.6669 64.711 35.8118 67.5043 34.1952C68.0194 33.8985 68.336 33.3468 68.336 32.7536V28.3603C68.336 25.5884 66.0192 23.3335 63.1709 23.3335ZM65.0026 31.7585C60.8543 33.8251 55.8176 33.8251 51.6691 31.7585V28.3603C51.6691 27.4269 52.4908 26.6669 53.5008 26.6669H63.1707C64.1807 26.6669 65.0024 27.4269 65.0024 28.3603V31.7585H65.0026Z" fill="#035B96"/>
<path d="M42.9367 17.2481C42.3385 16.5514 41.2867 16.468 40.5867 17.0664L29.0367 26.9498C28.3367 27.5481 28.2551 28.5998 28.8533 29.2999C29.1834 29.6848 29.65 29.8832 30.1199 29.8832C30.5033 29.8832 30.8883 29.7516 31.2033 29.4815L42.7534 19.5981C43.4535 18.9998 43.5352 17.9481 42.9367 17.2481Z" fill="#035B96"/>
<path d="M79.6641 44.0022L69.6641 30.6688C69.1123 29.9305 68.0674 29.7854 67.3307 30.3354C66.5939 30.8872 66.4457 31.9321 66.9973 32.6671L76.9973 46.0005C77.3256 46.4372 77.8256 46.6671 78.3322 46.6671C78.6789 46.6671 79.0307 46.5587 79.3307 46.3337C80.0674 45.7821 80.2158 44.7372 79.6641 44.0022Z" fill="#035B96"/>
<path d="M65.9897 67.1786C65.4379 66.4418 64.393 66.2936 63.6563 66.8452L54.3463 73.8268C53.6096 74.3786 53.4613 75.4235 54.0129 76.1585C54.3412 76.5952 54.8412 76.8251 55.3478 76.8251C55.6961 76.8251 56.0461 76.7151 56.3463 76.4917L65.6563 69.51C66.393 68.9586 66.5414 67.9135 65.9897 67.1786Z" fill="#035B96"/>
<path d="M23.3334 80H11.6666C10.7467 80 10 80.7449 10 81.6666C10 82.5883 10.7467 83.3332 11.6666 83.3332H23.3332C24.2531 83.3332 24.9998 82.5883 24.9998 81.6666C24.9998 80.7449 24.2533 80 23.3334 80Z" fill="#035B96"/>
<path d="M18.3309 0C14.6541 0 11.6641 2.99004 11.6641 6.66661C11.6641 10.3434 14.6541 13.3332 18.3307 13.3332C22.0074 13.3332 24.9973 10.3432 24.9973 6.66661C24.9975 2.99004 22.0074 0 18.3309 0ZM18.3309 10C16.4926 10 14.9975 8.50509 14.9975 6.66661C14.9975 4.82833 16.4924 3.33321 18.3309 3.33321C20.1692 3.33321 21.6643 4.82813 21.6643 6.66661C21.6641 8.50509 20.1692 10 18.3309 10Z" fill="#035B96"/>
<path d="M18.3307 10C17.4107 10 16.6641 10.7449 16.6641 11.6666V23.3332C16.6641 24.2549 17.4107 24.9998 18.3307 24.9998C19.2506 24.9998 19.9973 24.2549 19.9973 23.3332V11.6666C19.9973 10.7449 19.2506 10 18.3307 10Z" fill="#035B96"/>
</svg>
