<svg width="100" height="102" viewBox="0 0 100 102" fill="none" xmlns="http://www.w3.org/2000/svg">
<path d="M85.5855 71.2042H78.9037V64.5756C78.9093 64.3258 78.8652 64.0773 78.7739 63.8448C78.6825 63.6122 78.5457 63.4002 78.3715 63.221C78.1974 63.0419 77.9892 62.8992 77.7593 62.8014C77.5294 62.7035 77.2823 62.6525 77.0325 62.6511H71.0453C70.5296 62.6497 70.0337 62.8504 69.6641 63.2101C69.2944 63.5698 69.0803 64.0599 69.0677 64.5756V71.2042H62.2785C61.7627 71.2028 61.2669 71.4034 60.8972 71.7631C60.5276 72.1228 60.3135 72.613 60.3008 73.1286V79.1157C60.3135 79.6314 60.5276 80.1215 60.8972 80.4812C61.2669 80.8409 61.7627 81.0416 62.2785 81.0402H69.0677V87.8826C69.0803 88.3982 69.2944 88.8884 69.6641 89.2481C70.0337 89.6078 70.5296 89.8084 71.0453 89.807H77.0325C77.2823 89.8057 77.5294 89.7546 77.7593 89.6568C77.9892 89.559 78.1974 89.4163 78.3715 89.2372C78.5457 89.058 78.6825 88.846 78.7739 88.6134C78.8652 88.3808 78.9093 88.1324 78.9037 87.8826V81.0402H85.5855C85.8354 81.0388 86.0825 80.9878 86.3124 80.8899C86.5423 80.7921 86.7504 80.6494 86.9246 80.4703C87.0988 80.2911 87.2355 80.0791 87.3269 79.8465C87.4183 79.614 87.4624 79.3655 87.4567 79.1157V73.1286C87.4624 72.8788 87.4183 72.6304 87.3269 72.3978C87.2355 72.1653 87.0988 71.9532 86.9246 71.7741C86.7504 71.5949 86.5423 71.4523 86.3124 71.3544C86.0825 71.2566 85.8354 71.2055 85.5855 71.2042ZM84.4631 78.0466H77.8878C77.372 78.0452 76.8762 78.2459 76.5065 78.6056C76.1369 78.9653 75.9228 79.4554 75.9101 79.971V86.8135H72.0612V79.971C72.0669 79.7212 72.0228 79.4728 71.9314 79.2403C71.8401 79.0077 71.7033 78.7956 71.5291 78.6165C71.3549 78.4374 71.1468 78.2947 70.9169 78.1969C70.687 78.099 70.4399 78.0479 70.19 78.0466H63.2943V74.1977H70.19C70.4399 74.1964 70.687 74.1453 70.9169 74.0475C71.1468 73.9496 71.3549 73.807 71.5291 73.6278C71.7033 73.4487 71.8401 73.2367 71.9314 73.0041C72.0228 72.7715 72.0669 72.5231 72.0612 72.2733V65.6447H75.9101V72.2733C75.9228 72.7889 76.1369 73.2791 76.5065 73.6388C76.8762 73.9985 77.372 74.1991 77.8878 74.1977H84.4631V78.0466Z" fill="#035B96"/>
<path d="M74.3751 50.0691C70.2405 50.0703 66.1674 51.0718 62.5036 52.988C58.8398 54.9043 55.694 57.6785 53.3346 61.0739C52.9315 60.9499 52.5501 60.8293 52.1905 60.7121L50.7377 56.5917C55.2281 53.2276 56.458 47.9745 56.7937 45.43C59.8134 44.6108 62.5865 41.0628 63.6975 36.361C64.2962 33.8179 63.4195 31.4502 61.5152 30.469C60.9874 30.1973 60.4025 30.0554 59.8089 30.055C59.9072 29.3171 60.0099 28.4145 60.1161 27.3063C60.3646 24.7132 60.5224 22.0941 60.5224 21.4303C60.5224 20.9599 60.5318 20.475 60.5417 19.9616C60.621 15.867 60.7196 10.7715 56.2031 6.20336C52.1498 2.10388 46.4116 -0.156045 40.4619 0.00838742C34.5348 0.170468 28.9769 2.6996 25.2127 6.94726C25.0972 7.07798 24.9799 7.20955 24.8607 7.34198C22.5903 9.87882 19.4806 13.3533 19.7039 22.2508C19.7252 23.1217 20.5592 27.113 21.4228 30.1549C20.9194 30.2049 20.4311 30.3557 19.9872 30.5984C18.1592 31.5862 17.321 33.902 17.9013 36.3612C19.0132 41.0711 21.7953 44.6234 24.8218 45.4336C25.1836 47.929 26.4501 53.1301 30.8258 56.497L28.9093 60.4382C27.5408 60.8672 25.9985 61.292 24.4065 61.7381C14.1174 64.6219 0 68.5711 0 81.4013V94.8163C0 97.9854 1.695 101.354 4.73753 101.354H74.4647C74.4786 101.354 74.4921 101.352 74.5058 101.351C81.292 101.313 87.786 98.585 92.5648 93.7664C97.3435 88.9479 100.017 82.4315 99.9999 75.6452C99.9826 68.8589 97.2758 62.3562 92.4725 57.5621C87.6693 52.768 81.1615 50.0735 74.3751 50.0691ZM27.0918 9.33762C27.2141 9.20106 27.3347 9.06563 27.4538 8.93135C30.6706 5.30101 35.4417 3.13902 40.544 2.9996C45.6709 2.85719 50.6017 4.79403 54.0747 8.30698C57.7025 11.976 57.621 16.1869 57.5492 19.9021C57.5389 20.4307 57.5293 20.93 57.5293 21.4291C57.5293 21.7464 57.4972 22.4048 57.4425 23.2423C56.7187 20.5517 55.7066 17.9531 54.3131 16.4337L54.2024 16.2121C54.076 15.9593 53.8805 15.7474 53.6387 15.6009C53.3969 15.4545 53.1185 15.3796 52.8359 15.3848C52.5532 15.39 52.2778 15.4752 52.0416 15.6304C51.8053 15.7856 51.6179 16.0046 51.5009 16.262C49.0891 21.5668 46.7001 21.3532 42.7421 21.0001C42.2826 20.9591 41.8152 20.9174 41.3401 20.8844C39.8341 20.7775 39.2893 21.6576 39.1248 22.0391C38.6369 23.1724 39.3149 24.3961 40.5562 25.8471C36.6049 25.3754 35.6033 22.4854 34.701 19.8784C34.0747 18.069 33.365 16.018 31.3011 16.018C30.3067 15.9985 29.3195 16.192 28.406 16.5856C27.4926 16.9791 26.6738 17.5636 26.0049 18.2997C24.4711 19.9462 23.6068 22.2936 23.1257 24.5939C22.931 23.7976 22.7881 22.9895 22.6981 22.1747C22.5028 14.465 24.9407 11.7408 27.0918 9.33762ZM27.6791 44.051C27.6611 43.6654 27.4958 43.3015 27.2173 43.0342C26.9388 42.767 26.5684 42.6167 26.1824 42.6145C26.161 42.6145 26.1396 42.6145 26.1171 42.6145C23.925 42.6145 21.6103 39.0385 20.8143 35.6727C20.5096 34.3812 20.9096 33.5017 21.4102 33.231C21.9762 32.9256 22.5798 33.4634 22.8129 33.7091C23.0085 33.9151 23.2588 34.0612 23.5344 34.1303C23.81 34.1993 24.0996 34.1885 24.3692 34.0991C24.6389 34.0097 24.8776 33.8454 25.0574 33.6253C25.2371 33.4053 25.3505 33.1387 25.3844 32.8566C25.5318 32.5998 25.5995 32.305 25.5787 32.0096C25.4196 29.7138 25.5802 23.1416 28.196 20.3385C28.5659 19.9281 29.0167 19.5987 29.5201 19.3709C30.0235 19.1431 30.5686 19.0219 31.1211 19.015C31.3461 19.3398 31.6463 20.2068 31.8714 20.8579C32.9808 24.0628 35.0455 30.0268 44.1955 28.7214C44.476 28.6814 44.7394 28.5625 44.9551 28.3787C45.1707 28.1949 45.3298 27.9537 45.4137 27.683C45.4977 27.4124 45.5031 27.1235 45.4293 26.8499C45.3555 26.5763 45.2056 26.3293 44.9969 26.1375C44.2713 25.4704 43.5826 24.7643 42.9337 24.0223C46.4527 24.3279 50.0422 24.4429 53.0088 19.7749C54.8836 23.2911 55.8597 30.283 56.0988 33.0595C56.1309 33.4326 56.3017 33.7801 56.5775 34.0335C56.8533 34.2868 57.214 34.4276 57.5885 34.428C57.6313 34.428 57.674 34.4261 57.7183 34.4222C57.9894 34.399 58.2491 34.3022 58.4693 34.1423C58.6895 33.9823 58.8619 33.7654 58.9679 33.5147C59.2634 33.2226 59.7141 32.9075 60.1439 33.1283C60.693 33.4112 61.0891 34.3762 60.7839 35.6729C59.9883 39.0394 57.6738 42.6152 55.481 42.6152H55.4436C55.1531 42.6105 54.8674 42.6898 54.6208 42.8435C54.4117 42.974 54.2382 43.1541 54.1157 43.368C53.9932 43.5818 53.9255 43.8226 53.9188 44.069C53.8547 45.2929 53.275 51.5514 48.1752 54.7209C48.1669 54.7259 48.1592 54.7314 48.1511 54.7365C46.1655 55.9616 43.6919 56.5829 40.7991 56.5829C37.9141 56.5829 35.4462 55.9474 33.4627 54.6936C28.4354 51.5193 27.7628 45.2713 27.6789 44.051H27.6791ZM31.3208 62.3242L33.3949 58.0596C35.5428 59.0659 38.0247 59.5761 40.7993 59.5761C43.5337 59.5761 45.9827 59.0915 48.1079 58.1366L49.6102 62.3979C49.6854 62.6114 49.8081 62.8051 49.9689 62.9644C50.1298 63.1236 50.3246 63.2443 50.5389 63.3174C50.9118 63.4445 51.3066 63.5743 51.7233 63.7068C50.9897 65.0841 50.3843 66.5259 49.9147 68.0141C48.5295 69.6545 45.6226 72.1638 40.7993 72.1638C39.1717 72.1814 37.5586 71.8557 36.0653 71.2079C34.5721 70.5601 33.2321 69.6048 32.1329 68.4043C30.554 66.7108 29.6605 64.8229 29.3592 63.4326C29.7263 63.32 30.0862 63.2071 30.4377 63.0929C30.629 63.0306 30.8057 62.9305 30.9574 62.7984C31.1091 62.6663 31.2326 62.505 31.3206 62.3242H31.3208ZM2.99357 94.8163V81.4013C2.99357 70.8411 15.326 67.3921 25.2139 64.6207C25.6324 64.5033 26.0581 64.3876 26.4653 64.2728C27.5483 68.8226 32.4272 75.1565 40.7916 75.1565C43.6581 75.1927 46.4727 74.3908 48.8896 72.8493C48.3178 77.9625 49.297 83.1294 51.6999 87.6788C54.1028 92.2282 57.8184 95.9498 62.3639 98.3601H4.73753C3.78472 98.3601 2.99357 96.4551 2.99357 94.8163ZM74.3751 98.3601C69.8957 98.36 65.5169 97.0317 61.7924 94.543C58.0679 92.0544 55.165 88.5172 53.4509 84.3787C51.7367 80.2402 51.2882 75.6864 52.1621 71.2931C53.036 66.8997 55.193 62.8642 58.3605 59.6967C61.5279 56.5293 65.5634 54.3722 69.9568 53.4983C74.3502 52.6244 78.904 53.0729 83.0424 54.7871C87.1809 56.5013 90.7181 59.4042 93.2068 63.1287C95.6954 66.8531 97.0238 71.232 97.0238 75.7114C97.0171 81.7161 94.6288 87.473 90.3828 91.719C86.1368 95.965 80.3799 98.3534 74.3751 98.3601Z" fill="#035B96"/>
</svg>
