<svg width="1207" height="273" viewBox="0 0 1207 273" fill="none" xmlns="http://www.w3.org/2000/svg">
<rect x="136" y="61" width="1071" height="182" rx="5" fill="#F4F4F4"/>
<path d="M172.591 105.587H174.48L178.377 120.221L182.156 105.587H184.441L179.549 124H177.396L173.514 109.63L169.588 124H167.464L162.571 105.587H164.915L168.694 120.221L172.591 105.587ZM189.583 106.656C189.583 107.037 189.437 107.374 189.144 107.667C188.86 107.96 188.519 108.106 188.118 108.106C187.747 108.106 187.415 107.96 187.122 107.667C186.829 107.364 186.683 107.027 186.683 106.656C186.683 106.256 186.824 105.919 187.107 105.646C187.4 105.362 187.737 105.221 188.118 105.221C188.519 105.221 188.86 105.362 189.144 105.646C189.437 105.919 189.583 106.256 189.583 106.656ZM189.261 110.685V124H187.005V110.685H189.261ZM196.995 112.604V124H194.754V112.604H191.956V110.685H194.754V107.169H196.995V110.685H200.086V112.604H196.995ZM202.825 124V104.503H205.081V112.354C205.481 111.798 206.028 111.334 206.722 110.963C207.425 110.592 208.187 110.406 209.007 110.406C210.481 110.406 211.629 110.851 212.449 111.739C213.279 112.618 213.694 113.795 213.694 115.27V124H211.409V115.636C211.409 114.679 211.16 113.917 210.662 113.351C210.164 112.774 209.432 112.486 208.465 112.486C207.703 112.486 207.01 112.721 206.385 113.189C205.76 113.648 205.325 114.244 205.081 114.977V124H202.825ZM227.845 112.604V124H225.604V112.604H222.806V110.685H225.604V107.169H227.845V110.685H230.936V112.604H227.845ZM233.675 124V104.503H235.931V112.354C236.331 111.798 236.878 111.334 237.571 110.963C238.274 110.592 239.036 110.406 239.856 110.406C241.331 110.406 242.479 110.851 243.299 111.739C244.129 112.618 244.544 113.795 244.544 115.27V124H242.259V115.636C242.259 114.679 242.01 113.917 241.512 113.351C241.014 112.774 240.281 112.486 239.314 112.486C238.553 112.486 237.859 112.721 237.234 113.189C236.609 113.648 236.175 114.244 235.931 114.977V124H233.675ZM253.362 112.325C252.464 112.325 251.683 112.638 251.019 113.263C250.354 113.888 249.925 114.786 249.729 115.958H256.6C256.551 114.903 256.253 114.034 255.706 113.351C255.159 112.667 254.378 112.325 253.362 112.325ZM257.859 123.106C256.854 123.878 255.506 124.264 253.816 124.264C251.873 124.264 250.325 123.658 249.173 122.447C247.991 121.207 247.4 119.547 247.4 117.467C247.4 115.377 247.947 113.683 249.041 112.384C250.154 111.065 251.585 110.406 253.333 110.406C255.091 110.406 256.438 110.997 257.376 112.179C258.323 113.36 258.797 114.942 258.797 116.925V117.73H249.612C249.671 119.215 250.11 120.348 250.931 121.129C251.761 121.9 252.811 122.286 254.08 122.286C255.428 122.286 256.688 121.866 257.859 121.026V123.106ZM275.892 120.704V119.327C275.716 118.839 275.335 118.443 274.749 118.141C274.163 117.828 273.514 117.672 272.801 117.672C271.98 117.672 271.253 117.862 270.618 118.243C269.954 118.614 269.622 119.195 269.622 119.986C269.622 120.777 269.954 121.373 270.618 121.773C271.253 122.154 271.98 122.345 272.801 122.345C273.514 122.345 274.163 122.193 274.749 121.891C275.335 121.588 275.716 121.192 275.892 120.704ZM275.892 116.896V115.152C275.892 114.332 275.604 113.683 275.027 113.204C274.461 112.726 273.689 112.486 272.713 112.486C271.395 112.486 270.135 112.872 268.934 113.644V111.52C269.383 111.197 269.983 110.934 270.735 110.729C271.487 110.514 272.269 110.406 273.079 110.406C274.632 110.406 275.853 110.821 276.741 111.651C277.64 112.472 278.089 113.58 278.089 114.977V124H275.892V123.004C275.589 123.307 275.115 123.59 274.471 123.854C273.836 124.107 273.162 124.234 272.449 124.234C271.111 124.234 269.939 123.858 268.934 123.106C267.977 122.364 267.498 121.324 267.498 119.986C267.498 118.717 267.986 117.716 268.963 116.983C269.969 116.202 271.17 115.812 272.566 115.812C273.201 115.812 273.836 115.924 274.471 116.148C275.105 116.373 275.579 116.622 275.892 116.896ZM290.716 120.045V114.64C290.374 113.966 289.896 113.434 289.28 113.043C288.665 112.652 288.006 112.457 287.303 112.457C286.062 112.457 285.076 112.916 284.344 113.834C283.611 114.742 283.245 115.909 283.245 117.335C283.245 118.761 283.611 119.933 284.344 120.851C285.086 121.769 286.072 122.228 287.303 122.228C288.006 122.228 288.665 122.032 289.28 121.642C289.896 121.251 290.374 120.719 290.716 120.045ZM290.716 124V122.447C290.384 122.955 289.871 123.385 289.178 123.736C288.494 124.088 287.757 124.264 286.966 124.264C285.052 124.264 283.562 123.585 282.498 122.228C281.482 120.86 280.975 119.229 280.975 117.335C280.975 115.47 281.482 113.854 282.498 112.486C283.562 111.1 285.052 110.406 286.966 110.406C287.757 110.406 288.494 110.587 289.178 110.948C289.871 111.3 290.384 111.729 290.716 112.237V104.503H293.001V124H290.716ZM302.903 124H300.677L295.521 110.685H297.952L301.849 121.144L305.716 110.685H308.089L302.903 124ZM317.815 120.704V119.327C317.64 118.839 317.259 118.443 316.673 118.141C316.087 117.828 315.438 117.672 314.725 117.672C313.904 117.672 313.177 117.862 312.542 118.243C311.878 118.614 311.546 119.195 311.546 119.986C311.546 120.777 311.878 121.373 312.542 121.773C313.177 122.154 313.904 122.345 314.725 122.345C315.438 122.345 316.087 122.193 316.673 121.891C317.259 121.588 317.64 121.192 317.815 120.704ZM317.815 116.896V115.152C317.815 114.332 317.527 113.683 316.951 113.204C316.385 112.726 315.613 112.486 314.637 112.486C313.318 112.486 312.059 112.872 310.857 113.644V111.52C311.307 111.197 311.907 110.934 312.659 110.729C313.411 110.514 314.192 110.406 315.003 110.406C316.556 110.406 317.776 110.821 318.665 111.651C319.563 112.472 320.013 113.58 320.013 114.977V124H317.815V123.004C317.513 123.307 317.039 123.59 316.395 123.854C315.76 124.107 315.086 124.234 314.373 124.234C313.035 124.234 311.863 123.858 310.857 123.106C309.9 122.364 309.422 121.324 309.422 119.986C309.422 118.717 309.91 117.716 310.887 116.983C311.893 116.202 313.094 115.812 314.49 115.812C315.125 115.812 315.76 115.924 316.395 116.148C317.029 116.373 317.503 116.622 317.815 116.896ZM323.851 124V110.685H326.106V112.354C326.507 111.798 327.054 111.334 327.747 110.963C328.45 110.592 329.212 110.406 330.032 110.406C331.507 110.406 332.654 110.851 333.475 111.739C334.305 112.618 334.72 113.795 334.72 115.27V124H332.435V115.636C332.435 114.679 332.186 113.917 331.688 113.351C331.189 112.774 330.457 112.486 329.49 112.486C328.729 112.486 328.035 112.721 327.41 113.189C326.785 113.648 326.351 114.244 326.106 114.977V124H323.851ZM337.576 117.335C337.576 115.216 338.196 113.536 339.437 112.296C340.667 111.036 342.186 110.406 343.992 110.406C345.525 110.406 346.717 110.777 347.566 111.52V113.805C346.639 112.877 345.496 112.413 344.139 112.413C342.977 112.413 341.966 112.857 341.106 113.746C340.267 114.615 339.847 115.812 339.847 117.335C339.847 118.868 340.267 120.069 341.106 120.938C341.956 121.817 342.967 122.257 344.139 122.257C345.506 122.257 346.648 121.798 347.566 120.88V123.165C346.727 123.897 345.535 124.264 343.992 124.264C342.195 124.264 340.677 123.644 339.437 122.403C338.196 121.134 337.576 119.444 337.576 117.335ZM353.265 106.656C353.265 107.037 353.118 107.374 352.825 107.667C352.542 107.96 352.2 108.106 351.8 108.106C351.429 108.106 351.097 107.96 350.804 107.667C350.511 107.364 350.364 107.027 350.364 106.656C350.364 106.256 350.506 105.919 350.789 105.646C351.082 105.362 351.419 105.221 351.8 105.221C352.2 105.221 352.542 105.362 352.825 105.646C353.118 105.919 353.265 106.256 353.265 106.656ZM352.942 110.685V124H350.687V110.685H352.942ZM356.956 124V110.685H359.212V112.354C359.612 111.798 360.159 111.334 360.853 110.963C361.556 110.592 362.317 110.406 363.138 110.406C364.612 110.406 365.76 110.851 366.58 111.739C367.41 112.618 367.825 113.795 367.825 115.27V124H365.54V115.636C365.54 114.679 365.291 113.917 364.793 113.351C364.295 112.774 363.562 112.486 362.596 112.486C361.834 112.486 361.141 112.721 360.516 113.189C359.891 113.648 359.456 114.244 359.212 114.977V124H356.956ZM380.335 119.913V114.493C379.983 113.868 379.505 113.365 378.899 112.984C378.304 112.604 377.654 112.413 376.951 112.413C375.721 112.413 374.744 112.862 374.021 113.761C373.309 114.659 372.952 115.812 372.952 117.218C372.952 118.624 373.309 119.771 374.021 120.66C374.744 121.549 375.721 121.993 376.951 121.993C377.654 121.993 378.304 121.803 378.899 121.422C379.505 121.041 379.983 120.538 380.335 119.913ZM380.335 123.106V122.228C379.993 122.726 379.48 123.15 378.797 123.502C378.123 123.854 377.396 124.029 376.614 124.029C374.681 124.029 373.201 123.341 372.176 121.964C371.18 120.587 370.682 119.005 370.682 117.218C370.682 115.44 371.18 113.863 372.176 112.486C373.211 111.1 374.69 110.406 376.614 110.406C377.405 110.406 378.138 110.582 378.812 110.934C379.495 111.275 380.003 111.69 380.335 112.179V110.685H382.62V122.945C382.62 125.24 381.927 126.891 380.54 127.896C379.153 128.902 377.674 129.405 376.102 129.405C374.363 129.405 372.938 129.005 371.824 128.204V125.714C372.996 126.808 374.422 127.354 376.102 127.354C377.352 127.354 378.367 126.988 379.148 126.256C379.939 125.533 380.335 124.483 380.335 123.106ZM396.946 112.604V124H394.705V112.604H391.907V110.685H394.705V107.169H396.946V110.685H400.037V112.604H396.946ZM407.552 112.325C406.653 112.325 405.872 112.638 405.208 113.263C404.544 113.888 404.114 114.786 403.919 115.958H410.789C410.74 114.903 410.442 114.034 409.896 113.351C409.349 112.667 408.567 112.325 407.552 112.325ZM412.049 123.106C411.043 123.878 409.695 124.264 408.006 124.264C406.062 124.264 404.515 123.658 403.362 122.447C402.181 121.207 401.59 119.547 401.59 117.467C401.59 115.377 402.137 113.683 403.23 112.384C404.344 111.065 405.774 110.406 407.522 110.406C409.28 110.406 410.628 110.997 411.565 112.179C412.513 113.36 412.986 114.942 412.986 116.925V117.73H403.802C403.86 119.215 404.3 120.348 405.12 121.129C405.95 121.9 407 122.286 408.27 122.286C409.617 122.286 410.877 121.866 412.049 121.026V123.106ZM415.096 117.335C415.096 115.216 415.716 113.536 416.956 112.296C418.187 111.036 419.705 110.406 421.512 110.406C423.045 110.406 424.236 110.777 425.086 111.52V113.805C424.158 112.877 423.016 112.413 421.658 112.413C420.496 112.413 419.485 112.857 418.626 113.746C417.786 114.615 417.366 115.812 417.366 117.335C417.366 118.868 417.786 120.069 418.626 120.938C419.476 121.817 420.486 122.257 421.658 122.257C423.025 122.257 424.168 121.798 425.086 120.88V123.165C424.246 123.897 423.055 124.264 421.512 124.264C419.715 124.264 418.196 123.644 416.956 122.403C415.716 121.134 415.096 119.444 415.096 117.335ZM428.206 124V104.503H430.462V112.354C430.862 111.798 431.409 111.334 432.103 110.963C432.806 110.592 433.567 110.406 434.388 110.406C435.862 110.406 437.01 110.851 437.83 111.739C438.66 112.618 439.075 113.795 439.075 115.27V124H436.79V115.636C436.79 114.679 436.541 113.917 436.043 113.351C435.545 112.774 434.812 112.486 433.846 112.486C433.084 112.486 432.391 112.721 431.766 113.189C431.141 113.648 430.706 114.244 430.462 114.977V124H428.206ZM442.884 124V110.685H445.14V112.354C445.54 111.798 446.087 111.334 446.78 110.963C447.483 110.592 448.245 110.406 449.065 110.406C450.54 110.406 451.688 110.851 452.508 111.739C453.338 112.618 453.753 113.795 453.753 115.27V124H451.468V115.636C451.468 114.679 451.219 113.917 450.721 113.351C450.223 112.774 449.49 112.486 448.523 112.486C447.762 112.486 447.068 112.721 446.443 113.189C445.818 113.648 445.384 114.244 445.14 114.977V124H442.884ZM467.142 112.354C468.274 113.634 468.841 115.294 468.841 117.335C468.841 119.376 468.274 121.036 467.142 122.315C465.989 123.614 464.515 124.264 462.718 124.264C460.911 124.264 459.432 123.614 458.279 122.315C457.166 121.026 456.609 119.366 456.609 117.335C456.609 115.304 457.166 113.644 458.279 112.354C459.432 111.056 460.911 110.406 462.718 110.406C464.515 110.406 465.989 111.056 467.142 112.354ZM465.53 120.909C466.224 119.991 466.57 118.8 466.57 117.335C466.57 115.87 466.224 114.679 465.53 113.761C464.837 112.843 463.899 112.384 462.718 112.384C461.536 112.384 460.599 112.843 459.905 113.761C459.222 114.679 458.88 115.87 458.88 117.335C458.88 118.8 459.222 119.991 459.905 120.909C460.599 121.827 461.536 122.286 462.718 122.286C463.899 122.286 464.837 121.827 465.53 120.909ZM474.144 104.503V124H471.888V104.503H474.144ZM487.737 112.354C488.87 113.634 489.437 115.294 489.437 117.335C489.437 119.376 488.87 121.036 487.737 122.315C486.585 123.614 485.11 124.264 483.313 124.264C481.507 124.264 480.027 123.614 478.875 122.315C477.762 121.026 477.205 119.366 477.205 117.335C477.205 115.304 477.762 113.644 478.875 112.354C480.027 111.056 481.507 110.406 483.313 110.406C485.11 110.406 486.585 111.056 487.737 112.354ZM486.126 120.909C486.819 119.991 487.166 118.8 487.166 117.335C487.166 115.87 486.819 114.679 486.126 113.761C485.433 112.843 484.495 112.384 483.313 112.384C482.132 112.384 481.194 112.843 480.501 113.761C479.817 114.679 479.476 115.87 479.476 117.335C479.476 118.8 479.817 119.991 480.501 120.909C481.194 121.827 482.132 122.286 483.313 122.286C484.495 122.286 485.433 121.827 486.126 120.909ZM501.243 119.913V114.493C500.892 113.868 500.413 113.365 499.808 112.984C499.212 112.604 498.562 112.413 497.859 112.413C496.629 112.413 495.652 112.862 494.93 113.761C494.217 114.659 493.86 115.812 493.86 117.218C493.86 118.624 494.217 119.771 494.93 120.66C495.652 121.549 496.629 121.993 497.859 121.993C498.562 121.993 499.212 121.803 499.808 121.422C500.413 121.041 500.892 120.538 501.243 119.913ZM501.243 123.106V122.228C500.901 122.726 500.389 123.15 499.705 123.502C499.031 123.854 498.304 124.029 497.522 124.029C495.589 124.029 494.109 123.341 493.084 121.964C492.088 120.587 491.59 119.005 491.59 117.218C491.59 115.44 492.088 113.863 493.084 112.486C494.119 111.1 495.599 110.406 497.522 110.406C498.313 110.406 499.046 110.582 499.72 110.934C500.403 111.275 500.911 111.69 501.243 112.179V110.685H503.528V122.945C503.528 125.24 502.835 126.891 501.448 127.896C500.062 128.902 498.582 129.405 497.01 129.405C495.271 129.405 493.846 129.005 492.732 128.204V125.714C493.904 126.808 495.33 127.354 497.01 127.354C498.26 127.354 499.275 126.988 500.057 126.256C500.848 125.533 501.243 124.483 501.243 123.106ZM511.453 129.098H509.227L511.233 124.088L506.048 110.685H508.479L512.405 121.173L516.272 110.685H518.616L511.453 129.098ZM535.198 120.704V119.327C535.022 118.839 534.642 118.443 534.056 118.141C533.47 117.828 532.82 117.672 532.107 117.672C531.287 117.672 530.56 117.862 529.925 118.243C529.261 118.614 528.929 119.195 528.929 119.986C528.929 120.777 529.261 121.373 529.925 121.773C530.56 122.154 531.287 122.345 532.107 122.345C532.82 122.345 533.47 122.193 534.056 121.891C534.642 121.588 535.022 121.192 535.198 120.704ZM535.198 116.896V115.152C535.198 114.332 534.91 113.683 534.334 113.204C533.768 112.726 532.996 112.486 532.02 112.486C530.701 112.486 529.441 112.872 528.24 113.644V111.52C528.689 111.197 529.29 110.934 530.042 110.729C530.794 110.514 531.575 110.406 532.386 110.406C533.938 110.406 535.159 110.821 536.048 111.651C536.946 112.472 537.396 113.58 537.396 114.977V124H535.198V123.004C534.896 123.307 534.422 123.59 533.777 123.854C533.143 124.107 532.469 124.234 531.756 124.234C530.418 124.234 529.246 123.858 528.24 123.106C527.283 122.364 526.805 121.324 526.805 119.986C526.805 118.717 527.293 117.716 528.27 116.983C529.275 116.202 530.477 115.812 531.873 115.812C532.508 115.812 533.143 115.924 533.777 116.148C534.412 116.373 534.886 116.622 535.198 116.896ZM541.233 124V110.685H543.489V112.354C543.89 111.798 544.437 111.334 545.13 110.963C545.833 110.592 546.595 110.406 547.415 110.406C548.89 110.406 550.037 110.851 550.857 111.739C551.688 112.618 552.103 113.795 552.103 115.27V124H549.817V115.636C549.817 114.679 549.568 113.917 549.07 113.351C548.572 112.774 547.84 112.486 546.873 112.486C546.111 112.486 545.418 112.721 544.793 113.189C544.168 113.648 543.733 114.244 543.489 114.977V124H541.233ZM564.7 120.045V114.64C564.358 113.966 563.88 113.434 563.265 113.043C562.649 112.652 561.99 112.457 561.287 112.457C560.047 112.457 559.061 112.916 558.328 113.834C557.596 114.742 557.229 115.909 557.229 117.335C557.229 118.761 557.596 119.933 558.328 120.851C559.07 121.769 560.057 122.228 561.287 122.228C561.99 122.228 562.649 122.032 563.265 121.642C563.88 121.251 564.358 120.719 564.7 120.045ZM564.7 124V122.447C564.368 122.955 563.855 123.385 563.162 123.736C562.479 124.088 561.741 124.264 560.95 124.264C559.036 124.264 557.547 123.585 556.482 122.228C555.467 120.86 554.959 119.229 554.959 117.335C554.959 115.47 555.467 113.854 556.482 112.486C557.547 111.1 559.036 110.406 560.95 110.406C561.741 110.406 562.479 110.587 563.162 110.948C563.855 111.3 564.368 111.729 564.7 112.237V104.503H566.985V124H564.7ZM582.601 112.325C581.702 112.325 580.921 112.638 580.257 113.263C579.593 113.888 579.163 114.786 578.968 115.958H585.838C585.789 114.903 585.491 114.034 584.944 113.351C584.397 112.667 583.616 112.325 582.601 112.325ZM587.098 123.106C586.092 123.878 584.744 124.264 583.055 124.264C581.111 124.264 579.563 123.658 578.411 122.447C577.229 121.207 576.639 119.547 576.639 117.467C576.639 115.377 577.186 113.683 578.279 112.384C579.393 111.065 580.823 110.406 582.571 110.406C584.329 110.406 585.677 110.997 586.614 112.179C587.562 113.36 588.035 114.942 588.035 116.925V117.73H578.851C578.909 119.215 579.349 120.348 580.169 121.129C580.999 121.9 582.049 122.286 583.318 122.286C584.666 122.286 585.926 121.866 587.098 121.026V123.106ZM596.78 124H594.554L589.397 110.685H591.829L595.726 121.144L599.593 110.685H601.966L596.78 124ZM609.29 112.325C608.392 112.325 607.61 112.638 606.946 113.263C606.282 113.888 605.853 114.786 605.657 115.958H612.527C612.479 114.903 612.181 114.034 611.634 113.351C611.087 112.667 610.306 112.325 609.29 112.325ZM613.787 123.106C612.781 123.878 611.434 124.264 609.744 124.264C607.801 124.264 606.253 123.658 605.101 122.447C603.919 121.207 603.328 119.547 603.328 117.467C603.328 115.377 603.875 113.683 604.969 112.384C606.082 111.065 607.513 110.406 609.261 110.406C611.019 110.406 612.366 110.997 613.304 112.179C614.251 113.36 614.725 114.942 614.725 116.925V117.73H605.54C605.599 119.215 606.038 120.348 606.858 121.129C607.688 121.9 608.738 122.286 610.008 122.286C611.355 122.286 612.615 121.866 613.787 121.026V123.106ZM624.627 110.626V112.926C624.256 112.691 623.758 112.574 623.133 112.574C622.42 112.574 621.78 112.799 621.214 113.248C620.657 113.688 620.267 114.293 620.042 115.064V124H617.786V110.685H620.042V112.413C620.335 111.837 620.779 111.358 621.375 110.978C621.971 110.597 622.625 110.406 623.338 110.406C623.904 110.406 624.334 110.479 624.627 110.626ZM631.365 129.098H629.139L631.146 124.088L625.96 110.685H628.392L632.317 121.173L636.185 110.685H638.528L631.365 129.098ZM644.798 112.604V124H642.557V112.604H639.759V110.685H642.557V107.169H644.798V110.685H647.889V112.604H644.798ZM650.628 124V104.503H652.884V112.354C653.284 111.798 653.831 111.334 654.524 110.963C655.228 110.592 655.989 110.406 656.81 110.406C658.284 110.406 659.432 110.851 660.252 111.739C661.082 112.618 661.497 113.795 661.497 115.27V124H659.212V115.636C659.212 114.679 658.963 113.917 658.465 113.351C657.967 112.774 657.234 112.486 656.268 112.486C655.506 112.486 654.812 112.721 654.188 113.189C653.562 113.648 653.128 114.244 652.884 114.977V124H650.628ZM667.884 106.656C667.884 107.037 667.737 107.374 667.444 107.667C667.161 107.96 666.819 108.106 666.419 108.106C666.048 108.106 665.716 107.96 665.423 107.667C665.13 107.364 664.983 107.027 664.983 106.656C664.983 106.256 665.125 105.919 665.408 105.646C665.701 105.362 666.038 105.221 666.419 105.221C666.819 105.221 667.161 105.362 667.444 105.646C667.737 105.919 667.884 106.256 667.884 106.656ZM667.562 110.685V124H665.306V110.685H667.562ZM671.575 124V110.685H673.831V112.354C674.231 111.798 674.778 111.334 675.472 110.963C676.175 110.592 676.937 110.406 677.757 110.406C679.231 110.406 680.379 110.851 681.199 111.739C682.029 112.618 682.444 113.795 682.444 115.27V124H680.159V115.636C680.159 114.679 679.91 113.917 679.412 113.351C678.914 112.774 678.182 112.486 677.215 112.486C676.453 112.486 675.76 112.721 675.135 113.189C674.51 113.648 674.075 114.244 673.831 114.977V124H671.575ZM694.954 119.913V114.493C694.603 113.868 694.124 113.365 693.519 112.984C692.923 112.604 692.273 112.413 691.57 112.413C690.34 112.413 689.363 112.862 688.641 113.761C687.928 114.659 687.571 115.812 687.571 117.218C687.571 118.624 687.928 119.771 688.641 120.66C689.363 121.549 690.34 121.993 691.57 121.993C692.273 121.993 692.923 121.803 693.519 121.422C694.124 121.041 694.603 120.538 694.954 119.913ZM694.954 123.106V122.228C694.612 122.726 694.1 123.15 693.416 123.502C692.742 123.854 692.015 124.029 691.233 124.029C689.3 124.029 687.82 123.341 686.795 121.964C685.799 120.587 685.301 119.005 685.301 117.218C685.301 115.44 685.799 113.863 686.795 112.486C687.83 111.1 689.31 110.406 691.233 110.406C692.024 110.406 692.757 110.582 693.431 110.934C694.114 111.275 694.622 111.69 694.954 112.179V110.685H697.239V122.945C697.239 125.24 696.546 126.891 695.159 127.896C693.772 128.902 692.293 129.405 690.721 129.405C688.982 129.405 687.557 129.005 686.443 128.204V125.714C687.615 126.808 689.041 127.354 690.721 127.354C691.971 127.354 692.986 126.988 693.768 126.256C694.559 125.533 694.954 124.483 694.954 123.106ZM716.546 119.913V114.493C716.194 113.868 715.716 113.365 715.11 112.984C714.515 112.604 713.865 112.413 713.162 112.413C711.932 112.413 710.955 112.862 710.232 113.761C709.52 114.659 709.163 115.812 709.163 117.218C709.163 118.624 709.52 119.771 710.232 120.66C710.955 121.549 711.932 121.993 713.162 121.993C713.865 121.993 714.515 121.803 715.11 121.422C715.716 121.041 716.194 120.538 716.546 119.913ZM716.546 123.106V122.228C716.204 122.726 715.691 123.15 715.008 123.502C714.334 123.854 713.606 124.029 712.825 124.029C710.892 124.029 709.412 123.341 708.387 121.964C707.391 120.587 706.893 119.005 706.893 117.218C706.893 115.44 707.391 113.863 708.387 112.486C709.422 111.1 710.901 110.406 712.825 110.406C713.616 110.406 714.349 110.582 715.022 110.934C715.706 111.275 716.214 111.69 716.546 112.179V110.685H718.831V122.945C718.831 125.24 718.138 126.891 716.751 127.896C715.364 128.902 713.885 129.405 712.312 129.405C710.574 129.405 709.148 129.005 708.035 128.204V125.714C709.207 126.808 710.633 127.354 712.312 127.354C713.562 127.354 714.578 126.988 715.359 126.256C716.15 125.533 716.546 124.483 716.546 123.106ZM727.825 112.325C726.927 112.325 726.146 112.638 725.481 113.263C724.817 113.888 724.388 114.786 724.192 115.958H731.062C731.014 114.903 730.716 114.034 730.169 113.351C729.622 112.667 728.841 112.325 727.825 112.325ZM732.322 123.106C731.316 123.878 729.969 124.264 728.279 124.264C726.336 124.264 724.788 123.658 723.636 122.447C722.454 121.207 721.863 119.547 721.863 117.467C721.863 115.377 722.41 113.683 723.504 112.384C724.617 111.065 726.048 110.406 727.796 110.406C729.554 110.406 730.901 110.997 731.839 112.179C732.786 113.36 733.26 114.942 733.26 116.925V117.73H724.075C724.134 119.215 724.573 120.348 725.394 121.129C726.224 121.9 727.273 122.286 728.543 122.286C729.891 122.286 731.15 121.866 732.322 121.026V123.106ZM739.896 112.604V124H737.654V112.604H734.856V110.685H737.654V107.169H739.896V110.685H742.986V112.604H739.896ZM749.446 112.604V124H747.205V112.604H744.407V110.685H747.205V107.169H749.446V110.685H752.537V112.604H749.446ZM757.854 106.656C757.854 107.037 757.708 107.374 757.415 107.667C757.132 107.96 756.79 108.106 756.39 108.106C756.019 108.106 755.687 107.96 755.394 107.667C755.101 107.364 754.954 107.027 754.954 106.656C754.954 106.256 755.096 105.919 755.379 105.646C755.672 105.362 756.009 105.221 756.39 105.221C756.79 105.221 757.132 105.362 757.415 105.646C757.708 105.919 757.854 106.256 757.854 106.656ZM757.532 110.685V124H755.276V110.685H757.532ZM761.546 124V110.685H763.802V112.354C764.202 111.798 764.749 111.334 765.442 110.963C766.146 110.592 766.907 110.406 767.728 110.406C769.202 110.406 770.35 110.851 771.17 111.739C772 112.618 772.415 113.795 772.415 115.27V124H770.13V115.636C770.13 114.679 769.881 113.917 769.383 113.351C768.885 112.774 768.152 112.486 767.186 112.486C766.424 112.486 765.73 112.721 765.105 113.189C764.48 113.648 764.046 114.244 763.802 114.977V124H761.546ZM784.925 119.913V114.493C784.573 113.868 784.095 113.365 783.489 112.984C782.894 112.604 782.244 112.413 781.541 112.413C780.311 112.413 779.334 112.862 778.611 113.761C777.898 114.659 777.542 115.812 777.542 117.218C777.542 118.624 777.898 119.771 778.611 120.66C779.334 121.549 780.311 121.993 781.541 121.993C782.244 121.993 782.894 121.803 783.489 121.422C784.095 121.041 784.573 120.538 784.925 119.913ZM784.925 123.106V122.228C784.583 122.726 784.07 123.15 783.387 123.502C782.713 123.854 781.985 124.029 781.204 124.029C779.271 124.029 777.791 123.341 776.766 121.964C775.77 120.587 775.271 119.005 775.271 117.218C775.271 115.44 775.77 113.863 776.766 112.486C777.801 111.1 779.28 110.406 781.204 110.406C781.995 110.406 782.728 110.582 783.401 110.934C784.085 111.275 784.593 111.69 784.925 112.179V110.685H787.21V122.945C787.21 125.24 786.517 126.891 785.13 127.896C783.743 128.902 782.264 129.405 780.691 129.405C778.953 129.405 777.527 129.005 776.414 128.204V125.714C777.586 126.808 779.012 127.354 780.691 127.354C781.941 127.354 782.957 126.988 783.738 126.256C784.529 125.533 784.925 124.483 784.925 123.106ZM806.604 120.045V114.64C806.263 113.966 805.784 113.434 805.169 113.043C804.554 112.652 803.895 112.457 803.191 112.457C801.951 112.457 800.965 112.916 800.232 113.834C799.5 114.742 799.134 115.909 799.134 117.335C799.134 118.761 799.5 119.933 800.232 120.851C800.975 121.769 801.961 122.228 803.191 122.228C803.895 122.228 804.554 122.032 805.169 121.642C805.784 121.251 806.263 120.719 806.604 120.045ZM806.604 124V122.447C806.272 122.955 805.76 123.385 805.066 123.736C804.383 124.088 803.646 124.264 802.854 124.264C800.94 124.264 799.451 123.585 798.387 122.228C797.371 120.86 796.863 119.229 796.863 117.335C796.863 115.47 797.371 113.854 798.387 112.486C799.451 111.1 800.94 110.406 802.854 110.406C803.646 110.406 804.383 110.587 805.066 110.948C805.76 111.3 806.272 111.729 806.604 112.237V104.503H808.89V124H806.604ZM815.452 106.656C815.452 107.037 815.306 107.374 815.013 107.667C814.729 107.96 814.388 108.106 813.987 108.106C813.616 108.106 813.284 107.96 812.991 107.667C812.698 107.364 812.552 107.027 812.552 106.656C812.552 106.256 812.693 105.919 812.977 105.646C813.27 105.362 813.606 105.221 813.987 105.221C814.388 105.221 814.729 105.362 815.013 105.646C815.306 105.919 815.452 106.256 815.452 106.656ZM815.13 110.685V124H812.874V110.685H815.13ZM827.845 119.913V114.493C827.493 113.868 827.015 113.365 826.409 112.984C825.813 112.604 825.164 112.413 824.461 112.413C823.23 112.413 822.254 112.862 821.531 113.761C820.818 114.659 820.462 115.812 820.462 117.218C820.462 118.624 820.818 119.771 821.531 120.66C822.254 121.549 823.23 121.993 824.461 121.993C825.164 121.993 825.813 121.803 826.409 121.422C827.015 121.041 827.493 120.538 827.845 119.913ZM827.845 123.106V122.228C827.503 122.726 826.99 123.15 826.307 123.502C825.633 123.854 824.905 124.029 824.124 124.029C822.19 124.029 820.711 123.341 819.686 121.964C818.689 120.587 818.191 119.005 818.191 117.218C818.191 115.44 818.689 113.863 819.686 112.486C820.721 111.1 822.2 110.406 824.124 110.406C824.915 110.406 825.647 110.582 826.321 110.934C827.005 111.275 827.513 111.69 827.845 112.179V110.685H830.13V122.945C830.13 125.24 829.437 126.891 828.05 127.896C826.663 128.902 825.184 129.405 823.611 129.405C821.873 129.405 820.447 129.005 819.334 128.204V125.714C820.506 126.808 821.932 127.354 823.611 127.354C824.861 127.354 825.877 126.988 826.658 126.256C827.449 125.533 827.845 124.483 827.845 123.106ZM836.692 106.656C836.692 107.037 836.546 107.374 836.253 107.667C835.97 107.96 835.628 108.106 835.228 108.106C834.856 108.106 834.524 107.96 834.231 107.667C833.938 107.364 833.792 107.027 833.792 106.656C833.792 106.256 833.934 105.919 834.217 105.646C834.51 105.362 834.847 105.221 835.228 105.221C835.628 105.221 835.97 105.362 836.253 105.646C836.546 105.919 836.692 106.256 836.692 106.656ZM836.37 110.685V124H834.114V110.685H836.37ZM844.104 112.604V124H841.863V112.604H839.065V110.685H841.863V107.169H844.104V110.685H847.195V112.604H844.104ZM857.054 120.704V119.327C856.878 118.839 856.497 118.443 855.911 118.141C855.325 117.828 854.676 117.672 853.963 117.672C853.143 117.672 852.415 117.862 851.78 118.243C851.116 118.614 850.784 119.195 850.784 119.986C850.784 120.777 851.116 121.373 851.78 121.773C852.415 122.154 853.143 122.345 853.963 122.345C854.676 122.345 855.325 122.193 855.911 121.891C856.497 121.588 856.878 121.192 857.054 120.704ZM857.054 116.896V115.152C857.054 114.332 856.766 113.683 856.189 113.204C855.623 112.726 854.852 112.486 853.875 112.486C852.557 112.486 851.297 112.872 850.096 113.644V111.52C850.545 111.197 851.146 110.934 851.897 110.729C852.649 110.514 853.431 110.406 854.241 110.406C855.794 110.406 857.015 110.821 857.903 111.651C858.802 112.472 859.251 113.58 859.251 114.977V124H857.054V123.004C856.751 123.307 856.277 123.59 855.633 123.854C854.998 124.107 854.324 124.234 853.611 124.234C852.273 124.234 851.102 123.858 850.096 123.106C849.139 122.364 848.66 121.324 848.66 119.986C848.66 118.717 849.148 117.716 850.125 116.983C851.131 116.202 852.332 115.812 853.729 115.812C854.363 115.812 854.998 115.924 855.633 116.148C856.268 116.373 856.741 116.622 857.054 116.896ZM865.345 104.503V124H863.089V104.503H865.345ZM867.747 127.208L869.637 124.029C869.246 123.971 868.929 123.814 868.685 123.561C868.44 123.297 868.318 122.955 868.318 122.535C868.318 122.086 868.475 121.71 868.787 121.407C869.109 121.095 869.49 120.938 869.93 120.938C870.379 120.938 870.755 121.095 871.058 121.407C871.37 121.72 871.526 122.145 871.526 122.682C871.526 123.258 871.307 123.888 870.867 124.571L869.271 127.208H867.747ZM881.106 124V110.685H883.362V112.354C883.763 111.798 884.31 111.334 885.003 110.963C885.706 110.592 886.468 110.406 887.288 110.406C888.763 110.406 889.91 110.851 890.73 111.739C891.561 112.618 891.976 113.795 891.976 115.27V124H889.69V115.636C889.69 114.679 889.441 113.917 888.943 113.351C888.445 112.774 887.713 112.486 886.746 112.486C885.984 112.486 885.291 112.721 884.666 113.189C884.041 113.648 883.606 114.244 883.362 114.977V124H881.106ZM905.364 112.354C906.497 113.634 907.063 115.294 907.063 117.335C907.063 119.376 906.497 121.036 905.364 122.315C904.212 123.614 902.737 124.264 900.94 124.264C899.134 124.264 897.654 123.614 896.502 122.315C895.389 121.026 894.832 119.366 894.832 117.335C894.832 115.304 895.389 113.644 896.502 112.354C897.654 111.056 899.134 110.406 900.94 110.406C902.737 110.406 904.212 111.056 905.364 112.354ZM903.753 120.909C904.446 119.991 904.793 118.8 904.793 117.335C904.793 115.87 904.446 114.679 903.753 113.761C903.06 112.843 902.122 112.384 900.94 112.384C899.759 112.384 898.821 112.843 898.128 113.761C897.444 114.679 897.103 115.87 897.103 117.335C897.103 118.8 897.444 119.991 898.128 120.909C898.821 121.827 899.759 122.286 900.94 122.286C902.122 122.286 903.06 121.827 903.753 120.909ZM918.577 110.685L921.302 120.851L924.246 110.685H926.429L922.503 124H920.32L917.552 113.893L914.769 124H912.571L908.646 110.685H910.887L913.831 120.851L916.57 110.685H918.577ZM938.177 106.656C938.177 107.037 938.03 107.374 937.737 107.667C937.454 107.96 937.112 108.106 936.712 108.106C936.341 108.106 936.009 107.96 935.716 107.667C935.423 107.364 935.276 107.027 935.276 106.656C935.276 106.256 935.418 105.919 935.701 105.646C935.994 105.362 936.331 105.221 936.712 105.221C937.112 105.221 937.454 105.362 937.737 105.646C938.03 105.919 938.177 106.256 938.177 106.656ZM937.854 110.685V124H935.599V110.685H937.854ZM945.589 112.604V124H943.348V112.604H940.55V110.685H943.348V107.169H945.589V110.685H948.68V112.604H945.589ZM950.613 112.149V105.587H952.649V112.149H950.613ZM955.096 122.945V120.543C956.424 121.744 957.884 122.345 959.476 122.345C960.267 122.345 960.921 122.193 961.438 121.891C961.966 121.578 962.229 121.109 962.229 120.484C962.229 120.016 962.068 119.635 961.746 119.342C961.424 119.039 960.945 118.78 960.311 118.565L958.479 117.936C957.386 117.594 956.551 117.135 955.975 116.559C955.408 115.973 955.125 115.172 955.125 114.156C955.125 113.023 955.574 112.115 956.473 111.432C957.371 110.748 958.494 110.406 959.842 110.406C961.346 110.406 962.664 110.797 963.797 111.578V113.922C962.518 112.857 961.199 112.325 959.842 112.325C959.139 112.325 958.543 112.481 958.055 112.794C957.566 113.106 957.322 113.531 957.322 114.068C957.322 114.566 957.474 114.942 957.776 115.196C958.079 115.44 958.587 115.694 959.3 115.958L961.336 116.646C963.416 117.359 964.456 118.609 964.456 120.396C964.456 121.627 963.968 122.579 962.991 123.253C962.044 123.927 960.872 124.264 959.476 124.264C958.646 124.264 957.835 124.142 957.044 123.897C956.263 123.653 955.613 123.336 955.096 122.945ZM977.991 112.604V124H975.75V112.604H972.952V110.685H975.75V107.169H977.991V110.685H981.082V112.604H977.991ZM986.399 106.656C986.399 107.037 986.253 107.374 985.96 107.667C985.677 107.96 985.335 108.106 984.935 108.106C984.563 108.106 984.231 107.96 983.938 107.667C983.646 107.364 983.499 107.027 983.499 106.656C983.499 106.256 983.641 105.919 983.924 105.646C984.217 105.362 984.554 105.221 984.935 105.221C985.335 105.221 985.677 105.362 985.96 105.646C986.253 105.919 986.399 106.256 986.399 106.656ZM986.077 110.685V124H983.821V110.685H986.077ZM999.539 112.545C999.988 111.9 1000.56 111.383 1001.25 110.992C1001.95 110.602 1002.73 110.406 1003.6 110.406C1004.92 110.406 1005.95 110.836 1006.69 111.695C1007.43 112.555 1007.8 113.717 1007.8 115.182V124H1005.52V115.533C1005.52 114.586 1005.3 113.839 1004.87 113.292C1004.45 112.735 1003.83 112.457 1003 112.457C1002.31 112.457 1001.7 112.672 1001.15 113.102C1000.61 113.531 1000.25 114.103 1000.05 114.815V124H997.811V115.533C997.811 114.586 997.596 113.839 997.166 113.292C996.746 112.735 996.121 112.457 995.291 112.457C994.607 112.457 993.992 112.672 993.445 113.102C992.908 113.531 992.542 114.103 992.347 114.815V124H990.091V110.685H992.347V112.237C992.669 111.69 993.147 111.251 993.782 110.919C994.427 110.577 995.149 110.406 995.95 110.406C996.761 110.406 997.479 110.602 998.104 110.992C998.729 111.383 999.207 111.9 999.539 112.545ZM1016.6 112.325C1015.71 112.325 1014.92 112.638 1014.26 113.263C1013.6 113.888 1013.17 114.786 1012.97 115.958H1019.84C1019.79 114.903 1019.5 114.034 1018.95 113.351C1018.4 112.667 1017.62 112.325 1016.6 112.325ZM1021.1 123.106C1020.1 123.878 1018.75 124.264 1017.06 124.264C1015.12 124.264 1013.57 123.658 1012.42 122.447C1011.23 121.207 1010.64 119.547 1010.64 117.467C1010.64 115.377 1011.19 113.683 1012.28 112.384C1013.4 111.065 1014.83 110.406 1016.58 110.406C1018.33 110.406 1019.68 110.997 1020.62 112.179C1021.57 113.36 1022.04 114.942 1022.04 116.925V117.73H1012.85C1012.91 119.215 1013.35 120.348 1014.17 121.129C1015 121.9 1016.05 122.286 1017.32 122.286C1018.67 122.286 1019.93 121.866 1021.1 121.026V123.106ZM1035.44 112.604V124H1033.2V112.604H1030.4V110.685H1033.2V107.169H1035.44V110.685H1038.53V112.604H1035.44ZM1050.62 112.354C1051.75 113.634 1052.32 115.294 1052.32 117.335C1052.32 119.376 1051.75 121.036 1050.62 122.315C1049.47 123.614 1047.99 124.264 1046.19 124.264C1044.39 124.264 1042.91 123.614 1041.76 122.315C1040.64 121.026 1040.09 119.366 1040.09 117.335C1040.09 115.304 1040.64 113.644 1041.76 112.354C1042.91 111.056 1044.39 110.406 1046.19 110.406C1047.99 110.406 1049.47 111.056 1050.62 112.354ZM1049.01 120.909C1049.7 119.991 1050.05 118.8 1050.05 117.335C1050.05 115.87 1049.7 114.679 1049.01 113.761C1048.31 112.843 1047.38 112.384 1046.19 112.384C1045.01 112.384 1044.08 112.843 1043.38 113.761C1042.7 114.679 1042.36 115.87 1042.36 117.335C1042.36 118.8 1042.7 119.991 1043.38 120.909C1044.08 121.827 1045.01 122.286 1046.19 122.286C1047.38 122.286 1048.31 121.827 1049.01 120.909ZM1064.24 104.503V124H1061.99V104.503H1064.24ZM1073.26 112.325C1072.37 112.325 1071.58 112.638 1070.92 113.263C1070.26 113.888 1069.83 114.786 1069.63 115.958H1076.5C1076.45 114.903 1076.16 114.034 1075.61 113.351C1075.06 112.667 1074.28 112.325 1073.26 112.325ZM1077.76 123.106C1076.76 123.878 1075.41 124.264 1073.72 124.264C1071.78 124.264 1070.23 123.658 1069.08 122.447C1067.89 121.207 1067.3 119.547 1067.3 117.467C1067.3 115.377 1067.85 113.683 1068.94 112.384C1070.06 111.065 1071.49 110.406 1073.24 110.406C1074.99 110.406 1076.34 110.997 1077.28 112.179C1078.23 113.36 1078.7 114.942 1078.7 116.925V117.73H1069.51C1069.57 119.215 1070.01 120.348 1070.83 121.129C1071.66 121.9 1072.71 122.286 1073.98 122.286C1075.33 122.286 1076.59 121.866 1077.76 121.026V123.106ZM1085.33 112.604V124H1083.09V112.604H1080.3V110.685H1083.09V107.169H1085.33V110.685H1088.43V112.604H1085.33ZM1106.49 119.913V114.493C1106.14 113.868 1105.66 113.365 1105.05 112.984C1104.46 112.604 1103.81 112.413 1103.1 112.413C1101.87 112.413 1100.9 112.862 1100.17 113.761C1099.46 114.659 1099.1 115.812 1099.1 117.218C1099.1 118.624 1099.46 119.771 1100.17 120.66C1100.9 121.549 1101.87 121.993 1103.1 121.993C1103.81 121.993 1104.46 121.803 1105.05 121.422C1105.66 121.041 1106.14 120.538 1106.49 119.913ZM1106.49 123.106V122.228C1106.15 122.726 1105.63 123.15 1104.95 123.502C1104.28 123.854 1103.55 124.029 1102.77 124.029C1100.83 124.029 1099.35 123.341 1098.33 121.964C1097.33 120.587 1096.83 119.005 1096.83 117.218C1096.83 115.44 1097.33 113.863 1098.33 112.486C1099.36 111.1 1100.84 110.406 1102.77 110.406C1103.56 110.406 1104.29 110.582 1104.96 110.934C1105.65 111.275 1106.16 111.69 1106.49 112.179V110.685H1108.77V122.945C1108.77 125.24 1108.08 126.891 1106.69 127.896C1105.31 128.902 1103.83 129.405 1102.25 129.405C1100.52 129.405 1099.09 129.005 1097.98 128.204V125.714C1099.15 126.808 1100.57 127.354 1102.25 127.354C1103.5 127.354 1104.52 126.988 1105.3 126.256C1106.09 125.533 1106.49 124.483 1106.49 123.106ZM1122.34 112.354C1123.47 113.634 1124.04 115.294 1124.04 117.335C1124.04 119.376 1123.47 121.036 1122.34 122.315C1121.18 123.614 1119.71 124.264 1117.91 124.264C1116.11 124.264 1114.63 123.614 1113.47 122.315C1112.36 121.026 1111.8 119.366 1111.8 117.335C1111.8 115.304 1112.36 113.644 1113.47 112.354C1114.63 111.056 1116.11 110.406 1117.91 110.406C1119.71 110.406 1121.18 111.056 1122.34 112.354ZM1120.73 120.909C1121.42 119.991 1121.77 118.8 1121.77 117.335C1121.77 115.87 1121.42 114.679 1120.73 113.761C1120.03 112.843 1119.09 112.384 1117.91 112.384C1116.73 112.384 1115.79 112.843 1115.1 113.761C1114.42 114.679 1114.08 115.87 1114.08 117.335C1114.08 118.8 1114.42 119.991 1115.1 120.909C1115.79 121.827 1116.73 122.286 1117.91 122.286C1119.09 122.286 1120.03 121.827 1120.73 120.909ZM1143.28 112.354C1144.42 113.634 1144.98 115.294 1144.98 117.335C1144.98 119.376 1144.42 121.036 1143.28 122.315C1142.13 123.614 1140.66 124.264 1138.86 124.264C1137.05 124.264 1135.57 123.614 1134.42 122.315C1133.31 121.026 1132.75 119.366 1132.75 117.335C1132.75 115.304 1133.31 113.644 1134.42 112.354C1135.57 111.056 1137.05 110.406 1138.86 110.406C1140.66 110.406 1142.13 111.056 1143.28 112.354ZM1141.67 120.909C1142.37 119.991 1142.71 118.8 1142.71 117.335C1142.71 115.87 1142.37 114.679 1141.67 113.761C1140.98 112.843 1140.04 112.384 1138.86 112.384C1137.68 112.384 1136.74 112.843 1136.05 113.761C1135.36 114.679 1135.02 115.87 1135.02 117.335C1135.02 118.8 1135.36 119.991 1136.05 120.909C1136.74 121.827 1137.68 122.286 1138.86 122.286C1140.04 122.286 1140.98 121.827 1141.67 120.909ZM1154.7 104.532V106.568C1154.34 106.334 1153.88 106.217 1153.29 106.217C1152.62 106.217 1152.08 106.427 1151.68 106.847C1151.29 107.257 1151.09 107.853 1151.09 108.634V110.685H1154.09V112.604H1151.09V124H1148.88V112.604H1146.62V110.685H1148.88V108.458C1148.88 107.169 1149.26 106.144 1150.02 105.382C1150.79 104.61 1151.77 104.225 1152.95 104.225C1153.61 104.225 1154.19 104.327 1154.7 104.532ZM167.947 169.098H165.721L167.728 164.088L162.542 150.685H164.974L168.899 161.173L172.767 150.685H175.11L167.947 169.098ZM187.005 152.354C188.138 153.634 188.704 155.294 188.704 157.335C188.704 159.376 188.138 161.036 187.005 162.315C185.853 163.614 184.378 164.264 182.581 164.264C180.774 164.264 179.295 163.614 178.143 162.315C177.029 161.026 176.473 159.366 176.473 157.335C176.473 155.304 177.029 153.644 178.143 152.354C179.295 151.056 180.774 150.406 182.581 150.406C184.378 150.406 185.853 151.056 187.005 152.354ZM185.394 160.909C186.087 159.991 186.434 158.8 186.434 157.335C186.434 155.87 186.087 154.679 185.394 153.761C184.7 152.843 183.763 152.384 182.581 152.384C181.399 152.384 180.462 152.843 179.769 153.761C179.085 154.679 178.743 155.87 178.743 157.335C178.743 158.8 179.085 159.991 179.769 160.909C180.462 161.827 181.399 162.286 182.581 162.286C183.763 162.286 184.7 161.827 185.394 160.909ZM202.371 150.685V164H200.101V162.315C199.7 162.882 199.158 163.351 198.475 163.722C197.791 164.083 197.039 164.264 196.219 164.264C194.744 164.264 193.602 163.824 192.791 162.945C191.98 162.066 191.575 160.89 191.575 159.415V150.685H193.86V159.049C193.86 160.006 194.1 160.772 194.578 161.349C195.066 161.915 195.794 162.198 196.761 162.198C197.522 162.198 198.206 161.969 198.812 161.51C199.427 161.041 199.856 160.44 200.101 159.708V150.685H202.371ZM213.211 150.626V152.926C212.84 152.691 212.342 152.574 211.717 152.574C211.004 152.574 210.364 152.799 209.798 153.248C209.241 153.688 208.851 154.293 208.626 155.064V164H206.37V150.685H208.626V152.413C208.919 151.837 209.363 151.358 209.959 150.978C210.555 150.597 211.209 150.406 211.922 150.406C212.488 150.406 212.918 150.479 213.211 150.626ZM224.886 154.64V160.045C225.228 160.719 225.706 161.251 226.321 161.642C226.937 162.032 227.596 162.228 228.299 162.228C229.529 162.228 230.511 161.769 231.243 160.851C231.985 159.933 232.356 158.761 232.356 157.335C232.356 155.909 231.99 154.742 231.258 153.834C230.525 152.916 229.539 152.457 228.299 152.457C227.596 152.457 226.937 152.652 226.321 153.043C225.706 153.434 225.228 153.966 224.886 154.64ZM224.886 162.447V169.098H222.63V150.685H224.886V152.237C225.257 151.72 225.774 151.285 226.438 150.934C227.112 150.582 227.845 150.406 228.636 150.406C230.589 150.406 232.078 151.109 233.104 152.516C234.119 153.883 234.627 155.489 234.627 157.335C234.627 159.181 234.119 160.802 233.104 162.198C232.078 163.575 230.589 164.264 228.636 164.264C227.845 164.264 227.112 164.093 226.438 163.751C225.774 163.399 225.257 162.965 224.886 162.447ZM245.101 160.704V159.327C244.925 158.839 244.544 158.443 243.958 158.141C243.372 157.828 242.723 157.672 242.01 157.672C241.189 157.672 240.462 157.862 239.827 158.243C239.163 158.614 238.831 159.195 238.831 159.986C238.831 160.777 239.163 161.373 239.827 161.773C240.462 162.154 241.189 162.345 242.01 162.345C242.723 162.345 243.372 162.193 243.958 161.891C244.544 161.588 244.925 161.192 245.101 160.704ZM245.101 156.896V155.152C245.101 154.332 244.812 153.683 244.236 153.204C243.67 152.726 242.898 152.486 241.922 152.486C240.604 152.486 239.344 152.872 238.143 153.644V151.52C238.592 151.197 239.192 150.934 239.944 150.729C240.696 150.514 241.478 150.406 242.288 150.406C243.841 150.406 245.062 150.821 245.95 151.651C246.849 152.472 247.298 153.58 247.298 154.977V164H245.101V163.004C244.798 163.307 244.324 163.59 243.68 163.854C243.045 164.107 242.371 164.234 241.658 164.234C240.32 164.234 239.148 163.858 238.143 163.106C237.186 162.364 236.707 161.324 236.707 159.986C236.707 158.717 237.195 157.716 238.172 156.983C239.178 156.202 240.379 155.812 241.775 155.812C242.41 155.812 243.045 155.924 243.68 156.148C244.314 156.373 244.788 156.622 245.101 156.896ZM253.392 154.64V160.045C253.733 160.719 254.212 161.251 254.827 161.642C255.442 162.032 256.102 162.228 256.805 162.228C258.035 162.228 259.017 161.769 259.749 160.851C260.491 159.933 260.862 158.761 260.862 157.335C260.862 155.909 260.496 154.742 259.764 153.834C259.031 152.916 258.045 152.457 256.805 152.457C256.102 152.457 255.442 152.652 254.827 153.043C254.212 153.434 253.733 153.966 253.392 154.64ZM253.392 162.447V169.098H251.136V150.685H253.392V152.237C253.763 151.72 254.28 151.285 254.944 150.934C255.618 150.582 256.351 150.406 257.142 150.406C259.095 150.406 260.584 151.109 261.609 152.516C262.625 153.883 263.133 155.489 263.133 157.335C263.133 159.181 262.625 160.802 261.609 162.198C260.584 163.575 259.095 164.264 257.142 164.264C256.351 164.264 255.618 164.093 254.944 163.751C254.28 163.399 253.763 162.965 253.392 162.447ZM271.263 152.325C270.364 152.325 269.583 152.638 268.919 153.263C268.255 153.888 267.825 154.786 267.63 155.958H274.5C274.451 154.903 274.153 154.034 273.606 153.351C273.06 152.667 272.278 152.325 271.263 152.325ZM275.76 163.106C274.754 163.878 273.406 164.264 271.717 164.264C269.773 164.264 268.226 163.658 267.073 162.447C265.892 161.207 265.301 159.547 265.301 157.467C265.301 155.377 265.848 153.683 266.941 152.384C268.055 151.065 269.485 150.406 271.233 150.406C272.991 150.406 274.339 150.997 275.276 152.179C276.224 153.36 276.697 154.942 276.697 156.925V157.73H267.513C267.571 159.215 268.011 160.348 268.831 161.129C269.661 161.9 270.711 162.286 271.98 162.286C273.328 162.286 274.588 161.866 275.76 161.026V163.106ZM286.6 150.626V152.926C286.229 152.691 285.73 152.574 285.105 152.574C284.393 152.574 283.753 152.799 283.187 153.248C282.63 153.688 282.239 154.293 282.015 155.064V164H279.759V150.685H282.015V152.413C282.308 151.837 282.752 151.358 283.348 150.978C283.943 150.597 284.598 150.406 285.311 150.406C285.877 150.406 286.307 150.479 286.6 150.626ZM307.269 146.656C307.269 147.037 307.122 147.374 306.829 147.667C306.546 147.96 306.204 148.106 305.804 148.106C305.433 148.106 305.101 147.96 304.808 147.667C304.515 147.364 304.368 147.027 304.368 146.656C304.368 146.256 304.51 145.919 304.793 145.646C305.086 145.362 305.423 145.221 305.804 145.221C306.204 145.221 306.546 145.362 306.829 145.646C307.122 145.919 307.269 146.256 307.269 146.656ZM306.946 150.685V164H304.69V150.685H306.946ZM302.684 144.532V146.568C302.332 146.334 301.863 146.217 301.277 146.217C300.604 146.217 300.066 146.427 299.666 146.847C299.275 147.257 299.08 147.853 299.08 148.634V150.685H302.083V152.604H299.08V164H296.868V152.604H294.612V150.685H296.868V148.458C296.868 147.169 297.249 146.144 298.011 145.382C298.782 144.61 299.759 144.225 300.94 144.225C301.595 144.225 302.176 144.327 302.684 144.532ZM313.216 144.503V164H310.96V144.503H313.216ZM322.239 152.325C321.341 152.325 320.56 152.638 319.896 153.263C319.231 153.888 318.802 154.786 318.606 155.958H325.477C325.428 154.903 325.13 154.034 324.583 153.351C324.036 152.667 323.255 152.325 322.239 152.325ZM326.736 163.106C325.73 163.878 324.383 164.264 322.693 164.264C320.75 164.264 319.202 163.658 318.05 162.447C316.868 161.207 316.277 159.547 316.277 157.467C316.277 155.377 316.824 153.683 317.918 152.384C319.031 151.065 320.462 150.406 322.21 150.406C323.968 150.406 325.315 150.997 326.253 152.179C327.2 153.36 327.674 154.942 327.674 156.925V157.73H318.489C318.548 159.215 318.987 160.348 319.808 161.129C320.638 161.9 321.688 162.286 322.957 162.286C324.305 162.286 325.564 161.866 326.736 161.026V163.106ZM330.076 162.945V160.543C331.404 161.744 332.864 162.345 334.456 162.345C335.247 162.345 335.901 162.193 336.419 161.891C336.946 161.578 337.21 161.109 337.21 160.484C337.21 160.016 337.049 159.635 336.727 159.342C336.404 159.039 335.926 158.78 335.291 158.565L333.46 157.936C332.366 157.594 331.531 157.135 330.955 156.559C330.389 155.973 330.105 155.172 330.105 154.156C330.105 153.023 330.555 152.115 331.453 151.432C332.352 150.748 333.475 150.406 334.822 150.406C336.326 150.406 337.645 150.797 338.777 151.578V153.922C337.498 152.857 336.18 152.325 334.822 152.325C334.119 152.325 333.523 152.481 333.035 152.794C332.547 153.106 332.303 153.531 332.303 154.068C332.303 154.566 332.454 154.942 332.757 155.196C333.06 155.44 333.567 155.694 334.28 155.958L336.316 156.646C338.396 157.359 339.437 158.609 339.437 160.396C339.437 161.627 338.948 162.579 337.972 163.253C337.024 163.927 335.853 164.264 334.456 164.264C333.626 164.264 332.815 164.142 332.024 163.897C331.243 163.653 330.594 163.336 330.076 162.945ZM356.663 160.704V159.327C356.487 158.839 356.106 158.443 355.521 158.141C354.935 157.828 354.285 157.672 353.572 157.672C352.752 157.672 352.024 157.862 351.39 158.243C350.726 158.614 350.394 159.195 350.394 159.986C350.394 160.777 350.726 161.373 351.39 161.773C352.024 162.154 352.752 162.345 353.572 162.345C354.285 162.345 354.935 162.193 355.521 161.891C356.106 161.588 356.487 161.192 356.663 160.704ZM356.663 156.896V155.152C356.663 154.332 356.375 153.683 355.799 153.204C355.232 152.726 354.461 152.486 353.484 152.486C352.166 152.486 350.906 152.872 349.705 153.644V151.52C350.154 151.197 350.755 150.934 351.507 150.729C352.259 150.514 353.04 150.406 353.851 150.406C355.403 150.406 356.624 150.821 357.513 151.651C358.411 152.472 358.86 153.58 358.86 154.977V164H356.663V163.004C356.36 163.307 355.887 163.59 355.242 163.854C354.607 164.107 353.934 164.234 353.221 164.234C351.883 164.234 350.711 163.858 349.705 163.106C348.748 162.364 348.27 161.324 348.27 159.986C348.27 158.717 348.758 157.716 349.734 156.983C350.74 156.202 351.941 155.812 353.338 155.812C353.973 155.812 354.607 155.924 355.242 156.148C355.877 156.373 356.351 156.622 356.663 156.896ZM362.698 164V150.685H364.954V152.354C365.354 151.798 365.901 151.334 366.595 150.963C367.298 150.592 368.06 150.406 368.88 150.406C370.354 150.406 371.502 150.851 372.322 151.739C373.152 152.618 373.567 153.795 373.567 155.27V164H371.282V155.636C371.282 154.679 371.033 153.917 370.535 153.351C370.037 152.774 369.305 152.486 368.338 152.486C367.576 152.486 366.883 152.721 366.258 153.189C365.633 153.648 365.198 154.244 364.954 154.977V164H362.698ZM386.165 160.045V154.64C385.823 153.966 385.345 153.434 384.729 153.043C384.114 152.652 383.455 152.457 382.752 152.457C381.512 152.457 380.525 152.916 379.793 153.834C379.061 154.742 378.694 155.909 378.694 157.335C378.694 158.761 379.061 159.933 379.793 160.851C380.535 161.769 381.521 162.228 382.752 162.228C383.455 162.228 384.114 162.032 384.729 161.642C385.345 161.251 385.823 160.719 386.165 160.045ZM386.165 164V162.447C385.833 162.955 385.32 163.385 384.627 163.736C383.943 164.088 383.206 164.264 382.415 164.264C380.501 164.264 379.012 163.585 377.947 162.228C376.932 160.86 376.424 159.229 376.424 157.335C376.424 155.47 376.932 153.854 377.947 152.486C379.012 151.1 380.501 150.406 382.415 150.406C383.206 150.406 383.943 150.587 384.627 150.948C385.32 151.3 385.833 151.729 386.165 152.237V144.503H388.45V164H386.165ZM407.845 160.045V154.64C407.503 153.966 407.024 153.434 406.409 153.043C405.794 152.652 405.135 152.457 404.432 152.457C403.191 152.457 402.205 152.916 401.473 153.834C400.74 154.742 400.374 155.909 400.374 157.335C400.374 158.761 400.74 159.933 401.473 160.851C402.215 161.769 403.201 162.228 404.432 162.228C405.135 162.228 405.794 162.032 406.409 161.642C407.024 161.251 407.503 160.719 407.845 160.045ZM407.845 164V162.447C407.513 162.955 407 163.385 406.307 163.736C405.623 164.088 404.886 164.264 404.095 164.264C402.181 164.264 400.691 163.585 399.627 162.228C398.611 160.86 398.104 159.229 398.104 157.335C398.104 155.47 398.611 153.854 399.627 152.486C400.691 151.1 402.181 150.406 404.095 150.406C404.886 150.406 405.623 150.587 406.307 150.948C407 151.3 407.513 151.729 407.845 152.237V144.503H410.13V164H407.845ZM423.694 152.354C424.827 153.634 425.394 155.294 425.394 157.335C425.394 159.376 424.827 161.036 423.694 162.315C422.542 163.614 421.067 164.264 419.271 164.264C417.464 164.264 415.984 163.614 414.832 162.315C413.719 161.026 413.162 159.366 413.162 157.335C413.162 155.304 413.719 153.644 414.832 152.354C415.984 151.056 417.464 150.406 419.271 150.406C421.067 150.406 422.542 151.056 423.694 152.354ZM422.083 160.909C422.776 159.991 423.123 158.8 423.123 157.335C423.123 155.87 422.776 154.679 422.083 153.761C421.39 152.843 420.452 152.384 419.271 152.384C418.089 152.384 417.151 152.843 416.458 153.761C415.774 154.679 415.433 155.87 415.433 157.335C415.433 158.8 415.774 159.991 416.458 160.909C417.151 161.827 418.089 162.286 419.271 162.286C420.452 162.286 421.39 161.827 422.083 160.909ZM427.547 157.335C427.547 155.216 428.167 153.536 429.407 152.296C430.638 151.036 432.156 150.406 433.963 150.406C435.496 150.406 436.688 150.777 437.537 151.52V153.805C436.609 152.877 435.467 152.413 434.109 152.413C432.947 152.413 431.937 152.857 431.077 153.746C430.237 154.615 429.817 155.812 429.817 157.335C429.817 158.868 430.237 160.069 431.077 160.938C431.927 161.817 432.938 162.257 434.109 162.257C435.477 162.257 436.619 161.798 437.537 160.88V163.165C436.697 163.897 435.506 164.264 433.963 164.264C432.166 164.264 430.647 163.644 429.407 162.403C428.167 161.134 427.547 159.444 427.547 157.335ZM451.277 150.685V164H449.007V162.315C448.606 162.882 448.064 163.351 447.381 163.722C446.697 164.083 445.945 164.264 445.125 164.264C443.65 164.264 442.508 163.824 441.697 162.945C440.887 162.066 440.481 160.89 440.481 159.415V150.685H442.767V159.049C442.767 160.006 443.006 160.772 443.484 161.349C443.973 161.915 444.7 162.198 445.667 162.198C446.429 162.198 447.112 161.969 447.718 161.51C448.333 161.041 448.763 160.44 449.007 159.708V150.685H451.277ZM464.725 152.545C465.174 151.9 465.745 151.383 466.438 150.992C467.132 150.602 467.913 150.406 468.782 150.406C470.101 150.406 471.131 150.836 471.873 151.695C472.615 152.555 472.986 153.717 472.986 155.182V164H470.701V155.533C470.701 154.586 470.486 153.839 470.057 153.292C469.637 152.735 469.012 152.457 468.182 152.457C467.498 152.457 466.883 152.672 466.336 153.102C465.799 153.531 465.433 154.103 465.237 154.815V164H462.996V155.533C462.996 154.586 462.781 153.839 462.352 153.292C461.932 152.735 461.307 152.457 460.477 152.457C459.793 152.457 459.178 152.672 458.631 153.102C458.094 153.531 457.728 154.103 457.532 154.815V164H455.276V150.685H457.532V152.237C457.854 151.69 458.333 151.251 458.968 150.919C459.612 150.577 460.335 150.406 461.136 150.406C461.946 150.406 462.664 150.602 463.289 150.992C463.914 151.383 464.393 151.9 464.725 152.545ZM481.79 152.325C480.892 152.325 480.11 152.638 479.446 153.263C478.782 153.888 478.353 154.786 478.157 155.958H485.027C484.979 154.903 484.681 154.034 484.134 153.351C483.587 152.667 482.806 152.325 481.79 152.325ZM486.287 163.106C485.281 163.878 483.934 164.264 482.244 164.264C480.301 164.264 478.753 163.658 477.601 162.447C476.419 161.207 475.828 159.547 475.828 157.467C475.828 155.377 476.375 153.683 477.469 152.384C478.582 151.065 480.013 150.406 481.761 150.406C483.519 150.406 484.866 150.997 485.804 152.179C486.751 153.36 487.225 154.942 487.225 156.925V157.73H478.04C478.099 159.215 478.538 160.348 479.358 161.129C480.188 161.9 481.238 162.286 482.508 162.286C483.855 162.286 485.115 161.866 486.287 161.026V163.106ZM490.286 164V150.685H492.542V152.354C492.942 151.798 493.489 151.334 494.183 150.963C494.886 150.592 495.647 150.406 496.468 150.406C497.942 150.406 499.09 150.851 499.91 151.739C500.74 152.618 501.155 153.795 501.155 155.27V164H498.87V155.636C498.87 154.679 498.621 153.917 498.123 153.351C497.625 152.774 496.893 152.486 495.926 152.486C495.164 152.486 494.471 152.721 493.846 153.189C493.221 153.648 492.786 154.244 492.542 154.977V164H490.286ZM508.685 152.604V164H506.443V152.604H503.646V150.685H506.443V147.169H508.685V150.685H511.775V152.604H508.685ZM513.65 162.945V160.543C514.979 161.744 516.438 162.345 518.03 162.345C518.821 162.345 519.476 162.193 519.993 161.891C520.521 161.578 520.784 161.109 520.784 160.484C520.784 160.016 520.623 159.635 520.301 159.342C519.979 159.039 519.5 158.78 518.865 158.565L517.034 157.936C515.94 157.594 515.105 157.135 514.529 156.559C513.963 155.973 513.68 155.172 513.68 154.156C513.68 153.023 514.129 152.115 515.027 151.432C515.926 150.748 517.049 150.406 518.396 150.406C519.9 150.406 521.219 150.797 522.352 151.578V153.922C521.072 152.857 519.754 152.325 518.396 152.325C517.693 152.325 517.098 152.481 516.609 152.794C516.121 153.106 515.877 153.531 515.877 154.068C515.877 154.566 516.028 154.942 516.331 155.196C516.634 155.44 517.142 155.694 517.854 155.958L519.891 156.646C521.971 157.359 523.011 158.609 523.011 160.396C523.011 161.627 522.522 162.579 521.546 163.253C520.599 163.927 519.427 164.264 518.03 164.264C517.2 164.264 516.39 164.142 515.599 163.897C514.817 163.653 514.168 163.336 513.65 162.945ZM540.237 160.704V159.327C540.062 158.839 539.681 158.443 539.095 158.141C538.509 157.828 537.859 157.672 537.146 157.672C536.326 157.672 535.599 157.862 534.964 158.243C534.3 158.614 533.968 159.195 533.968 159.986C533.968 160.777 534.3 161.373 534.964 161.773C535.599 162.154 536.326 162.345 537.146 162.345C537.859 162.345 538.509 162.193 539.095 161.891C539.681 161.588 540.062 161.192 540.237 160.704ZM540.237 156.896V155.152C540.237 154.332 539.949 153.683 539.373 153.204C538.807 152.726 538.035 152.486 537.059 152.486C535.74 152.486 534.48 152.872 533.279 153.644V151.52C533.729 151.197 534.329 150.934 535.081 150.729C535.833 150.514 536.614 150.406 537.425 150.406C538.978 150.406 540.198 150.821 541.087 151.651C541.985 152.472 542.435 153.58 542.435 154.977V164H540.237V163.004C539.935 163.307 539.461 163.59 538.816 163.854C538.182 164.107 537.508 164.234 536.795 164.234C535.457 164.234 534.285 163.858 533.279 163.106C532.322 162.364 531.844 161.324 531.844 159.986C531.844 158.717 532.332 157.716 533.309 156.983C534.314 156.202 535.516 155.812 536.912 155.812C537.547 155.812 538.182 155.924 538.816 156.148C539.451 156.373 539.925 156.622 540.237 156.896ZM546.272 164V150.685H548.528V152.354C548.929 151.798 549.476 151.334 550.169 150.963C550.872 150.592 551.634 150.406 552.454 150.406C553.929 150.406 555.076 150.851 555.896 151.739C556.727 152.618 557.142 153.795 557.142 155.27V164H554.856V155.636C554.856 154.679 554.607 153.917 554.109 153.351C553.611 152.774 552.879 152.486 551.912 152.486C551.15 152.486 550.457 152.721 549.832 153.189C549.207 153.648 548.772 154.244 548.528 154.977V164H546.272ZM569.739 160.045V154.64C569.397 153.966 568.919 153.434 568.304 153.043C567.688 152.652 567.029 152.457 566.326 152.457C565.086 152.457 564.1 152.916 563.367 153.834C562.635 154.742 562.269 155.909 562.269 157.335C562.269 158.761 562.635 159.933 563.367 160.851C564.109 161.769 565.096 162.228 566.326 162.228C567.029 162.228 567.688 162.032 568.304 161.642C568.919 161.251 569.397 160.719 569.739 160.045ZM569.739 164V162.447C569.407 162.955 568.895 163.385 568.201 163.736C567.518 164.088 566.78 164.264 565.989 164.264C564.075 164.264 562.586 163.585 561.521 162.228C560.506 160.86 559.998 159.229 559.998 157.335C559.998 155.47 560.506 153.854 561.521 152.486C562.586 151.1 564.075 150.406 565.989 150.406C566.78 150.406 567.518 150.587 568.201 150.948C568.895 151.3 569.407 151.729 569.739 152.237V144.503H572.024V164H569.739ZM591.331 159.913V154.493C590.979 153.868 590.501 153.365 589.896 152.984C589.3 152.604 588.65 152.413 587.947 152.413C586.717 152.413 585.74 152.862 585.018 153.761C584.305 154.659 583.948 155.812 583.948 157.218C583.948 158.624 584.305 159.771 585.018 160.66C585.74 161.549 586.717 161.993 587.947 161.993C588.65 161.993 589.3 161.803 589.896 161.422C590.501 161.041 590.979 160.538 591.331 159.913ZM591.331 163.106V162.228C590.989 162.726 590.477 163.15 589.793 163.502C589.119 163.854 588.392 164.029 587.61 164.029C585.677 164.029 584.197 163.341 583.172 161.964C582.176 160.587 581.678 159.005 581.678 157.218C581.678 155.44 582.176 153.863 583.172 152.486C584.207 151.1 585.687 150.406 587.61 150.406C588.401 150.406 589.134 150.582 589.808 150.934C590.491 151.275 590.999 151.69 591.331 152.179V150.685H593.616V162.945C593.616 165.24 592.923 166.891 591.536 167.896C590.149 168.902 588.67 169.405 587.098 169.405C585.359 169.405 583.934 169.005 582.82 168.204V165.714C583.992 166.808 585.418 167.354 587.098 167.354C588.348 167.354 589.363 166.988 590.145 166.256C590.936 165.533 591.331 164.483 591.331 163.106ZM602.61 152.325C601.712 152.325 600.931 152.638 600.267 153.263C599.603 153.888 599.173 154.786 598.978 155.958H605.848C605.799 154.903 605.501 154.034 604.954 153.351C604.407 152.667 603.626 152.325 602.61 152.325ZM607.107 163.106C606.102 163.878 604.754 164.264 603.064 164.264C601.121 164.264 599.573 163.658 598.421 162.447C597.239 161.207 596.648 159.547 596.648 157.467C596.648 155.377 597.195 153.683 598.289 152.384C599.402 151.065 600.833 150.406 602.581 150.406C604.339 150.406 605.687 150.997 606.624 152.179C607.571 153.36 608.045 154.942 608.045 156.925V157.73H598.86C598.919 159.215 599.358 160.348 600.179 161.129C601.009 161.9 602.059 162.286 603.328 162.286C604.676 162.286 605.936 161.866 607.107 161.026V163.106ZM614.681 152.604V164H612.439V152.604H609.642V150.685H612.439V147.169H614.681V150.685H617.771V152.604H614.681ZM636.712 152.354C637.845 153.634 638.411 155.294 638.411 157.335C638.411 159.376 637.845 161.036 636.712 162.315C635.56 163.614 634.085 164.264 632.288 164.264C630.481 164.264 629.002 163.614 627.85 162.315C626.736 161.026 626.18 159.366 626.18 157.335C626.18 155.304 626.736 153.644 627.85 152.354C629.002 151.056 630.481 150.406 632.288 150.406C634.085 150.406 635.56 151.056 636.712 152.354ZM635.101 160.909C635.794 159.991 636.141 158.8 636.141 157.335C636.141 155.87 635.794 154.679 635.101 153.761C634.407 152.843 633.47 152.384 632.288 152.384C631.106 152.384 630.169 152.843 629.476 153.761C628.792 154.679 628.45 155.87 628.45 157.335C628.45 158.8 628.792 159.991 629.476 160.909C630.169 161.827 631.106 162.286 632.288 162.286C633.47 162.286 634.407 161.827 635.101 160.909ZM641.458 164V150.685H643.714V152.354C644.114 151.798 644.661 151.334 645.354 150.963C646.058 150.592 646.819 150.406 647.64 150.406C649.114 150.406 650.262 150.851 651.082 151.739C651.912 152.618 652.327 153.795 652.327 155.27V164H650.042V155.636C650.042 154.679 649.793 153.917 649.295 153.351C648.797 152.774 648.064 152.486 647.098 152.486C646.336 152.486 645.643 152.721 645.018 153.189C644.393 153.648 643.958 154.244 643.714 154.977V164H641.458ZM672.337 152.354C673.47 153.634 674.036 155.294 674.036 157.335C674.036 159.376 673.47 161.036 672.337 162.315C671.185 163.614 669.71 164.264 667.913 164.264C666.106 164.264 664.627 163.614 663.475 162.315C662.361 161.026 661.805 159.366 661.805 157.335C661.805 155.304 662.361 153.644 663.475 152.354C664.627 151.056 666.106 150.406 667.913 150.406C669.71 150.406 671.185 151.056 672.337 152.354ZM670.726 160.909C671.419 159.991 671.766 158.8 671.766 157.335C671.766 155.87 671.419 154.679 670.726 153.761C670.032 152.843 669.095 152.384 667.913 152.384C666.731 152.384 665.794 152.843 665.101 153.761C664.417 154.679 664.075 155.87 664.075 157.335C664.075 158.8 664.417 159.991 665.101 160.909C665.794 161.827 666.731 162.286 667.913 162.286C669.095 162.286 670.032 161.827 670.726 160.909ZM687.703 150.685V164H685.433V162.315C685.032 162.882 684.49 163.351 683.807 163.722C683.123 164.083 682.371 164.264 681.551 164.264C680.076 164.264 678.934 163.824 678.123 162.945C677.312 162.066 676.907 160.89 676.907 159.415V150.685H679.192V159.049C679.192 160.006 679.432 160.772 679.91 161.349C680.398 161.915 681.126 162.198 682.093 162.198C682.854 162.198 683.538 161.969 684.144 161.51C684.759 161.041 685.188 160.44 685.433 159.708V150.685H687.703ZM698.543 150.626V152.926C698.172 152.691 697.674 152.574 697.049 152.574C696.336 152.574 695.696 152.799 695.13 153.248C694.573 153.688 694.183 154.293 693.958 155.064V164H691.702V150.685H693.958V152.413C694.251 151.837 694.695 151.358 695.291 150.978C695.887 150.597 696.541 150.406 697.254 150.406C697.82 150.406 698.25 150.479 698.543 150.626ZM717.542 152.354C718.675 153.634 719.241 155.294 719.241 157.335C719.241 159.376 718.675 161.036 717.542 162.315C716.39 163.614 714.915 164.264 713.118 164.264C711.312 164.264 709.832 163.614 708.68 162.315C707.566 161.026 707.01 159.366 707.01 157.335C707.01 155.304 707.566 153.644 708.68 152.354C709.832 151.056 711.312 150.406 713.118 150.406C714.915 150.406 716.39 151.056 717.542 152.354ZM715.931 160.909C716.624 159.991 716.971 158.8 716.971 157.335C716.971 155.87 716.624 154.679 715.931 153.761C715.237 152.843 714.3 152.384 713.118 152.384C711.937 152.384 710.999 152.843 710.306 153.761C709.622 154.679 709.28 155.87 709.28 157.335C709.28 158.8 709.622 159.991 710.306 160.909C710.999 161.827 711.937 162.286 713.118 162.286C714.3 162.286 715.237 161.827 715.931 160.909ZM722.288 164V150.685H724.544V152.354C724.944 151.798 725.491 151.334 726.185 150.963C726.888 150.592 727.649 150.406 728.47 150.406C729.944 150.406 731.092 150.851 731.912 151.739C732.742 152.618 733.157 153.795 733.157 155.27V164H730.872V155.636C730.872 154.679 730.623 153.917 730.125 153.351C729.627 152.774 728.895 152.486 727.928 152.486C727.166 152.486 726.473 152.721 725.848 153.189C725.223 153.648 724.788 154.244 724.544 154.977V164H722.288ZM739.222 144.503V164H736.966V144.503H739.222ZM745.813 146.656C745.813 147.037 745.667 147.374 745.374 147.667C745.091 147.96 744.749 148.106 744.349 148.106C743.978 148.106 743.646 147.96 743.353 147.667C743.06 147.364 742.913 147.027 742.913 146.656C742.913 146.256 743.055 145.919 743.338 145.646C743.631 145.362 743.968 145.221 744.349 145.221C744.749 145.221 745.091 145.362 745.374 145.646C745.667 145.919 745.813 146.256 745.813 146.656ZM745.491 150.685V164H743.235V150.685H745.491ZM749.505 164V150.685H751.761V152.354C752.161 151.798 752.708 151.334 753.401 150.963C754.104 150.592 754.866 150.406 755.687 150.406C757.161 150.406 758.309 150.851 759.129 151.739C759.959 152.618 760.374 153.795 760.374 155.27V164H758.089V155.636C758.089 154.679 757.84 153.917 757.342 153.351C756.844 152.774 756.111 152.486 755.145 152.486C754.383 152.486 753.689 152.721 753.064 153.189C752.439 153.648 752.005 154.244 751.761 154.977V164H749.505ZM769.192 152.325C768.294 152.325 767.513 152.638 766.849 153.263C766.185 153.888 765.755 154.786 765.56 155.958H772.43C772.381 154.903 772.083 154.034 771.536 153.351C770.989 152.667 770.208 152.325 769.192 152.325ZM773.689 163.106C772.684 163.878 771.336 164.264 769.646 164.264C767.703 164.264 766.155 163.658 765.003 162.447C763.821 161.207 763.23 159.547 763.23 157.467C763.23 155.377 763.777 153.683 764.871 152.384C765.984 151.065 767.415 150.406 769.163 150.406C770.921 150.406 772.269 150.997 773.206 152.179C774.153 153.36 774.627 154.942 774.627 156.925V157.73H765.442C765.501 159.215 765.94 160.348 766.761 161.129C767.591 161.9 768.641 162.286 769.91 162.286C771.258 162.286 772.518 161.866 773.689 161.026V163.106ZM786.565 154.64V160.045C786.907 160.719 787.386 161.251 788.001 161.642C788.616 162.032 789.275 162.228 789.979 162.228C791.209 162.228 792.19 161.769 792.923 160.851C793.665 159.933 794.036 158.761 794.036 157.335C794.036 155.909 793.67 154.742 792.938 153.834C792.205 152.916 791.219 152.457 789.979 152.457C789.275 152.457 788.616 152.652 788.001 153.043C787.386 153.434 786.907 153.966 786.565 154.64ZM786.565 162.447V169.098H784.31V150.685H786.565V152.237C786.937 151.72 787.454 151.285 788.118 150.934C788.792 150.582 789.524 150.406 790.315 150.406C792.269 150.406 793.758 151.109 794.783 152.516C795.799 153.883 796.307 155.489 796.307 157.335C796.307 159.181 795.799 160.802 794.783 162.198C793.758 163.575 792.269 164.264 790.315 164.264C789.524 164.264 788.792 164.093 788.118 163.751C787.454 163.399 786.937 162.965 786.565 162.447ZM801.624 144.503V164H799.368V144.503H801.624ZM813.05 160.704V159.327C812.874 158.839 812.493 158.443 811.907 158.141C811.321 157.828 810.672 157.672 809.959 157.672C809.139 157.672 808.411 157.862 807.776 158.243C807.112 158.614 806.78 159.195 806.78 159.986C806.78 160.777 807.112 161.373 807.776 161.773C808.411 162.154 809.139 162.345 809.959 162.345C810.672 162.345 811.321 162.193 811.907 161.891C812.493 161.588 812.874 161.192 813.05 160.704ZM813.05 156.896V155.152C813.05 154.332 812.762 153.683 812.186 153.204C811.619 152.726 810.848 152.486 809.871 152.486C808.553 152.486 807.293 152.872 806.092 153.644V151.52C806.541 151.197 807.142 150.934 807.894 150.729C808.646 150.514 809.427 150.406 810.237 150.406C811.79 150.406 813.011 150.821 813.899 151.651C814.798 152.472 815.247 153.58 815.247 154.977V164H813.05V163.004C812.747 163.307 812.273 163.59 811.629 163.854C810.994 164.107 810.32 164.234 809.607 164.234C808.27 164.234 807.098 163.858 806.092 163.106C805.135 162.364 804.656 161.324 804.656 159.986C804.656 158.717 805.145 157.716 806.121 156.983C807.127 156.202 808.328 155.812 809.725 155.812C810.359 155.812 810.994 155.924 811.629 156.148C812.264 156.373 812.737 156.622 813.05 156.896ZM822.718 152.604V164H820.477V152.604H817.679V150.685H820.477V147.169H822.718V150.685H825.809V152.604H822.718ZM835.213 144.532V146.568C834.861 146.334 834.393 146.217 833.807 146.217C833.133 146.217 832.596 146.427 832.195 146.847C831.805 147.257 831.609 147.853 831.609 148.634V150.685H834.612V152.604H831.609V164H829.397V152.604H827.142V150.685H829.397V148.458C829.397 147.169 829.778 146.144 830.54 145.382C831.312 144.61 832.288 144.225 833.47 144.225C834.124 144.225 834.705 144.327 835.213 144.532ZM846.595 152.354C847.728 153.634 848.294 155.294 848.294 157.335C848.294 159.376 847.728 161.036 846.595 162.315C845.442 163.614 843.968 164.264 842.171 164.264C840.364 164.264 838.885 163.614 837.732 162.315C836.619 161.026 836.062 159.366 836.062 157.335C836.062 155.304 836.619 153.644 837.732 152.354C838.885 151.056 840.364 150.406 842.171 150.406C843.968 150.406 845.442 151.056 846.595 152.354ZM844.983 160.909C845.677 159.991 846.023 158.8 846.023 157.335C846.023 155.87 845.677 154.679 844.983 153.761C844.29 152.843 843.353 152.384 842.171 152.384C840.989 152.384 840.052 152.843 839.358 153.761C838.675 154.679 838.333 155.87 838.333 157.335C838.333 158.8 838.675 159.991 839.358 160.909C840.052 161.827 840.989 162.286 842.171 162.286C843.353 162.286 844.29 161.827 844.983 160.909ZM858.182 150.626V152.926C857.811 152.691 857.312 152.574 856.688 152.574C855.975 152.574 855.335 152.799 854.769 153.248C854.212 153.688 853.821 154.293 853.597 155.064V164H851.341V150.685H853.597V152.413C853.89 151.837 854.334 151.358 854.93 150.978C855.525 150.597 856.18 150.406 856.893 150.406C857.459 150.406 857.889 150.479 858.182 150.626ZM870.428 152.545C870.877 151.9 871.448 151.383 872.142 150.992C872.835 150.602 873.616 150.406 874.485 150.406C875.804 150.406 876.834 150.836 877.576 151.695C878.318 152.555 878.689 153.717 878.689 155.182V164H876.404V155.533C876.404 154.586 876.189 153.839 875.76 153.292C875.34 152.735 874.715 152.457 873.885 152.457C873.201 152.457 872.586 152.672 872.039 153.102C871.502 153.531 871.136 154.103 870.94 154.815V164H868.699V155.533C868.699 154.586 868.484 153.839 868.055 153.292C867.635 152.735 867.01 152.457 866.18 152.457C865.496 152.457 864.881 152.672 864.334 153.102C863.797 153.531 863.431 154.103 863.235 154.815V164H860.979V150.685H863.235V152.237C863.558 151.69 864.036 151.251 864.671 150.919C865.315 150.577 866.038 150.406 866.839 150.406C867.649 150.406 868.367 150.602 868.992 150.992C869.617 151.383 870.096 151.9 870.428 152.545ZM896.517 160.704V159.327C896.341 158.839 895.96 158.443 895.374 158.141C894.788 157.828 894.139 157.672 893.426 157.672C892.605 157.672 891.878 157.862 891.243 158.243C890.579 158.614 890.247 159.195 890.247 159.986C890.247 160.777 890.579 161.373 891.243 161.773C891.878 162.154 892.605 162.345 893.426 162.345C894.139 162.345 894.788 162.193 895.374 161.891C895.96 161.588 896.341 161.192 896.517 160.704ZM896.517 156.896V155.152C896.517 154.332 896.229 153.683 895.652 153.204C895.086 152.726 894.314 152.486 893.338 152.486C892.02 152.486 890.76 152.872 889.559 153.644V151.52C890.008 151.197 890.608 150.934 891.36 150.729C892.112 150.514 892.894 150.406 893.704 150.406C895.257 150.406 896.478 150.821 897.366 151.651C898.265 152.472 898.714 153.58 898.714 154.977V164H896.517V163.004C896.214 163.307 895.74 163.59 895.096 163.854C894.461 164.107 893.787 164.234 893.074 164.234C891.736 164.234 890.564 163.858 889.559 163.106C888.602 162.364 888.123 161.324 888.123 159.986C888.123 158.717 888.611 157.716 889.588 156.983C890.594 156.202 891.795 155.812 893.191 155.812C893.826 155.812 894.461 155.924 895.096 156.148C895.73 156.373 896.204 156.622 896.517 156.896ZM902.552 164V150.685H904.808V152.354C905.208 151.798 905.755 151.334 906.448 150.963C907.151 150.592 907.913 150.406 908.733 150.406C910.208 150.406 911.355 150.851 912.176 151.739C913.006 152.618 913.421 153.795 913.421 155.27V164H911.136V155.636C911.136 154.679 910.887 153.917 910.389 153.351C909.891 152.774 909.158 152.486 908.191 152.486C907.43 152.486 906.736 152.721 906.111 153.189C905.486 153.648 905.052 154.244 904.808 154.977V164H902.552ZM926.019 160.045V154.64C925.677 153.966 925.198 153.434 924.583 153.043C923.968 152.652 923.309 152.457 922.605 152.457C921.365 152.457 920.379 152.916 919.646 153.834C918.914 154.742 918.548 155.909 918.548 157.335C918.548 158.761 918.914 159.933 919.646 160.851C920.389 161.769 921.375 162.228 922.605 162.228C923.309 162.228 923.968 162.032 924.583 161.642C925.198 161.251 925.677 160.719 926.019 160.045ZM926.019 164V162.447C925.687 162.955 925.174 163.385 924.48 163.736C923.797 164.088 923.06 164.264 922.269 164.264C920.354 164.264 918.865 163.585 917.801 162.228C916.785 160.86 916.277 159.229 916.277 157.335C916.277 155.47 916.785 153.854 917.801 152.486C918.865 151.1 920.354 150.406 922.269 150.406C923.06 150.406 923.797 150.587 924.48 150.948C925.174 151.3 925.687 151.729 926.019 152.237V144.503H928.304V164H926.019ZM943.919 152.325C943.021 152.325 942.239 152.638 941.575 153.263C940.911 153.888 940.481 154.786 940.286 155.958H947.156C947.107 154.903 946.81 154.034 946.263 153.351C945.716 152.667 944.935 152.325 943.919 152.325ZM948.416 163.106C947.41 163.878 946.062 164.264 944.373 164.264C942.43 164.264 940.882 163.658 939.729 162.447C938.548 161.207 937.957 159.547 937.957 157.467C937.957 155.377 938.504 153.683 939.598 152.384C940.711 151.065 942.142 150.406 943.89 150.406C945.647 150.406 946.995 150.997 947.933 152.179C948.88 153.36 949.354 154.942 949.354 156.925V157.73H940.169C940.228 159.215 940.667 160.348 941.487 161.129C942.317 161.9 943.367 162.286 944.637 162.286C945.984 162.286 947.244 161.866 948.416 161.026V163.106ZM959.827 160.704V159.327C959.651 158.839 959.271 158.443 958.685 158.141C958.099 157.828 957.449 157.672 956.736 157.672C955.916 157.672 955.188 157.862 954.554 158.243C953.89 158.614 953.558 159.195 953.558 159.986C953.558 160.777 953.89 161.373 954.554 161.773C955.188 162.154 955.916 162.345 956.736 162.345C957.449 162.345 958.099 162.193 958.685 161.891C959.271 161.588 959.651 161.192 959.827 160.704ZM959.827 156.896V155.152C959.827 154.332 959.539 153.683 958.963 153.204C958.396 152.726 957.625 152.486 956.648 152.486C955.33 152.486 954.07 152.872 952.869 153.644V151.52C953.318 151.197 953.919 150.934 954.671 150.729C955.423 150.514 956.204 150.406 957.015 150.406C958.567 150.406 959.788 150.821 960.677 151.651C961.575 152.472 962.024 153.58 962.024 154.977V164H959.827V163.004C959.524 163.307 959.051 163.59 958.406 163.854C957.771 164.107 957.098 164.234 956.385 164.234C955.047 164.234 953.875 163.858 952.869 163.106C951.912 162.364 951.434 161.324 951.434 159.986C951.434 158.717 951.922 157.716 952.898 156.983C953.904 156.202 955.105 155.812 956.502 155.812C957.137 155.812 957.771 155.924 958.406 156.148C959.041 156.373 959.515 156.622 959.827 156.896ZM965.086 162.945V160.543C966.414 161.744 967.874 162.345 969.466 162.345C970.257 162.345 970.911 162.193 971.429 161.891C971.956 161.578 972.22 161.109 972.22 160.484C972.22 160.016 972.059 159.635 971.736 159.342C971.414 159.039 970.936 158.78 970.301 158.565L968.47 157.936C967.376 157.594 966.541 157.135 965.965 156.559C965.398 155.973 965.115 155.172 965.115 154.156C965.115 153.023 965.564 152.115 966.463 151.432C967.361 150.748 968.484 150.406 969.832 150.406C971.336 150.406 972.654 150.797 973.787 151.578V153.922C972.508 152.857 971.189 152.325 969.832 152.325C969.129 152.325 968.533 152.481 968.045 152.794C967.557 153.106 967.312 153.531 967.312 154.068C967.312 154.566 967.464 154.942 967.767 155.196C968.069 155.44 968.577 155.694 969.29 155.958L971.326 156.646C973.406 157.359 974.446 158.609 974.446 160.396C974.446 161.627 973.958 162.579 972.981 163.253C972.034 163.927 970.862 164.264 969.466 164.264C968.636 164.264 967.825 164.142 967.034 163.897C966.253 163.653 965.604 163.336 965.086 162.945ZM982.649 152.325C981.751 152.325 980.97 152.638 980.306 153.263C979.642 153.888 979.212 154.786 979.017 155.958H985.887C985.838 154.903 985.54 154.034 984.993 153.351C984.446 152.667 983.665 152.325 982.649 152.325ZM987.146 163.106C986.141 163.878 984.793 164.264 983.104 164.264C981.16 164.264 979.612 163.658 978.46 162.447C977.278 161.207 976.688 159.547 976.688 157.467C976.688 155.377 977.234 153.683 978.328 152.384C979.441 151.065 980.872 150.406 982.62 150.406C984.378 150.406 985.726 150.997 986.663 152.179C987.61 153.36 988.084 154.942 988.084 156.925V157.73H978.899C978.958 159.215 979.397 160.348 980.218 161.129C981.048 161.9 982.098 162.286 983.367 162.286C984.715 162.286 985.975 161.866 987.146 161.026V163.106ZM1001.71 169.098H999.48L1001.49 164.088L996.302 150.685H998.733L1002.66 161.173L1006.53 150.685H1008.87L1001.71 169.098ZM1020.76 152.354C1021.9 153.634 1022.46 155.294 1022.46 157.335C1022.46 159.376 1021.9 161.036 1020.76 162.315C1019.61 163.614 1018.14 164.264 1016.34 164.264C1014.53 164.264 1013.05 163.614 1011.9 162.315C1010.79 161.026 1010.23 159.366 1010.23 157.335C1010.23 155.304 1010.79 153.644 1011.9 152.354C1013.05 151.056 1014.53 150.406 1016.34 150.406C1018.14 150.406 1019.61 151.056 1020.76 152.354ZM1019.15 160.909C1019.85 159.991 1020.19 158.8 1020.19 157.335C1020.19 155.87 1019.85 154.679 1019.15 153.761C1018.46 152.843 1017.52 152.384 1016.34 152.384C1015.16 152.384 1014.22 152.843 1013.53 153.761C1012.84 154.679 1012.5 155.87 1012.5 157.335C1012.5 158.8 1012.84 159.991 1013.53 160.909C1014.22 161.827 1015.16 162.286 1016.34 162.286C1017.52 162.286 1018.46 161.827 1019.15 160.909ZM1036.13 150.685V164H1033.86V162.315C1033.46 162.882 1032.92 163.351 1032.23 163.722C1031.55 164.083 1030.8 164.264 1029.98 164.264C1028.5 164.264 1027.36 163.824 1026.55 162.945C1025.74 162.066 1025.33 160.89 1025.33 159.415V150.685H1027.62V159.049C1027.62 160.006 1027.86 160.772 1028.34 161.349C1028.83 161.915 1029.55 162.198 1030.52 162.198C1031.28 162.198 1031.97 161.969 1032.57 161.51C1033.19 161.041 1033.62 160.44 1033.86 159.708V150.685H1036.13ZM1046.97 150.626V152.926C1046.6 152.691 1046.1 152.574 1045.48 152.574C1044.76 152.574 1044.12 152.799 1043.56 153.248C1043 153.688 1042.61 154.293 1042.39 155.064V164H1040.13V150.685H1042.39V152.413C1042.68 151.837 1043.12 151.358 1043.72 150.978C1044.31 150.597 1044.97 150.406 1045.68 150.406C1046.25 150.406 1046.68 150.479 1046.97 150.626ZM1064.86 150.685L1067.58 160.851L1070.53 150.685H1072.71L1068.78 164H1066.6L1063.83 153.893L1061.05 164H1058.85L1054.92 150.685H1057.17L1060.11 160.851L1062.85 150.685H1064.86ZM1084.84 152.354C1085.97 153.634 1086.54 155.294 1086.54 157.335C1086.54 159.376 1085.97 161.036 1084.84 162.315C1083.68 163.614 1082.21 164.264 1080.41 164.264C1078.61 164.264 1077.13 163.614 1075.97 162.315C1074.86 161.026 1074.3 159.366 1074.3 157.335C1074.3 155.304 1074.86 153.644 1075.97 152.354C1077.13 151.056 1078.61 150.406 1080.41 150.406C1082.21 150.406 1083.68 151.056 1084.84 152.354ZM1083.23 160.909C1083.92 159.991 1084.27 158.8 1084.27 157.335C1084.27 155.87 1083.92 154.679 1083.23 153.761C1082.53 152.843 1081.59 152.384 1080.41 152.384C1079.23 152.384 1078.29 152.843 1077.6 153.761C1076.92 154.679 1076.58 155.87 1076.58 157.335C1076.58 158.8 1076.92 159.991 1077.6 160.909C1078.29 161.827 1079.23 162.286 1080.41 162.286C1081.59 162.286 1082.53 161.827 1083.23 160.909ZM1096.42 150.626V152.926C1096.05 152.691 1095.55 152.574 1094.93 152.574C1094.22 152.574 1093.58 152.799 1093.01 153.248C1092.45 153.688 1092.06 154.293 1091.84 155.064V164H1089.58V150.685H1091.84V152.413C1092.13 151.837 1092.58 151.358 1093.17 150.978C1093.77 150.597 1094.42 150.406 1095.13 150.406C1095.7 150.406 1096.13 150.479 1096.42 150.626ZM1107.63 164L1101.48 157.364V164H1099.22V144.503H1101.48V156.295L1107.38 150.685H1110.3L1103.75 156.764L1110.41 164H1107.63ZM1112.68 163.692C1112.37 163.38 1112.21 162.994 1112.21 162.535C1112.21 162.076 1112.37 161.686 1112.68 161.363C1113.01 161.041 1113.39 160.88 1113.83 160.88C1114.27 160.88 1114.64 161.041 1114.95 161.363C1115.27 161.686 1115.42 162.076 1115.42 162.535C1115.42 162.994 1115.27 163.38 1114.95 163.692C1114.64 163.995 1114.27 164.146 1113.83 164.146C1113.39 164.146 1113.01 163.995 1112.68 163.692Z" fill="#5F5F5F"/>
<path d="M153.139 11.9043V15.9297H142.662V20.7461H152.172V24.6836H142.662V29.9395H153.139V34H138.127V11.9043H153.139ZM158.489 11.9043H163.095V29.9395H173.396V34H158.489V11.9043ZM183.141 34H178.536V11.9043H183.141V34ZM200.023 29.2539L193.66 19.7441V34H189.16V11.9043H193.449L200.129 22.3281L206.791 11.9043H211.009V34H206.474V19.7441L200.181 29.2539H200.023ZM221.616 34H217.011V11.9043H221.616V34ZM246.145 34H242.506L232.064 19.2695V34H227.635V11.9043H231.959L241.715 25.8613V11.9043H246.145V34ZM263.624 11.9043L272.079 34H267.404L265.417 28.6738H257.138L255.204 34H250.599L259.054 11.9043H263.624ZM258.579 24.7891H263.993L261.286 17.4414L258.579 24.7891ZM273.071 11.9043H291.932V15.9297H284.813V34H280.172V15.9297H273.071V11.9043ZM301.379 34H296.773V11.9043H301.379V34ZM325.907 34H322.268L311.827 19.2695V34H307.397V11.9043H311.721L321.477 25.8613V11.9043H325.907V34ZM341.875 30.2559C343.445 30.2559 344.682 29.8691 345.584 29.0957V25.7559H341.84V21.9766H349.768V31.2227C347.717 33.3086 345.051 34.3516 341.77 34.3516C339.555 34.3516 337.615 33.8711 335.951 32.9102C334.299 31.9492 333.033 30.6133 332.154 28.9023C331.287 27.1914 330.854 25.2168 330.854 22.9785C330.854 20.7402 331.34 18.7539 332.312 17.0195C333.285 15.2734 334.633 13.9258 336.355 12.9766C338.09 12.0156 340.053 11.5352 342.244 11.5352C344.799 11.5352 346.908 12.1445 348.572 13.3633V17.9863C346.686 16.498 344.576 15.7539 342.244 15.7539C340.252 15.7539 338.629 16.416 337.375 17.7402C336.133 19.0645 335.512 20.8105 335.512 22.9785C335.512 25.1465 336.092 26.9043 337.252 28.252C338.412 29.5879 339.953 30.2559 341.875 30.2559ZM373.512 34.3516C370.711 34.3516 368.479 33.5547 366.815 31.9609C365.151 30.3672 364.319 28.082 364.319 25.1055V11.9043H368.942V24.6484C368.942 26.5117 369.334 27.9062 370.12 28.832C370.905 29.7578 372.036 30.2207 373.512 30.2207C374.989 30.2207 376.12 29.7578 376.905 28.832C377.69 27.9062 378.082 26.5117 378.082 24.6484V11.9043H382.688V25.1055C382.688 28.0938 381.868 30.3848 380.227 31.9785C378.598 33.5605 376.36 34.3516 373.512 34.3516ZM406.935 34H403.296L392.855 19.2695V34H388.425V11.9043H392.75L402.505 25.8613V11.9043H406.935V34ZM431.481 34H427.843L417.401 19.2695V34H412.971V11.9043H417.296L427.052 25.8613V11.9043H431.481V34ZM452.529 11.9043V15.9297H442.053V20.7461H451.562V24.6836H442.053V29.9395H452.529V34H437.518V11.9043H452.529ZM459.849 31.1875C457.81 29.0781 456.79 26.3301 456.79 22.9434C456.79 19.5566 457.81 16.8086 459.849 14.6992C461.9 12.5898 464.542 11.5352 467.777 11.5352C470.12 11.5352 472.042 12.1094 473.542 13.2578V17.916C471.89 16.4746 470.038 15.7539 467.987 15.7539C466.019 15.7539 464.437 16.4102 463.241 17.7227C462.046 19.0352 461.448 20.7754 461.448 22.9434C461.448 25.0996 462.046 26.834 463.241 28.1465C464.448 29.459 466.03 30.1152 467.987 30.1152C470.073 30.1152 471.925 29.4062 473.542 27.9883V32.6289C472.042 33.7773 470.12 34.3516 467.777 34.3516C464.542 34.3516 461.9 33.2969 459.849 31.1875ZM494.063 11.9043V15.9297H483.586V20.7461H493.096V24.6836H483.586V29.9395H494.063V34H479.051V11.9043H494.063ZM498.658 27.9531C500.884 29.582 503.234 30.3965 505.707 30.3965C506.914 30.3965 507.869 30.2031 508.572 29.8164C509.275 29.418 509.627 28.8086 509.627 27.9883C509.627 27.3086 509.427 26.793 509.029 26.4414C508.63 26.0898 507.968 25.7441 507.043 25.4043L503.808 24.3145C502.05 23.752 500.703 22.9668 499.765 21.959C498.828 20.9512 498.359 19.5859 498.359 17.8633C498.359 16.5391 498.716 15.3906 499.431 14.418C500.146 13.4453 501.089 12.7246 502.261 12.2559C503.433 11.7754 504.752 11.5352 506.216 11.5352C508.783 11.5352 511.015 12.1094 512.914 13.2578V17.7578C510.828 16.2227 508.642 15.4551 506.357 15.4551C505.291 15.4551 504.441 15.6367 503.808 16C503.175 16.3633 502.859 16.9141 502.859 17.6523C502.859 18.2969 503.046 18.7832 503.421 19.1113C503.808 19.4395 504.441 19.7559 505.32 20.0605L508.765 21.2559C510.64 21.8887 512.011 22.7266 512.879 23.7695C513.746 24.8125 514.179 26.1602 514.179 27.8125C514.179 29.2188 513.798 30.4258 513.037 31.4336C512.287 32.4297 511.291 33.168 510.048 33.6484C508.806 34.1172 507.382 34.3516 505.777 34.3516C504.371 34.3516 503.046 34.1758 501.804 33.8242C500.562 33.4727 499.513 33.0273 498.658 32.4883V27.9531ZM518.423 27.9531C520.649 29.582 522.999 30.3965 525.471 30.3965C526.679 30.3965 527.634 30.2031 528.337 29.8164C529.04 29.418 529.391 28.8086 529.391 27.9883C529.391 27.3086 529.192 26.793 528.794 26.4414C528.395 26.0898 527.733 25.7441 526.807 25.4043L523.573 24.3145C521.815 23.752 520.468 22.9668 519.53 21.959C518.593 20.9512 518.124 19.5859 518.124 17.8633C518.124 16.5391 518.481 15.3906 519.196 14.418C519.911 13.4453 520.854 12.7246 522.026 12.2559C523.198 11.7754 524.516 11.5352 525.981 11.5352C528.548 11.5352 530.78 12.1094 532.679 13.2578V17.7578C530.593 16.2227 528.407 15.4551 526.122 15.4551C525.055 15.4551 524.206 15.6367 523.573 16C522.94 16.3633 522.624 16.9141 522.624 17.6523C522.624 18.2969 522.811 18.7832 523.186 19.1113C523.573 19.4395 524.206 19.7559 525.085 20.0605L528.53 21.2559C530.405 21.8887 531.776 22.7266 532.643 23.7695C533.511 24.8125 533.944 26.1602 533.944 27.8125C533.944 29.2188 533.563 30.4258 532.802 31.4336C532.052 32.4297 531.055 33.168 529.813 33.6484C528.571 34.1172 527.147 34.3516 525.542 34.3516C524.136 34.3516 522.811 34.1758 521.569 33.8242C520.327 33.4727 519.278 33.0273 518.423 32.4883V27.9531ZM549.965 11.9043L558.42 34H553.744L551.758 28.6738H543.479L541.545 34H536.939L545.395 11.9043H549.965ZM544.92 24.7891H550.334L547.627 17.4414L544.92 24.7891ZM567.462 25.7559V34H562.892V11.9043H571.997C574.364 11.9043 576.245 12.5137 577.64 13.7324C579.034 14.9512 579.732 16.6797 579.732 18.918C579.732 20.6758 579.292 22.1055 578.413 23.207C577.534 24.3086 576.298 25.0527 574.704 25.4395L580.523 34H575.337L569.87 25.7559H567.462ZM567.462 21.9766H571.716C572.841 21.9766 573.702 21.7012 574.3 21.1504C574.898 20.5996 575.196 19.8555 575.196 18.918C575.196 17.9688 574.898 17.2188 574.3 16.668C573.702 16.1055 572.841 15.8242 571.716 15.8242H567.462V21.9766ZM598.231 11.9043H603.1L595.067 25.6152V34H590.496V25.6152L582.551 11.9043H587.543L592.905 21.2559L598.231 11.9043ZM628.286 11.9043L636.741 34H632.065L630.079 28.6738H621.8L619.866 34H615.261L623.716 11.9043H628.286ZM623.241 24.7891H628.655L625.948 17.4414L623.241 24.7891ZM659.723 34H656.084L645.643 19.2695V34H641.213V11.9043H645.537L655.293 25.8613V11.9043H659.723V34ZM673.388 29.9395C675.474 29.9395 677.079 29.3242 678.204 28.0938C679.341 26.8516 679.909 25.1348 679.909 22.9434C679.909 20.7402 679.341 19.0234 678.204 17.793C677.079 16.5508 675.474 15.9297 673.388 15.9297H670.329V29.9395H673.388ZM665.759 11.9043H673.564C676.927 11.9043 679.587 12.9004 681.544 14.8926C683.501 16.873 684.48 19.5566 684.48 22.9434C684.48 26.3301 683.501 29.0195 681.544 31.0117C679.587 33.0039 676.927 34 673.564 34H665.759V11.9043ZM703.496 25.7559V34H698.925V11.9043H708.031C710.398 11.9043 712.279 12.5137 713.673 13.7324C715.068 14.9512 715.765 16.6797 715.765 18.918C715.765 20.6758 715.326 22.1055 714.447 23.207C713.568 24.3086 712.332 25.0527 710.738 25.4395L716.556 34H711.371L705.904 25.7559H703.496ZM703.496 21.9766H707.75C708.875 21.9766 709.736 21.7012 710.334 21.1504C710.931 20.5996 711.23 19.8555 711.23 18.918C711.23 17.9688 710.931 17.2188 710.334 16.668C709.736 16.1055 708.875 15.8242 707.75 15.8242H703.496V21.9766ZM736.022 11.9043V15.9297H725.546V20.7461H735.055V24.6836H725.546V29.9395H736.022V34H721.011V11.9043H736.022ZM749.002 29.9395C751.088 29.9395 752.693 29.3242 753.818 28.0938C754.955 26.8516 755.523 25.1348 755.523 22.9434C755.523 20.7402 754.955 19.0234 753.818 17.793C752.693 16.5508 751.088 15.9297 749.002 15.9297H745.943V29.9395H749.002ZM741.373 11.9043H749.178C752.541 11.9043 755.201 12.9004 757.158 14.8926C759.115 16.873 760.094 19.5566 760.094 22.9434C760.094 26.3301 759.115 29.0195 757.158 31.0117C755.201 33.0039 752.541 34 749.178 34H741.373V11.9043ZM773.97 34.3516C771.169 34.3516 768.937 33.5547 767.273 31.9609C765.609 30.3672 764.777 28.082 764.777 25.1055V11.9043H769.4V24.6484C769.4 26.5117 769.792 27.9062 770.577 28.832C771.362 29.7578 772.493 30.2207 773.97 30.2207C775.446 30.2207 776.577 29.7578 777.362 28.832C778.148 27.9062 778.54 26.5117 778.54 24.6484V11.9043H783.146V25.1055C783.146 28.0938 782.325 30.3848 780.685 31.9785C779.056 33.5605 776.818 34.3516 773.97 34.3516ZM807.393 34H803.754L793.313 19.2695V34H788.883V11.9043H793.207L802.963 25.8613V11.9043H807.393V34ZM821.058 29.9395C823.144 29.9395 824.75 29.3242 825.875 28.0938C827.011 26.8516 827.58 25.1348 827.58 22.9434C827.58 20.7402 827.011 19.0234 825.875 17.793C824.75 16.5508 823.144 15.9297 821.058 15.9297H818V29.9395H821.058ZM813.429 11.9043H821.234C824.597 11.9043 827.257 12.9004 829.214 14.8926C831.172 16.873 832.15 19.5566 832.15 22.9434C832.15 26.3301 831.172 29.0195 829.214 31.0117C827.257 33.0039 824.597 34 821.234 34H813.429V11.9043ZM847.555 11.9043L856.011 34H851.335L849.348 28.6738H841.069L839.136 34H834.53L842.985 11.9043H847.555ZM842.511 24.7891H847.925L845.218 17.4414L842.511 24.7891ZM878.992 34H875.354L864.912 19.2695V34H860.482V11.9043H864.807L874.562 25.8613V11.9043H878.992V34ZM883.833 11.9043H902.695V15.9297H895.575V34H890.935V15.9297H883.833V11.9043ZM921.535 26.3359V34H916.964V11.9043H925.964C928.355 11.9043 930.248 12.5313 931.642 13.7852C933.037 15.0391 933.734 16.8203 933.734 19.1289C933.734 21.4258 933.031 23.2012 931.625 24.4551C930.23 25.709 928.343 26.3359 925.964 26.3359H921.535ZM929.199 19.1289C929.199 18.0859 928.9 17.2773 928.302 16.7031C927.716 16.1172 926.838 15.8242 925.666 15.8242H921.535V22.416H925.666C926.826 22.416 927.705 22.1172 928.302 21.5195C928.9 20.9219 929.199 20.125 929.199 19.1289ZM948.278 11.9043L956.733 34H952.057L950.071 28.6738H941.792L939.858 34H935.253L943.708 11.9043H948.278ZM943.233 24.7891H948.647L945.94 17.4414L943.233 24.7891ZM965.775 26.3359V34H961.205V11.9043H970.205C972.596 11.9043 974.488 12.5313 975.883 13.7852C977.277 15.0391 977.975 16.8203 977.975 19.1289C977.975 21.4258 977.271 23.2012 975.865 24.4551C974.471 25.709 972.584 26.3359 970.205 26.3359H965.775ZM973.439 19.1289C973.439 18.0859 973.141 17.2773 972.543 16.7031C971.957 16.1172 971.078 15.8242 969.906 15.8242H965.775V22.416H969.906C971.066 22.416 971.945 22.1172 972.543 21.5195C973.141 20.9219 973.439 20.125 973.439 19.1289ZM997.88 11.9043V15.9297H987.404V20.7461H996.913V24.6836H987.404V29.9395H997.88V34H982.868V11.9043H997.88ZM1007.8 25.7559V34H1003.23V11.9043H1012.34C1014.7 11.9043 1016.58 12.5137 1017.98 13.7324C1019.37 14.9512 1020.07 16.6797 1020.07 18.918C1020.07 20.6758 1019.63 22.1055 1018.75 23.207C1017.87 24.3086 1016.64 25.0527 1015.04 25.4395L1020.86 34H1015.68L1010.21 25.7559H1007.8ZM1007.8 21.9766H1012.06C1013.18 21.9766 1014.04 21.7012 1014.64 21.1504C1015.24 20.5996 1015.54 19.8555 1015.54 18.918C1015.54 17.9688 1015.24 17.2188 1014.64 16.668C1014.04 16.1055 1013.18 15.8242 1012.06 15.8242H1007.8V21.9766ZM1039.26 11.9043L1043.07 26.7578L1046.69 11.9043H1051.24L1045.48 34H1041.26L1037.37 19.4277L1033.49 34H1029.27L1023.52 11.9043H1028.16L1031.77 26.7578L1035.65 11.9043H1039.26ZM1073.73 17.0723C1074.62 18.8066 1075.07 20.7637 1075.07 22.9434C1075.07 25.123 1074.62 27.0801 1073.73 28.8145C1072.85 30.5488 1071.61 31.9082 1070.01 32.8926C1068.41 33.8652 1066.61 34.3516 1064.59 34.3516C1062.58 34.3516 1060.77 33.8652 1059.18 32.8926C1057.58 31.9082 1056.35 30.5488 1055.47 28.8145C1054.59 27.0801 1054.15 25.123 1054.15 22.9434C1054.15 20.752 1054.59 18.7891 1055.47 17.0547C1056.35 15.3203 1057.58 13.9668 1059.16 12.9941C1060.75 12.0215 1062.57 11.5352 1064.59 11.5352C1066.62 11.5352 1068.43 12.0215 1070.02 12.9941C1071.62 13.9668 1072.85 15.3262 1073.73 17.0723ZM1068.83 28.2344C1069.9 26.8867 1070.43 25.123 1070.43 22.9434C1070.43 20.7637 1069.9 19.0059 1068.83 17.6699C1067.77 16.3223 1066.36 15.6484 1064.59 15.6484C1062.87 15.6484 1061.48 16.3223 1060.43 17.6699C1059.37 19.0176 1058.84 20.7754 1058.84 22.9434C1058.84 25.1113 1059.37 26.875 1060.43 28.2344C1061.48 29.582 1062.87 30.2559 1064.59 30.2559C1066.36 30.2559 1067.77 29.582 1068.83 28.2344ZM1084.64 25.7559V34H1080.07V11.9043H1089.17C1091.54 11.9043 1093.42 12.5137 1094.82 13.7324C1096.21 14.9512 1096.91 16.6797 1096.91 18.918C1096.91 20.6758 1096.47 22.1055 1095.59 23.207C1094.71 24.3086 1093.47 25.0527 1091.88 25.4395L1097.7 34H1092.51L1087.05 25.7559H1084.64ZM1084.64 21.9766H1088.89C1090.02 21.9766 1090.88 21.7012 1091.48 21.1504C1092.07 20.5996 1092.37 19.8555 1092.37 18.918C1092.37 17.9688 1092.07 17.2188 1091.48 16.668C1090.88 16.1055 1090.02 15.8242 1088.89 15.8242H1084.64V21.9766ZM1106.76 21.3965L1114.83 11.9043H1120.36L1111.19 22.4863L1120.7 34H1115.04L1106.76 23.998V34H1102.15V11.9043H1106.76V21.3965Z" fill="#035B96"/>
<path d="M98.3333 9.99048H76.6667V13.3242H96.6667V96.6554H50V99.9891H98.3333C98.7754 99.989 99.1993 99.8134 99.5118 99.5008C99.8244 99.1882 100 98.7643 100 98.3222V11.6573C100 11.2153 99.8244 10.7913 99.5118 10.4787C99.1993 10.1661 98.7754 9.9905 98.3333 9.99048Z" fill="#035B96"/>
<path d="M68.3346 8.32416C69.2551 8.32416 70.0013 7.57789 70.0013 6.65732C70.0013 5.73675 69.2551 4.99048 68.3346 4.99048C67.4142 4.99048 66.668 5.73675 66.668 6.65732C66.668 7.57789 67.4142 8.32416 68.3346 8.32416Z" fill="#035B96"/>
<path d="M44.9987 16.6579C44.5567 16.6579 44.1328 16.8335 43.8202 17.1461C43.5077 17.4587 43.3321 17.8827 43.332 18.3247V56.662H46.6654V19.9916H51.6699C50.5836 21.4321 49.9968 23.1878 49.9987 24.9921C49.9987 25.4342 50.1743 25.8581 50.4869 26.1707C50.7994 26.4833 51.2233 26.6589 51.6654 26.6589H84.9987C85.4407 26.6589 85.8646 26.4833 86.1772 26.1707C86.4897 25.8581 86.6653 25.4342 86.6654 24.9921C86.6672 23.1878 86.0804 21.4321 84.9941 19.9916H89.9987V89.9885H49.9987V93.3221H91.6654C92.1074 93.3221 92.5313 93.1465 92.8438 92.8339C93.1564 92.5213 93.332 92.0974 93.332 91.6553V18.3247C93.332 17.8827 93.1564 17.4587 92.8438 17.1461C92.5313 16.8335 92.1074 16.6579 91.6654 16.6579H75.0898C74.7513 16.6588 74.4159 16.5926 74.1032 16.463C73.7904 16.3334 73.5064 16.1431 73.2677 15.903C72.8965 15.5298 72.6479 15.0521 72.5552 14.5338C72.4625 14.0156 72.5301 13.4813 72.7489 13.0025L74.3841 9.45051C74.8515 8.43526 75.0561 7.31873 74.979 6.20368C74.9018 5.08864 74.5455 4.0109 73.9428 3.06969C73.34 2.12847 72.5102 1.354 71.5297 0.817578C70.5493 0.281152 69.4496 0 68.332 0C67.2144 0 66.1148 0.281152 65.1343 0.817578C64.1539 1.354 63.3241 2.12847 62.7213 3.06969C62.1186 4.0109 61.7622 5.08864 61.6851 6.20368C61.608 7.31873 61.8126 8.43526 62.28 9.45051L63.9151 13.0025C64.134 13.4813 64.2016 14.0156 64.1089 14.5338C64.0162 15.0521 63.7676 15.5298 63.3963 15.903C63.1576 16.1431 62.8737 16.3334 62.5609 16.463C62.2481 16.5926 61.9128 16.6588 61.5742 16.6579H44.9987ZM61.5736 19.9916H61.5742C62.3507 19.9937 63.1199 19.8418 63.8372 19.5446C64.5546 19.2475 65.2059 18.811 65.7535 18.2604C66.6049 17.4043 67.1749 16.3088 67.3874 15.1202C67.5999 13.9316 67.4448 12.7065 66.9429 11.6083L65.3077 8.05632C65.1058 7.61843 65.0015 7.14185 65.0021 6.65962C65.0027 6.17739 65.1082 5.70106 65.3112 5.26368C65.5782 4.68738 66.0045 4.1995 66.5398 3.85758C67.075 3.51566 67.6969 3.33397 68.332 3.33395C68.9671 3.33393 69.5889 3.51557 70.1242 3.85745C70.6595 4.19934 71.0858 4.68719 71.3529 5.26347C71.5559 5.70089 71.6614 6.17725 71.662 6.65951C71.6626 7.14177 71.5583 7.61839 71.3563 8.05632L69.7212 11.6083C69.2192 12.7065 69.0642 13.9316 69.2767 15.1202C69.4892 16.3088 70.0592 17.4043 70.9106 18.2604C71.4582 18.811 72.1095 19.2475 72.8268 19.5446C73.5442 19.8418 74.3134 19.9937 75.0898 19.9916H78.332C79.3658 19.9928 80.3738 20.3138 81.2178 20.9107C82.0619 21.5075 82.7006 22.351 83.0464 23.3252H53.6177C53.9634 22.351 54.6022 21.5075 55.4462 20.9107C56.2903 20.3138 57.2983 19.9928 58.332 19.9916H61.5736Z" fill="#035B96"/>
<path d="M51.6667 46.6709H61.6667C62.1087 46.6709 62.5326 46.4953 62.8452 46.1827C63.1577 45.8701 63.3333 45.4461 63.3333 45.0041V35.7042L66.1786 32.8586L63.8214 30.5012L60.9762 33.3468H51.6667C51.2246 33.3468 50.8007 33.5224 50.4882 33.835C50.1756 34.1476 50 34.5715 50 35.0136V45.0041C50 45.4461 50.1756 45.8701 50.4882 46.1827C50.8007 46.4953 51.2246 46.6709 51.6667 46.6709ZM53.3333 36.6805H57.6428L55.4881 38.8354L57.8453 41.1928L60 39.0379V43.3372H53.3333V36.6805Z" fill="#035B96"/>
<path d="M53.332 83.3208V86.6545H61.6654C62.1074 86.6545 62.5313 86.4789 62.8439 86.1663C63.1564 85.8537 63.332 85.4297 63.332 84.9877V74.9974C63.332 74.5553 63.1564 74.1314 62.8439 73.8188C62.5313 73.5062 62.1074 73.3306 61.6654 73.3306H56.6654V76.6642H59.9987V83.3208H53.332Z" fill="#035B96"/>
<path d="M86.668 40.0037H66.668V43.3373H86.668V40.0037Z" fill="#035B96"/>
<path d="M86.668 60.0068H66.668V63.3405H86.668V60.0068Z" fill="#035B96"/>
<path d="M85.0013 79.9924H66.668V83.3261H85.0013V79.9924Z" fill="#035B96"/>
<path d="M57.8453 61.1855L60 59.0305V63.3297H56.6667V66.6634H61.6667C62.1087 66.6634 62.5326 66.4877 62.8452 66.1751C63.1577 65.8626 63.3333 65.4386 63.3333 64.9965V55.6969L66.1786 52.8513L63.8214 50.4939L60.9762 53.3394H51.6667C51.2246 53.3395 50.8007 53.5151 50.4882 53.8277C50.1756 54.1403 50 54.5642 50 55.0063V56.6623H51.6667V56.6731H57.6428L55.4881 58.8281L57.8453 61.1855Z" fill="#035B96"/>
<path d="M51.6667 81.6649C52.1087 81.6649 52.5326 81.4893 52.8452 81.1767C53.1577 80.8641 53.3333 80.4401 53.3333 79.9981V61.6628C53.3333 61.2208 53.1577 60.7968 52.8452 60.4842C52.5326 60.1716 52.1087 59.996 51.6667 59.996H17.3572L22.8453 54.5073C22.9718 54.3806 23.0772 54.2343 23.1573 54.0741L36.6667 27.0527V56.6623H40V20.3853L43.1573 14.07C43.273 13.8385 43.3328 13.5832 43.332 13.3245H60V9.99078H38.7268L35.7454 8.49994C35.3501 8.30226 34.8924 8.26972 34.4731 8.40949C34.0537 8.54926 33.7071 8.84989 33.5093 9.24526L30.9213 14.4218L29.3026 13.6124C28.6424 13.2823 27.9217 13.0906 27.1847 13.0491C26.4478 13.0076 25.7101 13.1172 25.0171 13.3711C24.324 13.625 23.6901 14.0179 23.1543 14.5257C22.6186 15.0334 22.1922 15.6453 21.9015 16.3238L18.468 24.3357L21.532 25.6489L24.9654 17.637C25.0772 17.3761 25.2412 17.1407 25.4472 16.9454C25.6532 16.7501 25.897 16.599 26.1635 16.5013C26.4301 16.4037 26.7138 16.3615 26.9972 16.3774C27.2806 16.3934 27.5578 16.4671 27.8117 16.594L29.4306 17.4036L13.5093 49.2494C13.4292 49.4097 13.3754 49.5818 13.35 49.7591L11.8878 59.996H8.33333C7.89131 59.996 7.4674 60.1716 7.15485 60.4842C6.84229 60.7968 6.66669 61.2208 6.66667 61.6628V78.3312H1.66667C1.22465 78.3312 0.800735 78.5069 0.488179 78.8195C0.175623 79.132 2.15469e-05 79.556 0 79.9981V98.3333C2.15469e-05 98.7754 0.175623 99.1993 0.488179 99.5119C0.800735 99.8245 1.22465 100 1.66667 100H45C45.442 100 45.8659 99.8245 46.1785 99.5119C46.491 99.1993 46.6666 98.7754 46.6667 98.3333V81.6649H51.6667ZM35.7454 12.2271L39.4305 14.07L37.588 17.7555L33.9028 15.9127L35.7454 12.2271ZM16.6117 50.4983L32.4121 18.8945L36.0972 20.7372L20.2968 52.3412L15.6903 56.9484L16.6117 50.4983ZM50 78.3312H36.6667V63.3297H50V78.3312ZM33.3333 63.3297V78.3312H26.6667V63.3297H33.3333ZM10 63.3297H23.3333V78.3312H10V63.3297ZM3.33333 81.6649H16.6667V96.6665H3.33333V81.6649ZM20 96.6665V81.6649H26.6667V96.6665H20ZM43.3333 96.6665H30V81.6649H43.3333V96.6665Z" fill="#035B96"/>
</svg>
