<svg width="100" height="93" viewBox="0 0 100 93" fill="none" xmlns="http://www.w3.org/2000/svg">
<path d="M76.6236 13.8634C76.6671 13.8665 76.7107 13.8696 76.755 13.8696C76.8301 13.8696 76.9053 13.8634 76.9788 13.8534C78.9479 13.8928 80.5237 15.4615 80.5261 17.3849C80.5261 18.2589 81.2515 18.9675 82.1462 18.9675C83.041 18.9675 83.7664 18.2589 83.7664 17.3849C83.7624 14.239 81.5205 11.5174 78.3751 10.8404V9.31966C78.3751 8.44567 77.6497 7.73706 76.755 7.73706C75.8602 7.73706 75.1348 8.44567 75.1348 9.31966V10.9123C71.8091 11.7809 69.6573 14.9237 70.1059 18.2581C70.5544 21.5925 73.464 24.0854 76.9068 24.0854C78.9059 24.0854 80.5261 25.6688 80.5261 27.6215C80.5261 29.5735 78.9059 31.1569 76.9068 31.1569C74.9078 31.1569 73.2876 29.5735 73.2876 27.6215C73.2876 26.7475 72.5622 26.0389 71.6675 26.0389C70.7727 26.0389 70.0473 26.7475 70.0473 27.6215C70.0513 30.6538 72.1366 33.3067 75.1348 34.0941V35.8282C75.1348 36.7021 75.8602 37.4108 76.755 37.4108C77.6497 37.4108 78.3751 36.7021 78.3751 35.8282V34.1667C81.7966 33.4349 84.1042 30.3022 83.7268 26.9006C83.3503 23.4989 80.4098 20.921 76.9068 20.9218C74.9631 20.9225 73.3659 19.4234 73.2892 17.5263C73.2133 15.6292 74.6855 14.0118 76.6236 13.8642V13.8634Z" fill="#035B96"/>
<path d="M76.9991 0C67.0322 0 58.5264 6.3528 55.3399 14.8593H15.128C14.2372 14.8593 13.5142 15.6436 13.5078 16.5129L13.125 72.0306H1.66287C0.768148 72.0306 0 72.6635 0 73.539V80.5842C0.0205682 87.2167 5.36833 92.6654 12.1511 92.9652V93H62.1733V92.9536C62.5783 92.9683 62.7452 93 63.0015 93H63.0364C70.0565 92.9892 75.742 87.4269 75.742 80.5695V44.9487C76.1471 44.9703 76.5758 44.9819 76.9951 44.9819C89.6787 44.9819 100 34.8805 100 22.4902C100 10.1006 89.6834 0 76.9991 0ZM12.7674 89.8348H12.7571C7.51614 89.8279 3.26403 85.6882 3.2403 80.568V75.1958H50.2247V80.5455C50.227 83.8483 51.5774 87.0143 53.976 89.3426C54.1461 89.5087 54.3573 89.637 54.5353 89.8348H12.7674ZM72.5017 80.568C72.5025 85.6789 68.2662 89.8248 63.0348 89.8348H63.0039C57.7511 89.8255 53.4911 85.6774 53.465 80.5471V73.539C53.4784 73.1341 53.3202 72.7423 53.0267 72.4564C52.7332 72.1705 52.3321 72.0167 51.9184 72.0306H16.3653L16.7371 18.0245H54.4404C54.1532 19.4734 54.0045 20.9447 53.9966 22.4199C53.9934 25.5395 54.6595 28.6243 55.9522 31.4765H40.6493C39.7538 31.4765 39.0292 32.1851 39.0292 33.0591C39.0292 33.9331 39.7538 34.6417 40.6493 34.6417H57.71C61.0523 39.7759 66.3953 43.3553 72.5017 44.5531V80.568ZM76.9991 41.8175C66.0852 41.8175 57.2369 33.175 57.2377 22.5134C57.2377 11.8517 66.0852 3.20924 76.9999 3.20924C87.9137 3.20924 96.7613 11.8525 96.7613 22.5134C96.7494 33.1696 87.909 41.8059 76.9991 41.8175Z" fill="#035B96"/>
<path d="M30.2481 42.0095C27.3883 42.0095 25.0625 44.2095 25.0625 46.9142C25.0625 49.6188 27.3883 51.8188 30.2481 51.8188C33.1079 51.8188 35.4345 49.6188 35.4345 46.9142C35.4345 44.2095 33.1079 42.0095 30.2481 42.0095ZM30.2481 48.6536C29.1746 48.6536 28.3028 47.8732 28.3028 46.9142C28.3028 45.9544 29.1754 45.1747 30.2481 45.1747C31.3208 45.1747 32.1942 45.9552 32.1942 46.9142C32.1942 47.8732 31.3208 48.6536 30.2481 48.6536Z" fill="#035B96"/>
<path d="M39.0273 46.9068C39.0273 47.7808 39.752 48.4894 40.6475 48.4894H62.2474C63.1421 48.4894 63.8675 47.7808 63.8675 46.9068C63.8675 46.0328 63.1421 45.3242 62.2474 45.3242H40.6475C39.752 45.3242 39.0273 46.0328 39.0273 46.9068Z" fill="#035B96"/>
<path d="M30.2481 28.2515C27.3883 28.2515 25.0625 30.4523 25.0625 33.1569C25.0625 35.8615 27.3883 38.0616 30.2481 38.0616C33.1079 38.0616 35.4345 35.8615 35.4345 33.1569C35.4345 30.4523 33.1079 28.2515 30.2481 28.2515ZM30.2481 34.8964C29.1746 34.8964 28.3028 34.1159 28.3028 33.1569C28.3028 32.1979 29.1754 31.4167 30.2481 31.4167C31.3208 31.4167 32.1942 32.1971 32.1942 33.1569C32.1942 34.1159 31.3208 34.8971 30.2481 34.8971V34.8964Z" fill="#035B96"/>
<path d="M30.2481 55.7654C27.3883 55.7654 25.0625 57.9654 25.0625 60.67C25.0625 63.3747 27.3883 65.5747 30.2481 65.5747C33.1079 65.5747 35.4345 63.3747 35.4345 60.67C35.4345 57.9654 33.1079 55.7654 30.2481 55.7654ZM30.2481 62.4095C29.1746 62.4095 28.3028 61.6298 28.3028 60.67C28.3028 59.7111 29.1754 58.9306 30.2481 58.9306C31.3208 58.9306 32.1942 59.7111 32.1942 60.67C32.1942 61.629 31.3208 62.4095 30.2481 62.4095Z" fill="#035B96"/>
<path d="M62.2474 59.1724H40.6475C39.752 59.1724 39.0273 59.881 39.0273 60.755C39.0273 61.6289 39.752 62.3376 40.6475 62.3376H62.2474C63.1421 62.3376 63.8675 61.6289 63.8675 60.755C63.8675 59.881 63.1421 59.1724 62.2474 59.1724Z" fill="#035B96"/>
</svg>
