<svg width="280" height="31" viewBox="0 0 280 31" fill="none" xmlns="http://www.w3.org/2000/svg">
<g filter="url(#filter0_d)">
<rect x="1" width="278" height="29" rx="6" fill="#035B96"/>
</g>
<path d="M57.5039 16.0107C57.1484 15.3363 56.9707 14.5661 56.9707 13.7002C56.9707 12.8343 57.1484 12.0641 57.5039 11.3896C57.8639 10.7152 58.3584 10.1934 58.9873 9.82422C59.6208 9.45052 60.334 9.26367 61.127 9.26367C62.0658 9.26367 62.8268 9.51204 63.4102 10.0088V11.5195C63.0456 11.1914 62.6855 10.9521 62.3301 10.8018C61.9746 10.6468 61.5781 10.5693 61.1406 10.5693C60.3249 10.5693 59.6709 10.8587 59.1787 11.4375C58.6865 12.0117 58.4404 12.766 58.4404 13.7002C58.4404 14.6253 58.6865 15.3773 59.1787 15.9561C59.6709 16.5348 60.3249 16.8242 61.1406 16.8242C61.9883 16.8242 62.7448 16.512 63.4102 15.8877V17.3984C62.8314 17.8906 62.0703 18.1367 61.127 18.1367C60.334 18.1367 59.6208 17.9521 58.9873 17.583C58.3584 17.2093 57.8639 16.6852 57.5039 16.0107ZM70.8408 9.40723H72.2969V18H70.8408V14.2334H66.5137V18H65.0576V9.40723H66.5137V12.9482H70.8408V9.40723ZM74.2041 9.40723H79.8232V10.6924H75.6328V12.9619H79.4268V14.2334H75.6328V16.7012H79.8232V18H74.2041V9.40723ZM81.4707 16.0107C81.1152 15.3363 80.9375 14.5661 80.9375 13.7002C80.9375 12.8343 81.1152 12.0641 81.4707 11.3896C81.8307 10.7152 82.3252 10.1934 82.9541 9.82422C83.5876 9.45052 84.3008 9.26367 85.0938 9.26367C86.0326 9.26367 86.7936 9.51204 87.377 10.0088V11.5195C87.0124 11.1914 86.6523 10.9521 86.2969 10.8018C85.9414 10.6468 85.5449 10.5693 85.1074 10.5693C84.2917 10.5693 83.6377 10.8587 83.1455 11.4375C82.6533 12.0117 82.4072 12.766 82.4072 13.7002C82.4072 14.6253 82.6533 15.3773 83.1455 15.9561C83.6377 16.5348 84.2917 16.8242 85.1074 16.8242C85.9551 16.8242 86.7116 16.512 87.377 15.8877V17.3984C86.7982 17.8906 86.0371 18.1367 85.0938 18.1367C84.3008 18.1367 83.5876 17.9521 82.9541 17.583C82.3252 17.2093 81.8307 16.6852 81.4707 16.0107ZM90.4805 9.40723V13.1396L93.9258 9.40723H95.7305L91.8545 13.5225L95.8604 18H94.0078L90.4805 14.0693V18H89.0244V9.40723H90.4805ZM103.435 11.1846L102.259 14.3633H104.61L103.435 11.1846ZM105.964 18L105.082 15.6211H101.794L100.912 18H99.4424L102.744 9.40723H104.146L107.447 18H105.964ZM111.87 18H110.482L107.235 9.40723H108.76L111.2 16.1133L113.634 9.40723H115.117L111.87 18ZM118.884 11.1846L117.708 14.3633H120.06L118.884 11.1846ZM121.413 18L120.531 15.6211H117.243L116.361 18H114.892L118.193 9.40723H119.595L122.896 18H121.413ZM124.134 18V9.40723H125.59V16.7012H129.719V18H124.134ZM134.524 11.1846L133.349 14.3633H135.7L134.524 11.1846ZM137.054 18L136.172 15.6211H132.884L132.002 18H130.532L133.834 9.40723H135.235L138.537 18H137.054ZM141.23 9.40723V18H139.774V9.40723H141.23ZM147.943 13.5635C148.349 13.6911 148.684 13.9417 148.948 14.3154C149.213 14.6846 149.345 15.0924 149.345 15.5391C149.345 16.332 149.087 16.9404 148.572 17.3643C148.057 17.7881 147.344 18 146.433 18H143.138V9.40723H146.152C147.059 9.40723 147.77 9.61003 148.285 10.0156C148.805 10.4167 149.064 10.9932 149.064 11.7451C149.064 12.1872 148.957 12.5723 148.743 12.9004C148.534 13.224 148.267 13.445 147.943 13.5635ZM144.553 13.0166H146.139C147.155 13.0166 147.663 12.6201 147.663 11.8271C147.663 11.0524 147.155 10.665 146.139 10.665H144.553V13.0166ZM144.553 14.2197V16.7422H146.398C146.877 16.7422 147.248 16.6305 147.513 16.4072C147.782 16.1839 147.916 15.874 147.916 15.4775C147.916 15.0811 147.782 14.7734 147.513 14.5547C147.248 14.3314 146.877 14.2197 146.398 14.2197H144.553ZM150.849 18V9.40723H152.305V16.7012H156.434V18H150.849ZM157.917 9.40723H163.536V10.6924H159.346V12.9619H163.14V14.2334H159.346V16.7012H163.536V18H157.917V9.40723ZM168.198 18V9.40723H171.097C172.364 9.40723 173.375 9.79688 174.132 10.5762C174.893 11.3555 175.273 12.3968 175.273 13.7002C175.273 15.0036 174.893 16.0472 174.132 16.8311C173.375 17.6104 172.364 18 171.097 18H168.198ZM169.654 16.7012H171.042C171.926 16.7012 172.61 16.4346 173.093 15.9014C173.576 15.3636 173.817 14.6299 173.817 13.7002C173.817 12.766 173.576 12.0322 173.093 11.499C172.61 10.9613 171.926 10.6924 171.042 10.6924H169.654V16.7012ZM184.263 13.7002C184.263 14.5387 184.092 15.2975 183.75 15.9766C183.413 16.651 182.941 17.1797 182.335 17.5625C181.729 17.9453 181.045 18.1367 180.284 18.1367C179.528 18.1367 178.846 17.9453 178.24 17.5625C177.634 17.1797 177.162 16.651 176.825 15.9766C176.493 15.2975 176.326 14.5387 176.326 13.7002C176.326 13.0667 176.424 12.4766 176.62 11.9297C176.821 11.3783 177.092 10.9089 177.434 10.5215C177.78 10.1296 178.199 9.82194 178.691 9.59863C179.184 9.37533 179.715 9.26367 180.284 9.26367C181.045 9.26367 181.729 9.45508 182.335 9.83789C182.941 10.2161 183.413 10.7448 183.75 11.4238C184.092 12.0983 184.263 12.8571 184.263 13.7002ZM182.096 15.9561C182.561 15.3682 182.793 14.6162 182.793 13.7002C182.793 12.7842 182.561 12.0345 182.096 11.4512C181.631 10.8633 181.027 10.5693 180.284 10.5693C179.537 10.5693 178.935 10.861 178.479 11.4443C178.024 12.0277 177.796 12.7796 177.796 13.7002C177.796 14.6208 178.024 15.375 178.479 15.9629C178.935 16.5462 179.537 16.8379 180.284 16.8379C181.027 16.8379 181.631 16.5439 182.096 15.9561ZM185.842 16.0107C185.486 15.3363 185.309 14.5661 185.309 13.7002C185.309 12.8343 185.486 12.0641 185.842 11.3896C186.202 10.7152 186.696 10.1934 187.325 9.82422C187.959 9.45052 188.672 9.26367 189.465 9.26367C190.404 9.26367 191.165 9.51204 191.748 10.0088V11.5195C191.383 11.1914 191.023 10.9521 190.668 10.8018C190.312 10.6468 189.916 10.5693 189.479 10.5693C188.663 10.5693 188.009 10.8587 187.517 11.4375C187.024 12.0117 186.778 12.766 186.778 13.7002C186.778 14.6253 187.024 15.3773 187.517 15.9561C188.009 16.5348 188.663 16.8242 189.479 16.8242C190.326 16.8242 191.083 16.512 191.748 15.8877V17.3984C191.169 17.8906 190.408 18.1367 189.465 18.1367C188.672 18.1367 187.959 17.9521 187.325 17.583C186.696 17.2093 186.202 16.6852 185.842 16.0107ZM192.794 10.6924V9.40723H199.965V10.6924H197.107V18H195.651V10.6924H192.794ZM208.325 13.7002C208.325 14.5387 208.154 15.2975 207.812 15.9766C207.475 16.651 207.004 17.1797 206.397 17.5625C205.791 17.9453 205.108 18.1367 204.347 18.1367C203.59 18.1367 202.909 17.9453 202.303 17.5625C201.697 17.1797 201.225 16.651 200.888 15.9766C200.555 15.2975 200.389 14.5387 200.389 13.7002C200.389 13.0667 200.487 12.4766 200.683 11.9297C200.883 11.3783 201.154 10.9089 201.496 10.5215C201.842 10.1296 202.262 9.82194 202.754 9.59863C203.246 9.37533 203.777 9.26367 204.347 9.26367C205.108 9.26367 205.791 9.45508 206.397 9.83789C207.004 10.2161 207.475 10.7448 207.812 11.4238C208.154 12.0983 208.325 12.8571 208.325 13.7002ZM206.158 15.9561C206.623 15.3682 206.855 14.6162 206.855 13.7002C206.855 12.7842 206.623 12.0345 206.158 11.4512C205.693 10.8633 205.09 10.5693 204.347 10.5693C203.599 10.5693 202.998 10.861 202.542 11.4443C202.086 12.0277 201.858 12.7796 201.858 13.7002C201.858 14.6208 202.086 15.375 202.542 15.9629C202.998 16.5462 203.599 16.8379 204.347 16.8379C205.09 16.8379 205.693 16.5439 206.158 15.9561ZM211.217 10.665V13.2969H213.056C213.53 13.2969 213.899 13.1784 214.163 12.9414C214.432 12.7044 214.566 12.3831 214.566 11.9775C214.566 11.5719 214.434 11.2529 214.17 11.0205C213.906 10.7835 213.534 10.665 213.056 10.665H211.217ZM209.761 18V9.40723H213.083C213.99 9.40723 214.703 9.63281 215.223 10.084C215.747 10.5306 216.009 11.1618 216.009 11.9775C216.009 12.6794 215.817 13.2399 215.435 13.6592C215.052 14.0785 214.514 14.3451 213.821 14.459L216.303 18H214.648L212.27 14.5137H211.217V18H209.761ZM217.178 17.3848V15.8604C218.003 16.5212 218.912 16.8516 219.905 16.8516C220.42 16.8516 220.826 16.7581 221.122 16.5713C221.423 16.3844 221.573 16.1042 221.573 15.7305C221.573 15.4115 221.482 15.1699 221.3 15.0059C221.122 14.8372 220.812 14.6686 220.37 14.5L219.126 14.0488C218.802 13.9349 218.524 13.8118 218.292 13.6797C218.064 13.5475 217.857 13.3857 217.67 13.1943C217.483 13.0029 217.342 12.7751 217.246 12.5107C217.155 12.2464 217.109 11.9434 217.109 11.6016C217.109 10.8815 217.385 10.3118 217.937 9.89258C218.493 9.47331 219.183 9.26367 220.008 9.26367C221.006 9.26367 221.849 9.49609 222.537 9.96094V11.4648C222.122 11.1641 221.719 10.9339 221.327 10.7744C220.935 10.6149 220.505 10.5352 220.035 10.5352C219.579 10.5352 219.213 10.6263 218.935 10.8086C218.661 10.9863 218.524 11.2415 218.524 11.5742C218.524 11.8659 218.611 12.0938 218.784 12.2578C218.962 12.4219 219.249 12.5723 219.646 12.709L221.026 13.2148C221.705 13.4609 222.202 13.7822 222.517 14.1787C222.831 14.5752 222.988 15.0833 222.988 15.7031C222.988 16.4551 222.699 17.0498 222.12 17.4873C221.541 17.9202 220.803 18.1367 219.905 18.1367C219.358 18.1367 218.841 18.0684 218.354 17.9316C217.866 17.7949 217.474 17.6126 217.178 17.3848Z" fill="white"/>
<defs>
<filter id="filter0_d" x="0" y="0" width="280" height="31" filterUnits="userSpaceOnUse" color-interpolation-filters="sRGB">
<feFlood flood-opacity="0" result="BackgroundImageFix"/>
<feColorMatrix in="SourceAlpha" type="matrix" values="0 0 0 0 0 0 0 0 0 0 0 0 0 0 0 0 0 0 127 0"/>
<feOffset dy="1"/>
<feGaussianBlur stdDeviation="0.5"/>
<feColorMatrix type="matrix" values="0 0 0 0 0 0 0 0 0 0 0 0 0 0 0 0 0 0 0.25 0"/>
<feBlend mode="normal" in2="BackgroundImageFix" result="effect1_dropShadow"/>
<feBlend mode="normal" in="SourceGraphic" in2="effect1_dropShadow" result="shape"/>
</filter>
</defs>
</svg>
