<svg width="105" height="20" viewBox="0 0 105 20" fill="none" xmlns="http://www.w3.org/2000/svg">
<g filter="url(#filter0_d)">
<rect x="1" width="100" height="18" rx="5" fill="#035B96"/>
</g>
<path d="M21.9746 8.19727C22.3223 8.30664 22.6094 8.52148 22.8359 8.8418C23.0625 9.1582 23.1758 9.50781 23.1758 9.89062C23.1758 10.5703 22.9551 11.0918 22.5137 11.4551C22.0723 11.8184 21.4609 12 20.6797 12H17.8555V4.63477H20.4395C21.2168 4.63477 21.8262 4.80859 22.2676 5.15625C22.7129 5.5 22.9355 5.99414 22.9355 6.63867C22.9355 7.01758 22.8438 7.34766 22.6602 7.62891C22.4805 7.90625 22.252 8.0957 21.9746 8.19727ZM19.0684 7.72852H20.4277C21.2988 7.72852 21.7344 7.38867 21.7344 6.70898C21.7344 6.04492 21.2988 5.71289 20.4277 5.71289H19.0684V7.72852ZM19.0684 8.75977V10.9219H20.6504C21.0605 10.9219 21.3789 10.8262 21.6055 10.6348C21.8359 10.4434 21.9512 10.1777 21.9512 9.83789C21.9512 9.49805 21.8359 9.23438 21.6055 9.04688C21.3789 8.85547 21.0605 8.75977 20.6504 8.75977H19.0684ZM25.7129 5.71289V7.96875H27.2891C27.6953 7.96875 28.0117 7.86719 28.2383 7.66406C28.4688 7.46094 28.584 7.18555 28.584 6.83789C28.584 6.49023 28.4707 6.2168 28.2441 6.01758C28.0176 5.81445 27.6992 5.71289 27.2891 5.71289H25.7129ZM24.4648 12V4.63477H27.3125C28.0898 4.63477 28.7012 4.82812 29.1465 5.21484C29.5957 5.59766 29.8203 6.13867 29.8203 6.83789C29.8203 7.43945 29.6562 7.91992 29.3281 8.2793C29 8.63867 28.5391 8.86719 27.9453 8.96484L30.0723 12H28.6543L26.6152 9.01172H25.7129V12H24.4648ZM37.5312 8.31445C37.5312 9.0332 37.3848 9.68359 37.0918 10.2656C36.8027 10.8438 36.3984 11.2969 35.8789 11.625C35.3594 11.9531 34.7734 12.1172 34.1211 12.1172C33.4727 12.1172 32.8887 11.9531 32.3691 11.625C31.8496 11.2969 31.4453 10.8438 31.1562 10.2656C30.8711 9.68359 30.7285 9.0332 30.7285 8.31445C30.7285 7.77148 30.8125 7.26562 30.9805 6.79688C31.1523 6.32422 31.3848 5.92188 31.6777 5.58984C31.9746 5.25391 32.334 4.99023 32.7559 4.79883C33.1777 4.60742 33.6328 4.51172 34.1211 4.51172C34.7734 4.51172 35.3594 4.67578 35.8789 5.00391C36.3984 5.32812 36.8027 5.78125 37.0918 6.36328C37.3848 6.94141 37.5312 7.5918 37.5312 8.31445ZM35.6738 10.248C36.0723 9.74414 36.2715 9.09961 36.2715 8.31445C36.2715 7.5293 36.0723 6.88672 35.6738 6.38672C35.2754 5.88281 34.7578 5.63086 34.1211 5.63086C33.4805 5.63086 32.9648 5.88086 32.5742 6.38086C32.1836 6.88086 31.9883 7.52539 31.9883 8.31445C31.9883 9.10352 32.1836 9.75 32.5742 10.2539C32.9648 10.7539 33.4805 11.0039 34.1211 11.0039C34.7578 11.0039 35.2754 10.752 35.6738 10.248ZM42.0547 4.63477H43.0625L44.4512 10.0547L45.7871 4.63477H46.9824L45.0898 12H43.9355L42.5469 6.73242L41.1289 12H39.9863L38.0938 4.63477H39.3184L40.6484 10.0547L42.0547 4.63477ZM47.709 11.4727V10.166C48.416 10.7324 49.1953 11.0156 50.0469 11.0156C50.4883 11.0156 50.8359 10.9355 51.0898 10.7754C51.3477 10.6152 51.4766 10.375 51.4766 10.0547C51.4766 9.78125 51.3984 9.57422 51.2422 9.43359C51.0898 9.28906 50.8242 9.14453 50.4453 9L49.3789 8.61328C49.1016 8.51562 48.8633 8.41016 48.6641 8.29688C48.4688 8.18359 48.291 8.04492 48.1309 7.88086C47.9707 7.7168 47.8496 7.52148 47.7676 7.29492C47.6895 7.06836 47.6504 6.80859 47.6504 6.51562C47.6504 5.89844 47.8867 5.41016 48.3594 5.05078C48.8359 4.69141 49.4277 4.51172 50.1348 4.51172C50.9902 4.51172 51.7129 4.71094 52.3027 5.10938V6.39844C51.9473 6.14062 51.6016 5.94336 51.2656 5.80664C50.9297 5.66992 50.5605 5.60156 50.1582 5.60156C49.7676 5.60156 49.4531 5.67969 49.2148 5.83594C48.9805 5.98828 48.8633 6.20703 48.8633 6.49219C48.8633 6.74219 48.9375 6.9375 49.0859 7.07812C49.2383 7.21875 49.4844 7.34766 49.8242 7.46484L51.0078 7.89844C51.5898 8.10938 52.0156 8.38477 52.2852 8.72461C52.5547 9.06445 52.6895 9.5 52.6895 10.0312C52.6895 10.6758 52.4414 11.1855 51.9453 11.5605C51.4492 11.9316 50.8164 12.1172 50.0469 12.1172C49.5781 12.1172 49.1348 12.0586 48.7168 11.9414C48.2988 11.8242 47.9629 11.668 47.709 11.4727ZM53.9609 4.63477H58.7773V5.73633H55.1855V7.68164H58.4375V8.77148H55.1855V10.8867H58.7773V12H53.9609V4.63477ZM64.0215 12H62.7734V4.63477H67.4785V5.73633H64.0215V7.92188H67.25V9.01172H64.0215V12ZM69.9629 4.63477V12H68.7148V4.63477H69.9629ZM71.5977 12V4.63477H72.8457V10.8867H76.3848V12H71.5977ZM77.6562 4.63477H82.4727V5.73633H78.8809V7.68164H82.1328V8.77148H78.8809V10.8867H82.4727V12H77.6562V4.63477ZM83.5215 11.4727V10.166C84.2285 10.7324 85.0078 11.0156 85.8594 11.0156C86.3008 11.0156 86.6484 10.9355 86.9023 10.7754C87.1602 10.6152 87.2891 10.375 87.2891 10.0547C87.2891 9.78125 87.2109 9.57422 87.0547 9.43359C86.9023 9.28906 86.6367 9.14453 86.2578 9L85.1914 8.61328C84.9141 8.51562 84.6758 8.41016 84.4766 8.29688C84.2812 8.18359 84.1035 8.04492 83.9434 7.88086C83.7832 7.7168 83.6621 7.52148 83.5801 7.29492C83.502 7.06836 83.4629 6.80859 83.4629 6.51562C83.4629 5.89844 83.6992 5.41016 84.1719 5.05078C84.6484 4.69141 85.2402 4.51172 85.9473 4.51172C86.8027 4.51172 87.5254 4.71094 88.1152 5.10938V6.39844C87.7598 6.14062 87.4141 5.94336 87.0781 5.80664C86.7422 5.66992 86.373 5.60156 85.9707 5.60156C85.5801 5.60156 85.2656 5.67969 85.0273 5.83594C84.793 5.98828 84.6758 6.20703 84.6758 6.49219C84.6758 6.74219 84.75 6.9375 84.8984 7.07812C85.0508 7.21875 85.2969 7.34766 85.6367 7.46484L86.8203 7.89844C87.4023 8.10938 87.8281 8.38477 88.0977 8.72461C88.3672 9.06445 88.502 9.5 88.502 10.0312C88.502 10.6758 88.2539 11.1855 87.7578 11.5605C87.2617 11.9316 86.6289 12.1172 85.8594 12.1172C85.3906 12.1172 84.9473 12.0586 84.5293 11.9414C84.1113 11.8242 83.7754 11.668 83.5215 11.4727Z" fill="white"/>
<defs>
<filter id="filter0_d" x="0" y="0" width="102" height="20" filterUnits="userSpaceOnUse" color-interpolation-filters="sRGB">
<feFlood flood-opacity="0" result="BackgroundImageFix"/>
<feColorMatrix in="SourceAlpha" type="matrix" values="0 0 0 0 0 0 0 0 0 0 0 0 0 0 0 0 0 0 127 0"/>
<feOffset dy="1"/>
<feGaussianBlur stdDeviation="0.5"/>
<feColorMatrix type="matrix" values="0 0 0 0 0 0 0 0 0 0 0 0 0 0 0 0 0 0 0.15 0"/>
<feBlend mode="normal" in2="BackgroundImageFix" result="effect1_dropShadow"/>
<feBlend mode="normal" in="SourceGraphic" in2="effect1_dropShadow" result="shape"/>
</filter>
</defs>
</svg>
