<svg width="154" height="26" viewBox="0 0 154 26" fill="none" xmlns="http://www.w3.org/2000/svg">
<g filter="url(#filter0_d)">
<rect x="1" width="152" height="24" rx="6" fill="#035B96"/>
</g>
<path d="M40.0527 15.4258V14.4062C40.7246 14.9805 41.4961 15.2676 42.3672 15.2676C42.8516 15.2676 43.2344 15.166 43.5156 14.9629C43.8008 14.7598 43.9434 14.4727 43.9434 14.1016C43.9434 13.8008 43.8516 13.5645 43.668 13.3926C43.4883 13.2168 43.1875 13.041 42.7656 12.8652L41.6816 12.4492C41.252 12.2812 40.8691 12.0527 40.5332 11.7637C40.1973 11.4629 40.0293 11.0273 40.0293 10.457C40.0293 9.82031 40.2656 9.33984 40.7383 9.01562C41.2148 8.6875 41.7656 8.52344 42.3906 8.52344C43.2461 8.52344 43.9512 8.72266 44.5059 9.12109V10.1172C43.8652 9.60547 43.1641 9.34961 42.4023 9.34961C41.9766 9.34961 41.6289 9.44531 41.3594 9.63672C41.0898 9.82422 40.9551 10.0938 40.9551 10.4453C40.9551 10.7383 41.0449 10.9688 41.2246 11.1367C41.4043 11.3047 41.6816 11.457 42.0566 11.5938L43.2227 12.0508C43.7852 12.2695 44.1973 12.541 44.459 12.8652C44.7207 13.1855 44.8516 13.5938 44.8516 14.0898C44.8516 14.7148 44.6152 15.207 44.1426 15.5664C43.6699 15.9258 43.0781 16.1055 42.3672 16.1055C41.8828 16.1055 41.4395 16.0449 41.0371 15.9238C40.6348 15.7988 40.3066 15.6328 40.0527 15.4258ZM46.2168 8.63477H50.9043V9.47266H47.1484V11.7988H50.5586V12.6426H47.1484V15.1504H50.9043V16H46.2168V8.63477ZM58.1113 8.63477V16H57.4199L53.3008 10.1465V16H52.3926V8.63477H53.2891L57.2148 14.2363V8.63477H58.1113ZM59.8691 16V8.63477H62.2305C63.2969 8.63477 64.1602 8.9707 64.8203 9.64258C65.4766 10.2988 65.8047 11.1895 65.8047 12.3145C65.8047 13.4395 65.4766 14.3359 64.8203 15.0039C64.1562 15.668 63.293 16 62.2305 16H59.8691ZM60.8125 15.1504H62.2188C63.0469 15.1504 63.6953 14.8945 64.1641 14.3828C64.6367 13.8711 64.873 13.1816 64.873 12.3145C64.873 11.459 64.6367 10.7715 64.1641 10.252C63.6914 9.73242 63.043 9.47266 62.2188 9.47266H60.8125V15.1504ZM73.2871 14.3535H73.2344L70.7031 10.334V16H69.7832V8.63477H70.6562L73.2695 12.8652L75.877 8.63477H76.7031V16H75.7832V10.334L73.2871 14.3535ZM78.4551 8.63477H83.1426V9.47266H79.3867V11.7988H82.7969V12.6426H79.3867V15.1504H83.1426V16H78.4551V8.63477ZM84.2441 15.4258V14.4062C84.916 14.9805 85.6875 15.2676 86.5586 15.2676C87.043 15.2676 87.4258 15.166 87.707 14.9629C87.9922 14.7598 88.1348 14.4727 88.1348 14.1016C88.1348 13.8008 88.043 13.5645 87.8594 13.3926C87.6797 13.2168 87.3789 13.041 86.957 12.8652L85.873 12.4492C85.4434 12.2812 85.0605 12.0527 84.7246 11.7637C84.3887 11.4629 84.2207 11.0273 84.2207 10.457C84.2207 9.82031 84.457 9.33984 84.9297 9.01562C85.4062 8.6875 85.957 8.52344 86.582 8.52344C87.4375 8.52344 88.1426 8.72266 88.6973 9.12109V10.1172C88.0566 9.60547 87.3555 9.34961 86.5938 9.34961C86.168 9.34961 85.8203 9.44531 85.5508 9.63672C85.2812 9.82422 85.1465 10.0938 85.1465 10.4453C85.1465 10.7383 85.2363 10.9688 85.416 11.1367C85.5957 11.3047 85.873 11.457 86.248 11.5938L87.4141 12.0508C87.9766 12.2695 88.3887 12.541 88.6504 12.8652C88.9121 13.1855 89.043 13.5938 89.043 14.0898C89.043 14.7148 88.8066 15.207 88.334 15.5664C87.8613 15.9258 87.2695 16.1055 86.5586 16.1055C86.0742 16.1055 85.6309 16.0449 85.2285 15.9238C84.8262 15.7988 84.498 15.6328 84.2441 15.4258ZM90.0449 15.4258V14.4062C90.7168 14.9805 91.4883 15.2676 92.3594 15.2676C92.8438 15.2676 93.2266 15.166 93.5078 14.9629C93.793 14.7598 93.9355 14.4727 93.9355 14.1016C93.9355 13.8008 93.8438 13.5645 93.6602 13.3926C93.4805 13.2168 93.1797 13.041 92.7578 12.8652L91.6738 12.4492C91.2441 12.2812 90.8613 12.0527 90.5254 11.7637C90.1895 11.4629 90.0215 11.0273 90.0215 10.457C90.0215 9.82031 90.2578 9.33984 90.7305 9.01562C91.207 8.6875 91.7578 8.52344 92.3828 8.52344C93.2383 8.52344 93.9434 8.72266 94.498 9.12109V10.1172C93.8574 9.60547 93.1562 9.34961 92.3945 9.34961C91.9688 9.34961 91.6211 9.44531 91.3516 9.63672C91.082 9.82422 90.9473 10.0938 90.9473 10.4453C90.9473 10.7383 91.0371 10.9688 91.2168 11.1367C91.3965 11.3047 91.6738 11.457 92.0488 11.5938L93.2148 12.0508C93.7773 12.2695 94.1895 12.541 94.4512 12.8652C94.7129 13.1855 94.8438 13.5938 94.8438 14.0898C94.8438 14.7148 94.6074 15.207 94.1348 15.5664C93.6621 15.9258 93.0703 16.1055 92.3594 16.1055C91.875 16.1055 91.4316 16.0449 91.0293 15.9238C90.627 15.7988 90.2988 15.6328 90.0449 15.4258ZM98.8105 9.80664L97.6094 12.9531H100.023L98.8105 9.80664ZM101.189 16L100.334 13.7793H97.2988L96.4609 16H95.5L98.3828 8.63477H99.2676L102.15 16H101.189ZM106.064 15.2676C106.736 15.2676 107.299 15.0801 107.752 14.7051V12.9648H106.135V12.1738H108.631V15.0508C107.99 15.7539 107.127 16.1055 106.041 16.1055C105.014 16.1055 104.182 15.7578 103.545 15.0625C102.912 14.3711 102.596 13.4551 102.596 12.3145C102.596 11.1621 102.936 10.2461 103.615 9.56641C104.299 8.87109 105.143 8.52344 106.146 8.52344C106.99 8.52344 107.697 8.74414 108.268 9.18555V10.1934C107.67 9.65039 106.963 9.37891 106.146 9.37891C105.385 9.37891 104.756 9.65039 104.26 10.1934C103.783 10.7285 103.545 11.4355 103.545 12.3145C103.545 13.2051 103.771 13.918 104.225 14.4531C104.686 14.9961 105.299 15.2676 106.064 15.2676ZM110.143 8.63477H114.83V9.47266H111.074V11.7988H114.484V12.6426H111.074V15.1504H114.83V16H110.143V8.63477Z" fill="white"/>
<defs>
<filter id="filter0_d" x="0" y="0" width="154" height="26" filterUnits="userSpaceOnUse" color-interpolation-filters="sRGB">
<feFlood flood-opacity="0" result="BackgroundImageFix"/>
<feColorMatrix in="SourceAlpha" type="matrix" values="0 0 0 0 0 0 0 0 0 0 0 0 0 0 0 0 0 0 127 0" result="hardAlpha"/>
<feOffset dy="1"/>
<feGaussianBlur stdDeviation="0.5"/>
<feColorMatrix type="matrix" values="0 0 0 0 0 0 0 0 0 0 0 0 0 0 0 0 0 0 0.25 0"/>
<feBlend mode="normal" in2="BackgroundImageFix" result="effect1_dropShadow"/>
<feBlend mode="normal" in="SourceGraphic" in2="effect1_dropShadow" result="shape"/>
</filter>
</defs>
</svg>
