<svg width="280" height="31" viewBox="0 0 280 31" fill="none" xmlns="http://www.w3.org/2000/svg">
<g filter="url(#filter0_d)">
<rect x="1" width="278" height="29" rx="6" fill="#035B96"/>
</g>
<path d="M104.213 17.7266C103.807 16.9557 103.603 16.0755 103.603 15.0859C103.603 14.0964 103.807 13.2161 104.213 12.4453C104.624 11.6745 105.189 11.0781 105.908 10.6562C106.632 10.2292 107.447 10.0156 108.353 10.0156C109.426 10.0156 110.296 10.2995 110.963 10.8672V12.5938C110.546 12.2188 110.135 11.9453 109.728 11.7734C109.322 11.5964 108.869 11.5078 108.369 11.5078C107.437 11.5078 106.689 11.8385 106.127 12.5C105.564 13.1562 105.283 14.0182 105.283 15.0859C105.283 16.1432 105.564 17.0026 106.127 17.6641C106.689 18.3255 107.437 18.6562 108.369 18.6562C109.338 18.6562 110.202 18.2995 110.963 17.5859V19.3125C110.301 19.875 109.432 20.1562 108.353 20.1562C107.447 20.1562 106.632 19.9453 105.908 19.5234C105.189 19.0964 104.624 18.4974 104.213 17.7266ZM121.314 15.0859C121.314 16.0443 121.119 16.9115 120.728 17.6875C120.343 18.4583 119.804 19.0625 119.111 19.5C118.419 19.9375 117.637 20.1562 116.767 20.1562C115.903 20.1562 115.124 19.9375 114.432 19.5C113.739 19.0625 113.2 18.4583 112.814 17.6875C112.434 16.9115 112.244 16.0443 112.244 15.0859C112.244 14.362 112.356 13.6875 112.58 13.0625C112.809 12.4323 113.119 11.8958 113.51 11.4531C113.906 11.0052 114.385 10.6536 114.947 10.3984C115.51 10.1432 116.116 10.0156 116.767 10.0156C117.637 10.0156 118.419 10.2344 119.111 10.6719C119.804 11.1042 120.343 11.7083 120.728 12.4844C121.119 13.2552 121.314 14.1224 121.314 15.0859ZM118.838 17.6641C119.369 16.9922 119.635 16.1328 119.635 15.0859C119.635 14.0391 119.369 13.1823 118.838 12.5156C118.307 11.8438 117.616 11.5078 116.767 11.5078C115.913 11.5078 115.226 11.8411 114.705 12.5078C114.184 13.1745 113.924 14.0339 113.924 15.0859C113.924 16.138 114.184 17 114.705 17.6719C115.226 18.3385 115.913 18.6719 116.767 18.6719C117.616 18.6719 118.307 18.3359 118.838 17.6641ZM130.861 10.1797V20H129.58L124.557 12.8516V20H122.955V10.1797H124.525L129.26 16.9922V10.1797H130.861ZM132.424 11.6484V10.1797H140.619V11.6484H137.353V20H135.689V11.6484H132.424ZM143.853 10.1797V20H142.189V10.1797H143.853ZM153.939 10.1797V20H152.658L147.635 12.8516V20H146.033V10.1797H147.603L152.338 16.9922V10.1797H153.939ZM162.76 19.1094C162.057 19.8073 161.101 20.1562 159.892 20.1562C158.684 20.1562 157.726 19.8047 157.017 19.1016C156.309 18.3932 155.955 17.3854 155.955 16.0781V10.1797H157.619V15.9062C157.619 17.75 158.377 18.6719 159.892 18.6719C161.403 18.6719 162.158 17.75 162.158 15.9062V10.1797H163.822V16.0938C163.822 17.401 163.468 18.4062 162.76 19.1094ZM165.846 10.1797H172.267V11.6484H167.478V14.2422H171.814V15.6953H167.478V18.5156H172.267V20H165.846V10.1797Z" fill="white"/>
<defs>
<filter id="filter0_d" x="0" y="0" width="280" height="31" filterUnits="userSpaceOnUse" color-interpolation-filters="sRGB">
<feFlood flood-opacity="0" result="BackgroundImageFix"/>
<feColorMatrix in="SourceAlpha" type="matrix" values="0 0 0 0 0 0 0 0 0 0 0 0 0 0 0 0 0 0 127 0"/>
<feOffset dy="1"/>
<feGaussianBlur stdDeviation="0.5"/>
<feColorMatrix type="matrix" values="0 0 0 0 0 0 0 0 0 0 0 0 0 0 0 0 0 0 0.25 0"/>
<feBlend mode="normal" in2="BackgroundImageFix" result="effect1_dropShadow"/>
<feBlend mode="normal" in="SourceGraphic" in2="effect1_dropShadow" result="shape"/>
</filter>
</defs>
</svg>
