<svg width="281" height="31" viewBox="0 0 281 31" fill="none" xmlns="http://www.w3.org/2000/svg">
<g filter="url(#filter0_d)">
<rect x="1.45459" width="278" height="29" rx="6" fill="#035B96"/>
</g>
<path d="M108.191 15.7002C108.191 14.3649 108.578 13.2962 109.353 12.4941C110.123 11.6829 111.08 11.2773 112.224 11.2773C113.167 11.2773 113.938 11.5257 114.535 12.0225V13.1846C113.874 12.5785 113.108 12.2754 112.238 12.2754C111.367 12.2754 110.656 12.5921 110.105 13.2256C109.567 13.8454 109.298 14.6702 109.298 15.7002C109.298 16.7438 109.567 17.5755 110.105 18.1953C110.647 18.8197 111.358 19.1318 112.238 19.1318C113.108 19.1318 113.874 18.8288 114.535 18.2227V19.3848C113.942 19.877 113.172 20.123 112.224 20.123C111.085 20.123 110.128 19.722 109.353 18.9199C108.578 18.1042 108.191 17.0309 108.191 15.7002ZM122.375 12.5215C123.109 13.3372 123.476 14.3968 123.476 15.7002C123.476 17.0036 123.109 18.0632 122.375 18.8789C121.651 19.7083 120.721 20.123 119.586 20.123C118.479 20.123 117.552 19.7083 116.804 18.8789C116.075 18.0449 115.71 16.9854 115.71 15.7002C115.71 14.415 116.075 13.3555 116.804 12.5215C117.552 11.6921 118.479 11.2773 119.586 11.2773C120.721 11.2773 121.651 11.6921 122.375 12.5215ZM122.375 15.7002C122.375 14.6976 122.118 13.8773 121.603 13.2393C121.083 12.5967 120.411 12.2754 119.586 12.2754C118.771 12.2754 118.103 12.5967 117.583 13.2393C117.073 13.8727 116.818 14.693 116.818 15.7002C116.818 16.7119 117.073 17.5345 117.583 18.168C118.103 18.8105 118.771 19.1318 119.586 19.1318C120.411 19.1318 121.083 18.8105 121.603 18.168C122.118 17.5299 122.375 16.7074 122.375 15.7002ZM131.693 11.4072V20H130.886L126.081 13.1709V20H125.021V11.4072H126.067L130.647 17.9424V11.4072H131.693ZM133.135 12.3848V11.4072H140.238V12.3848H137.244V20H136.136V12.3848H133.135ZM142.788 11.4072V20H141.687V11.4072H142.788ZM151.503 11.4072V20H150.697L145.891 13.1709V20H144.832V11.4072H145.877L150.458 17.9424V11.4072H151.503ZM156.774 20.123C155.794 20.123 154.99 19.8291 154.361 19.2412C153.727 18.6351 153.411 17.7487 153.411 16.582V11.4072H154.504V16.459C154.504 17.3522 154.703 18.0244 155.099 18.4756C155.5 18.9222 156.058 19.1455 156.774 19.1455C157.489 19.1455 158.045 18.9222 158.442 18.4756C158.838 18.0244 159.037 17.3522 159.037 16.459V11.4072H160.144V16.5957C160.144 17.7578 159.823 18.6396 159.18 19.2412C158.551 19.8291 157.749 20.123 156.774 20.123ZM162.058 11.4072H167.527V12.3848H163.145V15.0986H167.124V16.083H163.145V19.0088H167.527V20H162.058V11.4072Z" fill="white"/>
<defs>
<filter id="filter0_d" x="0.45459" y="0" width="280" height="31" filterUnits="userSpaceOnUse" color-interpolation-filters="sRGB">
<feFlood flood-opacity="0" result="BackgroundImageFix"/>
<feColorMatrix in="SourceAlpha" type="matrix" values="0 0 0 0 0 0 0 0 0 0 0 0 0 0 0 0 0 0 127 0"/>
<feOffset dy="1"/>
<feGaussianBlur stdDeviation="0.5"/>
<feColorMatrix type="matrix" values="0 0 0 0 0 0 0 0 0 0 0 0 0 0 0 0 0 0 0.25 0"/>
<feBlend mode="normal" in2="BackgroundImageFix" result="effect1_dropShadow"/>
<feBlend mode="normal" in="SourceGraphic" in2="effect1_dropShadow" result="shape"/>
</filter>
</defs>
</svg>
