<svg width="242" height="31" viewBox="0 0 242 31" fill="none" xmlns="http://www.w3.org/2000/svg">
<g filter="url(#filter0_d)">
<rect x="1" width="240" height="29" rx="6" fill="#035B96"/>
</g>
<path d="M65.8095 17.3848V15.8604C66.6344 16.5212 67.5436 16.8516 68.537 16.8516C69.052 16.8516 69.4576 16.7581 69.7538 16.5713C70.0546 16.3844 70.205 16.1042 70.205 15.7305C70.205 15.4115 70.1139 15.1699 69.9316 15.0059C69.7538 14.8372 69.4439 14.6686 69.0019 14.5L67.7578 14.0488C67.4342 13.9349 67.1562 13.8118 66.9238 13.6797C66.6959 13.5475 66.4885 13.3857 66.3017 13.1943C66.1148 13.0029 65.9736 12.7751 65.8779 12.5107C65.7867 12.2464 65.7411 11.9434 65.7411 11.6016C65.7411 10.8815 66.0169 10.3118 66.5683 9.89258C67.1243 9.47331 67.8147 9.26367 68.6396 9.26367C69.6376 9.26367 70.4807 9.49609 71.1689 9.96094V11.4648C70.7542 11.1641 70.3509 10.9339 69.9589 10.7744C69.567 10.6149 69.1363 10.5352 68.6669 10.5352C68.2112 10.5352 67.8443 10.6263 67.5663 10.8086C67.2929 10.9863 67.1562 11.2415 67.1562 11.5742C67.1562 11.8659 67.2428 12.0938 67.416 12.2578C67.5937 12.4219 67.8808 12.5723 68.2773 12.709L69.6581 13.2148C70.3372 13.4609 70.8339 13.7822 71.1484 14.1787C71.4628 14.5752 71.6201 15.0833 71.6201 15.7031C71.6201 16.4551 71.3307 17.0498 70.7519 17.4873C70.1731 17.9202 69.4348 18.1367 68.537 18.1367C67.9902 18.1367 67.4729 18.0684 66.9853 17.9316C66.4977 17.7949 66.1057 17.6126 65.8095 17.3848ZM73.1786 16.0107C72.8232 15.3363 72.6454 14.5661 72.6454 13.7002C72.6454 12.8343 72.8232 12.0641 73.1786 11.3896C73.5387 10.7152 74.0331 10.1934 74.662 9.82422C75.2955 9.45052 76.0087 9.26367 76.8017 9.26367C77.7405 9.26367 78.5016 9.51204 79.0849 10.0088V11.5195C78.7203 11.1914 78.3603 10.9521 78.0048 10.8018C77.6494 10.6468 77.2529 10.5693 76.8154 10.5693C75.9996 10.5693 75.3456 10.8587 74.8535 11.4375C74.3613 12.0117 74.1152 12.766 74.1152 13.7002C74.1152 14.6253 74.3613 15.3773 74.8535 15.9561C75.3456 16.5348 75.9996 16.8242 76.8154 16.8242C77.663 16.8242 78.4195 16.512 79.0849 15.8877V17.3984C78.5061 17.8906 77.7451 18.1367 76.8017 18.1367C76.0087 18.1367 75.2955 17.9521 74.662 17.583C74.0331 17.2093 73.5387 16.6852 73.1786 16.0107ZM86.5156 9.40723H87.9716V18H86.5156V14.2334H82.1884V18H80.7324V9.40723H82.1884V12.9482H86.5156V9.40723ZM89.8788 18V9.40723H92.7773C94.0442 9.40723 95.0559 9.79688 95.8124 10.5762C96.5735 11.3555 96.954 12.3968 96.954 13.7002C96.954 15.0036 96.5735 16.0472 95.8124 16.8311C95.0559 17.6104 94.0442 18 92.7773 18H89.8788ZM91.3349 16.7012H92.7226C93.6067 16.7012 94.2903 16.4346 94.7734 15.9014C95.2564 15.3636 95.498 14.6299 95.498 13.7002C95.498 12.766 95.2564 12.0322 94.7734 11.499C94.2903 10.9613 93.6067 10.6924 92.7226 10.6924H91.3349V16.7012ZM98.3964 9.40723H104.016V10.6924H99.8251V12.9619H103.619V14.2334H99.8251V16.7012H104.016V18H98.3964V9.40723ZM111.405 17.2207C110.79 17.8314 109.954 18.1367 108.896 18.1367C107.839 18.1367 107.001 17.8291 106.381 17.2139C105.761 16.5941 105.451 15.7122 105.451 14.5684V9.40723H106.907V14.418C106.907 16.0312 107.57 16.8379 108.896 16.8379C110.218 16.8379 110.879 16.0312 110.879 14.418V9.40723H112.335V14.582C112.335 15.7259 112.025 16.6055 111.405 17.2207ZM114.105 18V9.40723H115.561V16.7012H119.69V18H114.105ZM121.174 9.40723H126.793V10.6924H122.602V12.9619H126.396V14.2334H122.602V16.7012H126.793V18H121.174V9.40723ZM134.777 11.1846L133.602 14.3633H135.953L134.777 11.1846ZM137.307 18L136.425 15.6211H133.137L132.255 18H130.785L134.087 9.40723H135.488L138.79 18H137.307ZM143.117 18V9.40723H146.016C147.282 9.40723 148.294 9.79688 149.051 10.5762C149.812 11.3555 150.192 12.3968 150.192 13.7002C150.192 15.0036 149.812 16.0472 149.051 16.8311C148.294 17.6104 147.282 18 146.016 18H143.117ZM144.573 16.7012H145.961C146.845 16.7012 147.529 16.4346 148.012 15.9014C148.495 15.3636 148.736 14.6299 148.736 13.7002C148.736 12.766 148.495 12.0322 148.012 11.499C147.529 10.9613 146.845 10.6924 145.961 10.6924H144.573V16.7012ZM151.635 9.40723H157.254V10.6924H153.063V12.9619H156.857V14.2334H153.063V16.7012H157.254V18H151.635V9.40723ZM162.989 16.1543H162.928L160.255 11.9775V18H158.826V9.40723H160.186L162.969 13.8848L165.744 9.40723H167.043V18H165.621V11.9775L162.989 16.1543ZM176.422 13.7002C176.422 14.5387 176.251 15.2975 175.909 15.9766C175.572 16.651 175.1 17.1797 174.494 17.5625C173.888 17.9453 173.204 18.1367 172.443 18.1367C171.687 18.1367 171.005 17.9453 170.399 17.5625C169.793 17.1797 169.322 16.651 168.984 15.9766C168.652 15.2975 168.485 14.5387 168.485 13.7002C168.485 13.0667 168.583 12.4766 168.779 11.9297C168.98 11.3783 169.251 10.9089 169.593 10.5215C169.939 10.1296 170.358 9.82194 170.851 9.59863C171.343 9.37533 171.874 9.26367 172.443 9.26367C173.204 9.26367 173.888 9.45508 174.494 9.83789C175.1 10.2161 175.572 10.7448 175.909 11.4238C176.251 12.0983 176.422 12.8571 176.422 13.7002ZM174.255 15.9561C174.72 15.3682 174.952 14.6162 174.952 13.7002C174.952 12.7842 174.72 12.0345 174.255 11.4512C173.79 10.8633 173.186 10.5693 172.443 10.5693C171.696 10.5693 171.094 10.861 170.639 11.4443C170.183 12.0277 169.955 12.7796 169.955 13.7002C169.955 14.6208 170.183 15.375 170.639 15.9629C171.094 16.5462 171.696 16.8379 172.443 16.8379C173.186 16.8379 173.79 16.5439 174.255 15.9561Z" fill="white"/>
<defs>
<filter id="filter0_d" x="0" y="0" width="242" height="31" filterUnits="userSpaceOnUse" color-interpolation-filters="sRGB">
<feFlood flood-opacity="0" result="BackgroundImageFix"/>
<feColorMatrix in="SourceAlpha" type="matrix" values="0 0 0 0 0 0 0 0 0 0 0 0 0 0 0 0 0 0 127 0"/>
<feOffset dy="1"/>
<feGaussianBlur stdDeviation="0.5"/>
<feColorMatrix type="matrix" values="0 0 0 0 0 0 0 0 0 0 0 0 0 0 0 0 0 0 0.25 0"/>
<feBlend mode="normal" in2="BackgroundImageFix" result="effect1_dropShadow"/>
<feBlend mode="normal" in="SourceGraphic" in2="effect1_dropShadow" result="shape"/>
</filter>
</defs>
</svg>
