<svg width="192" height="31" viewBox="0 0 192 31" fill="none" xmlns="http://www.w3.org/2000/svg">
<g filter="url(#filter0_d)">
<rect x="1" width="190" height="29" rx="6" fill="#F7F7F7"/>
</g>
<path d="M68.8984 20V10.1797H72.2109C73.6589 10.1797 74.8151 10.625 75.6797 11.5156C76.5495 12.4062 76.9844 13.5964 76.9844 15.0859C76.9844 16.5755 76.5495 17.7682 75.6797 18.6641C74.8151 19.5547 73.6589 20 72.2109 20H68.8984ZM70.5625 18.5156H72.1484C73.1589 18.5156 73.9401 18.2109 74.4922 17.6016C75.0443 16.987 75.3203 16.1484 75.3203 15.0859C75.3203 14.0182 75.0443 13.1797 74.4922 12.5703C73.9401 11.9557 73.1589 11.6484 72.1484 11.6484H70.5625V18.5156ZM87.2578 15.0859C87.2578 16.0443 87.0625 16.9115 86.6719 17.6875C86.2865 18.4583 85.7474 19.0625 85.0547 19.5C84.362 19.9375 83.5807 20.1562 82.7109 20.1562C81.8464 20.1562 81.0677 19.9375 80.375 19.5C79.6823 19.0625 79.1432 18.4583 78.7578 17.6875C78.3776 16.9115 78.1875 16.0443 78.1875 15.0859C78.1875 14.362 78.2995 13.6875 78.5234 13.0625C78.7526 12.4323 79.0625 11.8958 79.4531 11.4531C79.849 11.0052 80.3281 10.6536 80.8906 10.3984C81.4531 10.1432 82.0599 10.0156 82.7109 10.0156C83.5807 10.0156 84.362 10.2344 85.0547 10.6719C85.7474 11.1042 86.2865 11.7083 86.6719 12.4844C87.0625 13.2552 87.2578 14.1224 87.2578 15.0859ZM84.7812 17.6641C85.3125 16.9922 85.5781 16.1328 85.5781 15.0859C85.5781 14.0391 85.3125 13.1823 84.7812 12.5156C84.25 11.8438 83.5599 11.5078 82.7109 11.5078C81.8568 11.5078 81.1693 11.8411 80.6484 12.5078C80.1276 13.1745 79.8672 14.0339 79.8672 15.0859C79.8672 16.138 80.1276 17 80.6484 17.6719C81.1693 18.3385 81.8568 18.6719 82.7109 18.6719C83.5599 18.6719 84.25 18.3359 84.7812 17.6641ZM89.0625 17.7266C88.6562 16.9557 88.4531 16.0755 88.4531 15.0859C88.4531 14.0964 88.6562 13.2161 89.0625 12.4453C89.474 11.6745 90.0391 11.0781 90.7578 10.6562C91.4818 10.2292 92.2969 10.0156 93.2031 10.0156C94.276 10.0156 95.1458 10.2995 95.8125 10.8672V12.5938C95.3958 12.2188 94.9844 11.9453 94.5781 11.7734C94.1719 11.5964 93.7188 11.5078 93.2188 11.5078C92.2865 11.5078 91.5391 11.8385 90.9766 12.5C90.4141 13.1562 90.1328 14.0182 90.1328 15.0859C90.1328 16.1432 90.4141 17.0026 90.9766 17.6641C91.5391 18.3255 92.2865 18.6562 93.2188 18.6562C94.1875 18.6562 95.0521 18.2995 95.8125 17.5859V19.3125C95.151 19.875 94.2812 20.1562 93.2031 20.1562C92.2969 20.1562 91.4818 19.9453 90.7578 19.5234C90.0391 19.0964 89.474 18.4974 89.0625 17.7266ZM97.0078 11.6484V10.1797H105.203V11.6484H101.938V20H100.273V11.6484H97.0078ZM114.758 15.0859C114.758 16.0443 114.562 16.9115 114.172 17.6875C113.786 18.4583 113.247 19.0625 112.555 19.5C111.862 19.9375 111.081 20.1562 110.211 20.1562C109.346 20.1562 108.568 19.9375 107.875 19.5C107.182 19.0625 106.643 18.4583 106.258 17.6875C105.878 16.9115 105.688 16.0443 105.688 15.0859C105.688 14.362 105.799 13.6875 106.023 13.0625C106.253 12.4323 106.562 11.8958 106.953 11.4531C107.349 11.0052 107.828 10.6536 108.391 10.3984C108.953 10.1432 109.56 10.0156 110.211 10.0156C111.081 10.0156 111.862 10.2344 112.555 10.6719C113.247 11.1042 113.786 11.7083 114.172 12.4844C114.562 13.2552 114.758 14.1224 114.758 15.0859ZM112.281 17.6641C112.812 16.9922 113.078 16.1328 113.078 15.0859C113.078 14.0391 112.812 13.1823 112.281 12.5156C111.75 11.8438 111.06 11.5078 110.211 11.5078C109.357 11.5078 108.669 11.8411 108.148 12.5078C107.628 13.1745 107.367 14.0339 107.367 15.0859C107.367 16.138 107.628 17 108.148 17.6719C108.669 18.3385 109.357 18.6719 110.211 18.6719C111.06 18.6719 111.75 18.3359 112.281 17.6641ZM118.062 11.6172V14.625H120.164C120.706 14.625 121.128 14.4896 121.43 14.2188C121.737 13.9479 121.891 13.5807 121.891 13.1172C121.891 12.6536 121.74 12.2891 121.438 12.0234C121.135 11.7526 120.711 11.6172 120.164 11.6172H118.062ZM116.398 20V10.1797H120.195C121.232 10.1797 122.047 10.4375 122.641 10.9531C123.24 11.4635 123.539 12.1849 123.539 13.1172C123.539 13.9193 123.32 14.5599 122.883 15.0391C122.445 15.5182 121.831 15.8229 121.039 15.9531L123.875 20H121.984L119.266 16.0156H118.062V20H116.398Z" fill="#035B96"/>
<defs>
<filter id="filter0_d" x="0" y="0" width="192" height="31" filterUnits="userSpaceOnUse" color-interpolation-filters="sRGB">
<feFlood flood-opacity="0" result="BackgroundImageFix"/>
<feColorMatrix in="SourceAlpha" type="matrix" values="0 0 0 0 0 0 0 0 0 0 0 0 0 0 0 0 0 0 127 0"/>
<feOffset dy="1"/>
<feGaussianBlur stdDeviation="0.5"/>
<feColorMatrix type="matrix" values="0 0 0 0 0 0 0 0 0 0 0 0 0 0 0 0 0 0 0.25 0"/>
<feBlend mode="normal" in2="BackgroundImageFix" result="effect1_dropShadow"/>
<feBlend mode="normal" in="SourceGraphic" in2="effect1_dropShadow" result="shape"/>
</filter>
</defs>
</svg>
