<svg width="150" height="150" viewBox="0 0 150 150" fill="none" xmlns="http://www.w3.org/2000/svg">
<path d="M133.594 21.0938H121.875V25.7812H133.594C135.459 25.7812 137.247 26.522 138.566 27.8407C139.884 29.1593 140.625 30.9477 140.625 32.8125V98.4375H119.531V27.1547L99.4078 7.03125H30.4688V98.4375H9.375V30.4688C9.375 29.3086 9.375 25.7812 16.4062 25.7812H25.7812V21.0938H16.4062C9.06797 21.0938 4.6875 24.6094 4.6875 30.4688V110.156C4.69122 113.263 5.92707 116.242 8.12395 118.439C10.3208 120.635 13.2994 121.871 16.4062 121.875H56.25V131.25H44.5312C42.6664 131.25 40.878 131.991 39.5594 133.309C38.2408 134.628 37.5 136.416 37.5 138.281V140.625H32.8125V145.312H117.188V140.625H112.5V138.281C112.5 136.416 111.759 134.628 110.441 133.309C109.122 131.991 107.334 131.25 105.469 131.25H93.75V121.875H133.594C136.701 121.871 139.679 120.635 141.876 118.439C144.073 116.242 145.309 113.263 145.312 110.156V32.8125C145.309 29.7056 144.073 26.7271 141.876 24.5302C139.679 22.3333 136.701 21.0975 133.594 21.0938ZM100.781 15.0328L111.53 25.7812H100.781V15.0328ZM35.1562 11.7188H96.0938V30.4688H114.844V98.4375H35.1562V11.7188ZM105.469 135.938C106.09 135.938 106.686 136.184 107.126 136.624C107.566 137.064 107.812 137.66 107.812 138.281V140.625H42.1875V138.281C42.1875 137.66 42.4344 137.064 42.874 136.624C43.3135 136.184 43.9096 135.938 44.5312 135.938H105.469ZM60.9375 131.25V121.875H89.0625V131.25H60.9375ZM140.625 110.156C140.625 112.021 139.884 113.809 138.566 115.128C137.247 116.447 135.459 117.188 133.594 117.188H16.4062C14.5414 117.188 12.753 116.447 11.4344 115.128C10.1158 113.809 9.375 112.021 9.375 110.156V103.125H140.625V110.156Z" fill="#035B96"/>
<path d="M82.0313 110.156C82.0313 108.766 81.6189 107.406 80.8463 106.25C80.0737 105.094 78.9755 104.192 77.6908 103.66C76.406 103.128 74.9922 102.989 73.6283 103.26C72.2643 103.531 71.0115 104.201 70.0282 105.184C69.0448 106.168 68.3752 107.421 68.1039 108.785C67.8326 110.148 67.9718 111.562 68.504 112.847C69.0362 114.132 69.9374 115.23 71.0937 116.003C72.2499 116.775 73.6094 117.187 75 117.187C76.8648 117.187 78.6532 116.447 79.9719 115.128C81.2905 113.809 82.0313 112.021 82.0313 110.156ZM75 112.5C74.5365 112.5 74.0833 112.363 73.6979 112.105C73.3125 111.847 73.0121 111.481 72.8347 111.053C72.6573 110.625 72.6109 110.154 72.7013 109.699C72.7917 109.244 73.0149 108.827 73.3427 108.499C73.6705 108.171 74.0881 107.948 74.5428 107.858C74.9974 107.767 75.4687 107.814 75.8969 107.991C76.3252 108.168 76.6912 108.469 76.9488 108.854C77.2063 109.24 77.3438 109.693 77.3438 110.156C77.3438 110.778 77.0968 111.374 76.6573 111.814C76.2178 112.253 75.6216 112.5 75 112.5Z" fill="#035B96"/>
<path d="M77.3438 60.9375H105.469V65.625H77.3438V60.9375Z" fill="#035B96"/>
<path d="M67.9688 70.3125H105.469V75H67.9688V70.3125Z" fill="#035B96"/>
<path d="M77.3438 79.6875H105.469V84.375H77.3438V79.6875Z" fill="#035B96"/>
<path d="M67.9688 89.0625H105.469V93.75H67.9688V89.0625Z" fill="#035B96"/>
<path d="M53.9062 21.0938H44.5312V46.875H49.2188V37.0312L56.6437 48.1688L60.5438 45.5672L53.5969 35.1562H53.9062C55.7711 35.1562 57.5595 34.4155 58.8781 33.0968C60.1967 31.7782 60.9375 29.9898 60.9375 28.125C60.9375 26.2602 60.1967 24.4718 58.8781 23.1532C57.5595 21.8345 55.7711 21.0938 53.9062 21.0938ZM53.9062 30.4688H49.2188V25.7812H53.9062C54.5279 25.7812 55.124 26.0282 55.5635 26.4677C56.0031 26.9073 56.25 27.5034 56.25 28.125C56.25 28.7466 56.0031 29.3427 55.5635 29.7823C55.124 30.2218 54.5279 30.4688 53.9062 30.4688Z" fill="#035B96"/>
<path d="M77.709 48.1336L81.6652 45.6164L74.2637 33.9844L81.6652 22.3524L77.709 19.8352L71.484 29.618L65.259 19.8352L61.3027 22.3524L68.7043 33.9844L61.3027 45.6164L65.259 48.1336L71.484 38.3508L77.709 48.1336Z" fill="#035B96"/>
<path d="M46.875 75H60.9375V60.9375H46.875V75ZM51.5625 65.625H56.25V70.3125H51.5625V65.625Z" fill="#035B96"/>
<path d="M46.875 93.75H60.9375V79.6875H46.875V93.75ZM51.5625 84.375H56.25V89.0625H51.5625V84.375Z" fill="#035B96"/>
<path d="M67.9688 60.9375H72.6562V65.625H67.9688V60.9375Z" fill="#035B96"/>
<path d="M67.9688 79.6875H72.6562V84.375H67.9688V79.6875Z" fill="#035B96"/>
</svg>
