<svg width="101" height="100" viewBox="0 0 101 100" fill="none" xmlns="http://www.w3.org/2000/svg">
<path d="M93.1604 69.3887L59.2988 77.9122C59.0081 76.9158 58.4717 75.9744 57.689 75.1916L46.901 64.4036C45.5628 63.0662 43.7844 62.3299 41.8923 62.3299H20.3736C19.9677 58.6205 16.8167 55.7236 12.999 55.7236H7.41883C3.32795 55.7236 0 59.0508 0 63.1425V78.0732C0 78.8842 0.658418 79.5419 1.46866 79.5419C2.27967 79.5419 2.93808 78.8842 2.93808 78.0732V63.1425C2.93808 60.6705 4.94919 58.6617 7.41883 58.6617H12.999C15.1909 58.6617 17.022 60.2456 17.4057 62.3299C17.5148 62.9166 17.4805 61.1596 17.4805 89.2037C17.4805 91.6757 15.4694 93.6853 12.999 93.6853H7.41883C4.94919 93.6853 2.93808 91.6757 2.93808 89.2037V83.9486C2.93808 83.1384 2.27967 82.4799 1.46866 82.4799C0.658418 82.4799 0 83.1384 0 83.9486V89.2037C0 93.2954 3.32795 96.6233 7.41883 96.6233H12.999C17.0906 96.6233 20.4186 93.2954 20.4186 89.2037V86.6036C31.2371 88.4721 28.9093 87.7915 45.0333 95.6803C47.6533 96.9628 50.1801 99.3974 55.526 99.3974C58.3764 99.3974 61.1542 98.5955 63.5667 97.0773L91.5071 82.9102C92.2311 82.5433 92.5202 81.659 92.1533 80.9358C91.7863 80.2125 90.9021 79.9233 90.1788 80.2895C90.0781 80.3407 62.1461 94.4986 62.0515 94.5588C60.0968 95.8024 57.8408 96.4593 55.526 96.4593C51.0697 96.4593 49.1341 94.4169 46.3242 93.0413C29.9294 85.0205 32.2594 85.6675 20.4186 83.6228V65.2673H41.8931C43.0016 65.2673 44.0415 65.6983 44.825 66.4819L55.6107 77.2675C57.7355 79.3923 56.3065 82.9576 53.3646 82.9576C52.4865 82.9576 51.6602 82.615 51.0377 81.994L41.3208 72.2733C40.7471 71.6996 39.8163 71.6996 39.2426 72.2733C38.6689 72.8471 38.6689 73.7779 39.2426 74.3516L48.9609 84.0722C52.4644 87.5642 58.4954 85.782 59.4392 80.9068C95.7406 71.7683 93.7364 72.2428 94.1011 72.2428C97.0712 72.2428 98.0767 76.2849 95.4202 77.6322C94.6962 77.9992 94.407 78.8834 94.774 79.6067C95.1402 80.3307 96.0244 80.6199 96.7485 80.2529C98.9122 79.1558 99.8994 77.0402 99.8994 75.1122C99.8994 71.1274 96 68.6738 93.1604 69.3887Z" fill="#035B96"/>
<path d="M5.22266 85.7803C5.22266 88.5307 7.46036 90.7684 10.2108 90.7684C12.9612 90.7684 15.1989 88.5307 15.1989 85.7803C15.1989 83.7844 14.014 81.9846 12.1807 81.1965C11.4353 80.8761 10.5716 81.2202 10.2512 81.9656C9.93 82.711 10.2748 83.5746 11.0195 83.8958C13.0542 84.7709 12.4332 87.8303 10.2108 87.8303C8.82755 87.8303 7.83725 86.4807 8.25611 85.1592C8.88935 83.1642 5.22266 81.8366 5.22266 85.7803Z" fill="#035B96"/>
<path d="M98.0321 36.1129L90.949 33.5349C90.9963 32.6904 90.9963 31.8565 90.949 31.0081L98.0314 28.4301C99.5855 27.8655 100.385 26.1504 99.8197 24.5963L97.4142 17.987C96.8503 16.4374 95.1299 15.6348 93.5804 16.1986L86.498 18.7766C85.9937 18.1029 85.4505 17.4567 84.873 16.8418L88.6419 10.3141C89.4666 8.88586 88.9753 7.05252 87.5471 6.22778L81.4557 2.71139C80.7638 2.3116 79.9581 2.20479 79.186 2.41231C78.4147 2.61907 77.7692 3.11422 77.3702 3.80621L73.6028 10.3301C72.7842 10.1386 71.9518 9.99289 71.1126 9.89447L69.8041 2.47182C69.5173 0.847522 67.9631 -0.240431 66.3388 0.0456721L59.4121 1.26638C57.7878 1.55324 56.6991 3.10735 56.986 4.73165L58.2944 12.1512C57.5429 12.532 56.8112 12.9546 56.1055 13.4177L50.3324 8.57306C49.0636 7.50799 47.1791 7.67736 46.1186 8.94232L41.5974 14.3302C40.5347 15.5959 40.6995 17.4811 41.9659 18.5439L47.7368 23.3863C47.4042 24.1615 47.115 24.9564 46.8717 25.7636H39.3384C37.6889 25.7636 36.3477 27.1056 36.3477 28.7551V35.7879C36.3477 37.4374 37.6889 38.7794 39.3384 38.7794H46.8717C47.115 39.5873 47.4042 40.3816 47.7368 41.1567L41.9659 45.9983C40.7025 47.0588 40.537 48.9494 41.5974 50.2136L46.1186 55.6015C47.1784 56.8641 49.0689 57.0297 50.3324 55.97L56.1055 51.1253C56.8112 51.5884 57.5429 52.0111 58.2944 52.3918L56.986 59.8114C56.6991 61.4395 57.784 62.989 59.4121 63.2766L66.3388 64.4973C67.9547 64.7842 69.5165 63.7024 69.8041 62.0712L71.1126 54.6485C71.9518 54.5501 72.7842 54.4044 73.6036 54.2129L77.3702 60.7368C78.1949 62.1658 80.0275 62.6571 81.4565 61.8324L87.5478 58.3152C88.976 57.4905 89.4666 55.6579 88.6419 54.2297L84.873 47.7012C85.4505 47.087 85.9937 46.4401 86.498 45.7664L93.5804 48.3444C95.1314 48.9082 96.8473 48.1132 97.4142 46.556L99.8197 39.9475C100.385 38.3933 99.5863 36.6783 98.0321 36.1129ZM97.0594 38.9419L94.6538 45.5512C94.6508 45.5581 94.6462 45.5718 94.6256 45.581C94.6058 45.5909 94.592 45.5856 94.5852 45.5833L86.4515 42.6223C85.8167 42.3919 85.1064 42.6231 84.7295 43.1838C83.9475 44.3481 83.0373 45.4322 82.0234 46.4057C81.5359 46.8742 81.4306 47.6142 81.7685 48.1994L86.0975 55.6976C86.1127 55.7235 86.1036 55.7563 86.0784 55.7708L79.9871 59.2872C79.9619 59.3025 79.9291 59.2933 79.9138 59.2682L75.5872 51.7745C75.25 51.1894 74.5565 50.9101 73.9072 51.0978C72.5644 51.4862 71.1705 51.7303 69.7637 51.8234C69.0892 51.8676 68.5315 52.3674 68.414 53.0342L66.911 61.5608C66.9057 61.5898 66.8782 61.6088 66.8485 61.6043C66.7676 61.5898 59.8645 60.4026 59.879 60.321L61.382 51.799C61.4987 51.1337 61.147 50.4737 60.5298 50.2006C59.2481 49.633 58.0228 48.9242 56.8883 48.0941C56.3413 47.6936 55.5936 47.7195 55.0763 48.1536L48.4441 53.7185C48.4219 53.7376 48.3884 53.7345 48.3693 53.7124L43.8481 48.3245C43.829 48.3016 43.8321 48.2681 43.8542 48.249L50.4834 42.6864C51.0022 42.2515 51.1563 41.5191 50.8573 40.9126C50.2377 39.653 49.7533 38.3232 49.4191 36.9598C49.2581 36.3029 48.6691 35.8413 47.9924 35.8413H39.3384C39.3086 35.8413 39.285 35.8177 39.285 35.7879V28.7544C39.285 28.7254 39.3086 28.7009 39.3384 28.7009H47.9924C48.6691 28.7009 49.2574 28.2394 49.4191 27.5825C49.7533 26.2199 50.2377 24.8901 50.8573 23.6304C51.1563 23.0231 51.0022 22.2907 50.4834 21.8558L43.8542 16.2932C43.8489 16.2894 43.8374 16.2795 43.8352 16.2574C43.8336 16.2353 43.8428 16.2238 43.8481 16.2185L48.3685 10.8306C48.3739 10.8253 48.383 10.8138 48.4052 10.8115C48.4273 10.81 48.4387 10.8192 48.4441 10.8237L55.0763 16.3886C55.5944 16.8243 56.3428 16.8487 56.8883 16.4489C58.0228 15.618 59.2481 14.9093 60.5298 14.3424C61.147 14.0693 61.4987 13.4093 61.382 12.7441L59.879 4.22201C59.8737 4.19302 59.8935 4.16479 59.9225 4.16021L66.8492 2.93874C66.8561 2.93798 66.8706 2.93493 66.8889 2.9479C66.9072 2.9601 66.9095 2.97536 66.911 2.98223L68.414 11.5089C68.5315 12.1749 69.0892 12.6754 69.7637 12.7196C71.1713 12.8127 72.5652 13.0569 73.9072 13.4452C74.5565 13.6329 75.25 13.3536 75.588 12.7692L79.9138 5.27487C79.9177 5.26876 79.9253 5.25579 79.9466 5.25045C79.968 5.24435 79.981 5.25198 79.9871 5.25579L86.0784 8.77218C86.1036 8.78668 86.1127 8.81949 86.0982 8.84543L81.7685 16.3436C81.4306 16.9288 81.5359 17.6688 82.0234 18.1373C83.0373 19.1116 83.9483 20.1957 84.7295 21.3592C85.1064 21.9199 85.8167 22.1503 86.4515 21.9199L94.5852 18.9597C94.6126 18.9506 94.6432 18.9643 94.6538 18.9918L97.0594 25.6011C97.0617 25.608 97.067 25.6217 97.0571 25.6416C97.048 25.6622 97.0342 25.6667 97.0274 25.6698L88.8921 28.63C88.2581 28.8612 87.8629 29.4952 87.9346 30.1666C88.0788 31.5177 88.0903 32.9177 87.9346 34.3765C87.8629 35.0478 88.2581 35.6819 88.8921 35.913L97.0274 38.8732C97.0342 38.8763 97.048 38.8809 97.0571 38.9015C97.067 38.9213 97.0617 38.935 97.0594 38.9419Z" fill="#035B96"/>
<path d="M79.9092 22.7118L63.3939 39.2272L56.4336 32.2669C55.8598 31.6939 54.9298 31.6939 54.3561 32.2669C53.7823 32.8406 53.7823 33.7706 54.3561 34.3443L61.4804 41.4687C62.5379 42.5261 64.2499 42.5261 65.3073 41.4687L81.9867 24.7893C82.5605 24.2155 82.5605 23.2855 81.9867 22.7118C81.413 22.1381 80.483 22.1381 79.9092 22.7118Z" fill="#035B96"/>
</svg>
