<svg width="17" height="12" viewBox="0 0 17 12" fill="none" xmlns="http://www.w3.org/2000/svg">
<path d="M15.7857 0H1.21429C0.892237 0 0.583379 0.126428 0.355656 0.351472C0.127933 0.576515 0 0.88174 0 1.2V10.8C0 11.1183 0.127933 11.4235 0.355656 11.6485C0.583379 11.8736 0.892237 12 1.21429 12H15.7857C16.1078 12 16.4166 11.8736 16.6443 11.6485C16.8721 11.4235 17 11.1183 17 10.8V1.2C17 0.88174 16.8721 0.576515 16.6443 0.351472C16.4166 0.126428 16.1078 0 15.7857 0ZM14.45 1.2L8.5 5.268L2.55 1.2H14.45ZM1.21429 10.8V1.746L8.15393 6.492C8.25556 6.56168 8.37631 6.59901 8.5 6.59901C8.62369 6.59901 8.74444 6.56168 8.84607 6.492L15.7857 1.746V10.8H1.21429Z" fill="#C2C2C2"/>
</svg>
