<svg width="14" height="10" viewBox="0 0 14 10" fill="none" xmlns="http://www.w3.org/2000/svg">
<path d="M5.1375 5C5.1375 5.45559 5.32696 5.89251 5.6642 6.21466C6.00144 6.53681 6.45884 6.71779 6.93577 6.71779C7.4127 6.71779 7.8701 6.53681 8.20734 6.21466C8.54458 5.89251 8.73404 5.45559 8.73404 5C8.73404 4.54441 8.54458 4.10749 8.20734 3.78534C7.8701 3.46319 7.4127 3.28221 6.93577 3.28221C6.45884 3.28221 6.00144 3.46319 5.6642 3.78534C5.32696 4.10749 5.1375 4.54441 5.1375 5ZM13.9073 4.60429C12.3852 1.54141 10.0843 0 7 0C3.91404 0 1.61482 1.54141 0.0927157 4.60583C0.0316634 4.72932 0 4.8642 0 5.00077C0 5.13734 0.0316634 5.27221 0.0927157 5.39571C1.61482 8.45859 3.91564 10 7 10C10.086 10 12.3852 8.45859 13.9073 5.39417C14.0309 5.14571 14.0309 4.85736 13.9073 4.60429ZM6.93577 7.69939C5.37513 7.69939 4.10992 6.4908 4.10992 5C4.10992 3.5092 5.37513 2.30061 6.93577 2.30061C8.49641 2.30061 9.76162 3.5092 9.76162 5C9.76162 6.4908 8.49641 7.69939 6.93577 7.69939Z" fill="#C2C2C2"/>
</svg>
