<svg width="210" height="46" viewBox="0 0 210 46" fill="none" xmlns="http://www.w3.org/2000/svg">
<g filter="url(#filter0_d)">
<g filter="url(#filter1_d)">
<rect x="6" y="4" width="198" height="34" rx="5" fill="#035B96"/>
</g>
<path d="M66.3125 26V16.1797H67.5703V24.8672H72.5781V26H66.3125ZM80.8984 17.4531C81.737 18.3854 82.1562 19.5964 82.1562 21.0859C82.1562 22.5755 81.737 23.7865 80.8984 24.7188C80.0703 25.6667 79.0078 26.1406 77.7109 26.1406C76.4453 26.1406 75.3854 25.6667 74.5312 24.7188C73.6979 23.7656 73.2812 22.5547 73.2812 21.0859C73.2812 19.6172 73.6979 18.4062 74.5312 17.4531C75.3854 16.5052 76.4453 16.0312 77.7109 16.0312C79.0078 16.0312 80.0703 16.5052 80.8984 17.4531ZM80.8984 21.0859C80.8984 19.9401 80.6042 19.0026 80.0156 18.2734C79.4219 17.5391 78.6536 17.1719 77.7109 17.1719C76.7786 17.1719 76.0156 17.5391 75.4219 18.2734C74.8385 18.9974 74.5469 19.9349 74.5469 21.0859C74.5469 22.2422 74.8385 23.1823 75.4219 23.9062C76.0156 24.6406 76.7786 25.0078 77.7109 25.0078C78.6536 25.0078 79.4219 24.6406 80.0156 23.9062C80.6042 23.1771 80.8984 22.237 80.8984 21.0859ZM87.1719 17.7422L85.5703 21.9375H88.7891L87.1719 17.7422ZM90.3438 26L89.2031 23.0391H85.1562L84.0391 26H82.7578L86.6016 16.1797H87.7812L91.625 26H90.3438ZM93.125 26V16.1797H96.2734C97.6953 16.1797 98.8464 16.6276 99.7266 17.5234C100.602 18.3984 101.039 19.5859 101.039 21.0859C101.039 22.5859 100.602 23.7812 99.7266 24.6719C98.8411 25.5573 97.6901 26 96.2734 26H93.125ZM94.3828 24.8672H96.2578C97.362 24.8672 98.2266 24.526 98.8516 23.8438C99.4818 23.1615 99.7969 22.2422 99.7969 21.0859C99.7969 19.9453 99.4818 19.0286 98.8516 18.3359C98.2214 17.6432 97.3568 17.2969 96.2578 17.2969H94.3828V24.8672ZM111.016 23.8047H110.945L107.57 18.4453V26H106.344V16.1797H107.508L110.992 21.8203L114.469 16.1797H115.57V26H114.344V18.4453L111.016 23.8047ZM124.945 17.4531C125.784 18.3854 126.203 19.5964 126.203 21.0859C126.203 22.5755 125.784 23.7865 124.945 24.7188C124.117 25.6667 123.055 26.1406 121.758 26.1406C120.492 26.1406 119.432 25.6667 118.578 24.7188C117.745 23.7656 117.328 22.5547 117.328 21.0859C117.328 19.6172 117.745 18.4062 118.578 17.4531C119.432 16.5052 120.492 16.0312 121.758 16.0312C123.055 16.0312 124.117 16.5052 124.945 17.4531ZM124.945 21.0859C124.945 19.9401 124.651 19.0026 124.062 18.2734C123.469 17.5391 122.701 17.1719 121.758 17.1719C120.826 17.1719 120.062 17.5391 119.469 18.2734C118.885 18.9974 118.594 19.9349 118.594 21.0859C118.594 22.2422 118.885 23.1823 119.469 23.9062C120.062 24.6406 120.826 25.0078 121.758 25.0078C122.701 25.0078 123.469 24.6406 124.062 23.9062C124.651 23.1771 124.945 22.237 124.945 21.0859ZM129.227 17.2812V20.7656H131.531C132.172 20.7656 132.672 20.612 133.031 20.3047C133.396 19.9922 133.578 19.5651 133.578 19.0234C133.578 18.4818 133.396 18.0573 133.031 17.75C132.672 17.4375 132.172 17.2812 131.531 17.2812H129.227ZM127.969 26V16.1797H131.562C132.573 16.1797 133.37 16.4271 133.953 16.9219C134.536 17.4115 134.828 18.112 134.828 19.0234C134.828 19.8099 134.607 20.4401 134.164 20.9141C133.727 21.388 133.117 21.6797 132.336 21.7891L135.227 26H133.789L130.977 21.8438H129.227V26H127.969ZM136.797 16.1797H143.047V17.2969H138.039V20.3984H142.586V21.5234H138.039V24.8672H143.047V26H136.797V16.1797Z" fill="white"/>
</g>
<defs>
<filter id="filter0_d" x="5" y="4" width="200" height="36" filterUnits="userSpaceOnUse" color-interpolation-filters="sRGB">
<feFlood flood-opacity="0" result="BackgroundImageFix"/>
<feColorMatrix in="SourceAlpha" type="matrix" values="0 0 0 0 0 0 0 0 0 0 0 0 0 0 0 0 0 0 127 0" result="hardAlpha"/>
<feOffset dy="1"/>
<feGaussianBlur stdDeviation="0.5"/>
<feColorMatrix type="matrix" values="0 0 0 0 0 0 0 0 0 0 0 0 0 0 0 0 0 0 0.1 0"/>
<feBlend mode="normal" in2="BackgroundImageFix" result="effect1_dropShadow"/>
<feBlend mode="normal" in="SourceGraphic" in2="effect1_dropShadow" result="shape"/>
</filter>
<filter id="filter1_d" x="0" y="0" width="210" height="46" filterUnits="userSpaceOnUse" color-interpolation-filters="sRGB">
<feFlood flood-opacity="0" result="BackgroundImageFix"/>
<feColorMatrix in="SourceAlpha" type="matrix" values="0 0 0 0 0 0 0 0 0 0 0 0 0 0 0 0 0 0 127 0" result="hardAlpha"/>
<feOffset dy="2"/>
<feGaussianBlur stdDeviation="3"/>
<feColorMatrix type="matrix" values="0 0 0 0 0 0 0 0 0 0 0 0 0 0 0 0 0 0 0.05 0"/>
<feBlend mode="normal" in2="BackgroundImageFix" result="effect1_dropShadow"/>
<feBlend mode="normal" in="SourceGraphic" in2="effect1_dropShadow" result="shape"/>
</filter>
</defs>
</svg>
