<svg width="233" height="37" viewBox="0 0 233 37" fill="none" xmlns="http://www.w3.org/2000/svg">
<g filter="url(#filter0_d)">
<rect x="1.54541" width="230" height="35" rx="6" fill="#F4F4F4"/>
</g>
<path d="M18.7108 15.79C20.1508 18.62 22.4708 20.93 25.3008 22.38L27.5008 20.18C27.7708 19.91 28.1708 19.82 28.5208 19.94C29.6408 20.31 30.8508 20.51 32.0908 20.51C32.6408 20.51 33.0908 20.96 33.0908 21.51V25C33.0908 25.55 32.6408 26 32.0908 26C22.7008 26 15.0908 18.39 15.0908 9C15.0908 8.45 15.5408 8 16.0908 8H19.5908C20.1408 8 20.5908 8.45 20.5908 9C20.5908 10.25 20.7908 11.45 21.1608 12.57C21.2708 12.92 21.1908 13.31 20.9108 13.59L18.7108 15.79Z" fill="#035B96"/>
<path d="M62.311 21V11.1797H63.5688V19.8672H68.5767V21H62.311ZM75.2563 14.7891C75.8605 15.4714 76.1626 16.3568 76.1626 17.4453C76.1626 18.5339 75.8605 19.4193 75.2563 20.1016C74.6418 20.7943 73.8553 21.1406 72.897 21.1406C71.9334 21.1406 71.1444 20.7943 70.5298 20.1016C69.936 19.4141 69.6392 18.5286 69.6392 17.4453C69.6392 16.362 69.936 15.4766 70.5298 14.7891C71.1444 14.0964 71.9334 13.75 72.897 13.75C73.8553 13.75 74.6418 14.0964 75.2563 14.7891ZM74.397 19.3516C74.7668 18.862 74.9517 18.2266 74.9517 17.4453C74.9517 16.6641 74.7668 16.0286 74.397 15.5391C74.0272 15.0495 73.5272 14.8047 72.897 14.8047C72.2668 14.8047 71.7668 15.0495 71.397 15.5391C71.0324 16.0286 70.8501 16.6641 70.8501 17.4453C70.8501 18.2266 71.0324 18.862 71.397 19.3516C71.7668 19.8411 72.2668 20.0859 72.897 20.0859C73.5272 20.0859 74.0272 19.8411 74.397 19.3516ZM82.4595 18.8203V15.9297C82.272 15.5964 82.0168 15.3281 81.6938 15.125C81.3761 14.9219 81.0298 14.8203 80.6548 14.8203C79.9985 14.8203 79.4777 15.0599 79.0923 15.5391C78.7121 16.0182 78.522 16.6328 78.522 17.3828C78.522 18.1328 78.7121 18.7448 79.0923 19.2188C79.4777 19.6927 79.9985 19.9297 80.6548 19.9297C81.0298 19.9297 81.3761 19.8281 81.6938 19.625C82.0168 19.4219 82.272 19.1536 82.4595 18.8203ZM82.4595 20.5234V20.0547C82.2772 20.3203 82.0037 20.5469 81.6392 20.7344C81.2798 20.9219 80.8918 21.0156 80.4751 21.0156C79.4438 21.0156 78.6548 20.6484 78.1079 19.9141C77.5767 19.1797 77.311 18.3359 77.311 17.3828C77.311 16.4349 77.5767 15.5938 78.1079 14.8594C78.66 14.1198 79.4491 13.75 80.4751 13.75C80.897 13.75 81.2876 13.8438 81.647 14.0312C82.0116 14.2135 82.2824 14.4349 82.4595 14.6953V13.8984H83.6782V20.4375C83.6782 21.6615 83.3084 22.5417 82.5688 23.0781C81.8293 23.6146 81.0402 23.8828 80.2017 23.8828C79.2746 23.8828 78.5142 23.6693 77.9204 23.2422V21.9141C78.5454 22.4974 79.3058 22.7891 80.2017 22.7891C80.8683 22.7891 81.41 22.5938 81.8267 22.2031C82.2485 21.8177 82.4595 21.2578 82.4595 20.5234ZM90.7095 11.75C90.7095 11.9531 90.6313 12.1328 90.4751 12.2891C90.3241 12.4453 90.1418 12.5234 89.9282 12.5234C89.7303 12.5234 89.5532 12.4453 89.397 12.2891C89.2407 12.1276 89.1626 11.9479 89.1626 11.75C89.1626 11.5365 89.2381 11.3568 89.3892 11.2109C89.5454 11.0599 89.7251 10.9844 89.9282 10.9844C90.1418 10.9844 90.3241 11.0599 90.4751 11.2109C90.6313 11.3568 90.7095 11.5365 90.7095 11.75ZM90.5376 13.8984V21H89.3345V13.8984H90.5376ZM92.6782 21V13.8984H93.8813V14.7891C94.0949 14.4922 94.3866 14.2448 94.7563 14.0469C95.1313 13.849 95.5376 13.75 95.9751 13.75C96.7616 13.75 97.3735 13.987 97.811 14.4609C98.2537 14.9297 98.4751 15.5573 98.4751 16.3438V21H97.2563V16.5391C97.2563 16.0286 97.1235 15.6224 96.8579 15.3203C96.5923 15.013 96.2017 14.8594 95.686 14.8594C95.2798 14.8594 94.91 14.9844 94.5767 15.2344C94.2433 15.4792 94.0116 15.7969 93.8813 16.1875V21H92.6782ZM108.553 13.8984L110.006 19.3203L111.577 13.8984H112.741L110.647 21H109.483L108.006 15.6094L106.522 21H105.35L103.256 13.8984H104.452L106.022 19.3203L107.483 13.8984H108.553ZM115.475 11.75C115.475 11.9531 115.397 12.1328 115.241 12.2891C115.09 12.4453 114.907 12.5234 114.694 12.5234C114.496 12.5234 114.319 12.4453 114.163 12.2891C114.006 12.1276 113.928 11.9479 113.928 11.75C113.928 11.5365 114.004 11.3568 114.155 11.2109C114.311 11.0599 114.491 10.9844 114.694 10.9844C114.907 10.9844 115.09 11.0599 115.241 11.2109C115.397 11.3568 115.475 11.5365 115.475 11.75ZM115.303 13.8984V21H114.1V13.8984H115.303ZM119.428 14.9219V21H118.233V14.9219H116.741V13.8984H118.233V12.0234H119.428V13.8984H121.077V14.9219H119.428ZM122.538 21V10.6016H123.741V14.7891C123.954 14.4922 124.246 14.2448 124.616 14.0469C124.991 13.849 125.397 13.75 125.834 13.75C126.621 13.75 127.233 13.987 127.67 14.4609C128.113 14.9297 128.334 15.5573 128.334 16.3438V21H127.116V16.5391C127.116 16.0286 126.983 15.6224 126.717 15.3203C126.452 15.013 126.061 14.8594 125.545 14.8594C125.139 14.8594 124.769 14.9844 124.436 15.2344C124.103 15.4792 123.871 15.7969 123.741 16.1875V21H122.538ZM137.624 17.0625H135.256V21H133.999V11.1797H137.624C138.634 11.1797 139.433 11.4349 140.022 11.9453C140.611 12.4505 140.905 13.1745 140.905 14.1172C140.905 15.0599 140.611 15.7865 140.022 16.2969C139.433 16.8073 138.634 17.0625 137.624 17.0625ZM137.608 15.9453C138.259 15.9453 138.762 15.7812 139.116 15.4531C139.475 15.1198 139.655 14.6745 139.655 14.1172C139.655 13.5547 139.475 13.1094 139.116 12.7812C138.762 12.4479 138.259 12.2812 137.608 12.2812H135.256V15.9453H137.608ZM142.491 21V10.6016H143.694V14.7891C143.907 14.4922 144.199 14.2448 144.569 14.0469C144.944 13.849 145.35 13.75 145.788 13.75C146.574 13.75 147.186 13.987 147.624 14.4609C148.066 14.9297 148.288 15.5573 148.288 16.3438V21H147.069V16.5391C147.069 16.0286 146.936 15.6224 146.67 15.3203C146.405 15.013 146.014 14.8594 145.499 14.8594C145.092 14.8594 144.722 14.9844 144.389 15.2344C144.056 15.4792 143.824 15.7969 143.694 16.1875V21H142.491ZM155.428 14.7891C156.032 15.4714 156.334 16.3568 156.334 17.4453C156.334 18.5339 156.032 19.4193 155.428 20.1016C154.814 20.7943 154.027 21.1406 153.069 21.1406C152.105 21.1406 151.316 20.7943 150.702 20.1016C150.108 19.4141 149.811 18.5286 149.811 17.4453C149.811 16.362 150.108 15.4766 150.702 14.7891C151.316 14.0964 152.105 13.75 153.069 13.75C154.027 13.75 154.814 14.0964 155.428 14.7891ZM154.569 19.3516C154.939 18.862 155.124 18.2266 155.124 17.4453C155.124 16.6641 154.939 16.0286 154.569 15.5391C154.199 15.0495 153.699 14.8047 153.069 14.8047C152.439 14.8047 151.939 15.0495 151.569 15.5391C151.204 16.0286 151.022 16.6641 151.022 17.4453C151.022 18.2266 151.204 18.862 151.569 19.3516C151.939 19.8411 152.439 20.0859 153.069 20.0859C153.699 20.0859 154.199 19.8411 154.569 19.3516ZM157.959 21V13.8984H159.163V14.7891C159.376 14.4922 159.668 14.2448 160.038 14.0469C160.413 13.849 160.819 13.75 161.256 13.75C162.043 13.75 162.655 13.987 163.092 14.4609C163.535 14.9297 163.756 15.5573 163.756 16.3438V21H162.538V16.5391C162.538 16.0286 162.405 15.6224 162.139 15.3203C161.874 15.013 161.483 14.8594 160.967 14.8594C160.561 14.8594 160.191 14.9844 159.858 15.2344C159.525 15.4792 159.293 15.7969 159.163 16.1875V21H157.959ZM168.459 14.7734C167.98 14.7734 167.564 14.9401 167.209 15.2734C166.855 15.6068 166.626 16.0859 166.522 16.7109H170.186C170.16 16.1484 170.001 15.6849 169.709 15.3203C169.418 14.9557 169.001 14.7734 168.459 14.7734ZM170.858 20.5234C170.321 20.9349 169.603 21.1406 168.702 21.1406C167.665 21.1406 166.84 20.8177 166.225 20.1719C165.595 19.5104 165.28 18.625 165.28 17.5156C165.28 16.401 165.571 15.4974 166.155 14.8047C166.749 14.1016 167.512 13.75 168.444 13.75C169.381 13.75 170.1 14.0651 170.6 14.6953C171.105 15.3255 171.358 16.1693 171.358 17.2266V17.6562H166.459C166.491 18.4479 166.725 19.0521 167.163 19.4688C167.605 19.8802 168.165 20.0859 168.842 20.0859C169.561 20.0859 170.233 19.862 170.858 19.4141V20.5234ZM176.522 21V13.8984H177.725V14.7891C177.939 14.4922 178.23 14.2448 178.6 14.0469C178.975 13.849 179.381 13.75 179.819 13.75C180.605 13.75 181.217 13.987 181.655 14.4609C182.097 14.9297 182.319 15.5573 182.319 16.3438V21H181.1V16.5391C181.1 16.0286 180.967 15.6224 180.702 15.3203C180.436 15.013 180.045 14.8594 179.53 14.8594C179.124 14.8594 178.754 14.9844 178.42 15.2344C178.087 15.4792 177.855 15.7969 177.725 16.1875V21H176.522ZM190.014 13.8984V21H188.803V20.1016C188.59 20.4036 188.301 20.6536 187.936 20.8516C187.571 21.0443 187.17 21.1406 186.733 21.1406C185.946 21.1406 185.337 20.9062 184.905 20.4375C184.472 19.9688 184.256 19.3411 184.256 18.5547V13.8984H185.475V18.3594C185.475 18.8698 185.603 19.2786 185.858 19.5859C186.118 19.888 186.506 20.0391 187.022 20.0391C187.428 20.0391 187.793 19.9167 188.116 19.6719C188.444 19.4219 188.673 19.1016 188.803 18.7109V13.8984H190.014ZM197.186 14.8906C197.426 14.5469 197.73 14.2708 198.1 14.0625C198.47 13.8542 198.887 13.75 199.35 13.75C200.053 13.75 200.603 13.9792 200.999 14.4375C201.394 14.8958 201.592 15.5156 201.592 16.2969V21H200.374V16.4844C200.374 15.9792 200.259 15.5807 200.03 15.2891C199.806 14.9922 199.472 14.8438 199.03 14.8438C198.665 14.8438 198.337 14.9583 198.045 15.1875C197.759 15.4167 197.564 15.7214 197.459 16.1016V21H196.264V16.4844C196.264 15.9792 196.15 15.5807 195.92 15.2891C195.696 14.9922 195.363 14.8438 194.92 14.8438C194.556 14.8438 194.228 14.9583 193.936 15.1875C193.65 15.4167 193.454 15.7214 193.35 16.1016V21H192.147V13.8984H193.35V14.7266C193.522 14.4349 193.777 14.2005 194.116 14.0234C194.459 13.8411 194.845 13.75 195.272 13.75C195.704 13.75 196.087 13.8542 196.42 14.0625C196.754 14.2708 197.009 14.5469 197.186 14.8906ZM204.819 20.1719V21H203.6V10.6016H204.819V14.7266C204.996 14.4557 205.267 14.2266 205.631 14.0391C206.001 13.8464 206.397 13.75 206.819 13.75C207.845 13.75 208.634 14.1198 209.186 14.8594C209.738 15.5781 210.014 16.4401 210.014 17.4453C210.014 18.4661 209.738 19.3359 209.186 20.0547C208.634 20.7786 207.845 21.1406 206.819 21.1406C206.397 21.1406 206.001 21.0469 205.631 20.8594C205.267 20.6719 204.996 20.4427 204.819 20.1719ZM204.819 16.0078V18.8906C205.001 19.25 205.256 19.5339 205.584 19.7422C205.913 19.9505 206.264 20.0547 206.639 20.0547C207.295 20.0547 207.819 19.8099 208.209 19.3203C208.605 18.8307 208.803 18.2057 208.803 17.4453C208.803 16.6849 208.608 16.0625 208.217 15.5781C207.827 15.0885 207.301 14.8438 206.639 14.8438C206.264 14.8438 205.913 14.9479 205.584 15.1562C205.256 15.3646 205.001 15.6484 204.819 16.0078ZM214.35 14.7734C213.871 14.7734 213.454 14.9401 213.1 15.2734C212.746 15.6068 212.517 16.0859 212.413 16.7109H216.077C216.051 16.1484 215.892 15.6849 215.6 15.3203C215.308 14.9557 214.892 14.7734 214.35 14.7734ZM216.749 20.5234C216.212 20.9349 215.493 21.1406 214.592 21.1406C213.556 21.1406 212.73 20.8177 212.116 20.1719C211.486 19.5104 211.17 18.625 211.17 17.5156C211.17 16.401 211.462 15.4974 212.045 14.8047C212.639 14.1016 213.402 13.75 214.334 13.75C215.272 13.75 215.991 14.0651 216.491 14.6953C216.996 15.3255 217.249 16.1693 217.249 17.2266V17.6562H212.35C212.381 18.4479 212.616 19.0521 213.053 19.4688C213.496 19.8802 214.056 20.0859 214.733 20.0859C215.452 20.0859 216.124 19.862 216.749 19.4141V20.5234ZM222.53 13.8672V15.0938C222.332 14.9688 222.066 14.9062 221.733 14.9062C221.353 14.9062 221.012 15.026 220.709 15.2656C220.413 15.5 220.204 15.8229 220.084 16.2344V21H218.881V13.8984H220.084V14.8203C220.241 14.513 220.478 14.2578 220.795 14.0547C221.113 13.8516 221.462 13.75 221.842 13.75C222.144 13.75 222.374 13.7891 222.53 13.8672Z" fill="#5F5F5F"/>
<defs>
<filter id="filter0_d" x="0.54541" y="0" width="232" height="37" filterUnits="userSpaceOnUse" color-interpolation-filters="sRGB">
<feFlood flood-opacity="0" result="BackgroundImageFix"/>
<feColorMatrix in="SourceAlpha" type="matrix" values="0 0 0 0 0 0 0 0 0 0 0 0 0 0 0 0 0 0 127 0"/>
<feOffset dy="1"/>
<feGaussianBlur stdDeviation="0.5"/>
<feColorMatrix type="matrix" values="0 0 0 0 0 0 0 0 0 0 0 0 0 0 0 0 0 0 0.25 0"/>
<feBlend mode="normal" in2="BackgroundImageFix" result="effect1_dropShadow"/>
<feBlend mode="normal" in="SourceGraphic" in2="effect1_dropShadow" result="shape"/>
</filter>
</defs>
</svg>
