<svg width="233" height="37" viewBox="0 0 233 37" fill="none" xmlns="http://www.w3.org/2000/svg">
<g filter="url(#filter0_d)">
<rect x="1.54541" width="230" height="35" rx="6" fill="#F4F4F4"/>
</g>
<path d="M31.5454 8H15.5454C14.4454 8 13.5554 8.9 13.5554 10L13.5454 22C13.5454 23.1 14.4454 24 15.5454 24H31.5454C32.6454 24 33.5454 23.1 33.5454 22V10C33.5454 8.9 32.6454 8 31.5454 8ZM31.5454 22H15.5454V12L23.5454 17L31.5454 12V22ZM23.5454 15L15.5454 10H31.5454L23.5454 15Z" fill="#035B96"/>
<path d="M62.1235 21V11.1797H63.3813V19.8672H68.3892V21H62.1235ZM75.0688 14.7891C75.673 15.4714 75.9751 16.3568 75.9751 17.4453C75.9751 18.5339 75.673 19.4193 75.0688 20.1016C74.4543 20.7943 73.6678 21.1406 72.7095 21.1406C71.7459 21.1406 70.9569 20.7943 70.3423 20.1016C69.7485 19.4141 69.4517 18.5286 69.4517 17.4453C69.4517 16.362 69.7485 15.4766 70.3423 14.7891C70.9569 14.0964 71.7459 13.75 72.7095 13.75C73.6678 13.75 74.4543 14.0964 75.0688 14.7891ZM74.2095 19.3516C74.5793 18.862 74.7642 18.2266 74.7642 17.4453C74.7642 16.6641 74.5793 16.0286 74.2095 15.5391C73.8397 15.0495 73.3397 14.8047 72.7095 14.8047C72.0793 14.8047 71.5793 15.0495 71.2095 15.5391C70.8449 16.0286 70.6626 16.6641 70.6626 17.4453C70.6626 18.2266 70.8449 18.862 71.2095 19.3516C71.5793 19.8411 72.0793 20.0859 72.7095 20.0859C73.3397 20.0859 73.8397 19.8411 74.2095 19.3516ZM82.272 18.8203V15.9297C82.0845 15.5964 81.8293 15.3281 81.5063 15.125C81.1886 14.9219 80.8423 14.8203 80.4673 14.8203C79.811 14.8203 79.2902 15.0599 78.9048 15.5391C78.5246 16.0182 78.3345 16.6328 78.3345 17.3828C78.3345 18.1328 78.5246 18.7448 78.9048 19.2188C79.2902 19.6927 79.811 19.9297 80.4673 19.9297C80.8423 19.9297 81.1886 19.8281 81.5063 19.625C81.8293 19.4219 82.0845 19.1536 82.272 18.8203ZM82.272 20.5234V20.0547C82.0897 20.3203 81.8162 20.5469 81.4517 20.7344C81.0923 20.9219 80.7043 21.0156 80.2876 21.0156C79.2563 21.0156 78.4673 20.6484 77.9204 19.9141C77.3892 19.1797 77.1235 18.3359 77.1235 17.3828C77.1235 16.4349 77.3892 15.5938 77.9204 14.8594C78.4725 14.1198 79.2616 13.75 80.2876 13.75C80.7095 13.75 81.1001 13.8438 81.4595 14.0312C81.8241 14.2135 82.0949 14.4349 82.272 14.6953V13.8984H83.4907V20.4375C83.4907 21.6615 83.1209 22.5417 82.3813 23.0781C81.6418 23.6146 80.8527 23.8828 80.0142 23.8828C79.0871 23.8828 78.3267 23.6693 77.7329 23.2422V21.9141C78.3579 22.4974 79.1183 22.7891 80.0142 22.7891C80.6808 22.7891 81.2225 22.5938 81.6392 22.2031C82.061 21.8177 82.272 21.2578 82.272 20.5234ZM90.522 11.75C90.522 11.9531 90.4438 12.1328 90.2876 12.2891C90.1366 12.4453 89.9543 12.5234 89.7407 12.5234C89.5428 12.5234 89.3657 12.4453 89.2095 12.2891C89.0532 12.1276 88.9751 11.9479 88.9751 11.75C88.9751 11.5365 89.0506 11.3568 89.2017 11.2109C89.3579 11.0599 89.5376 10.9844 89.7407 10.9844C89.9543 10.9844 90.1366 11.0599 90.2876 11.2109C90.4438 11.3568 90.522 11.5365 90.522 11.75ZM90.3501 13.8984V21H89.147V13.8984H90.3501ZM92.4907 21V13.8984H93.6938V14.7891C93.9074 14.4922 94.1991 14.2448 94.5688 14.0469C94.9438 13.849 95.3501 13.75 95.7876 13.75C96.5741 13.75 97.186 13.987 97.6235 14.4609C98.0662 14.9297 98.2876 15.5573 98.2876 16.3438V21H97.0688V16.5391C97.0688 16.0286 96.936 15.6224 96.6704 15.3203C96.4048 15.013 96.0142 14.8594 95.4985 14.8594C95.0923 14.8594 94.7225 14.9844 94.3892 15.2344C94.0558 15.4792 93.8241 15.7969 93.6938 16.1875V21H92.4907ZM108.366 13.8984L109.819 19.3203L111.389 13.8984H112.553L110.459 21H109.295L107.819 15.6094L106.334 21H105.163L103.069 13.8984H104.264L105.834 19.3203L107.295 13.8984H108.366ZM115.288 11.75C115.288 11.9531 115.209 12.1328 115.053 12.2891C114.902 12.4453 114.72 12.5234 114.506 12.5234C114.308 12.5234 114.131 12.4453 113.975 12.2891C113.819 12.1276 113.741 11.9479 113.741 11.75C113.741 11.5365 113.816 11.3568 113.967 11.2109C114.124 11.0599 114.303 10.9844 114.506 10.9844C114.72 10.9844 114.902 11.0599 115.053 11.2109C115.209 11.3568 115.288 11.5365 115.288 11.75ZM115.116 13.8984V21H113.913V13.8984H115.116ZM119.241 14.9219V21H118.045V14.9219H116.553V13.8984H118.045V12.0234H119.241V13.8984H120.889V14.9219H119.241ZM122.35 21V10.6016H123.553V14.7891C123.767 14.4922 124.058 14.2448 124.428 14.0469C124.803 13.849 125.209 13.75 125.647 13.75C126.433 13.75 127.045 13.987 127.483 14.4609C127.926 14.9297 128.147 15.5573 128.147 16.3438V21H126.928V16.5391C126.928 16.0286 126.795 15.6224 126.53 15.3203C126.264 15.013 125.874 14.8594 125.358 14.8594C124.952 14.8594 124.582 14.9844 124.249 15.2344C123.915 15.4792 123.683 15.7969 123.553 16.1875V21H122.35ZM133.811 11.1797H140.061V12.2969H135.053V15.3984H139.6V16.5234H135.053V19.8672H140.061V21H133.811V11.1797ZM141.311 17.3828V16.2656H145.163V17.3828H141.311ZM151.92 14.8906C152.16 14.5469 152.465 14.2708 152.834 14.0625C153.204 13.8542 153.621 13.75 154.084 13.75C154.788 13.75 155.337 13.9792 155.733 14.4375C156.129 14.8958 156.327 15.5156 156.327 16.2969V21H155.108V16.4844C155.108 15.9792 154.993 15.5807 154.764 15.2891C154.54 14.9922 154.207 14.8438 153.764 14.8438C153.4 14.8438 153.071 14.9583 152.78 15.1875C152.493 15.4167 152.298 15.7214 152.194 16.1016V21H150.999V16.4844C150.999 15.9792 150.884 15.5807 150.655 15.2891C150.431 14.9922 150.097 14.8438 149.655 14.8438C149.29 14.8438 148.962 14.9583 148.67 15.1875C148.384 15.4167 148.189 15.7214 148.084 16.1016V21H146.881V13.8984H148.084V14.7266C148.256 14.4349 148.512 14.2005 148.85 14.0234C149.194 13.8411 149.579 13.75 150.006 13.75C150.439 13.75 150.821 13.8542 151.155 14.0625C151.488 14.2708 151.743 14.5469 151.92 14.8906ZM162.303 19.2422V18.5078C162.209 18.2474 162.006 18.0365 161.694 17.875C161.381 17.7083 161.035 17.625 160.655 17.625C160.217 17.625 159.829 17.7266 159.491 17.9297C159.137 18.1276 158.959 18.4375 158.959 18.8594C158.959 19.2812 159.137 19.599 159.491 19.8125C159.829 20.0156 160.217 20.1172 160.655 20.1172C161.035 20.1172 161.381 20.0365 161.694 19.875C162.006 19.7135 162.209 19.5026 162.303 19.2422ZM162.303 17.2109V16.2812C162.303 15.8438 162.15 15.4974 161.842 15.2422C161.54 14.987 161.129 14.8594 160.608 14.8594C159.905 14.8594 159.233 15.0651 158.592 15.4766V14.3438C158.832 14.1719 159.152 14.0312 159.553 13.9219C159.954 13.8073 160.371 13.75 160.803 13.75C161.631 13.75 162.282 13.9714 162.756 14.4141C163.236 14.8516 163.475 15.4427 163.475 16.1875V21H162.303V20.4688C162.142 20.6302 161.889 20.7812 161.545 20.9219C161.207 21.0573 160.847 21.125 160.467 21.125C159.754 21.125 159.129 20.9245 158.592 20.5234C158.082 20.1276 157.827 19.5729 157.827 18.8594C157.827 18.1823 158.087 17.6484 158.608 17.2578C159.144 16.8411 159.785 16.6328 160.53 16.6328C160.868 16.6328 161.207 16.6927 161.545 16.8125C161.884 16.9323 162.137 17.0651 162.303 17.2109ZM166.897 11.75C166.897 11.9531 166.819 12.1328 166.663 12.2891C166.512 12.4453 166.329 12.5234 166.116 12.5234C165.918 12.5234 165.741 12.4453 165.584 12.2891C165.428 12.1276 165.35 11.9479 165.35 11.75C165.35 11.5365 165.426 11.3568 165.577 11.2109C165.733 11.0599 165.913 10.9844 166.116 10.9844C166.329 10.9844 166.512 11.0599 166.663 11.2109C166.819 11.3568 166.897 11.5365 166.897 11.75ZM166.725 13.8984V21H165.522V13.8984H166.725ZM170.069 10.6016V21H168.866V10.6016H170.069Z" fill="#5F5F5F"/>
<defs>
<filter id="filter0_d" x="0.54541" y="0" width="232" height="37" filterUnits="userSpaceOnUse" color-interpolation-filters="sRGB">
<feFlood flood-opacity="0" result="BackgroundImageFix"/>
<feColorMatrix in="SourceAlpha" type="matrix" values="0 0 0 0 0 0 0 0 0 0 0 0 0 0 0 0 0 0 127 0"/>
<feOffset dy="1"/>
<feGaussianBlur stdDeviation="0.5"/>
<feColorMatrix type="matrix" values="0 0 0 0 0 0 0 0 0 0 0 0 0 0 0 0 0 0 0.25 0"/>
<feBlend mode="normal" in2="BackgroundImageFix" result="effect1_dropShadow"/>
<feBlend mode="normal" in="SourceGraphic" in2="effect1_dropShadow" result="shape"/>
</filter>
</defs>
</svg>
