<svg width="65" height="65" viewBox="0 0 65 65" fill="none" xmlns="http://www.w3.org/2000/svg">
<path d="M34.6266 0C36.0702 0 37.2404 1.11364 37.2404 2.4874L37.2402 12.2537L61.9507 12.2538C63.6348 12.2538 65 13.553 65 15.1557V33.9586C65 35.5613 63.6348 36.8605 61.9507 36.8605L37.2402 36.8598L37.2404 62.5126C37.2404 63.8864 36.0702 65 34.6266 65H2.61371C1.1702 65 0 63.8864 0 62.5126V2.48739C0 1.11364 1.1702 0 2.61371 0H34.6266ZM34.6266 2.48739H2.61371V62.5126H34.6266L34.6256 36.8598L33.9445 36.8605C33.8084 36.8605 33.68 36.9211 33.5977 37.0243L27.0561 45.217C26.6823 45.6852 26.1055 45.7981 25.6172 45.6491L25.58 45.6953L25.5797 45.637C25.0962 45.4746 24.7087 45.0526 24.7087 44.4646V15.1557C24.7087 13.553 26.0739 12.2538 27.758 12.2538L34.6256 12.2537L34.6266 2.48739ZM18.6202 52.9101C20.2539 52.9101 21.5783 54.1705 21.5783 55.7253C21.5783 57.2801 20.2539 58.5405 18.6202 58.5405C16.9864 58.5405 15.662 57.2801 15.662 55.7253C15.662 54.1705 16.9864 52.9101 18.6202 52.9101ZM61.9507 14.7412H27.758C27.5175 14.7412 27.3224 14.9268 27.3224 15.1557V40.7722L31.5166 35.5193C32.0932 34.7972 32.9915 34.3731 33.9445 34.3731H61.9507C62.1912 34.3731 62.3863 34.1875 62.3863 33.9586V15.1557C62.3863 14.9268 62.1912 14.7412 61.9507 14.7412ZM37.1087 21.943C38.334 21.943 39.3273 22.8883 39.3273 24.0544C39.3273 25.2205 38.334 26.1658 37.1087 26.1658C35.8834 26.1658 34.89 25.2205 34.89 24.0544C34.89 22.8883 35.8834 21.943 37.1087 21.943ZM45.9831 21.943C47.2084 21.943 48.2017 22.8883 48.2017 24.0544C48.2017 25.2205 47.2084 26.1658 45.9831 26.1658C44.7578 26.1658 43.7645 25.2205 43.7645 24.0544C43.7645 22.8883 44.7578 21.943 45.9831 21.943ZM54.8576 21.943C56.0829 21.943 57.0762 22.8883 57.0762 24.0544C57.0762 25.2205 56.0829 26.1658 54.8576 26.1658C53.6323 26.1658 52.639 25.2205 52.639 24.0544C52.639 22.8883 53.6323 21.943 54.8576 21.943ZM20.8388 5.91961C21.5606 5.91961 22.1457 6.47643 22.1457 7.1633C22.1457 7.80977 21.6274 8.34104 20.9647 8.40131L20.8388 8.407H16.4016C15.6798 8.407 15.0947 7.85018 15.0947 7.1633C15.0947 6.51683 15.613 5.98557 16.2757 5.9253L16.4016 5.91961H20.8388Z" fill="#035B96"/>
</svg>
