<svg width="100" height="100" viewBox="0 0 100 100" fill="none" xmlns="http://www.w3.org/2000/svg">
<path d="M98.3333 9.99097H76.6667V13.3246H96.6667V96.6559H50V99.9896H98.3333C98.7754 99.9895 99.1993 99.8139 99.5118 99.5013C99.8244 99.1887 100 98.7648 100 98.3227V11.6578C100 11.2157 99.8244 10.7918 99.5118 10.4792C99.1993 10.1666 98.7754 9.99099 98.3333 9.99097Z" fill="#035B96"/>
<path d="M68.3307 8.32465C69.2512 8.32465 69.9974 7.57838 69.9974 6.65781C69.9974 5.73724 69.2512 4.99097 68.3307 4.99097C67.4103 4.99097 66.6641 5.73724 66.6641 6.65781C66.6641 7.57838 67.4103 8.32465 68.3307 8.32465Z" fill="#035B96"/>
<path d="M44.9987 16.6579C44.5567 16.6579 44.1328 16.8335 43.8202 17.1461C43.5077 17.4587 43.3321 17.8827 43.332 18.3247V56.662H46.6654V19.9916H51.6699C50.5836 21.4321 49.9968 23.1878 49.9987 24.9921C49.9987 25.4342 50.1743 25.8581 50.4869 26.1707C50.7994 26.4833 51.2233 26.6589 51.6654 26.6589H84.9987C85.4407 26.6589 85.8646 26.4833 86.1772 26.1707C86.4897 25.8581 86.6653 25.4342 86.6654 24.9921C86.6672 23.1878 86.0804 21.4321 84.9941 19.9916H89.9987V89.9885H49.9987V93.3222H91.6654C92.1074 93.3221 92.5313 93.1465 92.8438 92.8339C93.1564 92.5213 93.332 92.0974 93.332 91.6553V18.3247C93.332 17.8827 93.1564 17.4587 92.8438 17.1461C92.5313 16.8335 92.1074 16.6579 91.6654 16.6579H75.0898C74.7513 16.6588 74.4159 16.5926 74.1032 16.463C73.7904 16.3335 73.5064 16.1431 73.2677 15.903C72.8965 15.5298 72.6479 15.0521 72.5552 14.5338C72.4625 14.0156 72.5301 13.4813 72.7489 13.0025L74.3841 9.45051C74.8515 8.43526 75.0561 7.31873 74.979 6.20368C74.9018 5.08864 74.5455 4.01091 73.9428 3.06969C73.34 2.12847 72.5102 1.354 71.5297 0.817578C70.5493 0.281152 69.4496 0 68.332 0C67.2144 0 66.1148 0.281152 65.1343 0.817578C64.1539 1.354 63.3241 2.12847 62.7213 3.06969C62.1186 4.01091 61.7622 5.08864 61.6851 6.20368C61.608 7.31873 61.8126 8.43526 62.28 9.45051L63.9151 13.0025C64.134 13.4813 64.2016 14.0156 64.1089 14.5338C64.0162 15.0521 63.7676 15.5298 63.3963 15.903C63.1576 16.1431 62.8737 16.3335 62.5609 16.463C62.2481 16.5926 61.9128 16.6588 61.5742 16.6579H44.9987ZM61.5736 19.9916H61.5742C62.3507 19.9937 63.1199 19.8418 63.8372 19.5446C64.5546 19.2475 65.2059 18.811 65.7535 18.2604C66.6049 17.4043 67.1749 16.3088 67.3874 15.1202C67.5999 13.9316 67.4448 12.7065 66.9429 11.6083L65.3077 8.05632C65.1058 7.61843 65.0015 7.14185 65.0021 6.65962C65.0027 6.17739 65.1082 5.70107 65.3112 5.26368C65.5782 4.68738 66.0045 4.1995 66.5398 3.85758C67.075 3.51566 67.6969 3.33397 68.332 3.33395C68.9671 3.33393 69.5889 3.51557 70.1242 3.85745C70.6595 4.19934 71.0858 4.68719 71.3529 5.26347C71.5559 5.70089 71.6614 6.17725 71.662 6.65951C71.6626 7.14177 71.5583 7.61839 71.3563 8.05632L69.7212 11.6083C69.2192 12.7065 69.0642 13.9316 69.2767 15.1202C69.4892 16.3088 70.0592 17.4043 70.9106 18.2604C71.4582 18.811 72.1095 19.2475 72.8268 19.5446C73.5442 19.8418 74.3134 19.9937 75.0898 19.9916H78.332C79.3658 19.9928 80.3738 20.3138 81.2178 20.9107C82.0619 21.5075 82.7006 22.351 83.0464 23.3252H53.6177C53.9634 22.351 54.6022 21.5075 55.4462 20.9107C56.2903 20.3138 57.2983 19.9928 58.332 19.9916H61.5736Z" fill="#035B96"/>
<path d="M51.6667 46.6709H61.6667C62.1087 46.6709 62.5326 46.4953 62.8452 46.1827C63.1577 45.8701 63.3333 45.4461 63.3333 45.0041V35.7042L66.1786 32.8586L63.8214 30.5012L60.9762 33.3468H51.6667C51.2246 33.3468 50.8007 33.5224 50.4882 33.835C50.1756 34.1476 50 34.5715 50 35.0136V45.0041C50 45.4461 50.1756 45.8701 50.4882 46.1827C50.8007 46.4953 51.2246 46.6709 51.6667 46.6709ZM53.3333 36.6805H57.6428L55.4881 38.8354L57.8453 41.1928L60 39.0379V43.3372H53.3333V36.6805Z" fill="#035B96"/>
<path d="M53.3359 83.3211V86.6547H61.6693C62.1113 86.6547 62.5352 86.4791 62.8478 86.1665C63.1603 85.8539 63.3359 85.43 63.3359 84.9879V74.9977C63.3359 74.5556 63.1603 74.1316 62.8478 73.819C62.5352 73.5065 62.1113 73.3308 61.6693 73.3308H56.6693V76.6645H60.0026V83.3211H53.3359Z" fill="#035B96"/>
<path d="M86.6641 40.0039H66.6641V43.3376H86.6641V40.0039Z" fill="#035B96"/>
<path d="M86.6641 60.0066H66.6641V63.3403H86.6641V60.0066Z" fill="#035B96"/>
<path d="M84.9974 79.9922H66.6641V83.3259H84.9974V79.9922Z" fill="#035B96"/>
<path d="M57.8453 61.185L60 59.0301V63.3292H56.6667V66.6629H61.6667C62.1087 66.6629 62.5326 66.4872 62.8452 66.1747C63.1577 65.8621 63.3333 65.4381 63.3333 64.996V55.6964L66.1786 52.8508L63.8214 50.4934L60.9762 53.339H51.6667C51.2246 53.339 50.8007 53.5146 50.4882 53.8272C50.1756 54.1398 50 54.5637 50 55.0058V56.6618H51.6667V56.6726H57.6428L55.4881 58.8276L57.8453 61.185Z" fill="#035B96"/>
<path d="M51.6667 81.6652C52.1087 81.6651 52.5326 81.4895 52.8452 81.1769C53.1577 80.8643 53.3333 80.4404 53.3333 79.9983V61.6631C53.3333 61.221 53.1577 60.7971 52.8452 60.4845C52.5326 60.1719 52.1087 59.9963 51.6667 59.9962H17.3572L22.8453 54.5076C22.9718 54.3808 23.0772 54.2346 23.1573 54.0744L36.6667 27.0529V56.6625H40V20.3856L43.1573 14.0702C43.273 13.8388 43.3328 13.5834 43.332 13.3247H60V9.99102H38.7268L35.7454 8.50019C35.3501 8.3025 34.8924 8.26997 34.4731 8.40974C34.0537 8.54951 33.7071 8.85014 33.5093 9.2455L30.9213 14.4221L29.3026 13.6126C28.6424 13.2825 27.9217 13.0908 27.1847 13.0493C26.4478 13.0078 25.7101 13.1174 25.0171 13.3713C24.324 13.6252 23.6901 14.0181 23.1543 14.5259C22.6186 15.0337 22.1922 15.6456 21.9015 16.3241L18.468 24.336L21.532 25.6492L24.9654 17.6373C25.0772 17.3763 25.2412 17.141 25.4472 16.9457C25.6532 16.7504 25.897 16.5993 26.1635 16.5016C26.4301 16.4039 26.7138 16.3618 26.9972 16.3777C27.2806 16.3936 27.5578 16.4673 27.8117 16.5943L29.4306 17.4038L13.5093 49.2497C13.4292 49.4099 13.3754 49.582 13.35 49.7594L11.8878 59.9962H8.33333C7.89131 59.9963 7.4674 60.1719 7.15485 60.4845C6.84229 60.7971 6.66669 61.221 6.66667 61.6631V78.3315H1.66667C1.22465 78.3315 0.800735 78.5071 0.488179 78.8197C0.175623 79.1323 2.15469e-05 79.5562 0 79.9983V98.3336C2.15469e-05 98.7756 0.175623 99.1996 0.488179 99.5122C0.800735 99.8248 1.22465 100 1.66667 100H45C45.442 100 45.8659 99.8248 46.1785 99.5122C46.491 99.1996 46.6666 98.7756 46.6667 98.3336V81.6652H51.6667ZM35.7454 12.2274L39.4305 14.0702L37.588 17.7558L33.9028 15.913L35.7454 12.2274ZM16.6117 50.4986L32.4121 18.8947L36.0972 20.7375L20.2968 52.3414L15.6903 56.9486L16.6117 50.4986ZM50 78.3315H36.6667V63.3299H50V78.3315ZM33.3333 63.3299V78.3315H26.6667V63.3299H33.3333ZM10 63.3299H23.3333V78.3315H10V63.3299ZM3.33333 81.6652H16.6667V96.6667H3.33333V81.6652ZM20 96.6667V81.6652H26.6667V96.6667H20ZM43.3333 96.6667H30V81.6652H43.3333V96.6667Z" fill="#035B96"/>
</svg>
