<svg width="190" height="31" viewBox="0 0 190 31" fill="none" xmlns="http://www.w3.org/2000/svg">
<g filter="url(#filter0_d)">
<rect x="1" width="188" height="29" rx="6" fill="#F4F4F4"/>
<path d="M71.2422 16.3359H69.1094V20H67.4453V10.1797H71.2422C72.2839 10.1797 73.1042 10.4479 73.7031 10.9844C74.3021 11.5208 74.6016 12.2812 74.6016 13.2656C74.6016 14.2448 74.2995 15.0026 73.6953 15.5391C73.0964 16.0703 72.2786 16.3359 71.2422 16.3359ZM71.2109 14.8984C71.7578 14.8984 72.1849 14.75 72.4922 14.4531C72.7995 14.151 72.9531 13.7552 72.9531 13.2656C72.9531 12.7656 72.8021 12.3672 72.5 12.0703C72.2031 11.7682 71.7734 11.6172 71.2109 11.6172H69.1094V14.8984H71.2109ZM79.2422 12.2109L77.8984 15.8438H80.5859L79.2422 12.2109ZM82.1328 20L81.125 17.2812H77.3672L76.3594 20H74.6797L78.4531 10.1797H80.0547L83.8281 20H82.1328ZM83.6641 11.6484V10.1797H91.8594V11.6484H88.5938V20H86.9297V11.6484H83.6641ZM93.4297 10.1797H99.8516V11.6484H95.0625V14.2422H99.3984V15.6953H95.0625V18.5156H99.8516V20H93.4297V10.1797ZM103.312 10.1797V20H101.648V10.1797H103.312ZM113.398 10.1797V20H112.117L107.094 12.8516V20H105.492V10.1797H107.062L111.797 16.9922V10.1797H113.398ZM114.961 11.6484V10.1797H123.156V11.6484H119.891V20H118.227V11.6484H114.961Z" fill="#035B96"/>
</g>
<defs>
<filter id="filter0_d" x="0" y="0" width="190" height="31" filterUnits="userSpaceOnUse" color-interpolation-filters="sRGB">
<feFlood flood-opacity="0" result="BackgroundImageFix"/>
<feColorMatrix in="SourceAlpha" type="matrix" values="0 0 0 0 0 0 0 0 0 0 0 0 0 0 0 0 0 0 127 0"/>
<feOffset dy="1"/>
<feGaussianBlur stdDeviation="0.5"/>
<feColorMatrix type="matrix" values="0 0 0 0 0 0 0 0 0 0 0 0 0 0 0 0 0 0 0.25 0"/>
<feBlend mode="normal" in2="BackgroundImageFix" result="effect1_dropShadow"/>
<feBlend mode="normal" in="SourceGraphic" in2="effect1_dropShadow" result="shape"/>
</filter>
</defs>
</svg>
