<svg width="150" height="150" viewBox="0 0 150 150" fill="none" xmlns="http://www.w3.org/2000/svg">
<path d="M147.901 21.2716L128.724 2.09476C125.931 -0.698401 121.386 -0.698108 118.593 2.09476L82.4867 38.2008C81.5826 39.1052 81.5826 40.5706 82.4867 41.475C83.3908 42.3788 84.8565 42.3788 85.7606 41.475L121.867 5.36898C122.345 4.89027 122.982 4.62689 123.658 4.62689C124.335 4.62689 124.972 4.89027 125.45 5.36898L144.627 24.5458C145.106 25.0243 145.369 25.6606 145.369 26.3376C145.369 27.0144 145.106 27.6507 144.627 28.1291L139.921 32.8354L127.59 20.5049C126.686 19.6011 125.221 19.6011 124.316 20.5049C123.412 21.4093 123.412 22.8747 124.316 23.7791L136.647 36.1096L131.27 41.4865L125.851 36.0671C124.947 35.1633 123.481 35.1633 122.577 36.0671C121.673 36.9715 121.673 38.437 122.577 39.3414L127.996 44.7604L122.619 50.1372L117.2 44.7179C116.296 43.8141 114.83 43.8141 113.926 44.7179C113.022 45.6223 113.022 47.0877 113.926 47.9921L119.345 53.4112L113.969 58.788L101.638 46.457C100.734 45.5535 99.2679 45.5529 98.3638 46.457C97.4597 47.3614 97.4597 48.8268 98.3638 49.7312L110.695 62.062L105.318 67.4388L99.8984 62.0195C98.9943 61.1157 97.5286 61.1157 96.6245 62.0195C95.7204 62.9239 95.7204 64.3893 96.6245 65.2937L102.044 70.7127L97.4949 75.2614L74.7344 52.5009L78.9678 48.2672C79.8719 47.3628 79.8719 45.8974 78.9678 44.993C78.0637 44.0892 76.598 44.0892 75.6939 44.993L71.4602 49.2267L28.7547 6.52269C25.7846 3.55258 21.8357 1.91693 17.6354 1.91693C13.4351 1.91722 9.48618 3.55287 6.51636 6.52299C3.54595 9.4931 1.9103 13.4417 1.9103 17.6423C1.9103 21.8426 3.54595 25.7915 6.51606 28.7617L49.2207 71.4663L2.09487 118.593C-0.698291 121.386 -0.698291 125.931 2.09487 128.725L21.2717 147.902C22.6247 149.255 24.4238 150 26.3375 150C28.2511 150 30.0502 149.255 31.4032 147.902L78.5295 100.775L81.8861 104.132C82.7902 105.036 84.2559 105.036 85.16 104.132C86.0641 103.228 86.0641 101.762 85.16 100.858L80.527 96.2247C80.4371 96.0824 80.3316 95.947 80.2077 95.8231C80.0837 95.6992 79.9484 95.5937 79.8063 95.5038L29.6433 45.3408L35.8516 39.1325L39.6901 42.9709C40.1421 43.4227 40.7345 43.6489 41.3272 43.6489C41.9199 43.6489 42.5123 43.4227 42.9643 42.9709C43.8684 42.0665 43.8684 40.6011 42.9643 39.6967L39.1261 35.8585L45.3344 29.6502L69.8205 54.1363C69.8213 54.1374 69.8222 54.1383 69.8234 54.1395C69.8246 54.1407 69.8254 54.1413 69.8266 54.1424L95.6316 79.9474C95.6955 80.0318 95.7634 80.1144 95.8405 80.1915C95.9175 80.2685 95.9999 80.3365 96.0842 80.4003L130.44 114.756L124.232 120.965L89.5689 86.3016C89.5481 86.279 89.5293 86.2553 89.5074 86.2336L75.6845 72.4105C75.6617 72.3876 75.6368 72.3677 75.6133 72.346L51.1964 47.9294C50.2923 47.0256 48.8266 47.0256 47.9225 47.9294C47.0184 48.8338 47.0184 50.2993 47.9225 51.2037L120.957 124.238L114.748 130.446L92.7476 108.445C91.8435 107.542 90.3778 107.542 89.4737 108.445C88.5696 109.35 88.5696 110.815 89.4737 111.72L113.112 135.357C113.336 135.582 113.615 135.764 113.911 135.878L141.883 146.738C142.324 146.91 142.784 146.993 143.24 146.993C144.22 146.993 145.181 146.61 145.899 145.891C146.951 144.839 147.282 143.263 146.742 141.876L135.871 113.917C135.756 113.621 135.575 113.342 135.35 113.118L100.769 78.5365L147.901 31.4034C150.695 28.6099 150.695 24.0651 147.901 21.2716ZM75.2565 97.5015L70.7134 102.043L65.2941 96.6241C64.39 95.7203 62.9243 95.7203 62.0202 96.6241C61.1161 97.5285 61.1161 98.9939 62.0202 99.8983L67.4395 105.318L62.0626 110.694L49.7319 98.3637C48.8278 97.4599 47.3621 97.4599 46.458 98.3637C45.5539 99.2681 45.5539 100.734 46.458 101.638L58.7887 113.969L53.4119 119.346L47.9925 113.926C47.0884 113.022 45.6227 113.022 44.7186 113.926C43.8145 114.831 43.8145 116.296 44.7186 117.2L50.1379 122.619L44.7611 127.996L39.3417 122.577C38.4376 121.673 36.9719 121.673 36.0678 122.577C35.1637 123.481 35.1637 124.947 36.0678 125.851L41.4872 131.271L36.1103 136.647L23.7795 124.317C22.8754 123.413 21.4097 123.413 20.5056 124.317C19.6015 125.221 19.6015 126.686 20.5056 127.591L32.8364 139.921L28.1301 144.628C27.6514 145.106 27.0151 145.37 26.3383 145.37C25.6616 145.37 25.0252 145.106 24.5465 144.628L5.36968 125.45C4.38179 124.463 4.38179 122.855 5.36968 121.867L52.4958 74.7408L75.2565 97.5015ZM9.78999 25.4877C5.46401 21.1618 5.46401 14.1229 9.78999 9.79691C14.116 5.47064 21.1548 5.47064 25.4808 9.79691L32.798 17.1141L17.1072 32.8049L9.78999 25.4877ZM34.2163 34.2197C34.2157 34.2203 34.2151 34.2205 34.2148 34.2211C34.2142 34.2217 34.2139 34.2223 34.2133 34.2226L26.3694 42.0665L20.3814 36.0786L36.0722 20.3877L42.0602 26.3757L34.2163 34.2197ZM141.708 141.703L118.896 132.847L132.842 118.902L141.708 141.703Z" fill="#035B96"/>
</svg>
