<svg width="100" height="100" viewBox="0 0 100 100" fill="none" xmlns="http://www.w3.org/2000/svg">
<path d="M46.5939 29.6943H41.4041V24.5044C41.4041 23.4257 40.5295 22.5515 39.4512 22.5515C38.3728 22.5515 37.4982 23.4259 37.4982 24.5044V29.6943H32.3084C31.2299 29.6943 30.3555 30.5687 30.3555 31.6472C30.3555 32.7257 31.2299 33.6001 32.3084 33.6001H37.4982V38.79C37.4982 39.8687 38.3728 40.7429 39.4512 40.7429C40.5295 40.7429 41.4041 39.8685 41.4041 38.79V33.6001H46.5939C47.6724 33.6001 48.5468 32.7257 48.5468 31.6472C48.5468 30.5687 47.6724 29.6943 46.5939 29.6943Z" fill="#035B96"/>
<path d="M39.4521 14.4609C29.9756 14.4609 22.2656 22.1709 22.2656 31.6474C22.2656 41.124 29.9756 48.8339 39.4521 48.8339C48.9287 48.8339 56.6386 41.124 56.6386 31.6474C56.6386 22.1709 48.9287 14.4609 39.4521 14.4609ZM39.4521 44.9277C32.1293 44.9277 26.1717 38.9701 26.1717 31.6472C26.1717 24.3244 32.1293 18.3668 39.4521 18.3668C46.775 18.3668 52.7326 24.3244 52.7326 31.6472C52.7326 38.9701 46.775 44.9277 39.4521 44.9277Z" fill="#035B96"/>
<path d="M78.3291 17.9566L60.9475 0.574755C60.5811 0.208545 60.0845 0.00268555 59.5665 0.00268555H5.85897C2.62831 0.00268555 0 2.6312 0 5.86185V94.1379C0 97.3685 2.62831 99.9968 5.85897 99.9968H43.1653C44.2439 99.9968 45.1183 99.1222 45.1183 98.0439C45.1183 96.9656 44.2437 96.091 43.1653 96.091H5.85897C4.78202 96.091 3.90605 95.2148 3.90605 94.1381V5.86185C3.90605 4.7849 4.78222 3.90893 5.85897 3.90893H57.6134V15.4316C57.6134 18.6622 60.2417 21.2905 63.4723 21.2905H74.995V56.0539C74.995 57.1325 75.8696 58.0069 76.9479 58.0069C78.0262 58.0069 78.9008 57.1323 78.9008 56.0539V19.3374C78.9012 18.8194 78.6954 18.3228 78.3291 17.9566ZM63.4725 17.3845C62.3956 17.3845 61.5196 16.5083 61.5196 15.4316V6.67084L72.2335 17.3845H63.4725Z" fill="#035B96"/>
<path d="M64.4482 54.687H30.531C29.4525 54.687 28.5781 55.5616 28.5781 56.6399C28.5781 57.7183 29.4527 58.5929 30.531 58.5929H64.4482C65.5267 58.5929 66.4011 57.7185 66.4011 56.6399C66.4013 55.5616 65.5267 54.687 64.4482 54.687Z" fill="#035B96"/>
<path d="M20.8166 54.687H14.4529C13.3744 54.687 12.5 55.5616 12.5 56.6399C12.5 57.7183 13.3746 58.5929 14.4529 58.5929H20.8166C21.8951 58.5929 22.7695 57.7183 22.7695 56.6399C22.7695 55.5616 21.8951 54.687 20.8166 54.687Z" fill="#035B96"/>
<path d="M49.9961 65.6235H30.531C29.4525 65.6235 28.5781 66.4981 28.5781 67.5765C28.5781 68.6548 29.4527 69.5294 30.531 69.5294H49.9961C51.0746 69.5294 51.949 68.655 51.949 67.5765C51.949 66.4981 51.0746 65.6235 49.9961 65.6235Z" fill="#035B96"/>
<path d="M20.8166 65.6235H14.4529C13.3744 65.6235 12.5 66.4981 12.5 67.5765C12.5 68.6548 13.3746 69.5294 14.4529 69.5294H20.8166C21.8951 69.5294 22.7695 68.6548 22.7695 67.5765C22.7695 66.4981 21.8951 65.6235 20.8166 65.6235Z" fill="#035B96"/>
<path d="M31.9119 77.1333C31.5488 76.77 31.0467 76.561 30.5312 76.561C30.0176 76.561 29.5156 76.7698 29.1504 77.1333C28.7871 77.4966 28.5781 78.0005 28.5781 78.5142C28.5781 79.0278 28.7869 79.5317 29.1504 79.8948C29.5137 80.2581 30.0176 80.4673 30.5312 80.4673C31.0469 80.4673 31.5488 80.2583 31.9119 79.8948C32.2771 79.5317 32.4844 79.0278 32.4844 78.5142C32.4844 78.0005 32.2771 77.4966 31.9119 77.1333Z" fill="#035B96"/>
<path d="M20.8166 76.561H14.4529C13.3744 76.561 12.5 77.4356 12.5 78.514C12.5 79.5925 13.3746 80.4669 14.4529 80.4669H20.8166C21.8951 80.4669 22.7695 79.5923 22.7695 78.514C22.7697 77.4356 21.8951 76.561 20.8166 76.561Z" fill="#035B96"/>
<path d="M87.8907 75.7791C87.3175 75.7791 86.7542 75.8219 86.2023 75.8994C87.4329 71.7717 86.422 67.1127 83.1689 63.8592C80.8818 61.5723 77.8412 60.3127 74.6068 60.3127C71.3722 60.3127 68.3316 61.5723 66.0447 63.8592L50.5777 79.326C48.2908 81.6131 47.0312 84.6537 47.0312 87.8881C47.0312 91.1226 48.2908 94.1633 50.5777 96.4502C52.9387 98.8109 56.0387 99.991 59.1398 99.991C62.2402 99.991 65.3416 98.8103 67.7019 96.4502L75.7941 88.358C76.0423 94.8176 81.3718 99.9967 87.8909 99.9967C94.5679 99.9967 99.9997 94.5648 99.9997 87.8879C99.9997 81.2109 94.5677 75.7791 87.8907 75.7791ZM64.9396 93.6883C61.7416 96.8867 56.5377 96.8867 53.3396 93.6883C51.7902 92.139 50.9371 90.0793 50.9371 87.8883C50.9371 85.6973 51.7902 83.6373 53.3396 82.0883L59.6922 75.7358L71.2921 87.3359L64.9396 93.6883ZM74.0539 84.5738L62.4539 72.9737L68.8064 66.6213C70.3558 65.0719 72.4154 64.2188 74.6064 64.2188C76.7974 64.2188 78.8574 65.0719 80.4064 66.6213C83.6046 69.8194 83.6046 75.0233 80.4064 78.2213L74.0539 84.5738ZM85.9378 95.8541C82.355 94.9752 79.688 91.7379 79.688 87.8881C79.688 84.0381 82.3548 80.8008 85.9378 79.9223V95.8541ZM89.8437 95.8541V79.9221C93.4267 80.8008 96.0935 84.0381 96.0935 87.8879C96.0935 91.7377 93.4267 94.9752 89.8437 95.8541Z" fill="#035B96"/>
</svg>
