<svg width="122" height="31" viewBox="0 0 122 31" fill="none" xmlns="http://www.w3.org/2000/svg">
<g filter="url(#filter0_d)">
<rect x="5" y="4" width="112" height="20.6582" rx="5" fill="#035B96"/>
</g>
<path d="M17.1719 17V12.0898H18.7461C19.457 12.0898 20.0326 12.3138 20.4727 12.7617C20.9102 13.1992 21.1289 13.793 21.1289 14.543C21.1289 15.293 20.9102 15.8906 20.4727 16.3359C20.0299 16.7786 19.4544 17 18.7461 17H17.1719ZM17.8008 16.4336H18.7383C19.2904 16.4336 19.7227 16.263 20.0352 15.9219C20.3503 15.5807 20.5078 15.1211 20.5078 14.543C20.5078 13.9727 20.3503 13.5143 20.0352 13.168C19.7201 12.8216 19.2878 12.6484 18.7383 12.6484H17.8008V16.4336ZM25.5742 12.7266C25.9935 13.1927 26.2031 13.7982 26.2031 14.543C26.2031 15.2878 25.9935 15.8932 25.5742 16.3594C25.1602 16.8333 24.6289 17.0703 23.9805 17.0703C23.3477 17.0703 22.8177 16.8333 22.3906 16.3594C21.974 15.8828 21.7656 15.2773 21.7656 14.543C21.7656 13.8086 21.974 13.2031 22.3906 12.7266C22.8177 12.2526 23.3477 12.0156 23.9805 12.0156C24.6289 12.0156 25.1602 12.2526 25.5742 12.7266ZM25.5742 14.543C25.5742 13.9701 25.4271 13.5013 25.1328 13.1367C24.8359 12.7695 24.4518 12.5859 23.9805 12.5859C23.5143 12.5859 23.1328 12.7695 22.8359 13.1367C22.5443 13.4987 22.3984 13.9674 22.3984 14.543C22.3984 15.1211 22.5443 15.5911 22.8359 15.9531C23.1328 16.3203 23.5143 16.5039 23.9805 16.5039C24.4518 16.5039 24.8359 16.3203 25.1328 15.9531C25.4271 15.5885 25.5742 15.1185 25.5742 14.543ZM29.3008 12.0898H29.8047L30.8438 15.9922L31.8516 12.0898H32.4609L31.1562 17H30.582L29.5469 13.168L28.5 17H27.9336L26.6289 12.0898H27.2539L28.2617 15.9922L29.3008 12.0898ZM37.0078 12.0898V17H36.5469L33.8008 13.0977V17H33.1953V12.0898H33.793L36.4102 15.8242V12.0898H37.0078ZM38.1797 17V12.0898H38.8086V16.4336H41.3125V17H38.1797ZM45.4727 12.7266C45.8919 13.1927 46.1016 13.7982 46.1016 14.543C46.1016 15.2878 45.8919 15.8932 45.4727 16.3594C45.0586 16.8333 44.5273 17.0703 43.8789 17.0703C43.2461 17.0703 42.7161 16.8333 42.2891 16.3594C41.8724 15.8828 41.6641 15.2773 41.6641 14.543C41.6641 13.8086 41.8724 13.2031 42.2891 12.7266C42.7161 12.2526 43.2461 12.0156 43.8789 12.0156C44.5273 12.0156 45.0586 12.2526 45.4727 12.7266ZM45.4727 14.543C45.4727 13.9701 45.3255 13.5013 45.0312 13.1367C44.7344 12.7695 44.3503 12.5859 43.8789 12.5859C43.4128 12.5859 43.0312 12.7695 42.7344 13.1367C42.4427 13.4987 42.2969 13.9674 42.2969 14.543C42.2969 15.1211 42.4427 15.5911 42.7344 15.9531C43.0312 16.3203 43.4128 16.5039 43.8789 16.5039C44.3503 16.5039 44.7344 16.3203 45.0312 15.9531C45.3255 15.5885 45.4727 15.1185 45.4727 14.543ZM48.6094 12.8711L47.8086 14.9688H49.418L48.6094 12.8711ZM50.1953 17L49.625 15.5195H47.6016L47.043 17H46.4023L48.3242 12.0898H48.9141L50.8359 17H50.1953ZM51.5859 17V12.0898H53.1602C53.8711 12.0898 54.4466 12.3138 54.8867 12.7617C55.3242 13.1992 55.543 13.793 55.543 14.543C55.543 15.293 55.3242 15.8906 54.8867 16.3359C54.444 16.7786 53.8685 17 53.1602 17H51.5859ZM52.2148 16.4336H53.1523C53.7044 16.4336 54.1367 16.263 54.4492 15.9219C54.7643 15.5807 54.9219 15.1211 54.9219 14.543C54.9219 13.9727 54.7643 13.5143 54.4492 13.168C54.1341 12.8216 53.7018 12.6484 53.1523 12.6484H52.2148V16.4336ZM60.0078 15.0312H58.8242V17H58.1953V12.0898H60.0078C60.513 12.0898 60.9128 12.2174 61.207 12.4727C61.5013 12.7253 61.6484 13.0872 61.6484 13.5586C61.6484 14.0299 61.5013 14.3932 61.207 14.6484C60.9128 14.9036 60.513 15.0312 60.0078 15.0312ZM60 14.4727C60.3255 14.4727 60.5768 14.3906 60.7539 14.2266C60.9336 14.0599 61.0234 13.8372 61.0234 13.5586C61.0234 13.2773 60.9336 13.0547 60.7539 12.8906C60.5768 12.724 60.3255 12.6406 60 12.6406H58.8242V14.4727H60ZM63.1211 12.6406V14.3828H64.2734C64.5938 14.3828 64.8438 14.306 65.0234 14.1523C65.2057 13.9961 65.2969 13.7826 65.2969 13.5117C65.2969 13.2409 65.2057 13.0286 65.0234 12.875C64.8438 12.7188 64.5938 12.6406 64.2734 12.6406H63.1211ZM62.4922 17V12.0898H64.2891C64.7943 12.0898 65.1927 12.2135 65.4844 12.4609C65.776 12.7057 65.9219 13.056 65.9219 13.5117C65.9219 13.9049 65.8112 14.2201 65.5898 14.457C65.3711 14.694 65.0664 14.8398 64.6758 14.8945L66.1211 17H65.4023L63.9961 14.9219H63.1211V17H62.4922ZM66.9062 12.0898H70.0312V12.6484H67.5273V14.1992H69.8008V14.7617H67.5273V16.4336H70.0312V17H66.9062V12.0898ZM70.7656 16.6172V15.9375C71.2135 16.3203 71.7279 16.5117 72.3086 16.5117C72.6315 16.5117 72.8867 16.444 73.0742 16.3086C73.2643 16.1732 73.3594 15.9818 73.3594 15.7344C73.3594 15.5339 73.2982 15.3763 73.1758 15.2617C73.056 15.1445 72.8555 15.0273 72.5742 14.9102L71.8516 14.6328C71.5651 14.5208 71.3099 14.3685 71.0859 14.1758C70.862 13.9753 70.75 13.6849 70.75 13.3047C70.75 12.8802 70.9076 12.5599 71.2227 12.3438C71.5404 12.125 71.9076 12.0156 72.3242 12.0156C72.8945 12.0156 73.3646 12.1484 73.7344 12.4141V13.0781C73.3073 12.737 72.8398 12.5664 72.332 12.5664C72.0482 12.5664 71.8164 12.6302 71.6367 12.7578C71.457 12.8828 71.3672 13.0625 71.3672 13.2969C71.3672 13.4922 71.4271 13.6458 71.5469 13.7578C71.6667 13.8698 71.8516 13.9714 72.1016 14.0625L72.8789 14.3672C73.2539 14.513 73.5286 14.694 73.7031 14.9102C73.8776 15.1237 73.9648 15.3958 73.9648 15.7266C73.9648 16.1432 73.8073 16.4714 73.4922 16.7109C73.1771 16.9505 72.7826 17.0703 72.3086 17.0703C71.9857 17.0703 71.6901 17.0299 71.4219 16.9492C71.1536 16.8659 70.9349 16.7552 70.7656 16.6172ZM74.5859 14.543C74.5859 13.7799 74.8073 13.1693 75.25 12.7109C75.6901 12.2474 76.237 12.0156 76.8906 12.0156C77.4297 12.0156 77.8698 12.1576 78.2109 12.4414V13.1055C77.8333 12.7591 77.3958 12.5859 76.8984 12.5859C76.401 12.5859 75.9948 12.7669 75.6797 13.1289C75.3724 13.4831 75.2188 13.9544 75.2188 14.543C75.2188 15.1393 75.3724 15.6146 75.6797 15.9688C75.9896 16.3255 76.3958 16.5039 76.8984 16.5039C77.3958 16.5039 77.8333 16.3307 78.2109 15.9844V16.6484C77.8724 16.9297 77.4323 17.0703 76.8906 17.0703C76.2396 17.0703 75.6927 16.8411 75.25 16.3828C74.8073 15.9167 74.5859 15.3034 74.5859 14.543ZM79.8242 12.6406V14.3828H80.9766C81.2969 14.3828 81.5469 14.306 81.7266 14.1523C81.9089 13.9961 82 13.7826 82 13.5117C82 13.2409 81.9089 13.0286 81.7266 12.875C81.5469 12.7188 81.2969 12.6406 80.9766 12.6406H79.8242ZM79.1953 17V12.0898H80.9922C81.4974 12.0898 81.8958 12.2135 82.1875 12.4609C82.4792 12.7057 82.625 13.056 82.625 13.5117C82.625 13.9049 82.5143 14.2201 82.293 14.457C82.0742 14.694 81.7695 14.8398 81.3789 14.8945L82.8242 17H82.1055L80.6992 14.9219H79.8242V17H79.1953ZM84.2383 12.0898V17H83.6094V12.0898H84.2383ZM87.2188 15.0312H86.0352V17H85.4062V12.0898H87.2188C87.724 12.0898 88.1237 12.2174 88.418 12.4727C88.7122 12.7253 88.8594 13.0872 88.8594 13.5586C88.8594 14.0299 88.7122 14.3932 88.418 14.6484C88.1237 14.9036 87.724 15.0312 87.2188 15.0312ZM87.2109 14.4727C87.5365 14.4727 87.7878 14.3906 87.9648 14.2266C88.1445 14.0599 88.2344 13.8372 88.2344 13.5586C88.2344 13.2773 88.1445 13.0547 87.9648 12.8906C87.7878 12.724 87.5365 12.6406 87.2109 12.6406H86.0352V14.4727H87.2109ZM89.3008 12.6484V12.0898H93.3594V12.6484H91.6484V17H91.0156V12.6484H89.3008ZM94.8164 12.0898V17H94.1875V12.0898H94.8164ZM99.5039 12.7266C99.9232 13.1927 100.133 13.7982 100.133 14.543C100.133 15.2878 99.9232 15.8932 99.5039 16.3594C99.0898 16.8333 98.5586 17.0703 97.9102 17.0703C97.2773 17.0703 96.7474 16.8333 96.3203 16.3594C95.9036 15.8828 95.6953 15.2773 95.6953 14.543C95.6953 13.8086 95.9036 13.2031 96.3203 12.7266C96.7474 12.2526 97.2773 12.0156 97.9102 12.0156C98.5586 12.0156 99.0898 12.2526 99.5039 12.7266ZM99.5039 14.543C99.5039 13.9701 99.3568 13.5013 99.0625 13.1367C98.7656 12.7695 98.3815 12.5859 97.9102 12.5859C97.444 12.5859 97.0625 12.7695 96.7656 13.1367C96.474 13.4987 96.3281 13.9674 96.3281 14.543C96.3281 15.1211 96.474 15.5911 96.7656 15.9531C97.0625 16.3203 97.444 16.5039 97.9102 16.5039C98.3815 16.5039 98.7656 16.3203 99.0625 15.9531C99.3568 15.5885 99.5039 15.1185 99.5039 14.543ZM104.828 12.0898V17H104.367L101.621 13.0977V17H101.016V12.0898H101.613L104.23 15.8242V12.0898H104.828Z" fill="white"/>
<defs>
<filter id="filter0_d" x="0" y="0" width="122" height="30.6582" filterUnits="userSpaceOnUse" color-interpolation-filters="sRGB">
<feFlood flood-opacity="0" result="BackgroundImageFix"/>
<feColorMatrix in="SourceAlpha" type="matrix" values="0 0 0 0 0 0 0 0 0 0 0 0 0 0 0 0 0 0 127 0"/>
<feOffset dy="1"/>
<feGaussianBlur stdDeviation="2.5"/>
<feColorMatrix type="matrix" values="0 0 0 0 0 0 0 0 0 0 0 0 0 0 0 0 0 0 0.05 0"/>
<feBlend mode="normal" in2="BackgroundImageFix" result="effect1_dropShadow"/>
<feBlend mode="normal" in="SourceGraphic" in2="effect1_dropShadow" result="shape"/>
</filter>
</defs>
</svg>
