<svg width="45" height="14" viewBox="0 0 45 14" fill="none" xmlns="http://www.w3.org/2000/svg">
<rect width="45" height="14" rx="4" fill="#035B96"/>
<path d="M17.0518 7.70996H15.7188V10H14.6787V3.8623H17.0518C17.7028 3.8623 18.2155 4.02995 18.5898 4.36523C18.9642 4.70052 19.1514 5.17578 19.1514 5.79102C19.1514 6.40299 18.9626 6.87663 18.585 7.21191C18.2106 7.54395 17.6995 7.70996 17.0518 7.70996ZM17.0322 6.81152C17.374 6.81152 17.641 6.71875 17.833 6.5332C18.0251 6.3444 18.1211 6.09701 18.1211 5.79102C18.1211 5.47852 18.0267 5.22949 17.8379 5.04395C17.6523 4.85514 17.3838 4.76074 17.0322 4.76074H15.7188V6.81152H17.0322ZM22.5498 5.54199V6.57227C22.4131 6.47135 22.2161 6.4209 21.959 6.4209C21.7441 6.4209 21.5537 6.48275 21.3877 6.60645C21.2217 6.73014 21.1159 6.9043 21.0703 7.12891V10H20.0693V5.56152H21.0703V6.02051C21.1549 5.85449 21.2884 5.7194 21.4707 5.61523C21.6562 5.51107 21.8532 5.45898 22.0615 5.45898C22.3057 5.45898 22.4684 5.48665 22.5498 5.54199ZM24.4004 3.78906C24.5241 3.90625 24.5859 4.04948 24.5859 4.21875C24.5859 4.38802 24.5241 4.53288 24.4004 4.65332C24.2799 4.77051 24.1351 4.8291 23.9658 4.8291C23.7965 4.8291 23.6501 4.77051 23.5264 4.65332C23.4059 4.53288 23.3457 4.38802 23.3457 4.21875C23.3457 4.04948 23.4059 3.90625 23.5264 3.78906C23.6501 3.66862 23.7965 3.6084 23.9658 3.6084C24.1351 3.6084 24.2799 3.66862 24.4004 3.78906ZM24.4688 5.56152V10H23.4678V5.56152H24.4688ZM25.7041 10V5.56152H26.7051V5.98145C26.832 5.82845 27.0013 5.70312 27.2129 5.60547C27.4277 5.50781 27.6589 5.45898 27.9062 5.45898C28.401 5.45898 28.7852 5.60872 29.0586 5.9082C29.3353 6.20443 29.4736 6.60482 29.4736 7.10938V10H28.4727V7.28027C28.4727 6.99707 28.4027 6.77572 28.2627 6.61621C28.1227 6.45345 27.9128 6.37207 27.6328 6.37207C27.4147 6.37207 27.2194 6.43717 27.0469 6.56738C26.8743 6.69434 26.7604 6.86523 26.7051 7.08008V10H25.7041ZM32.1836 6.3916V10H31.1875V6.3916H30.2842V5.56152H31.1875V4.37012H32.1836V5.56152H33.1846V6.3916H32.1836Z" fill="white"/>
</svg>
