<svg width="48" height="48" viewBox="0 0 48 48" fill="none" xmlns="http://www.w3.org/2000/svg">
<path d="M23.9998 0.666656C11.1198 0.666656 0.666504 11.12 0.666504 24C0.666504 36.88 11.1198 47.3333 23.9998 47.3333C36.8798 47.3333 47.3332 36.88 47.3332 24C47.3332 11.12 36.8798 0.666656 23.9998 0.666656ZM23.9998 7.66666C27.8732 7.66666 30.9998 10.7933 30.9998 14.6667C30.9998 18.54 27.8732 21.6667 23.9998 21.6667C20.1265 21.6667 16.9998 18.54 16.9998 14.6667C16.9998 10.7933 20.1265 7.66666 23.9998 7.66666ZM23.9998 40.8C18.1665 40.8 13.0098 37.8133 9.99984 33.2867C10.0698 28.6433 19.3332 26.1 23.9998 26.1C28.6432 26.1 37.9298 28.6433 37.9998 33.2867C34.9898 37.8133 29.8332 40.8 23.9998 40.8Z" fill="#035B96"/>
</svg>
