<svg width="291" height="52" viewBox="0 0 291 52" fill="none" xmlns="http://www.w3.org/2000/svg">
<g filter="url(#filter0_d)">
<g filter="url(#filter1_d)">
<rect x="18" y="4" width="253" height="40" rx="6" fill="#035B96"/>
</g>
<path d="M91.7599 19.8047V23.1885H94.1242C94.7336 23.1885 95.2082 23.0361 95.548 22.7314C95.8937 22.4268 96.0666 22.0137 96.0666 21.4922C96.0666 20.9707 95.8967 20.5605 95.5568 20.2617C95.217 19.957 94.7394 19.8047 94.1242 19.8047H91.7599ZM89.8879 29.2354V18.1875H94.1593C95.3254 18.1875 96.2424 18.4775 96.9103 19.0576C97.5842 19.6318 97.9211 20.4434 97.9211 21.4922C97.9211 22.3945 97.675 23.1152 97.1828 23.6543C96.6906 24.1934 95.9992 24.5361 95.1086 24.6826L98.299 29.2354H96.172L93.1134 24.7529H91.7599V29.2354H89.8879ZM99.8722 18.1875H107.097V19.8398H101.709V22.7578H106.587V24.3926H101.709V27.5654H107.097V29.2354H99.8722V18.1875ZM113.873 27.7588C114.752 27.7588 115.479 27.5186 116.053 27.0381V24.9111H113.961V23.3467H117.776V27.7764C117.26 28.3213 116.659 28.7314 115.974 29.0068C115.294 29.2764 114.582 29.4111 113.838 29.4111C112.227 29.4111 110.938 28.8838 109.971 27.8291C109.01 26.7744 108.529 25.4004 108.529 23.707C108.529 22.6113 108.77 21.627 109.25 20.7539C109.731 19.8809 110.39 19.2041 111.228 18.7236C112.071 18.2432 113.012 18.0029 114.049 18.0029C115.315 18.0029 116.361 18.3223 117.187 18.9609V20.9033C116.689 20.4814 116.191 20.1738 115.693 19.9805C115.2 19.7812 114.653 19.6816 114.049 19.6816C112.977 19.6816 112.104 20.0537 111.43 20.7979C110.756 21.542 110.419 22.5117 110.419 23.707C110.419 24.9141 110.727 25.8926 111.342 26.6426C111.963 27.3867 112.807 27.7588 113.873 27.7588ZM121.766 18.1875V29.2354H119.894V18.1875H121.766ZM123.77 28.4443V26.4844C124.83 27.334 125.999 27.7588 127.277 27.7588C127.939 27.7588 128.46 27.6387 128.841 27.3984C129.228 27.1582 129.421 26.7979 129.421 26.3174C129.421 25.9072 129.304 25.5967 129.07 25.3857C128.841 25.1689 128.443 24.9521 127.874 24.7354L126.275 24.1553C125.859 24.0088 125.501 23.8506 125.202 23.6807C124.909 23.5107 124.643 23.3027 124.403 23.0566C124.162 22.8105 123.981 22.5176 123.858 22.1777C123.74 21.8379 123.682 21.4482 123.682 21.0088C123.682 20.083 124.036 19.3506 124.745 18.8115C125.46 18.2725 126.348 18.0029 127.408 18.0029C128.692 18.0029 129.776 18.3018 130.66 18.8994V20.833C130.127 20.4463 129.609 20.1504 129.105 19.9453C128.601 19.7402 128.047 19.6377 127.444 19.6377C126.858 19.6377 126.386 19.7549 126.028 19.9893C125.677 20.2178 125.501 20.5459 125.501 20.9736C125.501 21.3486 125.612 21.6416 125.835 21.8525C126.064 22.0635 126.433 22.2568 126.943 22.4326L128.718 23.083C129.591 23.3994 130.23 23.8125 130.634 24.3223C131.038 24.832 131.24 25.4854 131.24 26.2822C131.24 27.249 130.868 28.0137 130.124 28.5762C129.38 29.1328 128.431 29.4111 127.277 29.4111C126.573 29.4111 125.908 29.3232 125.281 29.1475C124.654 28.9717 124.151 28.7373 123.77 28.4443ZM132.286 19.8398V18.1875H141.506V19.8398H137.832V29.2354H135.96V19.8398H132.286ZM143.273 18.1875H150.497V19.8398H145.11V22.7578H149.987V24.3926H145.11V27.5654H150.497V29.2354H143.273V18.1875ZM154.391 19.8047V23.1885H156.755C157.364 23.1885 157.839 23.0361 158.179 22.7314C158.525 22.4268 158.697 22.0137 158.697 21.4922C158.697 20.9707 158.528 20.5605 158.188 20.2617C157.848 19.957 157.37 19.8047 156.755 19.8047H154.391ZM152.519 29.2354V18.1875H156.79C157.956 18.1875 158.873 18.4775 159.541 19.0576C160.215 19.6318 160.552 20.4434 160.552 21.4922C160.552 22.3945 160.306 23.1152 159.814 23.6543C159.321 24.1934 158.63 24.5361 157.739 24.6826L160.93 29.2354H158.803L155.744 24.7529H154.391V29.2354H152.519ZM175.37 18.1875V29.2354H173.929L168.278 21.1934V29.2354H166.476V18.1875H168.242L173.569 25.8516V18.1875H175.37ZM187.429 23.707C187.429 24.7852 187.209 25.7607 186.77 26.6338C186.336 27.501 185.73 28.1807 184.95 28.6729C184.171 29.165 183.292 29.4111 182.314 29.4111C181.341 29.4111 180.465 29.165 179.686 28.6729C178.906 28.1807 178.3 27.501 177.866 26.6338C177.439 25.7607 177.225 24.7852 177.225 23.707C177.225 22.8926 177.351 22.1338 177.603 21.4307C177.861 20.7217 178.209 20.1182 178.649 19.6201C179.094 19.1162 179.633 18.7207 180.266 18.4336C180.899 18.1465 181.581 18.0029 182.314 18.0029C183.292 18.0029 184.171 18.249 184.95 18.7412C185.73 19.2275 186.336 19.9072 186.77 20.7803C187.209 21.6475 187.429 22.623 187.429 23.707ZM184.643 26.6074C185.24 25.8516 185.539 24.8848 185.539 23.707C185.539 22.5293 185.24 21.5654 184.643 20.8154C184.045 20.0596 183.269 19.6816 182.314 19.6816C181.353 19.6816 180.579 20.0566 179.993 20.8066C179.407 21.5566 179.114 22.5234 179.114 23.707C179.114 24.8906 179.407 25.8604 179.993 26.6162C180.579 27.3662 181.353 27.7412 182.314 27.7412C183.269 27.7412 184.045 27.3633 184.643 26.6074ZM194.214 18.1875H195.726L197.809 26.3174L199.813 18.1875H201.606L198.767 29.2354H197.035L194.952 21.334L192.825 29.2354H191.111L188.273 18.1875H190.11L192.105 26.3174L194.214 18.1875Z" fill="white"/>
</g>
<defs>
<filter id="filter0_d" x="17" y="4" width="255" height="42" filterUnits="userSpaceOnUse" color-interpolation-filters="sRGB">
<feFlood flood-opacity="0" result="BackgroundImageFix"/>
<feColorMatrix in="SourceAlpha" type="matrix" values="0 0 0 0 0 0 0 0 0 0 0 0 0 0 0 0 0 0 127 0" result="hardAlpha"/>
<feOffset dy="1"/>
<feGaussianBlur stdDeviation="0.5"/>
<feColorMatrix type="matrix" values="0 0 0 0 0 0 0 0 0 0 0 0 0 0 0 0 0 0 0.25 0"/>
<feBlend mode="normal" in2="BackgroundImageFix" result="effect1_dropShadow"/>
<feBlend mode="normal" in="SourceGraphic" in2="effect1_dropShadow" result="shape"/>
</filter>
<filter id="filter1_d" x="12" y="0" width="265" height="52" filterUnits="userSpaceOnUse" color-interpolation-filters="sRGB">
<feFlood flood-opacity="0" result="BackgroundImageFix"/>
<feColorMatrix in="SourceAlpha" type="matrix" values="0 0 0 0 0 0 0 0 0 0 0 0 0 0 0 0 0 0 127 0" result="hardAlpha"/>
<feOffset dy="2"/>
<feGaussianBlur stdDeviation="3"/>
<feColorMatrix type="matrix" values="0 0 0 0 0 0 0 0 0 0 0 0 0 0 0 0 0 0 0.05 0"/>
<feBlend mode="normal" in2="BackgroundImageFix" result="effect1_dropShadow"/>
<feBlend mode="normal" in="SourceGraphic" in2="effect1_dropShadow" result="shape"/>
</filter>
</defs>
</svg>
