<svg width="280" height="31" viewBox="0 0 280 31" fill="none" xmlns="http://www.w3.org/2000/svg">
<g filter="url(#filter0_d)">
<rect x="1" width="278" height="29" rx="6" fill="#035B96"/>
</g>
<path d="M119.557 11.6172V14.625H121.658C122.2 14.625 122.622 14.4896 122.924 14.2188C123.231 13.9479 123.385 13.5807 123.385 13.1172C123.385 12.6536 123.234 12.2891 122.932 12.0234C122.629 11.7526 122.205 11.6172 121.658 11.6172H119.557ZM117.892 20V10.1797H121.689C122.726 10.1797 123.541 10.4375 124.135 10.9531C124.734 11.4635 125.033 12.1849 125.033 13.1172C125.033 13.9193 124.814 14.5599 124.377 15.0391C123.939 15.5182 123.325 15.8229 122.533 15.9531L125.369 20H123.478L120.76 16.0156H119.557V20H117.892ZM126.767 10.1797H133.189V11.6484H128.4V14.2422H132.736V15.6953H128.4V18.5156H133.189V20H126.767V10.1797ZM134.588 19.2969V17.5547C135.531 18.3099 136.57 18.6875 137.705 18.6875C138.294 18.6875 138.757 18.5807 139.096 18.3672C139.439 18.1536 139.611 17.8333 139.611 17.4062C139.611 17.0417 139.507 16.7656 139.299 16.5781C139.096 16.3854 138.741 16.1927 138.236 16L136.814 15.4844C136.445 15.3542 136.127 15.2135 135.861 15.0625C135.601 14.9115 135.364 14.7266 135.15 14.5078C134.937 14.2891 134.775 14.0286 134.666 13.7266C134.562 13.4245 134.51 13.0781 134.51 12.6875C134.51 11.8646 134.825 11.2135 135.455 10.7344C136.09 10.2552 136.879 10.0156 137.822 10.0156C138.963 10.0156 139.926 10.2812 140.713 10.8125V12.5312C140.239 12.1875 139.778 11.9245 139.33 11.7422C138.882 11.5599 138.39 11.4688 137.853 11.4688C137.333 11.4688 136.913 11.5729 136.596 11.7812C136.283 11.9844 136.127 12.276 136.127 12.6562C136.127 12.9896 136.226 13.25 136.424 13.4375C136.627 13.625 136.955 13.7969 137.408 13.9531L138.986 14.5312C139.762 14.8125 140.33 15.1797 140.689 15.6328C141.049 16.0859 141.228 16.6667 141.228 17.375C141.228 18.2344 140.898 18.9141 140.236 19.4141C139.575 19.9089 138.731 20.1562 137.705 20.1562C137.08 20.1562 136.489 20.0781 135.932 19.9219C135.374 19.7656 134.926 19.5573 134.588 19.2969ZM142.924 10.1797H149.346V11.6484H144.557V14.2422H148.892V15.6953H144.557V18.5156H149.346V20H142.924V10.1797ZM150.533 11.6484V10.1797H158.728V11.6484H155.463V20H153.799V11.6484H150.533Z" fill="white"/>
<defs>
<filter id="filter0_d" x="0" y="0" width="280" height="31" filterUnits="userSpaceOnUse" color-interpolation-filters="sRGB">
<feFlood flood-opacity="0" result="BackgroundImageFix"/>
<feColorMatrix in="SourceAlpha" type="matrix" values="0 0 0 0 0 0 0 0 0 0 0 0 0 0 0 0 0 0 127 0"/>
<feOffset dy="1"/>
<feGaussianBlur stdDeviation="0.5"/>
<feColorMatrix type="matrix" values="0 0 0 0 0 0 0 0 0 0 0 0 0 0 0 0 0 0 0.25 0"/>
<feBlend mode="normal" in2="BackgroundImageFix" result="effect1_dropShadow"/>
<feBlend mode="normal" in="SourceGraphic" in2="effect1_dropShadow" result="shape"/>
</filter>
</defs>
</svg>
