<svg width="280" height="31" viewBox="0 0 280 31" fill="none" xmlns="http://www.w3.org/2000/svg">
<g filter="url(#filter0_d)">
<rect x="1" width="278" height="29" rx="5" fill="#035B96"/>
</g>
<path d="M99.2578 10.6172V13.625H101.359C101.901 13.625 102.323 13.4896 102.625 13.2188C102.932 12.9479 103.086 12.5807 103.086 12.1172C103.086 11.6536 102.935 11.2891 102.633 11.0234C102.331 10.7526 101.906 10.6172 101.359 10.6172H99.2578ZM97.5938 19V9.17969H101.391C102.427 9.17969 103.242 9.4375 103.836 9.95312C104.435 10.4635 104.734 11.1849 104.734 12.1172C104.734 12.9193 104.516 13.5599 104.078 14.0391C103.641 14.5182 103.026 14.8229 102.234 14.9531L105.07 19H103.18L100.461 15.0156H99.2578V19H97.5938ZM109.078 13.0781C108.693 13.0781 108.349 13.2031 108.047 13.4531C107.745 13.7031 107.544 14.0807 107.445 14.5859H110.539C110.513 14.138 110.372 13.776 110.117 13.5C109.862 13.2188 109.516 13.0781 109.078 13.0781ZM111.578 18.5391C110.995 18.9505 110.242 19.1562 109.32 19.1562C108.279 19.1562 107.43 18.8255 106.773 18.1641C106.122 17.5026 105.797 16.6198 105.797 15.5156C105.797 14.4115 106.104 13.5052 106.719 12.7969C107.333 12.0885 108.115 11.7344 109.062 11.7344C110.021 11.7344 110.758 12.0495 111.273 12.6797C111.794 13.3099 112.055 14.1589 112.055 15.2266V15.7969H107.367C107.43 16.4531 107.656 16.9479 108.047 17.2812C108.438 17.6146 108.938 17.7812 109.547 17.7812C109.932 17.7812 110.281 17.7318 110.594 17.6328C110.911 17.5286 111.24 17.3594 111.578 17.125V18.5391ZM113.305 18.4219V16.7891C113.643 17.112 114.026 17.3672 114.453 17.5547C114.88 17.737 115.297 17.8281 115.703 17.8281C116.068 17.8281 116.365 17.7656 116.594 17.6406C116.823 17.5104 116.938 17.3229 116.938 17.0781C116.938 16.8594 116.865 16.6953 116.719 16.5859C116.573 16.4714 116.331 16.3594 115.992 16.25L115.227 16.0078C114.576 15.8047 114.091 15.5417 113.773 15.2188C113.461 14.8958 113.305 14.4453 113.305 13.8672C113.305 13.2318 113.557 12.7188 114.062 12.3281C114.568 11.9323 115.206 11.7344 115.977 11.7344C116.732 11.7344 117.44 11.9427 118.102 12.3594V13.9766C117.388 13.3672 116.68 13.0625 115.977 13.0625C115.648 13.0625 115.378 13.1302 115.164 13.2656C114.951 13.3958 114.844 13.5729 114.844 13.7969C114.844 14.0156 114.909 14.1823 115.039 14.2969C115.174 14.4062 115.411 14.513 115.75 14.6172L116.68 14.9062C117.289 15.1042 117.742 15.3698 118.039 15.7031C118.341 16.0365 118.492 16.4688 118.492 17C118.492 17.6615 118.229 18.1875 117.703 18.5781C117.177 18.9635 116.505 19.1562 115.688 19.1562C115.234 19.1562 114.794 19.0911 114.367 18.9609C113.94 18.8307 113.586 18.651 113.305 18.4219ZM122.859 13.0781C122.474 13.0781 122.13 13.2031 121.828 13.4531C121.526 13.7031 121.326 14.0807 121.227 14.5859H124.32C124.294 14.138 124.154 13.776 123.898 13.5C123.643 13.2188 123.297 13.0781 122.859 13.0781ZM125.359 18.5391C124.776 18.9505 124.023 19.1562 123.102 19.1562C122.06 19.1562 121.211 18.8255 120.555 18.1641C119.904 17.5026 119.578 16.6198 119.578 15.5156C119.578 14.4115 119.885 13.5052 120.5 12.7969C121.115 12.0885 121.896 11.7344 122.844 11.7344C123.802 11.7344 124.539 12.0495 125.055 12.6797C125.576 13.3099 125.836 14.1589 125.836 15.2266V15.7969H121.148C121.211 16.4531 121.438 16.9479 121.828 17.2812C122.219 17.6146 122.719 17.7812 123.328 17.7812C123.714 17.7812 124.062 17.7318 124.375 17.6328C124.693 17.5286 125.021 17.3594 125.359 17.125V18.5391ZM129.727 13.2266V19H128.133V13.2266H126.688V11.8984H128.133V9.99219H129.727V11.8984H131.328V13.2266H129.727ZM140.156 15.3359H138.023V19H136.359V9.17969H140.156C141.198 9.17969 142.018 9.44792 142.617 9.98438C143.216 10.5208 143.516 11.2812 143.516 12.2656C143.516 13.2448 143.214 14.0026 142.609 14.5391C142.01 15.0703 141.193 15.3359 140.156 15.3359ZM140.125 13.8984C140.672 13.8984 141.099 13.75 141.406 13.4531C141.714 13.151 141.867 12.7552 141.867 12.2656C141.867 11.7656 141.716 11.3672 141.414 11.0703C141.117 10.7682 140.688 10.6172 140.125 10.6172H138.023V13.8984H140.125ZM148.594 17.1094V16.5234C148.505 16.3047 148.323 16.1302 148.047 16C147.776 15.8646 147.477 15.7969 147.148 15.7969C146.747 15.7969 146.401 15.8854 146.109 16.0625C145.823 16.2344 145.68 16.4818 145.68 16.8047C145.68 17.1328 145.823 17.3854 146.109 17.5625C146.401 17.7396 146.747 17.8281 147.148 17.8281C147.477 17.8281 147.776 17.763 148.047 17.6328C148.323 17.5026 148.505 17.3281 148.594 17.1094ZM148.594 14.9531V14.4531C148.594 14.0573 148.445 13.75 148.148 13.5312C147.857 13.3073 147.461 13.1953 146.961 13.1953C146.305 13.1953 145.648 13.401 144.992 13.8125V12.3438C145.232 12.1719 145.56 12.0286 145.977 11.9141C146.393 11.7943 146.818 11.7344 147.25 11.7344C148.167 11.7344 148.875 11.9661 149.375 12.4297C149.875 12.888 150.125 13.526 150.125 14.3438V19H148.594V18.6016C148.464 18.7318 148.229 18.8516 147.891 18.9609C147.557 19.0703 147.211 19.125 146.852 19.125C146.096 19.125 145.464 18.9115 144.953 18.4844C144.448 18.0573 144.195 17.4974 144.195 16.8047C144.195 16.138 144.458 15.5911 144.984 15.1641C145.51 14.737 146.169 14.5234 146.961 14.5234C147.263 14.5234 147.573 14.5677 147.891 14.6562C148.208 14.7448 148.443 14.8438 148.594 14.9531ZM151.695 18.4219V16.7891C152.034 17.112 152.417 17.3672 152.844 17.5547C153.271 17.737 153.688 17.8281 154.094 17.8281C154.458 17.8281 154.755 17.7656 154.984 17.6406C155.214 17.5104 155.328 17.3229 155.328 17.0781C155.328 16.8594 155.255 16.6953 155.109 16.5859C154.964 16.4714 154.721 16.3594 154.383 16.25L153.617 16.0078C152.966 15.8047 152.482 15.5417 152.164 15.2188C151.852 14.8958 151.695 14.4453 151.695 13.8672C151.695 13.2318 151.948 12.7188 152.453 12.3281C152.958 11.9323 153.596 11.7344 154.367 11.7344C155.122 11.7344 155.831 11.9427 156.492 12.3594V13.9766C155.779 13.3672 155.07 13.0625 154.367 13.0625C154.039 13.0625 153.768 13.1302 153.555 13.2656C153.341 13.3958 153.234 13.5729 153.234 13.7969C153.234 14.0156 153.299 14.1823 153.43 14.2969C153.565 14.4062 153.802 14.513 154.141 14.6172L155.07 14.9062C155.68 15.1042 156.133 15.3698 156.43 15.7031C156.732 16.0365 156.883 16.4688 156.883 17C156.883 17.6615 156.62 18.1875 156.094 18.5781C155.568 18.9635 154.896 19.1562 154.078 19.1562C153.625 19.1562 153.185 19.0911 152.758 18.9609C152.331 18.8307 151.977 18.651 151.695 18.4219ZM158.148 18.4219V16.7891C158.487 17.112 158.87 17.3672 159.297 17.5547C159.724 17.737 160.141 17.8281 160.547 17.8281C160.911 17.8281 161.208 17.7656 161.438 17.6406C161.667 17.5104 161.781 17.3229 161.781 17.0781C161.781 16.8594 161.708 16.6953 161.562 16.5859C161.417 16.4714 161.174 16.3594 160.836 16.25L160.07 16.0078C159.419 15.8047 158.935 15.5417 158.617 15.2188C158.305 14.8958 158.148 14.4453 158.148 13.8672C158.148 13.2318 158.401 12.7188 158.906 12.3281C159.411 11.9323 160.049 11.7344 160.82 11.7344C161.576 11.7344 162.284 11.9427 162.945 12.3594V13.9766C162.232 13.3672 161.523 13.0625 160.82 13.0625C160.492 13.0625 160.221 13.1302 160.008 13.2656C159.794 13.3958 159.688 13.5729 159.688 13.7969C159.688 14.0156 159.753 14.1823 159.883 14.2969C160.018 14.4062 160.255 14.513 160.594 14.6172L161.523 14.9062C162.133 15.1042 162.586 15.3698 162.883 15.7031C163.185 16.0365 163.336 16.4688 163.336 17C163.336 17.6615 163.073 18.1875 162.547 18.5781C162.021 18.9635 161.349 19.1562 160.531 19.1562C160.078 19.1562 159.638 19.0911 159.211 18.9609C158.784 18.8307 158.43 18.651 158.148 18.4219ZM169.898 11.8984L171.148 16.9375L172.523 11.8984H174.07L172.008 19H170.406L169.148 14.0547L167.883 19H166.281L164.219 11.8984H165.82L167.195 16.9375L168.445 11.8984H169.898ZM180.672 12.7812C181.302 13.474 181.617 14.362 181.617 15.4453C181.617 16.5286 181.302 17.4193 180.672 18.1172C180.042 18.8099 179.232 19.1562 178.242 19.1562C177.253 19.1562 176.44 18.8073 175.805 18.1094C175.174 17.4115 174.859 16.5234 174.859 15.4453C174.859 14.3672 175.174 13.4792 175.805 12.7812C176.44 12.0833 177.253 11.7344 178.242 11.7344C179.232 11.7344 180.042 12.0833 180.672 12.7812ZM179.539 17.1328C179.857 16.6953 180.016 16.1328 180.016 15.4453C180.016 14.7578 179.857 14.1979 179.539 13.7656C179.227 13.3281 178.794 13.1094 178.242 13.1094C177.69 13.1094 177.255 13.3281 176.938 13.7656C176.62 14.1979 176.461 14.7578 176.461 15.4453C176.461 16.1328 176.62 16.6953 176.938 17.1328C177.255 17.5651 177.69 17.7812 178.242 17.7812C178.794 17.7812 179.227 17.5651 179.539 17.1328ZM187.078 11.8672V13.5156C186.859 13.3542 186.544 13.2734 186.133 13.2734C185.789 13.2734 185.484 13.3724 185.219 13.5703C184.953 13.7682 184.784 14.0469 184.711 14.4062V19H183.109V11.8984H184.711V12.6328C184.846 12.3672 185.06 12.151 185.352 11.9844C185.648 11.8177 185.964 11.7344 186.297 11.7344C186.688 11.7344 186.948 11.7786 187.078 11.8672ZM192.906 16.7891V14.1016C192.776 13.8203 192.568 13.5938 192.281 13.4219C191.995 13.2448 191.69 13.1562 191.367 13.1562C190.768 13.1562 190.289 13.3724 189.93 13.8047C189.576 14.2318 189.398 14.7786 189.398 15.4453C189.398 16.112 189.576 16.6615 189.93 17.0938C190.289 17.5208 190.768 17.7344 191.367 17.7344C191.69 17.7344 191.995 17.6484 192.281 17.4766C192.568 17.2995 192.776 17.0703 192.906 16.7891ZM192.906 19V18.3906C192.74 18.6042 192.487 18.7865 192.148 18.9375C191.815 19.0833 191.464 19.1562 191.094 19.1562C190.422 19.1562 189.833 18.9896 189.328 18.6562C188.823 18.3229 188.44 17.8776 188.18 17.3203C187.924 16.763 187.797 16.138 187.797 15.4453C187.797 14.7578 187.924 14.1354 188.18 13.5781C188.44 13.0208 188.823 12.5755 189.328 12.2422C189.839 11.9036 190.427 11.7344 191.094 11.7344C191.464 11.7344 191.815 11.8099 192.148 11.9609C192.487 12.112 192.74 12.2943 192.906 12.5078V8.60156H194.508V19H192.906Z" fill="white"/>
<defs>
<filter id="filter0_d" x="0" y="0" width="280" height="31" filterUnits="userSpaceOnUse" color-interpolation-filters="sRGB">
<feFlood flood-opacity="0" result="BackgroundImageFix"/>
<feColorMatrix in="SourceAlpha" type="matrix" values="0 0 0 0 0 0 0 0 0 0 0 0 0 0 0 0 0 0 127 0"/>
<feOffset dy="1"/>
<feGaussianBlur stdDeviation="0.5"/>
<feColorMatrix type="matrix" values="0 0 0 0 0 0 0 0 0 0 0 0 0 0 0 0 0 0 0.15 0"/>
<feBlend mode="normal" in2="BackgroundImageFix" result="effect1_dropShadow"/>
<feBlend mode="normal" in="SourceGraphic" in2="effect1_dropShadow" result="shape"/>
</filter>
</defs>
</svg>
