<svg width="136" height="142" viewBox="0 0 136 142" fill="none" xmlns="http://www.w3.org/2000/svg">
<path d="M133.625 14.75C134.247 14.75 134.843 14.5031 135.282 14.0635C135.722 13.624 135.969 13.0279 135.969 12.4062V3.03125C135.969 2.40965 135.722 1.81351 135.282 1.37397C134.843 0.93443 134.247 0.6875 133.625 0.6875H124.25C123.628 0.6875 123.032 0.93443 122.593 1.37397C122.153 1.81351 121.906 2.40965 121.906 3.03125V5.375H93.7812V3.03125C93.7812 2.40965 93.5343 1.81351 93.0948 1.37397C92.6552 0.93443 92.0591 0.6875 91.4375 0.6875H82.0625C81.4409 0.6875 80.8448 0.93443 80.4052 1.37397C79.9657 1.81351 79.7188 2.40965 79.7188 3.03125V5.375H51.5938V3.03125C51.5938 2.40965 51.3468 1.81351 50.9073 1.37397C50.4677 0.93443 49.8716 0.6875 49.25 0.6875H39.875C39.2534 0.6875 38.6573 0.93443 38.2177 1.37397C37.7782 1.81351 37.5312 2.40965 37.5312 3.03125V12.4062C37.5312 13.0279 37.7782 13.624 38.2177 14.0635C38.6573 14.5031 39.2534 14.75 39.875 14.75H42.2188V52.25H39.875C39.2534 52.25 38.6573 52.4969 38.2177 52.9365C37.7782 53.376 37.5312 53.9721 37.5312 54.5938V63.9688C37.5312 64.5904 37.7782 65.1865 38.2177 65.626C38.6573 66.0656 39.2534 66.3125 39.875 66.3125H42.2188V71H2.375C1.7534 71 1.15726 71.2469 0.717718 71.6865C0.27818 72.126 0.03125 72.7221 0.03125 73.3438V138.969C0.03125 139.59 0.27818 140.186 0.717718 140.626C1.15726 141.066 1.7534 141.312 2.375 141.312H63.3125C63.9341 141.312 64.5302 141.066 64.9698 140.626C65.4093 140.186 65.6562 139.59 65.6562 138.969V113.188H79.7188V115.531C79.7188 116.153 79.9657 116.749 80.4052 117.189C80.8448 117.628 81.4409 117.875 82.0625 117.875H91.4375C92.0591 117.875 92.6552 117.628 93.0948 117.189C93.5343 116.749 93.7812 116.153 93.7812 115.531V113.188H121.906V115.531C121.906 116.153 122.153 116.749 122.593 117.189C123.032 117.628 123.628 117.875 124.25 117.875H133.625C134.247 117.875 134.843 117.628 135.282 117.189C135.722 116.749 135.969 116.153 135.969 115.531V106.156C135.969 105.535 135.722 104.939 135.282 104.499C134.843 104.059 134.247 103.812 133.625 103.812H131.281V66.3125H133.625C134.247 66.3125 134.843 66.0656 135.282 65.626C135.722 65.1865 135.969 64.5904 135.969 63.9688V54.5938C135.969 53.9721 135.722 53.376 135.282 52.9365C134.843 52.4969 134.247 52.25 133.625 52.25H131.281V14.75H133.625ZM126.594 5.375H131.281V10.0625H126.594V5.375ZM84.4062 5.375H89.0938V10.0625H84.4062V5.375ZM42.2188 5.375H46.9062V10.0625H42.2188V5.375ZM42.2188 56.9375H46.9062V61.625H42.2188V56.9375ZM60.9688 136.625H4.71875V75.6875H60.9688V136.625ZM100.126 29.4989L94.7519 24.125H112.531V41.9041L107.157 36.5302C106.94 36.3125 106.681 36.1399 106.397 36.0221C106.113 35.9043 105.808 35.8437 105.5 35.8437C105.192 35.8437 104.887 35.9043 104.603 36.0221C104.319 36.1399 104.06 36.3125 103.843 36.5302L65.6562 74.7166V73.3438C65.6562 72.7221 65.4093 72.126 64.9698 71.6865C64.5302 71.2469 63.9341 71 63.3125 71H61.9396L100.126 32.8136C100.344 32.5959 100.516 32.3376 100.634 32.0532C100.752 31.7688 100.813 31.464 100.813 31.1562C100.813 30.8485 100.752 30.5437 100.634 30.2593C100.516 29.9749 100.344 29.7166 100.126 29.4989ZM89.0938 113.188H84.4062V108.5H89.0938V113.188ZM131.281 113.188H126.594V108.5H131.281V113.188ZM131.281 61.625H126.594V56.9375H131.281V61.625ZM126.594 52.25H124.25C123.628 52.25 123.032 52.4969 122.593 52.9365C122.153 53.376 121.906 53.9721 121.906 54.5938V63.9688C121.906 64.5904 122.153 65.1865 122.593 65.626C123.032 66.0656 123.628 66.3125 124.25 66.3125H126.594V103.812H124.25C123.628 103.812 123.032 104.059 122.593 104.499C122.153 104.939 121.906 105.535 121.906 106.156V108.5H93.7812V106.156C93.7812 105.535 93.5343 104.939 93.0948 104.499C92.6552 104.059 92.0591 103.812 91.4375 103.812H82.0625C81.4409 103.812 80.8448 104.059 80.4052 104.499C79.9657 104.939 79.7188 105.535 79.7188 106.156V108.5H65.6562V81.3459L105.5 41.5021L113.218 49.2198C113.545 49.5476 113.963 49.7709 114.418 49.8613C114.872 49.9517 115.344 49.9053 115.772 49.7279C116.2 49.5505 116.566 49.2501 116.824 48.8647C117.081 48.4792 117.219 48.0261 117.219 47.5625V21.7812C117.219 21.1596 116.972 20.5635 116.532 20.124C116.093 19.6844 115.497 19.4375 114.875 19.4375H89.0938C88.6302 19.4375 88.177 19.5749 87.7916 19.8325C87.4062 20.09 87.1057 20.456 86.9283 20.8843C86.7509 21.3126 86.7045 21.7839 86.795 22.2385C86.8854 22.6932 87.1086 23.1108 87.4364 23.4386L95.1541 31.1562L55.3104 71H46.9062V66.3125H49.25C49.8716 66.3125 50.4677 66.0656 50.9073 65.626C51.3468 65.1865 51.5938 64.5904 51.5938 63.9688V54.5938C51.5938 53.9721 51.3468 53.376 50.9073 52.9365C50.4677 52.4969 49.8716 52.25 49.25 52.25H46.9062V14.75H49.25C49.8716 14.75 50.4677 14.5031 50.9073 14.0635C51.3468 13.624 51.5938 13.0279 51.5938 12.4062V10.0625H79.7188V12.4062C79.7188 13.0279 79.9657 13.624 80.4052 14.0635C80.8448 14.5031 81.4409 14.75 82.0625 14.75H91.4375C92.0591 14.75 92.6552 14.5031 93.0948 14.0635C93.5343 13.624 93.7812 13.0279 93.7812 12.4062V10.0625H121.906V12.4062C121.906 13.0279 122.153 13.624 122.593 14.0635C123.032 14.5031 123.628 14.75 124.25 14.75H126.594V52.25Z" fill="#035B96"/>
</svg>
