<svg width="384" height="64" viewBox="0 0 384 64" fill="none" xmlns="http://www.w3.org/2000/svg">
<g filter="url(#filter0_d)">
<g filter="url(#filter1_d)">
<rect x="24.3379" y="4" width="333.817" height="52" rx="6" fill="#035B96"/>
</g>
<path d="M97.5828 36.6499V34.0366C98.9969 35.1694 100.555 35.7358 102.259 35.7358C103.141 35.7358 103.837 35.5757 104.345 35.2554C104.86 34.9351 105.118 34.4546 105.118 33.814C105.118 33.2671 104.962 32.853 104.649 32.5718C104.345 32.2827 103.813 31.9937 103.055 31.7046L100.923 30.9312C100.368 30.7358 99.8914 30.5249 99.493 30.2983C99.1024 30.0718 98.7469 29.7944 98.4266 29.4663C98.1063 29.1382 97.8641 28.7476 97.7 28.2944C97.5438 27.8413 97.4657 27.3218 97.4657 26.7358C97.4657 25.5015 97.9383 24.5249 98.8836 23.8062C99.8367 23.0874 101.02 22.728 102.434 22.728C104.145 22.728 105.591 23.1265 106.77 23.9233V26.5015C106.059 25.9858 105.368 25.5913 104.696 25.3179C104.024 25.0444 103.286 24.9077 102.481 24.9077C101.7 24.9077 101.071 25.064 100.595 25.3765C100.126 25.6812 99.8914 26.1187 99.8914 26.689C99.8914 27.189 100.04 27.5796 100.337 27.8608C100.641 28.1421 101.134 28.3999 101.813 28.6343L104.18 29.5015C105.345 29.9233 106.196 30.4741 106.735 31.1538C107.274 31.8335 107.544 32.7046 107.544 33.7671C107.544 35.0562 107.048 36.0757 106.055 36.8257C105.063 37.5679 103.798 37.939 102.259 37.939C101.321 37.939 100.434 37.8218 99.5985 37.5874C98.7625 37.353 98.0907 37.0405 97.5828 36.6499ZM110.216 34.2944C109.606 33.1382 109.302 31.8179 109.302 30.3335C109.302 28.8491 109.606 27.5288 110.216 26.3726C110.833 25.2163 111.68 24.3218 112.759 23.689C113.845 23.0483 115.067 22.728 116.427 22.728C118.036 22.728 119.341 23.1538 120.341 24.0054V26.5952C119.716 26.0327 119.098 25.6226 118.489 25.3647C117.88 25.0991 117.2 24.9663 116.45 24.9663C115.052 24.9663 113.93 25.4624 113.087 26.4546C112.243 27.439 111.821 28.7319 111.821 30.3335C111.821 31.9194 112.243 33.2085 113.087 34.2007C113.93 35.1929 115.052 35.689 116.45 35.689C117.903 35.689 119.2 35.1538 120.341 34.0835V36.6733C119.348 37.5171 118.044 37.939 116.427 37.939C115.067 37.939 113.845 37.6226 112.759 36.9897C111.68 36.3491 110.833 35.4507 110.216 34.2944ZM133.079 22.9741H135.575V37.7046H133.079V31.2476H125.661V37.7046H123.165V22.9741H125.661V29.0444H133.079V22.9741ZM138.845 22.9741H148.477V25.1772H141.294V29.0679H147.798V31.2476H141.294V35.478H148.477V37.7046H138.845V22.9741ZM151.173 37.7046V22.9741H156.141C158.313 22.9741 160.048 23.6421 161.345 24.978C162.649 26.314 163.302 28.0991 163.302 30.3335C163.302 32.5679 162.649 34.3569 161.345 35.7007C160.048 37.0366 158.313 37.7046 156.141 37.7046H151.173ZM153.669 35.478H156.048C157.563 35.478 158.735 35.021 159.563 34.1069C160.391 33.1851 160.805 31.9272 160.805 30.3335C160.805 28.7319 160.391 27.4741 159.563 26.5601C158.735 25.6382 157.563 25.1772 156.048 25.1772H153.669V35.478ZM175.747 36.3687C174.692 37.4155 173.259 37.939 171.446 37.939C169.634 37.939 168.196 37.4116 167.134 36.3569C166.071 35.2944 165.54 33.7827 165.54 31.8218V22.9741H168.036V31.564C168.036 34.3296 169.173 35.7124 171.446 35.7124C173.712 35.7124 174.845 34.3296 174.845 31.564V22.9741H177.341V31.8452C177.341 33.8062 176.809 35.314 175.747 36.3687ZM180.376 37.7046V22.9741H182.872V35.478H189.95V37.7046H180.376ZM192.493 22.9741H202.126V25.1772H194.942V29.0679H201.446V31.2476H194.942V35.478H202.126V37.7046H192.493V22.9741ZM215.813 26.021L213.798 31.4702H217.829L215.813 26.021ZM220.149 37.7046L218.638 33.6265H213.001L211.489 37.7046H208.97L214.63 22.9741H217.032L222.692 37.7046H220.149ZM230.11 37.7046V22.9741H235.079C237.251 22.9741 238.985 23.6421 240.282 24.978C241.587 26.314 242.239 28.0991 242.239 30.3335C242.239 32.5679 241.587 34.3569 240.282 35.7007C238.985 37.0366 237.251 37.7046 235.079 37.7046H230.11ZM232.606 35.478H234.985C236.501 35.478 237.673 35.021 238.501 34.1069C239.329 33.1851 239.743 31.9272 239.743 30.3335C239.743 28.7319 239.329 27.4741 238.501 26.5601C237.673 25.6382 236.501 25.1772 234.985 25.1772H232.606V35.478ZM244.712 22.9741H254.345V25.1772H247.161V29.0679H253.665V31.2476H247.161V35.478H254.345V37.7046H244.712V22.9741ZM264.177 34.5405H264.071L259.489 27.3804V37.7046H257.04V22.9741H259.372L264.141 30.6499L268.899 22.9741H271.126V37.7046H268.688V27.3804L264.177 34.5405ZM287.204 30.3335C287.204 31.771 286.911 33.0718 286.325 34.2358C285.747 35.3921 284.938 36.2983 283.899 36.9546C282.86 37.6108 281.688 37.939 280.384 37.939C279.087 37.939 277.919 37.6108 276.88 36.9546C275.841 36.2983 275.032 35.3921 274.454 34.2358C273.884 33.0718 273.598 31.771 273.598 30.3335C273.598 29.2476 273.766 28.2358 274.102 27.2983C274.446 26.353 274.911 25.5483 275.497 24.8843C276.091 24.2124 276.809 23.6851 277.653 23.3022C278.497 22.9194 279.407 22.728 280.384 22.728C281.688 22.728 282.86 23.0562 283.899 23.7124C284.938 24.3608 285.747 25.2671 286.325 26.4312C286.911 27.5874 287.204 28.8882 287.204 30.3335ZM283.489 34.2007C284.286 33.1929 284.684 31.9038 284.684 30.3335C284.684 28.7632 284.286 27.478 283.489 26.478C282.692 25.4702 281.657 24.9663 280.384 24.9663C279.102 24.9663 278.071 25.4663 277.29 26.4663C276.509 27.4663 276.118 28.7554 276.118 30.3335C276.118 31.9116 276.509 33.2046 277.29 34.2124C278.071 35.2124 279.102 35.7124 280.384 35.7124C281.657 35.7124 282.692 35.2085 283.489 34.2007Z" fill="white"/>
</g>
<defs>
<filter id="filter0_d" x="23.3379" y="4" width="335.817" height="54" filterUnits="userSpaceOnUse" color-interpolation-filters="sRGB">
<feFlood flood-opacity="0" result="BackgroundImageFix"/>
<feColorMatrix in="SourceAlpha" type="matrix" values="0 0 0 0 0 0 0 0 0 0 0 0 0 0 0 0 0 0 127 0" result="hardAlpha"/>
<feOffset dy="1"/>
<feGaussianBlur stdDeviation="0.5"/>
<feColorMatrix type="matrix" values="0 0 0 0 0 0 0 0 0 0 0 0 0 0 0 0 0 0 0.25 0"/>
<feBlend mode="normal" in2="BackgroundImageFix" result="effect1_dropShadow"/>
<feBlend mode="normal" in="SourceGraphic" in2="effect1_dropShadow" result="shape"/>
</filter>
<filter id="filter1_d" x="18.3379" y="0" width="345.817" height="64" filterUnits="userSpaceOnUse" color-interpolation-filters="sRGB">
<feFlood flood-opacity="0" result="BackgroundImageFix"/>
<feColorMatrix in="SourceAlpha" type="matrix" values="0 0 0 0 0 0 0 0 0 0 0 0 0 0 0 0 0 0 127 0" result="hardAlpha"/>
<feOffset dy="2"/>
<feGaussianBlur stdDeviation="3"/>
<feColorMatrix type="matrix" values="0 0 0 0 0 0 0 0 0 0 0 0 0 0 0 0 0 0 0.05 0"/>
<feBlend mode="normal" in2="BackgroundImageFix" result="effect1_dropShadow"/>
<feBlend mode="normal" in="SourceGraphic" in2="effect1_dropShadow" result="shape"/>
</filter>
</defs>
</svg>
