<svg width="249" height="46" viewBox="0 0 249 46" fill="none" xmlns="http://www.w3.org/2000/svg">
<g filter="url(#filter0_d)">
<g filter="url(#filter1_d)">
<rect x="6" y="4" width="237" height="34" rx="6" fill="#035B96"/>
</g>
<path d="M37.6875 25.2969V23.5547C38.6302 24.3099 39.6693 24.6875 40.8047 24.6875C41.3932 24.6875 41.8568 24.5807 42.1953 24.3672C42.5391 24.1536 42.7109 23.8333 42.7109 23.4062C42.7109 23.0417 42.6068 22.7656 42.3984 22.5781C42.1953 22.3854 41.8411 22.1927 41.3359 22L39.9141 21.4844C39.5443 21.3542 39.2266 21.2135 38.9609 21.0625C38.7005 20.9115 38.4635 20.7266 38.25 20.5078C38.0365 20.2891 37.875 20.0286 37.7656 19.7266C37.6615 19.4245 37.6094 19.0781 37.6094 18.6875C37.6094 17.8646 37.9245 17.2135 38.5547 16.7344C39.1901 16.2552 39.9792 16.0156 40.9219 16.0156C42.0625 16.0156 43.026 16.2812 43.8125 16.8125V18.5312C43.3385 18.1875 42.8776 17.9245 42.4297 17.7422C41.9818 17.5599 41.4896 17.4688 40.9531 17.4688C40.4323 17.4688 40.013 17.5729 39.6953 17.7812C39.3828 17.9844 39.2266 18.276 39.2266 18.6562C39.2266 18.9896 39.3255 19.25 39.5234 19.4375C39.7266 19.625 40.0547 19.7969 40.5078 19.9531L42.0859 20.5312C42.862 20.8125 43.4297 21.1797 43.7891 21.6328C44.1484 22.0859 44.3281 22.6667 44.3281 23.375C44.3281 24.2344 43.9974 24.9141 43.3359 25.4141C42.6745 25.9089 41.8307 26.1562 40.8047 26.1562C40.1797 26.1562 39.5885 26.0781 39.0312 25.9219C38.474 25.7656 38.026 25.5573 37.6875 25.2969ZM46.1094 23.7266C45.7031 22.9557 45.5 22.0755 45.5 21.0859C45.5 20.0964 45.7031 19.2161 46.1094 18.4453C46.5208 17.6745 47.0859 17.0781 47.8047 16.6562C48.5286 16.2292 49.3438 16.0156 50.25 16.0156C51.3229 16.0156 52.1927 16.2995 52.8594 16.8672V18.5938C52.4427 18.2188 52.0312 17.9453 51.625 17.7734C51.2188 17.5964 50.7656 17.5078 50.2656 17.5078C49.3333 17.5078 48.5859 17.8385 48.0234 18.5C47.4609 19.1562 47.1797 20.0182 47.1797 21.0859C47.1797 22.1432 47.4609 23.0026 48.0234 23.6641C48.5859 24.3255 49.3333 24.6562 50.2656 24.6562C51.2344 24.6562 52.099 24.2995 52.8594 23.5859V25.3125C52.1979 25.875 51.3281 26.1562 50.25 26.1562C49.3438 26.1562 48.5286 25.9453 47.8047 25.5234C47.0859 25.0964 46.5208 24.4974 46.1094 23.7266ZM61.3516 16.1797H63.0156V26H61.3516V21.6953H56.4062V26H54.7422V16.1797H56.4062V20.2266H61.3516V16.1797ZM65.1953 16.1797H71.6172V17.6484H66.8281V20.2422H71.1641V21.6953H66.8281V24.5156H71.6172V26H65.1953V16.1797ZM73.4141 26V16.1797H76.7266C78.1745 16.1797 79.3307 16.625 80.1953 17.5156C81.0651 18.4062 81.5 19.5964 81.5 21.0859C81.5 22.5755 81.0651 23.7682 80.1953 24.6641C79.3307 25.5547 78.1745 26 76.7266 26H73.4141ZM75.0781 24.5156H76.6641C77.6745 24.5156 78.4557 24.2109 79.0078 23.6016C79.5599 22.987 79.8359 22.1484 79.8359 21.0859C79.8359 20.0182 79.5599 19.1797 79.0078 18.5703C78.4557 17.9557 77.6745 17.6484 76.6641 17.6484H75.0781V24.5156ZM89.7969 25.1094C89.0938 25.8073 88.138 26.1562 86.9297 26.1562C85.7214 26.1562 84.763 25.8047 84.0547 25.1016C83.3464 24.3932 82.9922 23.3854 82.9922 22.0781V16.1797H84.6562V21.9062C84.6562 23.75 85.4141 24.6719 86.9297 24.6719C88.4401 24.6719 89.1953 23.75 89.1953 21.9062V16.1797H90.8594V22.0938C90.8594 23.401 90.5052 24.4062 89.7969 25.1094ZM92.8828 26V16.1797H94.5469V24.5156H99.2656V26H92.8828ZM100.961 16.1797H107.383V17.6484H102.594V20.2422H106.93V21.6953H102.594V24.5156H107.383V26H100.961V16.1797ZM116.508 18.2109L115.164 21.8438H117.852L116.508 18.2109ZM119.398 26L118.391 23.2812H114.633L113.625 26H111.945L115.719 16.1797H117.32L121.094 26H119.398ZM126.305 22.3359H124.172V26H122.508V16.1797H126.305C127.346 16.1797 128.167 16.4479 128.766 16.9844C129.365 17.5208 129.664 18.2812 129.664 19.2656C129.664 20.2448 129.362 21.0026 128.758 21.5391C128.159 22.0703 127.341 22.3359 126.305 22.3359ZM126.273 20.8984C126.82 20.8984 127.247 20.75 127.555 20.4531C127.862 20.151 128.016 19.7552 128.016 19.2656C128.016 18.7656 127.865 18.3672 127.562 18.0703C127.266 17.7682 126.836 17.6172 126.273 17.6172H124.172V20.8984H126.273ZM135.023 22.3359H132.891V26H131.227V16.1797H135.023C136.065 16.1797 136.885 16.4479 137.484 16.9844C138.083 17.5208 138.383 18.2812 138.383 19.2656C138.383 20.2448 138.081 21.0026 137.477 21.5391C136.878 22.0703 136.06 22.3359 135.023 22.3359ZM134.992 20.8984C135.539 20.8984 135.966 20.75 136.273 20.4531C136.581 20.151 136.734 19.7552 136.734 19.2656C136.734 18.7656 136.583 18.3672 136.281 18.0703C135.984 17.7682 135.555 17.6172 134.992 17.6172H132.891V20.8984H134.992ZM148.492 21.0859C148.492 22.0443 148.297 22.9115 147.906 23.6875C147.521 24.4583 146.982 25.0625 146.289 25.5C145.596 25.9375 144.815 26.1562 143.945 26.1562C143.081 26.1562 142.302 25.9375 141.609 25.5C140.917 25.0625 140.378 24.4583 139.992 23.6875C139.612 22.9115 139.422 22.0443 139.422 21.0859C139.422 20.362 139.534 19.6875 139.758 19.0625C139.987 18.4323 140.297 17.8958 140.688 17.4531C141.083 17.0052 141.562 16.6536 142.125 16.3984C142.688 16.1432 143.294 16.0156 143.945 16.0156C144.815 16.0156 145.596 16.2344 146.289 16.6719C146.982 17.1042 147.521 17.7083 147.906 18.4844C148.297 19.2552 148.492 20.1224 148.492 21.0859ZM146.016 23.6641C146.547 22.9922 146.812 22.1328 146.812 21.0859C146.812 20.0391 146.547 19.1823 146.016 18.5156C145.484 17.8438 144.794 17.5078 143.945 17.5078C143.091 17.5078 142.404 17.8411 141.883 18.5078C141.362 19.1745 141.102 20.0339 141.102 21.0859C141.102 22.138 141.362 23 141.883 23.6719C142.404 24.3385 143.091 24.6719 143.945 24.6719C144.794 24.6719 145.484 24.3359 146.016 23.6641ZM151.797 16.1797V26H150.133V16.1797H151.797ZM161.883 16.1797V26H160.602L155.578 18.8516V26H153.977V16.1797H155.547L160.281 22.9922V16.1797H161.883ZM163.445 17.6484V16.1797H171.641V17.6484H168.375V26H166.711V17.6484H163.445ZM177.969 23.8906H177.898L174.844 19.1172V26H173.211V16.1797H174.766L177.945 21.2969L181.117 16.1797H182.602V26H180.977V19.1172L177.969 23.8906ZM184.773 16.1797H191.195V17.6484H186.406V20.2422H190.742V21.6953H186.406V24.5156H191.195V26H184.773V16.1797ZM200.898 16.1797V26H199.617L194.594 18.8516V26H192.992V16.1797H194.562L199.297 22.9922V16.1797H200.898ZM202.461 17.6484V16.1797H210.656V17.6484H207.391V26H205.727V17.6484H202.461Z" fill="white"/>
</g>
<defs>
<filter id="filter0_d" x="5" y="4" width="239" height="36" filterUnits="userSpaceOnUse" color-interpolation-filters="sRGB">
<feFlood flood-opacity="0" result="BackgroundImageFix"/>
<feColorMatrix in="SourceAlpha" type="matrix" values="0 0 0 0 0 0 0 0 0 0 0 0 0 0 0 0 0 0 127 0"/>
<feOffset dy="1"/>
<feGaussianBlur stdDeviation="0.5"/>
<feColorMatrix type="matrix" values="0 0 0 0 0 0 0 0 0 0 0 0 0 0 0 0 0 0 0.25 0"/>
<feBlend mode="normal" in2="BackgroundImageFix" result="effect1_dropShadow"/>
<feBlend mode="normal" in="SourceGraphic" in2="effect1_dropShadow" result="shape"/>
</filter>
<filter id="filter1_d" x="0" y="0" width="249" height="46" filterUnits="userSpaceOnUse" color-interpolation-filters="sRGB">
<feFlood flood-opacity="0" result="BackgroundImageFix"/>
<feColorMatrix in="SourceAlpha" type="matrix" values="0 0 0 0 0 0 0 0 0 0 0 0 0 0 0 0 0 0 127 0"/>
<feOffset dy="2"/>
<feGaussianBlur stdDeviation="3"/>
<feColorMatrix type="matrix" values="0 0 0 0 0 0 0 0 0 0 0 0 0 0 0 0 0 0 0.05 0"/>
<feBlend mode="normal" in2="BackgroundImageFix" result="effect1_dropShadow"/>
<feBlend mode="normal" in="SourceGraphic" in2="effect1_dropShadow" result="shape"/>
</filter>
</defs>
</svg>
