<svg width="13" height="13" viewBox="0 0 13 13" fill="none" xmlns="http://www.w3.org/2000/svg">
<path d="M8.85417 7.79167H8.29458L8.09625 7.60042C8.79042 6.79292 9.20833 5.74458 9.20833 4.60417C9.20833 2.06125 7.14708 0 4.60417 0C2.06125 0 0 2.06125 0 4.60417C0 7.14708 2.06125 9.20833 4.60417 9.20833C5.74458 9.20833 6.79292 8.79042 7.60042 8.09625L7.79167 8.29458V8.85417L11.3333 12.3888L12.3888 11.3333L8.85417 7.79167ZM4.60417 7.79167C2.84042 7.79167 1.41667 6.36792 1.41667 4.60417C1.41667 2.84042 2.84042 1.41667 4.60417 1.41667C6.36792 1.41667 7.79167 2.84042 7.79167 4.60417C7.79167 6.36792 6.36792 7.79167 4.60417 7.79167Z" fill="#5F5F5F"/>
</svg>
