<svg width="137" height="150" viewBox="0 0 137 150" fill="none" xmlns="http://www.w3.org/2000/svg">
<path d="M68.1759 68.0435C65.4144 68.0435 63.1758 70.282 63.1758 73.0436C63.1755 75.0401 64.3488 76.7584 66.0407 77.56V83.6382C66.0407 84.8171 66.9964 85.773 68.1756 85.773C69.3548 85.773 70.3105 84.8174 70.3105 83.6382V77.56C72.0026 76.7584 73.176 75.0401 73.176 73.0436C73.176 70.282 70.9374 68.0435 68.1759 68.0435Z" fill="#035B96"/>
<path d="M121.453 32.5632C112.263 28.9266 104.968 22.2288 100.913 13.704C99.8107 11.3857 97.4271 9.88745 94.8404 9.88745H41.3438C38.7574 9.88745 36.3738 11.3854 35.2711 13.704C31.2164 22.2288 23.9218 28.9266 14.7316 32.5632C12.1538 33.5831 10.4883 36.0405 10.4883 38.8234V51.8347C10.4883 68.8911 15.462 85.74 24.8719 100.561C34.3731 115.526 48.1409 128.034 64.6857 136.729L64.9553 136.871C65.9376 137.387 67.0149 137.646 68.0924 137.646C69.1693 137.646 70.2469 137.387 71.2286 136.872L71.499 136.729C88.0442 128.033 101.812 115.526 111.313 100.561C120.723 85.7397 125.696 68.8908 125.696 51.8347V38.8234C125.696 36.0402 124.03 33.5831 121.453 32.5632ZM121.427 51.835C121.427 68.0792 116.683 84.1369 107.709 98.2726C98.6066 112.609 85.3984 124.601 69.5133 132.95L69.2429 133.092C68.5225 133.471 67.6623 133.471 66.9416 133.092L66.6721 132.951C50.7864 124.601 37.5782 112.61 28.4757 98.2726C19.5012 84.1372 14.7574 68.0792 14.7574 51.8347V38.8234C14.7574 37.8036 15.3639 36.9044 16.3022 36.5332C26.5005 32.4979 34.6061 25.0416 39.1263 15.5379C39.525 14.6992 40.3954 14.1572 41.3435 14.1572H94.8407C95.7888 14.1572 96.6589 14.6992 97.0579 15.5379C101.578 25.0416 109.684 32.4979 119.882 36.5335C120.821 36.9047 121.427 37.8039 121.427 38.8237V51.835Z" fill="#035B96"/>
<path d="M132.159 72.0937C131.009 71.8335 129.866 72.5551 129.606 73.7053C123.104 102.468 103.303 127.412 75.279 142.142L68.7666 145.565C68.3462 145.786 67.8441 145.786 67.4237 145.565L60.9113 142.142C32.8431 127.389 13.032 102.402 6.55764 73.5872C6.29953 72.437 5.15696 71.7137 4.00705 71.9724C2.85686 72.2308 2.13381 73.3728 2.39221 74.523C9.14104 104.561 29.7464 130.585 58.9249 145.921L65.4373 149.344C66.2696 149.781 67.1823 150 68.0951 150C69.0077 150 69.9209 149.781 70.753 149.344L77.2654 145.921C106.398 130.609 126.993 104.63 133.771 74.6463C134.03 73.4964 133.309 72.3535 132.159 72.0937Z" fill="#035B96"/>
<path d="M131.116 24.4269C119.716 23.2242 110.753 15.2229 109.319 4.96963C108.922 2.13633 106.487 0 103.655 0H32.5269C29.6947 0 27.2599 2.13633 26.8635 4.96963C25.4285 15.2232 16.4654 23.2242 5.0666 24.4269C2.17822 24.7315 0 27.1717 0 30.1025V53.0256C0 56.3566 0.172558 59.7243 0.512988 63.0354C0.626074 64.1341 1.55303 64.952 2.63408 64.952C2.70703 64.952 2.78086 64.9482 2.85498 64.9406C4.02773 64.8202 4.88086 63.7717 4.76016 62.5989C4.43467 59.4322 4.26943 56.2113 4.26943 53.0256V30.1025C4.26943 29.3745 4.81641 28.7461 5.51455 28.6726C18.8669 27.264 29.3845 17.7601 31.0919 5.56113C31.1968 4.8126 31.8 4.26943 32.5269 4.26943H103.655C104.382 4.26943 104.985 4.8126 105.09 5.56113C106.797 17.7601 117.315 27.2637 130.667 28.6726C131.365 28.7461 131.912 29.3745 131.912 30.1025V53.0256C131.912 56.1776 131.75 59.3651 131.432 62.5002C131.312 63.673 132.167 64.7206 133.339 64.8398C134.512 64.96 135.56 64.1048 135.679 62.932C136.013 59.6543 136.182 56.3215 136.182 53.0256V30.1025C136.182 27.1717 134.004 24.7315 131.116 24.4269Z" fill="#035B96"/>
<path d="M92.5468 53.2808H89.0367V43.0907C89.0367 31.5891 79.6796 22.2319 68.1776 22.2319C56.676 22.2319 47.3186 31.5891 47.3186 43.0907V53.2808H43.8088C40.0652 53.2808 37.0195 56.3265 37.0195 60.07V90.6352C37.0195 94.3787 40.0652 97.4244 43.8088 97.4244H92.5468C96.2903 97.4244 99.336 94.3787 99.336 90.6352V60.07C99.336 56.3265 96.2903 53.2808 92.5468 53.2808ZM51.5883 43.091C51.5883 33.9437 59.0303 26.5017 68.1779 26.5017C77.3256 26.5017 84.7676 33.9437 84.7676 43.091V53.2811H51.5883V43.091ZM95.0666 90.6352C95.0666 92.0244 93.936 93.155 92.5468 93.155H43.8088C42.4192 93.155 41.289 92.0244 41.289 90.6352V60.07C41.289 58.6808 42.4195 57.5502 43.8088 57.5502H92.5468C93.936 57.5502 95.0666 58.6805 95.0666 60.07V90.6352Z" fill="#035B96"/>
</svg>
