<svg width="280" height="31" viewBox="0 0 280 31" fill="none" xmlns="http://www.w3.org/2000/svg">
<g filter="url(#filter0_d)">
<rect x="1" width="278" height="29" rx="6" fill="#035B96"/>
</g>
<path d="M114.252 19.2969V17.5547C115.195 18.3099 116.234 18.6875 117.369 18.6875C117.958 18.6875 118.421 18.5807 118.76 18.3672C119.103 18.1536 119.275 17.8333 119.275 17.4062C119.275 17.0417 119.171 16.7656 118.963 16.5781C118.76 16.3854 118.406 16.1927 117.9 16L116.478 15.4844C116.109 15.3542 115.791 15.2135 115.525 15.0625C115.265 14.9115 115.028 14.7266 114.814 14.5078C114.601 14.2891 114.439 14.0286 114.33 13.7266C114.226 13.4245 114.174 13.0781 114.174 12.6875C114.174 11.8646 114.489 11.2135 115.119 10.7344C115.754 10.2552 116.544 10.0156 117.486 10.0156C118.627 10.0156 119.59 10.2812 120.377 10.8125V12.5312C119.903 12.1875 119.442 11.9245 118.994 11.7422C118.546 11.5599 118.054 11.4688 117.517 11.4688C116.997 11.4688 116.577 11.5729 116.26 11.7812C115.947 11.9844 115.791 12.276 115.791 12.6562C115.791 12.9896 115.89 13.25 116.088 13.4375C116.291 13.625 116.619 13.7969 117.072 13.9531L118.65 14.5312C119.426 14.8125 119.994 15.1797 120.353 15.6328C120.713 16.0859 120.892 16.6667 120.892 17.375C120.892 18.2344 120.562 18.9141 119.9 19.4141C119.239 19.9089 118.395 20.1562 117.369 20.1562C116.744 20.1562 116.153 20.0781 115.596 19.9219C115.038 19.7656 114.59 19.5573 114.252 19.2969ZM124.252 10.1797V20H122.588V10.1797H124.252ZM130.658 18.6875C131.439 18.6875 132.085 18.474 132.596 18.0469V16.1562H130.736V14.7656H134.127V18.7031C133.669 19.1875 133.135 19.5521 132.525 19.7969C131.921 20.0365 131.288 20.1562 130.627 20.1562C129.195 20.1562 128.049 19.6875 127.189 18.75C126.335 17.8125 125.908 16.5911 125.908 15.0859C125.908 14.112 126.122 13.237 126.549 12.4609C126.976 11.6849 127.562 11.0833 128.307 10.6562C129.057 10.2292 129.892 10.0156 130.814 10.0156C131.939 10.0156 132.869 10.2995 133.603 10.8672V12.5938C133.161 12.2188 132.718 11.9453 132.275 11.7734C131.838 11.5964 131.351 11.5078 130.814 11.5078C129.861 11.5078 129.085 11.8385 128.486 12.5C127.887 13.1615 127.588 14.0234 127.588 15.0859C127.588 16.1589 127.861 17.0286 128.408 17.6953C128.96 18.3568 129.71 18.6875 130.658 18.6875ZM143.916 10.1797V20H142.635L137.611 12.8516V20H136.01V10.1797H137.58L142.314 16.9922V10.1797H143.916ZM151.283 10.1797V20H149.619V10.1797H151.283ZM161.369 10.1797V20H160.088L155.064 12.8516V20H153.463V10.1797H155.033L159.767 16.9922V10.1797H161.369Z" fill="white"/>
<defs>
<filter id="filter0_d" x="0" y="0" width="280" height="31" filterUnits="userSpaceOnUse" color-interpolation-filters="sRGB">
<feFlood flood-opacity="0" result="BackgroundImageFix"/>
<feColorMatrix in="SourceAlpha" type="matrix" values="0 0 0 0 0 0 0 0 0 0 0 0 0 0 0 0 0 0 127 0"/>
<feOffset dy="1"/>
<feGaussianBlur stdDeviation="0.5"/>
<feColorMatrix type="matrix" values="0 0 0 0 0 0 0 0 0 0 0 0 0 0 0 0 0 0 0.25 0"/>
<feBlend mode="normal" in2="BackgroundImageFix" result="effect1_dropShadow"/>
<feBlend mode="normal" in="SourceGraphic" in2="effect1_dropShadow" result="shape"/>
</filter>
</defs>
</svg>
