<svg width="177" height="31" viewBox="0 0 177 31" fill="none" xmlns="http://www.w3.org/2000/svg">
<g filter="url(#filter0_d)">
<rect x="1" width="175" height="29" rx="6" fill="#035B96"/>
<path d="M66.8906 19.2969V17.5547C67.8333 18.3099 68.8724 18.6875 70.0078 18.6875C70.5964 18.6875 71.0599 18.5807 71.3984 18.3672C71.7422 18.1536 71.9141 17.8333 71.9141 17.4062C71.9141 17.0417 71.8099 16.7656 71.6016 16.5781C71.3984 16.3854 71.0443 16.1927 70.5391 16L69.1172 15.4844C68.7474 15.3542 68.4297 15.2135 68.1641 15.0625C67.9036 14.9115 67.6667 14.7266 67.4531 14.5078C67.2396 14.2891 67.0781 14.0286 66.9688 13.7266C66.8646 13.4245 66.8125 13.0781 66.8125 12.6875C66.8125 11.8646 67.1276 11.2135 67.7578 10.7344C68.3932 10.2552 69.1823 10.0156 70.125 10.0156C71.2656 10.0156 72.2292 10.2812 73.0156 10.8125V12.5312C72.5417 12.1875 72.0807 11.9245 71.6328 11.7422C71.1849 11.5599 70.6927 11.4688 70.1562 11.4688C69.6354 11.4688 69.2161 11.5729 68.8984 11.7812C68.5859 11.9844 68.4297 12.276 68.4297 12.6562C68.4297 12.9896 68.5286 13.25 68.7266 13.4375C68.9297 13.625 69.2578 13.7969 69.7109 13.9531L71.2891 14.5312C72.0651 14.8125 72.6328 15.1797 72.9922 15.6328C73.3516 16.0859 73.5312 16.6667 73.5312 17.375C73.5312 18.2344 73.2005 18.9141 72.5391 19.4141C71.8776 19.9089 71.0339 20.1562 70.0078 20.1562C69.3828 20.1562 68.7917 20.0781 68.2344 19.9219C67.6771 19.7656 67.2292 19.5573 66.8906 19.2969ZM81.0391 12.8984V20H79.4375V19.3281C79.2344 19.5677 78.9635 19.7656 78.625 19.9219C78.2865 20.0781 77.9219 20.1562 77.5312 20.1562C76.7344 20.1562 76.1198 19.9193 75.6875 19.4453C75.2552 18.9714 75.0391 18.3307 75.0391 17.5234V12.8984H76.6328V17.25C76.6328 17.7031 76.7448 18.0599 76.9688 18.3203C77.1927 18.5755 77.5234 18.7031 77.9609 18.7031C78.3099 18.7031 78.6198 18.6016 78.8906 18.3984C79.1667 18.1901 79.349 17.9141 79.4375 17.5703V12.8984H81.0391ZM84.625 19.3906V20H83.0234V9.60156H84.625V13.5078C84.7917 13.2891 85.0417 13.1068 85.375 12.9609C85.7083 12.8099 86.0599 12.7344 86.4297 12.7344C87.0964 12.7344 87.6823 12.9036 88.1875 13.2422C88.6979 13.5755 89.0807 14.0208 89.3359 14.5781C89.5964 15.1354 89.7266 15.7578 89.7266 16.4453C89.7266 17.138 89.5964 17.763 89.3359 18.3203C89.0807 18.8776 88.7005 19.3229 88.1953 19.6562C87.6901 19.9896 87.1016 20.1562 86.4297 20.1562C86.0599 20.1562 85.7083 20.0833 85.375 19.9375C85.0417 19.7865 84.7917 19.6042 84.625 19.3906ZM84.625 15.1016V17.7891C84.7552 18.0703 84.9609 18.2995 85.2422 18.4766C85.5286 18.6484 85.8333 18.7344 86.1562 18.7344C86.7552 18.7344 87.2318 18.5208 87.5859 18.0938C87.9453 17.6615 88.125 17.112 88.125 16.4453C88.125 15.7786 87.9453 15.2318 87.5859 14.8047C87.2318 14.3724 86.7552 14.1562 86.1562 14.1562C85.8333 14.1562 85.5286 14.2448 85.2422 14.4219C84.9609 14.5938 84.7552 14.8203 84.625 15.1016ZM96.4609 13.6797C97.0078 13.0495 97.7109 12.7344 98.5703 12.7344C99.2839 12.7344 99.8464 12.9714 100.258 13.4453C100.669 13.9193 100.875 14.5625 100.875 15.375V20H99.2734V15.6328C99.2734 15.1797 99.1745 14.8255 98.9766 14.5703C98.7786 14.3099 98.4896 14.1797 98.1094 14.1797C97.8021 14.1797 97.5286 14.2734 97.2891 14.4609C97.0495 14.6432 96.901 14.901 96.8438 15.2344V20H95.2422V15.6328C95.2422 15.1797 95.1432 14.8255 94.9453 14.5703C94.7474 14.3099 94.4583 14.1797 94.0781 14.1797C93.7708 14.1797 93.4974 14.2734 93.2578 14.4609C93.0182 14.6432 92.8698 14.901 92.8125 15.2344V20H91.2109V12.8984H92.8125V13.4844C92.9844 13.25 93.2266 13.0677 93.5391 12.9375C93.8516 12.8021 94.2005 12.7344 94.5859 12.7344C94.9661 12.7344 95.3255 12.8229 95.6641 13C96.0078 13.1771 96.2734 13.4036 96.4609 13.6797ZM104.25 10.0625C104.448 10.25 104.547 10.4792 104.547 10.75C104.547 11.0208 104.448 11.2526 104.25 11.4453C104.057 11.6328 103.826 11.7266 103.555 11.7266C103.284 11.7266 103.049 11.6328 102.852 11.4453C102.659 11.2526 102.562 11.0208 102.562 10.75C102.562 10.4792 102.659 10.25 102.852 10.0625C103.049 9.86979 103.284 9.77344 103.555 9.77344C103.826 9.77344 104.057 9.86979 104.25 10.0625ZM104.359 12.8984V20H102.758V12.8984H104.359ZM108.781 14.2266V20H107.188V14.2266H105.742V12.8984H107.188V10.9922H108.781V12.8984H110.383V14.2266H108.781Z" fill="white"/>
</g>
<defs>
<filter id="filter0_d" x="0" y="0" width="177" height="31" filterUnits="userSpaceOnUse" color-interpolation-filters="sRGB">
<feFlood flood-opacity="0" result="BackgroundImageFix"/>
<feColorMatrix in="SourceAlpha" type="matrix" values="0 0 0 0 0 0 0 0 0 0 0 0 0 0 0 0 0 0 127 0"/>
<feOffset dy="1"/>
<feGaussianBlur stdDeviation="0.5"/>
<feColorMatrix type="matrix" values="0 0 0 0 0 0 0 0 0 0 0 0 0 0 0 0 0 0 0.25 0"/>
<feBlend mode="normal" in2="BackgroundImageFix" result="effect1_dropShadow"/>
<feBlend mode="normal" in="SourceGraphic" in2="effect1_dropShadow" result="shape"/>
</filter>
</defs>
</svg>
