<svg width="114" height="23" viewBox="0 0 114 23" fill="none" xmlns="http://www.w3.org/2000/svg">
<g filter="url(#filter0_d)">
<rect x="1" width="112" height="20.6582" rx="5" fill="#035B96"/>
<path d="M22.6289 13.0703C22.069 13.0703 21.6094 12.9023 21.25 12.5664C20.888 12.2201 20.707 11.7135 20.707 11.0469V8.08984H21.332V10.9766C21.332 11.487 21.4453 11.8711 21.6719 12.1289C21.901 12.3841 22.2201 12.5117 22.6289 12.5117C23.0378 12.5117 23.3555 12.3841 23.582 12.1289C23.8086 11.8711 23.9219 11.487 23.9219 10.9766V8.08984H24.5547V11.0547C24.5547 11.7188 24.3711 12.2227 24.0039 12.5664C23.6445 12.9023 23.1862 13.0703 22.6289 13.0703ZM27.4609 11.0312H26.2773V13H25.6484V8.08984H27.4609C27.9661 8.08984 28.3659 8.21745 28.6602 8.47266C28.9544 8.72526 29.1016 9.08724 29.1016 9.55859C29.1016 10.0299 28.9544 10.3932 28.6602 10.6484C28.3659 10.9036 27.9661 11.0312 27.4609 11.0312ZM27.4531 10.4727C27.7786 10.4727 28.0299 10.3906 28.207 10.2266C28.3867 10.0599 28.4766 9.83724 28.4766 9.55859C28.4766 9.27734 28.3867 9.05469 28.207 8.89062C28.0299 8.72396 27.7786 8.64062 27.4531 8.64062H26.2773V10.4727H27.4531ZM29.9453 13V8.08984H30.5742V12.4336H33.0781V13H29.9453ZM37.2383 8.72656C37.6576 9.19271 37.8672 9.79818 37.8672 10.543C37.8672 11.2878 37.6576 11.8932 37.2383 12.3594C36.8242 12.8333 36.293 13.0703 35.6445 13.0703C35.0117 13.0703 34.4818 12.8333 34.0547 12.3594C33.638 11.8828 33.4297 11.2773 33.4297 10.543C33.4297 9.80859 33.638 9.20312 34.0547 8.72656C34.4818 8.2526 35.0117 8.01562 35.6445 8.01562C36.293 8.01562 36.8242 8.2526 37.2383 8.72656ZM37.2383 10.543C37.2383 9.97005 37.0911 9.5013 36.7969 9.13672C36.5 8.76953 36.1159 8.58594 35.6445 8.58594C35.1784 8.58594 34.7969 8.76953 34.5 9.13672C34.2083 9.4987 34.0625 9.96745 34.0625 10.543C34.0625 11.1211 34.2083 11.5911 34.5 11.9531C34.7969 12.3203 35.1784 12.5039 35.6445 12.5039C36.1159 12.5039 36.5 12.3203 36.7969 11.9531C37.0911 11.5885 37.2383 11.1185 37.2383 10.543ZM40.375 8.87109L39.5742 10.9688H41.1836L40.375 8.87109ZM41.9609 13L41.3906 11.5195H39.3672L38.8086 13H38.168L40.0898 8.08984H40.6797L42.6016 13H41.9609ZM43.3516 13V8.08984H44.9258C45.6367 8.08984 46.2122 8.3138 46.6523 8.76172C47.0898 9.19922 47.3086 9.79297 47.3086 10.543C47.3086 11.293 47.0898 11.8906 46.6523 12.3359C46.2096 12.7786 45.6341 13 44.9258 13H43.3516ZM43.9805 12.4336H44.918C45.4701 12.4336 45.9023 12.263 46.2148 11.9219C46.5299 11.5807 46.6875 11.1211 46.6875 10.543C46.6875 9.97266 46.5299 9.51432 46.2148 9.16797C45.8997 8.82161 45.4674 8.64844 44.918 8.64844H43.9805V12.4336ZM49.9609 13V8.08984H50.5898V12.4336H53.0938V13H49.9609ZM55.7812 8.87109L54.9805 10.9688H56.5898L55.7812 8.87109ZM57.3672 13L56.7969 11.5195H54.7734L54.2148 13H53.5742L55.4961 8.08984H56.0859L58.0078 13H57.3672ZM61.2773 10.457C61.5378 10.5247 61.75 10.668 61.9141 10.8867C62.0807 11.1029 62.1641 11.3464 62.1641 11.6172C62.1641 12.0599 62.0182 12.401 61.7266 12.6406C61.4375 12.8802 61.0391 13 60.5312 13H58.7578V8.08984H60.3711C60.8841 8.08984 61.2826 8.20312 61.5664 8.42969C61.8529 8.65365 61.9961 8.97396 61.9961 9.39062C61.9961 9.66406 61.9271 9.89453 61.7891 10.082C61.6536 10.2669 61.4831 10.3919 61.2773 10.457ZM59.3711 10.2227H60.3711C60.6992 10.2227 60.9505 10.1562 61.125 10.0234C61.2995 9.89062 61.3867 9.69141 61.3867 9.42578C61.3867 8.90234 61.0482 8.64062 60.3711 8.64062H59.3711V10.2227ZM59.3711 10.7539V12.4492H60.5312C60.8568 12.4492 61.1068 12.3737 61.2812 12.2227C61.4583 12.069 61.5469 11.862 61.5469 11.6016C61.5469 11.3385 61.4596 11.1315 61.2852 10.9805C61.1107 10.8294 60.8594 10.7539 60.5312 10.7539H59.3711ZM65.457 8.64062V10.3828H66.6094C66.9297 10.3828 67.1797 10.306 67.3594 10.1523C67.5417 9.99609 67.6328 9.78255 67.6328 9.51172C67.6328 9.24089 67.5417 9.02865 67.3594 8.875C67.1797 8.71875 66.9297 8.64062 66.6094 8.64062H65.457ZM64.8281 13V8.08984H66.625C67.1302 8.08984 67.5286 8.21354 67.8203 8.46094C68.112 8.70573 68.2578 9.05599 68.2578 9.51172C68.2578 9.90495 68.1471 10.2201 67.9258 10.457C67.707 10.694 67.4023 10.8398 67.0117 10.8945L68.457 13H67.7383L66.332 10.9219H65.457V13H64.8281ZM69.2422 8.08984H72.3672V8.64844H69.8633V10.1992H72.1367V10.7617H69.8633V12.4336H72.3672V13H69.2422V8.08984ZM75.1719 11.0312H73.9883V13H73.3594V8.08984H75.1719C75.6771 8.08984 76.0768 8.21745 76.3711 8.47266C76.6654 8.72526 76.8125 9.08724 76.8125 9.55859C76.8125 10.0299 76.6654 10.3932 76.3711 10.6484C76.0768 10.9036 75.6771 11.0312 75.1719 11.0312ZM75.1641 10.4727C75.4896 10.4727 75.7409 10.3906 75.918 10.2266C76.0977 10.0599 76.1875 9.83724 76.1875 9.55859C76.1875 9.27734 76.0977 9.05469 75.918 8.89062C75.7409 8.72396 75.4896 8.64062 75.1641 8.64062H73.9883V10.4727H75.1641ZM81.1758 8.72656C81.5951 9.19271 81.8047 9.79818 81.8047 10.543C81.8047 11.2878 81.5951 11.8932 81.1758 12.3594C80.7617 12.8333 80.2305 13.0703 79.582 13.0703C78.9492 13.0703 78.4193 12.8333 77.9922 12.3594C77.5755 11.8828 77.3672 11.2773 77.3672 10.543C77.3672 9.80859 77.5755 9.20312 77.9922 8.72656C78.4193 8.2526 78.9492 8.01562 79.582 8.01562C80.2305 8.01562 80.7617 8.2526 81.1758 8.72656ZM81.1758 10.543C81.1758 9.97005 81.0286 9.5013 80.7344 9.13672C80.4375 8.76953 80.0534 8.58594 79.582 8.58594C79.1159 8.58594 78.7344 8.76953 78.4375 9.13672C78.1458 9.4987 78 9.96745 78 10.543C78 11.1211 78.1458 11.5911 78.4375 11.9531C78.7344 12.3203 79.1159 12.5039 79.582 12.5039C80.0534 12.5039 80.4375 12.3203 80.7344 11.9531C81.0286 11.5885 81.1758 11.1185 81.1758 10.543ZM83.3164 8.64062V10.3828H84.4688C84.7891 10.3828 85.0391 10.306 85.2188 10.1523C85.401 9.99609 85.4922 9.78255 85.4922 9.51172C85.4922 9.24089 85.401 9.02865 85.2188 8.875C85.0391 8.71875 84.7891 8.64062 84.4688 8.64062H83.3164ZM82.6875 13V8.08984H84.4844C84.9896 8.08984 85.388 8.21354 85.6797 8.46094C85.9714 8.70573 86.1172 9.05599 86.1172 9.51172C86.1172 9.90495 86.0065 10.2201 85.7852 10.457C85.5664 10.694 85.2617 10.8398 84.8711 10.8945L86.3164 13H85.5977L84.1914 10.9219H83.3164V13H82.6875ZM86.6445 8.64844V8.08984H90.7031V8.64844H88.9922V13H88.3594V8.64844H86.6445ZM91.2734 12.6172V11.9375C91.7214 12.3203 92.2357 12.5117 92.8164 12.5117C93.1393 12.5117 93.3945 12.444 93.582 12.3086C93.7721 12.1732 93.8672 11.9818 93.8672 11.7344C93.8672 11.5339 93.806 11.3763 93.6836 11.2617C93.5638 11.1445 93.3633 11.0273 93.082 10.9102L92.3594 10.6328C92.0729 10.5208 91.8177 10.3685 91.5938 10.1758C91.3698 9.97526 91.2578 9.6849 91.2578 9.30469C91.2578 8.88021 91.4154 8.5599 91.7305 8.34375C92.0482 8.125 92.4154 8.01562 92.832 8.01562C93.4023 8.01562 93.8724 8.14844 94.2422 8.41406V9.07812C93.8151 8.73698 93.3477 8.56641 92.8398 8.56641C92.556 8.56641 92.3242 8.63021 92.1445 8.75781C91.9648 8.88281 91.875 9.0625 91.875 9.29688C91.875 9.49219 91.9349 9.64583 92.0547 9.75781C92.1745 9.86979 92.3594 9.97135 92.6094 10.0625L93.3867 10.3672C93.7617 10.513 94.0365 10.694 94.2109 10.9102C94.3854 11.1237 94.4727 11.3958 94.4727 11.7266C94.4727 12.1432 94.3151 12.4714 94 12.7109C93.6849 12.9505 93.2904 13.0703 92.8164 13.0703C92.4935 13.0703 92.1979 13.0299 91.9297 12.9492C91.6615 12.8659 91.4427 12.7552 91.2734 12.6172Z" fill="white"/>
</g>
<defs>
<filter id="filter0_d" x="0" y="0" width="114" height="22.6582" filterUnits="userSpaceOnUse" color-interpolation-filters="sRGB">
<feFlood flood-opacity="0" result="BackgroundImageFix"/>
<feColorMatrix in="SourceAlpha" type="matrix" values="0 0 0 0 0 0 0 0 0 0 0 0 0 0 0 0 0 0 127 0"/>
<feOffset dy="1"/>
<feGaussianBlur stdDeviation="0.5"/>
<feColorMatrix type="matrix" values="0 0 0 0 0 0 0 0 0 0 0 0 0 0 0 0 0 0 0.25 0"/>
<feBlend mode="normal" in2="BackgroundImageFix" result="effect1_dropShadow"/>
<feBlend mode="normal" in="SourceGraphic" in2="effect1_dropShadow" result="shape"/>
</filter>
</defs>
</svg>
