<svg width="45" height="14" viewBox="0 0 45 14" fill="none" xmlns="http://www.w3.org/2000/svg">
<rect width="45" height="14" rx="4" fill="#035B96"/>
<path d="M14.5107 10H13.5195L11.2002 3.8623H12.2891L14.0322 8.65234L15.7705 3.8623H16.8301L14.5107 10ZM18.5781 3.78906C18.7018 3.90625 18.7637 4.04948 18.7637 4.21875C18.7637 4.38802 18.7018 4.53288 18.5781 4.65332C18.4577 4.77051 18.3128 4.8291 18.1436 4.8291C17.9743 4.8291 17.8278 4.77051 17.7041 4.65332C17.5837 4.53288 17.5234 4.38802 17.5234 4.21875C17.5234 4.04948 17.5837 3.90625 17.7041 3.78906C17.8278 3.66862 17.9743 3.6084 18.1436 3.6084C18.3128 3.6084 18.4577 3.66862 18.5781 3.78906ZM18.6465 5.56152V10H17.6455V5.56152H18.6465ZM21.6201 6.29883C21.3792 6.29883 21.1644 6.37695 20.9756 6.5332C20.7868 6.68945 20.6615 6.92546 20.5996 7.24121H22.5332C22.5169 6.96126 22.429 6.73503 22.2695 6.5625C22.11 6.38672 21.8936 6.29883 21.6201 6.29883ZM23.1826 9.71191C22.818 9.96908 22.3477 10.0977 21.7715 10.0977C21.1204 10.0977 20.5898 9.89095 20.1797 9.47754C19.7728 9.06413 19.5693 8.51237 19.5693 7.82227C19.5693 7.13216 19.7614 6.56576 20.1455 6.12305C20.5296 5.68034 21.0179 5.45898 21.6104 5.45898C22.2093 5.45898 22.6699 5.65592 22.9922 6.0498C23.3177 6.44368 23.4805 6.97428 23.4805 7.6416V7.99805H20.5508C20.5898 8.4082 20.7314 8.71745 20.9756 8.92578C21.2197 9.13411 21.5322 9.23828 21.9131 9.23828C22.154 9.23828 22.3721 9.20736 22.5674 9.14551C22.766 9.0804 22.971 8.97461 23.1826 8.82812V9.71191ZM27.543 5.56152L28.3242 8.71094L29.1836 5.56152H30.1504L28.8613 10H27.8604L27.0742 6.90918L26.2832 10H25.2822L23.9932 5.56152H24.9941L25.8535 8.71094L26.6348 5.56152H27.543Z" fill="white"/>
</svg>
