<svg width="28" height="28" viewBox="0 0 28 28" fill="none" xmlns="http://www.w3.org/2000/svg">
<g clip-path="url(#clip0)">
<path d="M8.19202 13.4702C8.19126 13.4702 8.19044 13.4702 8.18967 13.4702C7.71848 13.4728 7.03965 13.4754 6.61719 13.4749V8.21661C6.61719 7.9901 6.43355 7.80646 6.20703 7.80646C5.98052 7.80646 5.79688 7.9901 5.79688 8.21661V13.8803C5.79688 14.0801 5.94081 14.2508 6.13774 14.2846C6.25455 14.3046 8.05733 14.2912 8.19421 14.2905C8.42072 14.2892 8.60333 14.1045 8.60207 13.878C8.60086 13.6524 8.41744 13.4702 8.19202 13.4702Z" fill="white"/>
<path d="M10.7007 7.80649C10.4742 7.80649 10.2906 7.99013 10.2906 8.21664V13.8852C10.2906 14.1117 10.4742 14.2953 10.7007 14.2953C10.9273 14.2953 11.1109 14.1117 11.1109 13.8852V8.21664C11.1109 7.99013 10.9273 7.80649 10.7007 7.80649Z" fill="white"/>
<path d="M21.7929 8.65271C22.0195 8.65271 22.2031 8.46907 22.2031 8.24255C22.2031 8.01604 22.0195 7.8324 21.7929 7.8324H19.4263C19.1997 7.8324 19.0161 8.01604 19.0161 8.24255V13.8593C19.0161 14.0859 19.1997 14.2695 19.4263 14.2695H21.7929C22.0195 14.2695 22.2031 14.0859 22.2031 13.8593C22.2031 13.6328 22.0195 13.4492 21.7929 13.4492H19.8364V11.4611H21.6185C21.845 11.4611 22.0286 11.2775 22.0286 11.051C22.0286 10.8245 21.845 10.6408 21.6185 10.6408H19.8364V8.65271H21.7929Z" fill="white"/>
<path d="M17.2101 7.83783C16.9954 7.76635 16.763 7.88273 16.6916 8.09776L15.103 12.8796L13.4378 8.08212C13.3635 7.86807 13.1297 7.75492 12.9158 7.82913C12.7018 7.9034 12.5885 8.13713 12.6628 8.35113L14.6019 13.9372C14.678 14.1518 14.8815 14.2953 15.1089 14.2953H15.1125C15.3414 14.2937 15.5446 14.1471 15.6192 13.9277L17.4701 8.35632C17.5415 8.1414 17.4251 7.90925 17.2101 7.83783Z" fill="white"/>
<path d="M23.698 5.55283H4.30199C3.39238 5.55283 2.65234 6.29286 2.65234 7.20247V14.8994C2.65234 15.809 3.39238 16.549 4.30199 16.549H23.698C24.6076 16.549 25.3477 15.809 25.3477 14.8994V7.20247C25.3477 6.29286 24.6076 5.55283 23.698 5.55283ZM24.5273 14.8994C24.5273 15.3566 24.1553 15.7287 23.698 15.7287H4.30199C3.8447 15.7287 3.47266 15.3566 3.47266 14.8994V7.20247C3.47266 6.74518 3.8447 6.37314 4.30199 6.37314H23.698C24.1553 6.37314 24.5273 6.74518 24.5273 7.20247V14.8994Z" fill="white"/>
<path d="M27.5898 16.8321C27.3633 16.8321 27.1797 17.0157 27.1797 17.2423V17.5757C27.1797 18.893 26.108 19.9647 24.7908 19.9647H18.6893C18.182 19.9647 17.7087 20.2374 17.4544 20.6765L14.3489 26.0382C14.1934 26.3067 13.8064 26.3063 13.6511 26.0382L10.5456 20.6765C10.2913 20.2374 9.8181 19.9647 9.31071 19.9647H3.20923C1.89197 19.9647 0.820312 18.893 0.820312 17.5757V4.14941C0.820312 2.83221 1.89197 1.7605 3.20923 1.7605H3.55698C3.7835 1.7605 3.96714 1.57686 3.96714 1.35034C3.96714 1.12383 3.7835 0.940186 3.55698 0.940186H3.20923C1.43965 0.940186 0 2.37983 0 4.14941V17.5757C0 19.3453 1.43965 20.785 3.20923 20.785H9.31066C9.52634 20.785 9.72754 20.901 9.83571 21.0876L12.9413 26.4493C13.4124 27.2626 14.587 27.2638 15.0587 26.4493L18.1643 21.0876C18.2725 20.9008 18.4736 20.7849 18.6894 20.7849H24.7908C26.5604 20.7849 28.0001 19.3453 28.0001 17.5757V17.2422C28 17.0157 27.8164 16.8321 27.5898 16.8321Z" fill="white"/>
<path d="M24.7908 0.940186H5.47449C5.24797 0.940186 5.06433 1.12383 5.06433 1.35034C5.06433 1.57686 5.24797 1.7605 5.47449 1.7605H24.7908C26.108 1.7605 27.1797 2.83215 27.1797 4.14941V15.3783C27.1797 15.6048 27.3633 15.7884 27.5898 15.7884C27.8164 15.7884 28 15.6048 28 15.3783V4.14941C28 2.37983 26.5603 0.940186 24.7908 0.940186Z" fill="white"/>
</g>
<defs>
<clipPath id="clip0">
<rect width="28" height="28" fill="white"/>
</clipPath>
</defs>
</svg>
