<svg width="26" height="26" viewBox="0 0 26 26" fill="none" xmlns="http://www.w3.org/2000/svg">
<path d="M25.3178 20.0581L20.0553 16.5484C19.3874 16.1066 18.4922 16.2519 17.9985 16.8825L16.4656 18.8535C16.2686 19.1133 15.9105 19.1887 15.6255 19.0303L15.3339 18.8696C14.3673 18.3427 13.1645 17.6867 10.7413 15.2624C8.31799 12.838 7.66073 11.6343 7.13385 10.6694L6.97396 10.3778C6.81346 10.0928 6.88739 9.73315 7.14725 9.53456L9.11687 8.002C9.74707 7.50819 9.89264 6.61319 9.45136 5.94511L5.94188 0.682247C5.48964 0.00193255 4.58231 -0.202294 3.88219 0.218599L1.68161 1.54059C0.990173 1.94711 0.482893 2.60549 0.26614 3.37776C-0.526286 6.26527 0.069848 11.2487 7.41031 18.5905C13.2495 24.4296 17.5965 25.9999 20.5843 25.9999C21.2719 26.0029 21.9569 25.9134 22.6207 25.7339C23.3931 25.5174 24.0515 25.01 24.4577 24.3183L25.781 22.1189C26.2024 21.4186 25.9983 20.5106 25.3178 20.0581ZM25.0344 21.6743L23.7142 23.875C23.4225 24.3743 22.949 24.7414 22.3927 24.8994C19.7273 25.6312 15.0705 25.0251 8.02335 17.9774C0.976211 10.9298 0.370124 6.27309 1.10193 3.60702C1.26014 3.0501 1.62764 2.57589 2.12745 2.28371L4.32804 0.963452C4.63182 0.780654 5.02562 0.86926 5.22186 1.16448L7.12826 4.02685L8.72834 6.42689C8.91996 6.71668 8.85701 7.10507 8.58364 7.31951L6.61357 8.85207C6.01403 9.31053 5.84282 10.1401 6.21195 10.7985L6.36838 11.0827C6.92212 12.0984 7.61056 13.3619 10.124 15.875C12.6374 18.3882 13.9004 19.0767 14.9155 19.6304L15.2001 19.7873C15.8584 20.1564 16.6879 19.9852 17.1464 19.3856L18.6788 17.4154C18.8933 17.1422 19.2815 17.0793 19.5714 17.2707L24.8334 20.7804C25.1288 20.9765 25.2174 21.3706 25.0344 21.6743Z" fill="white"/>
<path d="M14.7326 4.33464C18.7986 4.33916 22.0936 7.63446 22.0982 11.7008C22.0982 11.9401 22.2921 12.134 22.5314 12.134C22.7707 12.134 22.9647 11.9401 22.9647 11.7008C22.9596 7.15604 19.277 3.47305 14.7326 3.46808C14.4933 3.46808 14.2993 3.66205 14.2993 3.90136C14.2993 4.14068 14.4933 4.33464 14.7326 4.33464Z" fill="white"/>
<path d="M14.7326 6.93447C17.3635 6.93756 19.4955 9.06971 19.4985 11.7008C19.4985 11.9401 19.6926 12.1341 19.9318 12.1341C20.1711 12.1341 20.3651 11.9401 20.3651 11.7008C20.3614 8.59128 17.8418 6.07146 14.7326 6.0679C14.4933 6.0679 14.2993 6.26187 14.2993 6.50118C14.2993 6.7405 14.4933 6.93447 14.7326 6.93447Z" fill="white"/>
<path d="M14.7326 9.53423C15.9284 9.53565 16.8975 10.5048 16.8989 11.7007C16.8989 11.9401 17.0929 12.134 17.3322 12.134C17.5714 12.134 17.7654 11.9401 17.7654 11.7007C17.7635 10.0264 16.4068 8.66954 14.7326 8.66766C14.4933 8.66766 14.2993 8.86163 14.2993 9.10095C14.2993 9.34026 14.4933 9.53423 14.7326 9.53423Z" fill="white"/>
</svg>
