<svg width="26" height="30" viewBox="0 0 26 30" fill="none" xmlns="http://www.w3.org/2000/svg">
<path d="M23.1739 10.1739C23.1739 4.55502 18.6189 0 13 0C7.3811 0 2.82609 4.55502 2.82609 10.1739C1.37348 10.3548 0 11.3043 0 13.5087V18.8217C0 21.3087 1.74087 22.213 3.3913 22.213H5.03043C5.34258 22.213 5.59565 21.96 5.59565 21.6478V10.7052C5.59565 10.3931 5.34258 10.14 5.03043 10.14H3.95652C3.95652 5.14546 8.00546 1.09652 13 1.09652C17.9945 1.09652 22.0435 5.14546 22.0435 10.14H20.9696C20.6574 10.14 20.4043 10.3931 20.4043 10.7052V21.6309C20.4043 21.943 20.6574 22.1961 20.9696 22.1961H22.0435C21.8852 26.0791 20.02 26.9891 16.2952 27.153V26.7743C16.2952 26.15 15.7891 25.6439 15.1648 25.6439H11.6096C10.9852 25.6439 10.4791 26.15 10.4791 26.7743V28.6113C10.4791 29.2357 10.9852 29.7417 11.6096 29.7417H15.1761C15.8004 29.7417 16.3065 29.2357 16.3065 28.6113V28.2835C19.89 28.1196 22.9874 27.3791 23.1739 22.1622C24.6265 21.9813 26 21.0317 26 18.8274V13.5143C26 11.2987 24.6322 10.3548 23.1739 10.1739ZM4.46522 11.2309V21.0657H3.36304C2.52652 21.0657 1.10217 20.7717 1.10217 18.8048V13.4917C1.10217 11.5417 2.50957 11.2309 3.36304 11.2309H4.46522ZM15.1761 27.7578V28.617H11.6096V26.78H15.1761V27.7578ZM24.8696 18.8217C24.8696 20.7717 23.4622 21.0826 22.6087 21.0826H21.5348V11.2704H22.637C23.4735 11.2704 24.8978 11.5643 24.8978 13.5313L24.8696 18.8217Z" fill="white"/>
</svg>
