<svg width="50" height="57" viewBox="0 0 50 57" fill="none" xmlns="http://www.w3.org/2000/svg">
<path d="M37.8988 0H12.1013C5.42856 0 0 5.06558 0 11.2921V31.1626C0 31.6251 0.401778 32 0.897361 32C1.39294 32 1.79472 31.6251 1.79472 31.1626V11.2921C1.79472 5.98902 6.41828 1.67472 12.1012 1.67472H37.8988C43.5818 1.67472 48.2053 5.98902 48.2053 11.2921V19.0162C48.2053 19.4787 48.6069 19.8536 49.1026 19.8536C49.5983 19.8536 50 19.4787 50 19.0162V11.2921C50 5.06558 44.5714 0 37.8988 0V0Z" fill="#035B96"/>
<path d="M49.1025 21C48.6068 21 48.2052 21.3788 48.2052 21.8459V36.4868C48.2052 41.8441 43.5816 46.2026 37.8985 46.2026H31.2726C30.3164 46.2026 29.4477 46.7348 29.0593 47.5587L25.5729 54.9571C25.4236 55.274 25.1224 55.3081 24.9999 55.3081C24.8774 55.3081 24.5762 55.2739 24.4269 54.957L20.9403 47.5585C20.5521 46.7347 19.6834 46.2025 18.7272 46.2025H12.1012C6.41817 46.2025 1.79472 41.844 1.79472 36.4867V34.1165C1.79472 33.6493 1.39294 33.2706 0.897361 33.2706C0.401778 33.2706 0 33.6493 0 34.1165V36.4867C0 42.7769 5.42856 47.8943 12.1012 47.8943H18.7272C18.9748 47.8943 19.1997 48.0321 19.3002 48.2454L22.7867 55.6438C23.181 56.4804 24.0289 57 24.9999 57C25.9708 57 26.8189 56.4804 27.2131 55.6439L30.6996 48.2455C30.8002 48.0323 31.0251 47.8944 31.2727 47.8944H37.8987C44.5714 47.8944 50 42.777 50 36.4868V21.8459C49.9999 21.3786 49.5982 21 49.1025 21Z" fill="#035B96"/>
<path d="M26.8866 33.5674H23.542C22.7012 33.5674 22.0172 32.8834 22.0172 32.0425V24.1677C22.0172 23.0279 22.9445 22.1006 24.0842 22.1006H25.2143C26.2804 22.1006 27.2727 21.6739 28.0084 20.899C28.7436 20.1248 29.1177 19.1089 29.0619 18.0383C28.9581 16.0358 27.3036 14.4357 25.2954 14.3952C23.3416 14.3539 21.6676 15.779 21.3986 17.706C21.2844 18.5287 20.577 19.1448 19.7523 19.1448H16.6463C16.1869 19.1448 15.7452 18.9504 15.4348 18.6117C15.1222 18.2706 14.966 17.81 15.0062 17.3479C15.0213 17.1734 15.0414 16.9968 15.0656 16.8229C15.7819 11.6898 20.2353 7.89788 25.4243 8.0021C30.7682 8.10966 35.171 12.3725 35.4478 17.7067C35.5952 20.5459 34.5999 23.2432 32.6456 25.3017C31.5353 26.4711 30.1382 27.3744 28.6054 27.9135C28.4876 27.9549 28.4114 28.0572 28.4114 28.174V32.0425C28.4114 32.8834 27.7274 33.5674 26.8866 33.5674ZM23.8118 31.7727H26.6166V28.174C26.6166 27.2987 27.1765 26.5136 28.0096 26.2205C29.2754 25.7753 30.4283 25.0302 31.3437 24.066C32.956 22.3681 33.7768 20.1426 33.6551 17.7997C33.4269 13.4006 29.7954 9.88523 25.3878 9.79645C21.1081 9.70995 17.4335 12.8377 16.8427 17.0707C16.8298 17.1632 16.8184 17.2567 16.8085 17.3502H19.6369C20.0821 14.5748 22.5135 12.5448 25.3312 12.6009C28.2755 12.6602 30.7013 15.0077 30.8539 17.9452C30.9354 19.5121 30.3869 21 29.3096 22.1348C28.2316 23.2701 26.777 23.8954 25.2139 23.8954H24.0839C23.9337 23.8954 23.8116 24.0175 23.8116 24.1677V31.7727H23.8118Z" fill="#035B96"/>
<path d="M25.239 43.0416C23.2969 43.0416 21.7168 41.4616 21.7168 39.5194C21.7168 37.5773 23.2969 35.9973 25.239 35.9973C27.1811 35.9973 28.7612 37.5773 28.7612 39.5194C28.7612 41.4617 27.1811 43.0416 25.239 43.0416ZM25.239 37.7921C24.2865 37.7921 23.5115 38.567 23.5115 39.5196C23.5115 40.4721 24.2865 41.247 25.239 41.247C26.1915 41.247 26.9665 40.4721 26.9665 39.5196C26.9665 38.567 26.1915 37.7921 25.239 37.7921Z" fill="#035B96"/>
</svg>
