<?xml version="1.0" standalone="no"?>
<!DOCTYPE svg PUBLIC "-//W3C//DTD SVG 20010904//EN"
 "http://www.w3.org/TR/2001/REC-SVG-20010904/DTD/svg10.dtd">
<svg version="1.0" xmlns="http://www.w3.org/2000/svg"
 width="1665.000000pt" height="1979.000000pt" viewBox="0 0 1665.000000 1979.000000"
 preserveAspectRatio="xMidYMid meet">

<g transform="translate(0.000000,1979.000000) scale(0.100000,-0.100000)"
fill="#000000" stroke="none">
<path d="M10035 16678 c-33 -82 -2173 -5543 -2171 -5544 0 -1 42 3 91 7 50 5
857 76 1795 159 938 82 1742 153 1788 158 45 4 82 4 82 0 0 -5 -18 -41 -39
-81 -22 -40 -223 -425 -446 -857 -224 -432 -873 -1683 -1443 -2780 -969 -1868
-1271 -2455 -1253 -2434 4 5 33 45 63 89 31 44 66 89 78 100 22 20 40 20 3444
25 l3421 5 80 23 c278 81 513 282 632 540 19 41 47 118 61 171 l27 96 5 4495
5 4495 23 95 c109 469 -174 980 -631 1136 -166 57 -17 54 -2842 54 -1431 0
-2637 3 -2680 7 l-77 6 5 39 c3 21 4 38 3 38 -2 0 -11 -19 -21 -42z"/>
<path d="M3910 16630 c-2596 -5 -2748 -6 -2805 -23 -188 -56 -306 -122 -427
-236 -145 -137 -236 -292 -284 -480 l-25 -96 1 -4694 c0 -3329 4 -4715 11
-4765 56 -360 330 -669 696 -783 l88 -28 3258 0 3259 0 715 1995 c393 1097
718 2003 720 2014 5 14 2 17 -13 12 -18 -5 -537 -116 -1344 -286 -206 -44
-706 -149 -1110 -235 -404 -86 -852 -180 -995 -211 -143 -30 -339 -72 -435
-93 -96 -21 -176 -37 -177 -36 -2 1 135 674 303 1496 285 1397 973 4768 1210
5928 57 283 103 517 102 520 -2 3 -1238 4 -2748 1z"/>
</g>
</svg>
